<?xml version="1.0" encoding="UTF-8"?><svg id="_レイヤー_2" xmlns="http://www.w3.org/2000/svg" viewBox="0 0 1537 836.32"><defs><style>.cls-1{letter-spacing:.01em;}.cls-1,.cls-2,.cls-3,.cls-4,.cls-5,.cls-6,.cls-7,.cls-8,.cls-9,.cls-10,.cls-11,.cls-12,.cls-13,.cls-14,.cls-15,.cls-16,.cls-17,.cls-18,.cls-19,.cls-20,.cls-21,.cls-22,.cls-23,.cls-24,.cls-25,.cls-26,.cls-27,.cls-28,.cls-29{font-size:26px;}.cls-30{font-size:50px;}.cls-30,.cls-3,.cls-4,.cls-5,.cls-6,.cls-7,.cls-15,.cls-19,.cls-22,.cls-31,.cls-32,.cls-33,.cls-34,.cls-28,.cls-35,.cls-36,.cls-37,.cls-38,.cls-39,.cls-40,.cls-41,.cls-42{font-family:HiraginoSans-W4-83pv-RKSJ-H, 'Hiragino Sans';}.cls-2{letter-spacing:0em;}.cls-3,.cls-12,.cls-43{letter-spacing:.05em;}.cls-4,.cls-11,.cls-44{letter-spacing:.05em;}.cls-5{letter-spacing:.04em;}.cls-6{letter-spacing:.03em;}.cls-7,.cls-8{letter-spacing:.04em;}.cls-9{letter-spacing:.02em;}.cls-10{letter-spacing:.03em;}.cls-13{letter-spacing:.03em;}.cls-14,.cls-19{letter-spacing:.03em;}.cls-15,.cls-18{letter-spacing:.06em;}.cls-45{letter-spacing:0em;}.cls-45,.cls-46,.cls-47,.cls-32,.cls-48,.cls-33,.cls-49,.cls-36,.cls-37,.cls-38,.cls-39,.cls-50,.cls-51,.cls-52,.cls-53,.cls-54,.cls-40,.cls-55,.cls-56,.cls-57,.cls-58,.cls-59,.cls-60,.cls-61,.cls-62,.cls-63,.cls-64,.cls-65,.cls-41,.cls-66,.cls-42,.cls-67,.cls-68,.cls-69,.cls-70,.cls-71,.cls-72,.cls-73,.cls-74,.cls-75,.cls-76,.cls-77,.cls-78,.cls-79,.cls-80,.cls-81{font-size:32px;}.cls-16{letter-spacing:.06em;}.cls-17{letter-spacing:.06em;}.cls-20{letter-spacing:-.05em;}.cls-82{fill:#d7d5b7;}.cls-82,.cls-83{opacity:.7;}.cls-21{letter-spacing:-.08em;}.cls-22,.cls-25,.cls-84{letter-spacing:-.45em;}.cls-23{letter-spacing:-.07em;}.cls-24{letter-spacing:-.07em;}.cls-26{letter-spacing:-.45em;}.cls-85{stroke:#f2b017;stroke-width:8.02px;}.cls-85,.cls-86{fill:none;stroke-miterlimit:10;}.cls-46{letter-spacing:-.1em;}.cls-46,.cls-47,.cls-48,.cls-49,.cls-50,.cls-51,.cls-52,.cls-53,.cls-54{font-family:HiraginoSans-W6-83pv-RKSJ-H, 'Hiragino Sans';}.cls-46,.cls-47,.cls-48,.cls-49,.cls-50,.cls-51,.cls-52,.cls-53,.cls-54,.cls-87{fill:#ff6200;}.cls-47{letter-spacing:-.11em;}.cls-27{letter-spacing:0em;}.cls-48{letter-spacing:-.02em;}.cls-33,.cls-52,.cls-60,.cls-88{letter-spacing:.05em;}.cls-34{font-size:25px;}.cls-35{fill:#fff;font-size:35px;}.cls-29{letter-spacing:0em;}.cls-89{letter-spacing:0em;}.cls-90{letter-spacing:0em;}.cls-36{letter-spacing:-.04em;}.cls-37{letter-spacing:-.05em;}.cls-38{letter-spacing:-.05em;}.cls-39{letter-spacing:-.02em;}.cls-50{letter-spacing:.05em;}.cls-51{letter-spacing:.05em;}.cls-53{letter-spacing:.03em;}.cls-54,.cls-91{letter-spacing:.04em;}.cls-92{letter-spacing:0em;}.cls-40{letter-spacing:-.04em;}.cls-55,.cls-93{letter-spacing:.04em;}.cls-56{letter-spacing:.04em;}.cls-57{letter-spacing:.04em;}.cls-58{letter-spacing:.03em;}.cls-59,.cls-94{letter-spacing:.05em;}.cls-61{letter-spacing:.04em;}.cls-62{letter-spacing:.01em;}.cls-63,.cls-95{letter-spacing:.02em;}.cls-64{letter-spacing:.02em;}.cls-65{letter-spacing:.02em;}.cls-41{letter-spacing:-.06em;}.cls-66{letter-spacing:.06em;}.cls-42{letter-spacing:-.09em;}.cls-67{letter-spacing:-.01em;}.cls-68{letter-spacing:-.03em;}.cls-69{letter-spacing:-.03em;}.cls-70{letter-spacing:-.04em;}.cls-71{letter-spacing:-.05em;}.cls-72{letter-spacing:-.05em;}.cls-73{letter-spacing:-.02em;}.cls-74{letter-spacing:-.02em;}.cls-96{letter-spacing:-.1em;}.cls-97{letter-spacing:-.11em;}.cls-75{letter-spacing:-.11em;}.cls-98{letter-spacing:-.08em;}.cls-99{letter-spacing:-.07em;}.cls-100{letter-spacing:-.09em;}.cls-101{letter-spacing:-.08em;}.cls-102{letter-spacing:-.08em;}.cls-103{letter-spacing:-.09em;}.cls-104{letter-spacing:-.09em;}.cls-105{letter-spacing:-.09em;}.cls-106{letter-spacing:-.06em;}.cls-107{letter-spacing:-.06em;}.cls-108{letter-spacing:-.07em;}.cls-76{letter-spacing:-.14em;}.cls-109{letter-spacing:-.06em;}.cls-110{letter-spacing:-.07em;}.cls-111{letter-spacing:-.07em;}.cls-112{letter-spacing:-.08em;}.cls-113{letter-spacing:-.08em;}.cls-114{letter-spacing:-.08em;}.cls-115{letter-spacing:-.06em;}.cls-116{letter-spacing:-.06em;}.cls-117{letter-spacing:-.06em;}.cls-118{letter-spacing:-.18em;}.cls-119{letter-spacing:-.2em;}.cls-120{letter-spacing:-.2em;}.cls-121{letter-spacing:-.2em;}.cls-122{letter-spacing:-.16em;}.cls-77{letter-spacing:-.06em;}.cls-123{letter-spacing:-.17em;}.cls-78{letter-spacing:-.06em;}.cls-79{letter-spacing:-.07em;}.cls-124{letter-spacing:-.15em;}.cls-125{letter-spacing:-.15em;}.cls-80{letter-spacing:-.08em;}.cls-126{letter-spacing:-.12em;}.cls-127{letter-spacing:-.02em;}.cls-128{letter-spacing:-.03em;}.cls-129{letter-spacing:-.03em;}.cls-81{letter-spacing:-.07em;}.cls-130{letter-spacing:-.02em;}.cls-131{letter-spacing:-.02em;}.cls-132{letter-spacing:-.02em;}.cls-133{letter-spacing:-.05em;}.cls-134{letter-spacing:-.05em;}.cls-135{letter-spacing:-.06em;}.cls-136{letter-spacing:-.05em;}.cls-137{letter-spacing:-.04em;}.cls-138{letter-spacing:-.03em;}.cls-139{letter-spacing:-.01em;}.cls-140{letter-spacing:-.01em;}.cls-141{letter-spacing:0em;}.cls-86{stroke:#d7d5b7;}.cls-83{fill:#494949;font-family:NotoSerifJP-Regular-83pv-RKSJ-H, 'Noto Serif JP';font-size:39px;}.cls-142{letter-spacing:.1em;}.cls-143{letter-spacing:.1em;}.cls-144{letter-spacing:.1em;}.cls-145{letter-spacing:.1em;}.cls-146{letter-spacing:.07em;}.cls-147{letter-spacing:.07em;}.cls-148{letter-spacing:.07em;}.cls-149{letter-spacing:.08em;}.cls-150{letter-spacing:.09em;}.cls-151{letter-spacing:.06em;}.cls-152{letter-spacing:.06em;}.cls-153{letter-spacing:.08em;}.cls-154{letter-spacing:.05em;}.cls-155{letter-spacing:.06em;}.cls-156{letter-spacing:.05em;}.cls-157{letter-spacing:.06em;}.cls-158{letter-spacing:.06em;}.cls-159{letter-spacing:.06em;}.cls-160{letter-spacing:.06em;}.cls-161{letter-spacing:.06em;}.cls-162{letter-spacing:.11em;}.cls-163{letter-spacing:.12em;}.cls-164{letter-spacing:.03em;}.cls-165{letter-spacing:.03em;}.cls-166{letter-spacing:.03em;}.cls-167{letter-spacing:.02em;}.cls-168{letter-spacing:.03em;}.cls-169{letter-spacing:.03em;}.cls-170{letter-spacing:.03em;}.cls-171{letter-spacing:.03em;}.cls-172{letter-spacing:.03em;}.cls-173{letter-spacing:.02em;}.cls-174{letter-spacing:.02em;}.cls-175{letter-spacing:.02em;}.cls-176{letter-spacing:.02em;}.cls-177{letter-spacing:.02em;}.cls-178{letter-spacing:.02em;}.cls-179{letter-spacing:.02em;}.cls-180{letter-spacing:.02em;}.cls-181{letter-spacing:.01em;}.cls-182{letter-spacing:.01em;}.cls-183{letter-spacing:.01em;}.cls-184{letter-spacing:.05em;}.cls-185{letter-spacing:.04em;}.cls-186{letter-spacing:.05em;}.cls-187{letter-spacing:.05em;}.cls-188{letter-spacing:.06em;}.cls-189{letter-spacing:.05em;}.cls-190{letter-spacing:.05em;}.cls-191{letter-spacing:.04em;}.cls-192{letter-spacing:.04em;}.cls-193{letter-spacing:.04em;}.cls-194{letter-spacing:.04em;}.cls-195{letter-spacing:.04em;}.cls-196{letter-spacing:.04em;}.cls-197{letter-spacing:.05em;}.cls-198{letter-spacing:.05em;}.cls-199{letter-spacing:.04em;}.cls-200{letter-spacing:.03em;}.cls-201{letter-spacing:.03em;}.cls-202{letter-spacing:.04em;}.cls-203{letter-spacing:.04em;}.cls-204{letter-spacing:.03em;}.cls-205{letter-spacing:.03em;}.cls-206{letter-spacing:.04em;}.cls-207{letter-spacing:.04em;}.cls-208{letter-spacing:.03em;}.cls-209{letter-spacing:.03em;}.cls-210{letter-spacing:.03em;}.cls-211{letter-spacing:.03em;}.cls-212{letter-spacing:.03em;}.cls-213{letter-spacing:.03em;}.cls-214{letter-spacing:.03em;}.cls-215{letter-spacing:0em;}.cls-216{letter-spacing:0em;}.cls-217{letter-spacing:.01em;}.cls-218{letter-spacing:0em;}.cls-219{letter-spacing:0em;}.cls-220{letter-spacing:.01em;}.cls-221{letter-spacing:.01em;}.cls-222{letter-spacing:0em;}</style></defs><g id="_レイヤー_1-2"><text class="cls-30" transform="translate(74.17 66)"><tspan class="cls-158" x="0" y="0">団</tspan><tspan class="cls-161" x="52.96" y="0">体</tspan><tspan class="cls-148" x="105.81" y="0">限</tspan><tspan class="cls-216" x="159.54" y="0">定</tspan><tspan class="cls-141" x="209.84" y="0">プ</tspan><tspan class="cls-100" x="259.47" y="0">ラ</tspan><tspan class="cls-118" x="305.21" y="0">ン</tspan></text><text class="cls-30" transform="translate(420.25 66) scale(1.5)"><tspan class="cls-111" x="0" y="0">1</tspan><tspan class="cls-197" x="30.4" y="0">5</tspan></text><text class="cls-30" transform="translate(519.82 66)"><tspan class="cls-190" x="0" y="0">大</tspan><tspan class="cls-152" x="52.61" y="0">特</tspan><tspan class="cls-146" x="105.59" y="0">典</tspan></text><text class="cls-34" transform="translate(136.5 132.9)"><tspan class="cls-160" x="0" y="0">大</tspan><tspan class="cls-114" x="26.41" y="0">人</tspan><tspan class="cls-133" x="49.46" y="0">1</tspan><tspan class="cls-155" x="65.03" y="0">0</tspan><tspan class="cls-206" x="83.29" y="0">0</tspan><tspan class="cls-177" x="101.08" y="0">名</tspan><tspan class="cls-195" x="126.52" y="0">様</tspan><tspan class="cls-189" x="152.52" y="0">以</tspan><tspan class="cls-131" x="178.86" y="0">上</tspan><tspan class="cls-137" x="203.37" y="0">の</tspan><tspan class="cls-168" x="227.26" y="0">ご</tspan><tspan class="cls-212" x="252.95" y="0">利</tspan><tspan class="cls-170" x="278.65" y="0">用</tspan><tspan class="cls-194" x="304.33" y="0">特</tspan><tspan class="cls-219" x="330.4" y="0">典</tspan><tspan class="cls-90" x="355.63" y="0">に</tspan><tspan class="cls-135" x="380.7" y="0">な</tspan><tspan class="cls-105" x="404.32" y="0">り</tspan><tspan class="cls-132" x="426.96" y="0">ま</tspan><tspan class="cls-187" x="451.58" y="0">す</tspan></text><text class="cls-32" transform="translate(787.99 141.56)"><tspan class="cls-145" x="0" y="0">新</tspan><tspan class="cls-147" x="35.05" y="0">年</tspan><tspan class="cls-142" x="69.37" y="0">会</tspan><tspan class="cls-124" x="104.57" y="0">・</tspan><tspan class="cls-162" x="131.77" y="0">歓</tspan><tspan class="cls-163" x="167.43" y="0">送</tspan><tspan class="cls-149" x="203.2" y="0">迎</tspan><tspan class="cls-143" x="237.85" y="0">会</tspan><tspan class="cls-125" x="273.05" y="0">・</tspan><tspan class="cls-159" x="300.25" y="0">打</tspan><tspan class="cls-215" x="334.14" y="0">ち</tspan><tspan class="cls-193" x="366.36" y="0">上</tspan><tspan class="cls-143" x="399.71" y="0">げ</tspan><tspan class="cls-125" x="434.91" y="0">・</tspan><tspan class="cls-144" x="462.11" y="0">結</tspan><tspan class="cls-153" x="497.16" y="0">婚</tspan><tspan class="cls-150" x="531.61" y="0">式</tspan><tspan class="cls-181" x="566.42" y="0">な</tspan><tspan class="cls-142" x="598.89" y="0">ど</tspan></text><rect class="cls-82" x="0" y="232.14" width="1537" height="50"/><polygon class="cls-82" points="171.01 282.14 0 282.14 0 232.14 212.71 232.14 171.01 282.14"/><polygon class="cls-82" points="1365.99 232.14 1537 232.14 1537 282.14 1324.29 282.14 1365.99 232.14"/><text class="cls-34" transform="translate(720.82 264.67)"><tspan class="cls-194" x="0" y="0">特</tspan><tspan class="cls-211" x="26.08" y="0">典</tspan><tspan class="cls-174" x="51.78" y="0">内</tspan><tspan class="cls-187" x="77.35" y="0">容</tspan></text><rect class="cls-87" x="761.18" y="31.83" width="203.7" height="66.98" rx="32.65" ry="32.65" transform="translate(-.36 4.92) rotate(-.33)"/><text class="cls-35" transform="translate(809.96 80.37) rotate(-.33)"><tspan class="cls-183" x="0" y="0">忘</tspan><tspan class="cls-173" x="35.49" y="0">年</tspan><tspan class="cls-187" x="71.24" y="0">会</tspan></text><rect class="cls-87" x="1001.59" y="30.46" width="203.7" height="66.98" rx="32.65" ry="32.65" transform="translate(-.35 6.3) rotate(-.33)"/><text class="cls-35" transform="translate(1049.7 79) rotate(-.33)"><tspan class="cls-184" x="0" y="0">懇</tspan><tspan class="cls-213" x="36.58" y="0">親</tspan><tspan class="cls-187" x="72.57" y="0">会</tspan></text><rect class="cls-87" x="1242" y="29.09" width="203.7" height="66.98" rx="32.65" ry="32.65" transform="translate(-.34 7.67) rotate(-.33)"/><text class="cls-35" transform="translate(1271.29 77.74) rotate(-.33)"><tspan class="cls-154" x="0" y="0">社</tspan><tspan class="cls-151" x="36.84" y="0">員</tspan><tspan class="cls-202" x="73.97" y="0">旅</tspan><tspan class="cls-187" x="110.2" y="0">行</tspan></text><line class="cls-85" x1="75.16" y1="87.65" x2="670.41" y2="87.65"/><text class="cls-32" transform="translate(135.38 376.23)"><tspan class="cls-117" x="0" y="0">ス</tspan><tspan class="cls-103" x="30.01" y="0">タ</tspan><tspan class="cls-122" x="59.04" y="0">ッ</tspan><tspan class="cls-106" x="85.81" y="0">フ</tspan><tspan class="cls-128" x="115.9" y="0">に</tspan><tspan class="cls-97" x="147.08" y="0">よ</tspan><tspan class="cls-140" x="175.57" y="0">る</tspan><tspan class="cls-157" x="207.2" y="0">会</tspan><tspan class="cls-214" x="241.09" y="0">場</tspan><tspan class="cls-191" x="274.08" y="0">設</tspan><tspan class="cls-178" x="307.28" y="0">営</tspan><tspan class="cls-220" x="339.8" y="0">サ</tspan><tspan class="cls-138" x="372.14" y="0">ポ</tspan><tspan class="cls-102" x="403.08" y="0">ー</tspan><tspan class="cls-186" x="432.48" y="0">ト</tspan></text><text class="cls-28" transform="translate(122.38 416.51)"><tspan class="cls-44" x="0" y="0">（</tspan><tspan class="cls-98" x="27.3" y="0">イ</tspan><tspan class="cls-121" x="51.34" y="0">ス・</tspan><tspan class="cls-218" x="92.94" y="0">テ</tspan><tspan class="cls-101" x="119.18" y="0">ー</tspan><tspan class="cls-134" x="143.09" y="0">ブ</tspan><tspan class="cls-120" x="167.83" y="0">ル・</tspan><tspan class="cls-127" x="209.43" y="0">グ</tspan><tspan class="cls-126" x="234.86" y="0">リ</tspan><tspan class="cls-121" x="257.67" y="0">ル・</tspan><tspan class="cls-109" x="299.27" y="0">タ</tspan><tspan class="cls-104" x="323.59" y="0">ー</tspan><tspan class="cls-198" x="347.15" y="0">プ</tspan><tspan class="cls-43" x="374.35" y="0">等</tspan><tspan class="cls-84" x="401.65" y="0">）</tspan></text><text class="cls-31" transform="translate(135.38 527.1)"><tspan class="cls-78" x="0" y="0">ク</tspan><tspan class="cls-73" x="29.96" y="0">ー</tspan><tspan class="cls-74" x="61.47" y="0">ラ</tspan><tspan class="cls-69" x="92.86" y="0">ー</tspan><tspan class="cls-72" x="123.82" y="0">ボ</tspan><tspan class="cls-81" x="154.21" y="0">ッ</tspan><tspan class="cls-80" x="183.84" y="0">ク</tspan><tspan class="cls-77" x="213.25" y="0">ス</tspan><tspan class="cls-71" x="243.27" y="0">と</tspan><tspan class="cls-66" x="273.77" y="0">保</tspan><tspan class="cls-57" x="307.68" y="0">冷</tspan><tspan class="cls-61" x="341.08" y="0">剤</tspan><tspan class="cls-63" x="374.27" y="0">貸</tspan><tspan class="cls-60" x="406.8" y="0">出</tspan><tspan class="cls-11" x="440.4" y="-2.28"> </tspan><tspan class="cls-1" x="450.36" y="-2.28">※</tspan><tspan class="cls-13" x="476.64" y="-2.28">上</tspan><tspan class="cls-27" x="503.3" y="-2.28">限</tspan><tspan class="cls-24" x="529.32" y="-2.28">あ</tspan><tspan class="cls-11" x="553.46" y="-2.28">り</tspan></text><text transform="translate(135.38 659.25)"><tspan><tspan class="cls-42" x="0" y="0">ビ</tspan><tspan class="cls-41" x="29.17" y="0">ー</tspan><tspan class="cls-36" x="59.27" y="0">ル</tspan><tspan class="cls-39" x="89.89" y="0">サ</tspan><tspan class="cls-37" x="121.39" y="0">ー</tspan><tspan class="cls-38" x="151.86" y="0">バ</tspan><tspan class="cls-40" x="182.33" y="0">ー</tspan><tspan class="cls-47" x="213.16" y="0">レ</tspan><tspan class="cls-48" x="241.58" y="0">ン</tspan><tspan class="cls-46" x="272.91" y="0">タ</tspan><tspan class="cls-53" x="301.87" y="0">ル</tspan><tspan class="cls-54" x="334.97" y="0">無</tspan><tspan class="cls-52" x="368.12" y="0">料</tspan><tspan class="cls-33" x="401.72" y="0"> </tspan><tspan class="cls-4" x="400.97" y="-2.28">（</tspan><tspan class="cls-5" x="428.27" y="-2.28">3</tspan><tspan class="cls-3" x="446.72" y="-2.28">L </tspan><tspan class="cls-6" x="473.92" y="-2.28">5</tspan><tspan class="cls-19" x="492.19" y="-2.28">,</tspan><tspan class="cls-15" x="499.34" y="-2.28">00</tspan><tspan class="cls-7" x="537.3" y="-2.28">0</tspan><tspan class="cls-4" x="555.8" y="-2.28">円</tspan><tspan class="cls-22" x="583.1" y="-2.28">）</tspan></tspan></text><text class="cls-32" transform="translate(135.38 785.74)"><tspan class="cls-96" x="0" y="0">マ</tspan><tspan class="cls-123" x="28.92" y="0">イ</tspan><tspan class="cls-119" x="55.32" y="0">ク・</tspan><tspan class="cls-107" x="106.52" y="0">ス</tspan><tspan class="cls-108" x="136.62" y="0">ピ</tspan><tspan class="cls-116" x="166.39" y="0">ー</tspan><tspan class="cls-139" x="196.58" y="0">カ</tspan><tspan class="cls-208" x="228.25" y="0">ー</tspan><tspan class="cls-180" x="261.09" y="0">等</tspan><tspan class="cls-179" x="293.69" y="0">の</tspan><tspan class="cls-196" x="326.21" y="0">音</tspan><tspan class="cls-171" x="359.51" y="0">響</tspan><tspan class="cls-93" x="392.38" y="0">設</tspan><tspan class="cls-88" x="425.52" y="0">備 </tspan></text><text class="cls-51" transform="translate(606.76 783.31) scale(.8)"><tspan x="0" y="0">▶︎</tspan></text><text class="cls-49" transform="translate(633.64 785.74)"><tspan class="cls-94" x="0" y="0"> </tspan><tspan class="cls-91" x="12.26" y="0">無</tspan><tspan class="cls-186" x="45.4" y="0">料</tspan></text><line class="cls-86" x1="53.56" y1="446.11" x2="740.44" y2="446.11"/><line class="cls-86" x1="53.56" y1="576.02" x2="740.44" y2="576.02"/><line class="cls-86" x1="53.56" y1="705.92" x2="740.44" y2="705.92"/><line class="cls-86" x1="53.56" y1="835.82" x2="740.44" y2="835.82"/><line class="cls-86" x1="803.56" y1="835.82" x2="1490.44" y2="835.82"/><text class="cls-28" transform="translate(877.38 416.51)"><tspan class="cls-44" x="0" y="0">（</tspan><tspan class="cls-188" x="27.3" y="0">投</tspan><tspan class="cls-205" x="54.74" y="0">影</tspan><tspan class="cls-200" x="81.59" y="0">時</tspan><tspan class="cls-121" x="108.37" y="0">間・</tspan><tspan class="cls-169" x="149.97" y="0">場</tspan><tspan class="cls-218" x="176.67" y="0">所</tspan><tspan class="cls-89" x="202.91" y="0">は</tspan><tspan class="cls-156" x="228.95" y="0">要</tspan><tspan class="cls-199" x="256.32" y="0">確</tspan><tspan class="cls-44" x="283.46" y="0">認　</tspan><tspan class="cls-222" x="338.06" y="0">※</tspan><tspan class="cls-129" x="364.31" y="0">夜</tspan><tspan class="cls-167" x="389.61" y="0">の</tspan><tspan class="cls-176" x="416.23" y="0">部</tspan><tspan class="cls-92" x="442.82" y="0">の</tspan><tspan class="cls-44" x="468.82" y="0">み</tspan><tspan class="cls-84" x="496.12" y="0">）</tspan></text><text class="cls-32" transform="translate(890.38 376.23)"><tspan class="cls-221" x="0" y="0">プ</tspan><tspan class="cls-136" x="32.37" y="0">ロ</tspan><tspan class="cls-112" x="62.89" y="0">ジ</tspan><tspan class="cls-99" x="92.47" y="0">ェ</tspan><tspan class="cls-113" x="122.08" y="0">ク</tspan><tspan class="cls-110" x="151.56" y="0">タ</tspan><tspan class="cls-130" x="181.4" y="0">ー</tspan><tspan class="cls-95" x="212.66" y="0">貸</tspan><tspan class="cls-88" x="245.2" y="0">出 </tspan></text><text class="cls-50" transform="translate(1181.43 373.79) scale(.8)"><tspan x="0" y="0">▶︎</tspan></text><text class="cls-49" transform="translate(1208.31 376.23)"><tspan class="cls-88" x="0" y="0"> </tspan><tspan class="cls-203" x="12.26" y="0">無</tspan><tspan class="cls-88" x="45.4" y="0">料</tspan></text><text class="cls-28" transform="translate(1230.38 801.95)"><tspan class="cls-166" x="0" y="0">※</tspan><tspan class="cls-182" x="26.65" y="0">通</tspan><tspan class="cls-172" x="53.02" y="0">常</tspan><tspan class="cls-201" x="79.74" y="0">不</tspan><tspan class="cls-44" x="106.63" y="0">可</tspan></text><text class="cls-32" transform="translate(890.38 525.08)"><tspan class="cls-217" x="0" y="0">通</tspan><tspan class="cls-115" x="32.39" y="0">常</tspan><tspan class="cls-165" x="62.53" y="0">ご</tspan><tspan class="cls-164" x="95.33" y="0">利</tspan><tspan class="cls-175" x="128.15" y="0">用</tspan><tspan class="cls-210" x="160.92" y="0">時</tspan><tspan class="cls-164" x="193.81" y="0">間</tspan><tspan class="cls-209" x="226.63" y="0">3</tspan><tspan class="cls-210" x="249.09" y="0">時</tspan><tspan class="cls-94" x="281.99" y="0">間 </tspan></text><text class="cls-50" transform="translate(1218.23 522.65) scale(.8)"><tspan x="0" y="0">▶︎</tspan></text><text class="cls-49" transform="translate(1245.11 525.08)"><tspan class="cls-88" x="0" y="0"> </tspan><tspan class="cls-207" x="12.26" y="0">4</tspan><tspan class="cls-192" x="36.2" y="0">時</tspan><tspan class="cls-186" x="69.35" y="0">間</tspan></text><text class="cls-31" transform="translate(890.38 659.25)"><tspan class="cls-55" x="0" y="0">C</tspan><tspan class="cls-67" x="25.65" y="0">O</tspan><tspan class="cls-79" x="51.1" y="0">Y</tspan><tspan class="cls-68" x="71.6" y="0">A</tspan><tspan class="cls-76" x="95.21" y="0">レ</tspan><tspan class="cls-70" x="122.67" y="0">ン</tspan><tspan class="cls-75" x="153.43" y="0">タ</tspan><tspan class="cls-59" x="181.75" y="0">ル</tspan><tspan class="cls-11" x="202.35" y="-2.28">（</tspan><tspan class="cls-21" x="229.65" y="-2.28">各</tspan><tspan class="cls-20" x="253.55" y="-2.28">1</tspan><tspan class="cls-10" x="269.72" y="-2.28">0</tspan><tspan class="cls-14" x="287.91" y="-2.28">,</tspan><tspan class="cls-18" x="295.07" y="-2.28">00</tspan><tspan class="cls-8" x="333.02" y="-2.28">0</tspan><tspan class="cls-11" x="351.52" y="-2.28">円</tspan><tspan class="cls-26" x="378.82" y="-2.28">）</tspan><tspan class="cls-60" x="393.12" y="0"> </tspan></text><text class="cls-50" transform="translate(1295.76 656.81) scale(.8)"><tspan x="0" y="0">▶︎</tspan></text><text class="cls-49" transform="translate(1322.64 659.25)"><tspan class="cls-88" x="0" y="0"> </tspan><tspan class="cls-204" x="12.26" y="0">2</tspan><tspan class="cls-185" x="36.09" y="0">棟</tspan><tspan class="cls-91" x="69.49" y="0">無</tspan><tspan class="cls-186" x="102.63" y="0">料</tspan></text><text class="cls-31" transform="translate(890.38 767.8)"><tspan class="cls-64" x="0" y="0">行</tspan><tspan class="cls-65" x="32.66" y="0">事</tspan><tspan class="cls-45" x="65.44" y="0">の</tspan><tspan class="cls-58" x="97.48" y="0">記</tspan><tspan class="cls-62" x="130.43" y="0">録</tspan><tspan class="cls-56" x="162.9" y="0">写</tspan><tspan class="cls-60" x="196.13" y="0">真</tspan><tspan class="cls-11" x="216.73" y="-2.28">（</tspan><tspan class="cls-16" x="244.03" y="-2.28">撮</tspan><tspan class="cls-11" x="271.62" y="-2.28">影</tspan><tspan class="cls-26" x="298.92" y="-2.28">、</tspan><tspan class="cls-2" x="313.22" y="-2.28">デ</tspan><tspan class="cls-29" x="339.42" y="-2.28">ー</tspan><tspan class="cls-23" x="365.51" y="-2.28">タ</tspan><tspan class="cls-9" x="389.6" y="-2.28">の</tspan><tspan class="cls-17" x="416.22" y="-2.28">提</tspan><tspan class="cls-12" x="443.68" y="-2.28">供</tspan><tspan class="cls-25" x="470.98" y="-2.28">）</tspan><tspan class="cls-59" x="485.28" y="0"> </tspan></text><text class="cls-51" transform="translate(1387.91 765.37) scale(.8)"><tspan x="0" y="0">▶︎</tspan></text><text class="cls-49" transform="translate(1414.79 767.8)"><tspan class="cls-94" x="0" y="0"> </tspan><tspan class="cls-91" x="12.25" y="0">無</tspan><tspan class="cls-186" x="45.4" y="0">料</tspan></text><line class="cls-86" x1="803.56" y1="447.03" x2="1490.44" y2="447.03"/><line class="cls-86" x1="803.56" y1="576.93" x2="1490.44" y2="576.93"/><line class="cls-86" x1="803.56" y1="706.84" x2="1490.44" y2="706.84"/><text class="cls-83" transform="translate(70.99 399.61)"><tspan x="0" y="0">1</tspan><tspan x="0" y="130">2</tspan><tspan x="0" y="260">3</tspan><tspan x="0" y="390">4</tspan></text><text class="cls-83" transform="translate(829.99 399.61)"><tspan x="0" y="0">5</tspan><tspan x="0" y="130">6</tspan><tspan x="0" y="260">7</tspan><tspan x="0" y="390">8</tspan></text></g></svg>