<?xml version="1.0" encoding="UTF-8"?><svg id="_レイヤー_2" xmlns="http://www.w3.org/2000/svg" viewBox="0 0 1537 192.09"><defs><style>.cls-1{fill:#d7d5b7;opacity:.7;}.cls-2{font-size:32px;}.cls-2,.cls-3{font-family:HiraginoSans-W3-83pv-RKSJ-H, 'Hiragino Sans';}.cls-3{font-size:26px;}.cls-4{font-family:HiraginoSans-W4-83pv-RKSJ-H, 'Hiragino Sans';font-size:25px;}.cls-5{letter-spacing:-.45em;}.cls-6{letter-spacing:-.07em;}.cls-7{letter-spacing:-.09em;}.cls-8{letter-spacing:-.07em;}.cls-9{letter-spacing:-.07em;}.cls-10{letter-spacing:-.07em;}.cls-11{letter-spacing:-.13em;}.cls-12{letter-spacing:-.02em;}.cls-13{letter-spacing:-.04em;}.cls-14{letter-spacing:-.04em;}.cls-15{letter-spacing:-.04em;}.cls-16{letter-spacing:-.03em;}.cls-17{letter-spacing:.06em;}.cls-18{letter-spacing:.06em;}.cls-19{letter-spacing:.06em;}.cls-20{letter-spacing:.06em;}.cls-21{letter-spacing:.03em;}.cls-22{letter-spacing:.03em;}.cls-23{letter-spacing:.03em;}.cls-24{letter-spacing:.02em;}.cls-25{letter-spacing:.02em;}.cls-26{letter-spacing:.02em;}.cls-27{letter-spacing:.05em;}.cls-28{letter-spacing:.05em;}.cls-29{letter-spacing:.05em;}.cls-30{letter-spacing:.05em;}.cls-31{letter-spacing:.05em;}.cls-32{letter-spacing:.05em;}.cls-33{letter-spacing:.04em;}.cls-34{letter-spacing:.05em;}.cls-35{letter-spacing:.05em;}.cls-36{letter-spacing:.05em;}.cls-37{letter-spacing:.03em;}.cls-38{letter-spacing:.04em;}.cls-39{letter-spacing:.03em;}.cls-40{letter-spacing:.03em;}.cls-41{letter-spacing:.03em;}.cls-42{letter-spacing:.03em;}.cls-43{letter-spacing:.03em;}.cls-44{letter-spacing:.03em;}.cls-45{letter-spacing:0em;}</style></defs><g id="_レイヤー_1-2"><rect class="cls-1" x="0" y="0" width="1537" height="50"/><polygon class="cls-1" points="171.01 50 0 50 0 0 212.71 0 171.01 50"/><polygon class="cls-1" points="1365.99 0 1537 0 1537 50 1324.29 50 1365.99 0"/><text class="cls-4" transform="translate(708.09 36.18)"><tspan class="cls-21" x="0" y="0">ご</tspan><tspan class="cls-43" x="25.69" y="0">利</tspan><tspan class="cls-23" x="51.4" y="0">用</tspan><tspan class="cls-44" x="77.05" y="0">時</tspan><tspan class="cls-31" x="102.81" y="0">間</tspan></text><text class="cls-3" transform="translate(594.97 182.39)"><tspan class="cls-12" x="0" y="0">※</tspan><tspan class="cls-24" x="25.55" y="0">各</tspan><tspan class="cls-20" x="52.09" y="0">部</tspan><tspan class="cls-38" x="79.64" y="0">4</tspan><tspan class="cls-42" x="97.73" y="0">時</tspan><tspan class="cls-29" x="124.49" y="0">間</tspan><tspan class="cls-5" x="151.79" y="0">、</tspan><tspan class="cls-41" x="166.09" y="0">時</tspan><tspan class="cls-22" x="192.84" y="0">間</tspan><tspan class="cls-34" x="219.54" y="0">変</tspan><tspan class="cls-33" x="246.83" y="0">更要</tspan><tspan class="cls-37" x="301.16" y="0">相</tspan><tspan class="cls-27" x="328.06" y="0">談</tspan></text><text class="cls-2" transform="translate(370.77 124.63)"><tspan class="cls-25" x="0" y="0">昼の</tspan><tspan class="cls-30" x="65.24" y="0">部 ／ </tspan><tspan class="cls-11" x="156.95" y="0">1</tspan><tspan class="cls-10" x="173.94" y="0">1</tspan><tspan class="cls-39" x="192.66" y="0">:</tspan><tspan class="cls-18" x="201.4" y="0">0</tspan><tspan class="cls-36" x="224.26" y="0">0</tspan><tspan class="cls-7" x="246.74" y="0">〜</tspan><tspan class="cls-8" x="275.99" y="0">1</tspan><tspan class="cls-45" x="294.79" y="0">5</tspan><tspan class="cls-39" x="316.11" y="0">:</tspan><tspan class="cls-18" x="324.85" y="0">0</tspan><tspan class="cls-30" x="347.71" y="0">0　　</tspan><tspan class="cls-13" x="437.53" y="0">夜</tspan><tspan class="cls-26" x="468.33" y="0">の</tspan><tspan class="cls-32" x="500.95" y="0">部 ／ </tspan><tspan class="cls-6" x="592.66" y="0">1</tspan><tspan class="cls-16" x="611.3" y="0">7</tspan><tspan class="cls-40" x="631.35" y="0">:</tspan><tspan class="cls-19" x="640.1" y="0">0</tspan><tspan class="cls-35" x="662.96" y="0">0</tspan><tspan class="cls-15" x="685.44" y="0">〜</tspan><tspan class="cls-14" x="716.27" y="0">2</tspan><tspan class="cls-9" x="736.15" y="0">1</tspan><tspan class="cls-40" x="754.87" y="0">:</tspan><tspan class="cls-17" x="763.61" y="0">0</tspan><tspan class="cls-28" x="786.47" y="0">0</tspan></text></g></svg>