<?xml version="1.0" encoding="UTF-8"?><svg id="_レイヤー_2" xmlns="http://www.w3.org/2000/svg" viewBox="0 0 1125 855.94"><defs><style>.cls-1{font-family:HiraginoSans-W4-83pv-RKSJ-H, 'Hiragino Sans';}.cls-1,.cls-2{font-size:45px;}.cls-3{fill:#d7d5b7;}.cls-3,.cls-4{opacity:.7;}.cls-2,.cls-5{font-family:HiraginoSans-W3-83pv-RKSJ-H, 'Hiragino Sans';}.cls-5{font-size:40px;}.cls-6{letter-spacing:0em;}.cls-7{letter-spacing:-.4em;}.cls-8{letter-spacing:-.45em;}.cls-9{letter-spacing:-.1em;}.cls-10{letter-spacing:-.08em;}.cls-11{letter-spacing:-.09em;}.cls-12{letter-spacing:-.07em;}.cls-13{letter-spacing:-.08em;}.cls-14{letter-spacing:-.08em;}.cls-15{letter-spacing:-.08em;}.cls-16{letter-spacing:-.06em;}.cls-17{letter-spacing:-.15em;}.cls-18{letter-spacing:-.13em;}.cls-19{letter-spacing:-.15em;}.cls-20{letter-spacing:-.02em;}.cls-21{letter-spacing:-.02em;}.cls-22{letter-spacing:-.02em;}.cls-23{letter-spacing:-.04em;}.cls-24{letter-spacing:-.04em;}.cls-25{letter-spacing:-.05em;}.cls-26{letter-spacing:-.04em;}.cls-27{letter-spacing:-.03em;}.cls-28{letter-spacing:-.04em;}.cls-29{letter-spacing:-.04em;}.cls-30{letter-spacing:-.04em;}.cls-31{letter-spacing:0em;}.cls-32{letter-spacing:.1em;}.cls-33{letter-spacing:.1em;}.cls-34{letter-spacing:.08em;}.cls-35{letter-spacing:.08em;}.cls-36{letter-spacing:.08em;}.cls-37{letter-spacing:.08em;}.cls-38{letter-spacing:.09em;}.cls-39{letter-spacing:.09em;}.cls-40{letter-spacing:.09em;}.cls-41{letter-spacing:.06em;}.cls-42{letter-spacing:.07em;}.cls-43{letter-spacing:.06em;}.cls-44{letter-spacing:.08em;}.cls-45{letter-spacing:.05em;}.cls-46{letter-spacing:.06em;}.cls-47{letter-spacing:.06em;}.cls-48{letter-spacing:.06em;}.cls-49{letter-spacing:.06em;}.cls-50{letter-spacing:.06em;}.cls-51{letter-spacing:.06em;}.cls-52{letter-spacing:.06em;}.cls-53{letter-spacing:.1em;}.cls-54{letter-spacing:.11em;}.cls-4{fill:#494949;font-family:NotoSerifJP-Regular-83pv-RKSJ-H, 'Noto Serif JP';font-size:36px;}.cls-55{letter-spacing:.02em;}.cls-56{letter-spacing:.02em;}.cls-57{letter-spacing:.02em;}.cls-58{letter-spacing:.02em;}.cls-59{letter-spacing:.02em;}.cls-60{letter-spacing:.02em;}.cls-61{letter-spacing:.02em;}.cls-62{letter-spacing:.02em;}.cls-63{letter-spacing:.02em;}.cls-64{letter-spacing:.01em;}.cls-65{letter-spacing:.01em;}.cls-66{letter-spacing:.02em;}.cls-67{letter-spacing:.04em;}.cls-68{letter-spacing:.05em;}.cls-69{letter-spacing:.04em;}.cls-70{letter-spacing:.05em;}.cls-71{letter-spacing:.05em;}.cls-72{letter-spacing:.06em;}.cls-73{letter-spacing:.05em;}.cls-74{letter-spacing:.05em;}.cls-75{letter-spacing:.04em;}.cls-76{letter-spacing:.04em;}.cls-77{letter-spacing:.04em;}.cls-78{letter-spacing:.04em;}.cls-79{letter-spacing:.05em;}.cls-80{letter-spacing:.04em;}.cls-81{letter-spacing:.03em;}.cls-82{letter-spacing:.03em;}.cls-83{letter-spacing:.03em;}.cls-84{letter-spacing:.04em;}.cls-85{letter-spacing:.03em;}.cls-86{letter-spacing:.03em;}.cls-87{letter-spacing:.03em;}.cls-88{letter-spacing:.03em;}.cls-89{letter-spacing:.03em;}.cls-90{letter-spacing:.03em;}.cls-91{letter-spacing:0em;}.cls-92{letter-spacing:0em;}.cls-93{letter-spacing:0em;}.cls-94{letter-spacing:0em;}</style></defs><g id="_レイヤー_1-2"><rect class="cls-3" x="0" y="505.59" width="1125" height="82"/><polygon class="cls-3" points="230.46 587.59 0 587.59 0 505.59 291.78 505.59 230.46 587.59"/><polygon class="cls-3" points="894.54 505.59 1125 505.59 1125 587.59 833.22 587.59 894.54 505.59"/><text class="cls-1" transform="translate(448.12 565.02)"><tspan class="cls-58" x="0" y="0">ご</tspan><tspan class="cls-57" x="45.91" y="0">利</tspan><tspan class="cls-62" x="91.85" y="0">用</tspan><tspan class="cls-59" x="137.7" y="0">時</tspan><tspan class="cls-70" x="183.75" y="0">間</tspan></text><text class="cls-5" transform="translate(291.25 841.02)"><tspan class="cls-21" x="0" y="0">※</tspan><tspan class="cls-66" x="39.06" y="0">各</tspan><tspan class="cls-72" x="79.68" y="0">部</tspan><tspan class="cls-83" x="121.88" y="0">4</tspan><tspan class="cls-55" x="149.52" y="0">時</tspan><tspan class="cls-70" x="190.49" y="0">間</tspan><tspan class="cls-8" x="232.49" y="0">、</tspan><tspan class="cls-55" x="254.49" y="0">時</tspan><tspan class="cls-56" x="295.45" y="0">間</tspan><tspan class="cls-68" x="336.32" y="0">変</tspan><tspan class="cls-78" x="378.12" y="0">更要</tspan><tspan class="cls-81" x="461.32" y="0">相</tspan><tspan class="cls-70" x="502.51" y="0">談</tspan></text><text class="cls-2" transform="translate(303.84 693.02)"><tspan class="cls-64" x="0" y="0">昼の</tspan><tspan class="cls-70" x="91.3" y="0">部 ／ </tspan><tspan class="cls-18" x="220.26" y="0">1</tspan><tspan class="cls-14" x="243.79" y="0">1</tspan><tspan class="cls-88" x="269.8" y="0">:</tspan><tspan class="cls-45" x="281.89" y="0">0</tspan><tspan class="cls-77" x="313.84" y="0">0</tspan><tspan class="cls-11" x="345.27" y="0">〜</tspan><tspan class="cls-13" x="386.07" y="0">1</tspan><tspan class="cls-92" x="412.21" y="0">5</tspan><tspan class="cls-88" x="441.94" y="0">:</tspan><tspan class="cls-45" x="454.03" y="0">0</tspan><tspan class="cls-70" x="485.99" y="0">0</tspan><tspan class="cls-26" x="0" y="78.75">夜</tspan><tspan class="cls-64" x="43.03" y="78.75">の</tspan><tspan class="cls-70" x="88.68" y="78.75">部 ／ </tspan><tspan class="cls-10" x="217.65" y="78.75">1</tspan><tspan class="cls-30" x="243.54" y="78.75">7</tspan><tspan class="cls-88" x="271.48" y="78.75">:</tspan><tspan class="cls-45" x="283.57" y="78.75">0</tspan><tspan class="cls-77" x="315.52" y="78.75">0</tspan><tspan class="cls-24" x="346.95" y="78.75">〜</tspan><tspan class="cls-23" x="390.03" y="78.75">2</tspan><tspan class="cls-14" x="417.7" y="78.75">1</tspan><tspan class="cls-88" x="443.72" y="78.75">:</tspan><tspan class="cls-45" x="455.81" y="78.75">0</tspan><tspan class="cls-70" x="487.76" y="78.75">0</tspan></text><text class="cls-4" transform="translate(111.17 35.43)"><tspan x="0" y="0">9</tspan><tspan x="-9.7" y="66">10</tspan><tspan x="-9.7" y="132">11</tspan><tspan x="-9.7" y="198">12</tspan><tspan x="-9.7" y="264">13</tspan><tspan x="-9.7" y="330">14</tspan><tspan x="-9.7" y="396">15</tspan></text><text class="cls-5" transform="translate(197.43 35.2)"><tspan class="cls-80" x="0" y="0">片</tspan><tspan class="cls-84" x="41.78" y="0">付</tspan><tspan class="cls-32" x="83.2" y="0">け</tspan><tspan class="cls-7" x="127.2" y="0">、</tspan><tspan class="cls-65" x="151.2" y="0">ゴ</tspan><tspan class="cls-29" x="191.76" y="0">ミ</tspan><tspan class="cls-79" x="230.18" y="0">の</tspan><tspan class="cls-43" x="272.04" y="0">始</tspan><tspan class="cls-44" x="314.59" y="0">末</tspan><tspan class="cls-38" x="357.64" y="0">不</tspan><tspan class="cls-32" x="401.35" y="0">要</tspan><tspan class="cls-27" x="0" y="66">ド</tspan><tspan class="cls-12" x="38.62" y="66">リ</tspan><tspan class="cls-31" x="76.02" y="66">ン</tspan><tspan class="cls-28" x="115.87" y="66">ク</tspan><tspan class="cls-63" x="154.46" y="66">コ</tspan><tspan class="cls-90" x="195.2" y="66">ー</tspan><tspan class="cls-89" x="236.44" y="66">ナ</tspan><tspan class="cls-15" x="277.69" y="66">ー</tspan><tspan class="cls-20" x="314.56" y="66">ス</tspan><tspan class="cls-16" x="353.76" y="66">タ</tspan><tspan class="cls-17" x="391.54" y="66">ッ</tspan><tspan class="cls-60" x="425.51" y="66">フ</tspan><tspan class="cls-48" x="466.43" y="66">サ</tspan><tspan class="cls-6" x="508.66" y="66">ポ</tspan><tspan class="cls-25" x="548.78" y="66">ー</tspan><tspan class="cls-32" x="586.89" y="66">ト</tspan><tspan class="cls-34" x="0" y="132">事</tspan><tspan class="cls-39" x="43.34" y="132">前</tspan><tspan class="cls-33" x="87.11" y="132">搬</tspan><tspan class="cls-32" x="131.23" y="132">入</tspan><tspan class="cls-52" x="0" y="198">冷</tspan><tspan class="cls-54" x="42.51" y="198">蔵</tspan><tspan class="cls-36" x="86.76" y="198">庫</tspan><tspan class="cls-41" x="130.08" y="198">貸</tspan><tspan class="cls-87" x="172.52" y="198">出</tspan><tspan class="cls-49" x="213.69" y="198">※</tspan><tspan class="cls-42" x="255.95" y="198">上</tspan><tspan class="cls-75" x="298.73" y="198">限</tspan><tspan class="cls-28" x="340.23" y="198">あ</tspan><tspan class="cls-32" x="378.83" y="198">り</tspan><tspan class="cls-67" x="0" y="264">打</tspan><tspan class="cls-22" x="41.8" y="264">ち</tspan><tspan class="cls-46" x="81.08" y="264">合</tspan><tspan class="cls-74" x="123.3" y="264">わ</tspan><tspan class="cls-32" x="165.39" y="264">せ</tspan><tspan class="cls-19" x="209.39" y="264">・</tspan><tspan class="cls-61" x="243.39" y="264">下</tspan><tspan class="cls-35" x="284.06" y="264">見</tspan><tspan class="cls-71" x="327.44" y="264">対</tspan><tspan class="cls-32" x="369.59" y="264">応</tspan><tspan class="cls-94" x="0" y="330">キ</tspan><tspan class="cls-9" x="40.31" y="330">ャ</tspan><tspan class="cls-69" x="76.2" y="330">ン</tspan><tspan class="cls-85" x="117.96" y="330">セ</tspan><tspan class="cls-76" x="159.27" y="330">ル</tspan><tspan class="cls-50" x="201" y="330">料</tspan><tspan class="cls-47" x="243.45" y="330">は</tspan><tspan class="cls-86" x="285.79" y="330">前</tspan><tspan class="cls-32" x="326.84" y="330">日</tspan><tspan class="cls-7" x="370.84" y="330">、</tspan><tspan class="cls-93" x="394.84" y="330">当</tspan><tspan class="cls-91" x="435.17" y="330">日</tspan><tspan class="cls-51" x="475.42" y="330">で</tspan><tspan class="cls-82" x="517.91" y="330">も</tspan><tspan class="cls-37" x="559.1" y="330">5</tspan><tspan class="cls-40" x="588.64" y="330">0</tspan><tspan class="cls-32" x="618.6" y="330">%</tspan><tspan class="cls-85" x="0" y="396">後日</tspan><tspan class="cls-32" x="82.63" y="396">振</tspan><tspan class="cls-53" x="126.63" y="396">込</tspan><tspan class="cls-73" x="170.8" y="396">対</tspan><tspan class="cls-32" x="212.95" y="396">応</tspan></text></g></svg>