<?xml version="1.0" encoding="UTF-8"?><svg id="_レイヤー_2" xmlns="http://www.w3.org/2000/svg" viewBox="0 0 1125 2021.38"><defs><style>.cls-1,.cls-2,.cls-3,.cls-4,.cls-5,.cls-6,.cls-7,.cls-8,.cls-9,.cls-10,.cls-11,.cls-12,.cls-13,.cls-14,.cls-15,.cls-16,.cls-17,.cls-18,.cls-19,.cls-20,.cls-21,.cls-22{font-family:HiraginoSans-W4-83pv-RKSJ-H, 'Hiragino Sans';}.cls-1,.cls-4,.cls-5,.cls-6,.cls-7,.cls-8,.cls-9,.cls-10,.cls-23,.cls-24,.cls-25,.cls-26,.cls-27,.cls-28,.cls-29,.cls-30,.cls-31,.cls-32,.cls-33,.cls-34,.cls-35,.cls-36,.cls-37,.cls-38,.cls-39,.cls-40,.cls-41,.cls-42,.cls-22{font-size:37px;}.cls-2,.cls-43,.cls-44,.cls-45,.cls-46,.cls-47,.cls-48,.cls-49,.cls-50,.cls-51,.cls-52,.cls-53,.cls-54,.cls-55,.cls-56,.cls-57,.cls-12,.cls-13,.cls-14,.cls-16,.cls-17,.cls-18,.cls-19,.cls-58,.cls-59,.cls-60,.cls-61,.cls-62,.cls-63,.cls-64,.cls-65,.cls-66,.cls-67,.cls-68,.cls-69,.cls-20,.cls-70,.cls-71,.cls-72,.cls-73,.cls-74,.cls-75,.cls-76,.cls-77{font-size:45px;}.cls-3{font-size:62px;}.cls-43,.cls-78{letter-spacing:.02em;}.cls-44,.cls-20,.cls-73,.cls-79{letter-spacing:.05em;}.cls-45{letter-spacing:.02em;}.cls-46{letter-spacing:.03em;}.cls-47{letter-spacing:.04em;}.cls-48{letter-spacing:.03em;}.cls-49{letter-spacing:.03em;}.cls-50{letter-spacing:.01em;}.cls-51{letter-spacing:0em;}.cls-4{letter-spacing:.02em;}.cls-5,.cls-24,.cls-80{letter-spacing:.05em;}.cls-6,.cls-23,.cls-81{letter-spacing:.05em;}.cls-7{letter-spacing:.05em;}.cls-82{fill:#494949;font-family:NotoSerifJP-Regular-83pv-RKSJ-H, 'Noto Serif JP';font-size:63px;}.cls-82,.cls-83{opacity:.7;}.cls-8{letter-spacing:.03em;}.cls-9,.cls-26{letter-spacing:.03em;}.cls-10{letter-spacing:.03em;}.cls-52{letter-spacing:.06em;}.cls-53{letter-spacing:.03em;}.cls-54{letter-spacing:-.05em;}.cls-83{fill:#d7d5b7;}.cls-55{letter-spacing:-.04em;}.cls-56{letter-spacing:-.03em;}.cls-57{letter-spacing:0em;}.cls-12{letter-spacing:-.1em;}.cls-13{letter-spacing:-.07em;}.cls-14{letter-spacing:-.02em;}.cls-15{fill:#fff;font-size:52px;}.cls-16{letter-spacing:-.04em;}.cls-17{letter-spacing:-.05em;}.cls-18{letter-spacing:-.05em;}.cls-19{letter-spacing:-.05em;}.cls-58{letter-spacing:-.08em;}.cls-59{letter-spacing:-.07em;}.cls-60{letter-spacing:-.09em;}.cls-61{letter-spacing:-.07em;}.cls-62{letter-spacing:-.06em;}.cls-63{letter-spacing:-.07em;}.cls-64{letter-spacing:-.05em;}.cls-84{stroke:#f2b017;stroke-width:10px;}.cls-84,.cls-85{fill:none;stroke-miterlimit:10;}.cls-65{letter-spacing:-.12em;}.cls-66{letter-spacing:-.15em;}.cls-67{letter-spacing:-.02em;}.cls-68{letter-spacing:-.02em;}.cls-69{letter-spacing:-.02em;}.cls-25{letter-spacing:.05em;}.cls-27{letter-spacing:0em;}.cls-70{letter-spacing:-.03em;}.cls-70,.cls-71,.cls-72,.cls-73,.cls-74,.cls-75,.cls-76,.cls-77{font-family:HiraginoSans-W6-83pv-RKSJ-H, 'Hiragino Sans';}.cls-70,.cls-71,.cls-72,.cls-73,.cls-74,.cls-75,.cls-76,.cls-77,.cls-86{fill:#ff6200;}.cls-71{letter-spacing:-.12em;}.cls-28{letter-spacing:.06em;}.cls-29{letter-spacing:.05em;}.cls-30{letter-spacing:.02em;}.cls-31{letter-spacing:.02em;}.cls-32{letter-spacing:.02em;}.cls-33{letter-spacing:.02em;}.cls-72{letter-spacing:-.1em;}.cls-21{font-size:32px;}.cls-87{letter-spacing:0em;}.cls-34{letter-spacing:0em;}.cls-35{letter-spacing:0em;}.cls-74{letter-spacing:.05em;}.cls-36,.cls-22{letter-spacing:-.45em;}.cls-88{letter-spacing:0em;}.cls-37,.cls-89{letter-spacing:-.45em;}.cls-38{letter-spacing:-.09em;}.cls-39{letter-spacing:-.08em;}.cls-40{letter-spacing:-.08em;}.cls-41{letter-spacing:-.06em;}.cls-90{letter-spacing:0em;}.cls-76{letter-spacing:.03em;}.cls-77,.cls-91{letter-spacing:.03em;}.cls-42{letter-spacing:0em;}.cls-92{letter-spacing:-.1em;}.cls-93{letter-spacing:-.1em;}.cls-94{letter-spacing:-.1em;}.cls-95{letter-spacing:-.1em;}.cls-96{letter-spacing:-.07em;}.cls-97{letter-spacing:-.09em;}.cls-98{letter-spacing:-.09em;}.cls-99{letter-spacing:-.08em;}.cls-100{letter-spacing:-.08em;}.cls-101{letter-spacing:-.08em;}.cls-102{letter-spacing:-.08em;}.cls-103{letter-spacing:-.09em;}.cls-104{letter-spacing:-.09em;}.cls-105{letter-spacing:-.07em;}.cls-106{letter-spacing:-.07em;}.cls-107{letter-spacing:-.07em;}.cls-108{letter-spacing:-.07em;}.cls-109{letter-spacing:-.06em;}.cls-110{letter-spacing:-.06em;}.cls-111{letter-spacing:-.08em;}.cls-112{letter-spacing:-.05em;}.cls-113{letter-spacing:-.06em;}.cls-114{letter-spacing:-.06em;}.cls-115{letter-spacing:-.18em;}.cls-116{letter-spacing:-.2em;}.cls-117{letter-spacing:-.2em;}.cls-118{letter-spacing:-.2em;}.cls-119{letter-spacing:-.17em;}.cls-120{letter-spacing:-.19em;}.cls-121{letter-spacing:-.13em;}.cls-122{letter-spacing:-.15em;}.cls-123{letter-spacing:-.12em;}.cls-124{letter-spacing:-.03em;}.cls-125{letter-spacing:-.02em;}.cls-126{letter-spacing:-.02em;}.cls-127{letter-spacing:-.02em;}.cls-128{letter-spacing:-.02em;}.cls-129{letter-spacing:-.05em;}.cls-130{letter-spacing:-.05em;}.cls-131{letter-spacing:-.05em;}.cls-132{letter-spacing:-.03em;}.cls-133{letter-spacing:-.04em;}.cls-134{letter-spacing:-.03em;}.cls-135{letter-spacing:-.03em;}.cls-136{letter-spacing:0em;}.cls-137{letter-spacing:-.01em;}.cls-138{letter-spacing:0em;}.cls-85{stroke:#d7d5b7;}.cls-139{letter-spacing:.09em;}.cls-140{letter-spacing:.1em;}.cls-141{letter-spacing:.08em;}.cls-142{letter-spacing:.08em;}.cls-143{letter-spacing:.07em;}.cls-144{letter-spacing:.07em;}.cls-145{letter-spacing:.08em;}.cls-146{letter-spacing:.07em;}.cls-147{letter-spacing:.05em;}.cls-148{letter-spacing:.06em;}.cls-149{letter-spacing:.06em;}.cls-150{letter-spacing:.11em;}.cls-151{letter-spacing:.11em;}.cls-152{letter-spacing:.03em;}.cls-153{letter-spacing:.02em;}.cls-154{letter-spacing:.03em;}.cls-155{letter-spacing:.02em;}.cls-156{letter-spacing:.02em;}.cls-157{letter-spacing:.02em;}.cls-158{letter-spacing:.02em;}.cls-159{letter-spacing:.02em;}.cls-160{letter-spacing:.02em;}.cls-161{letter-spacing:.02em;}.cls-162{letter-spacing:.02em;}.cls-163{letter-spacing:.02em;}.cls-164{letter-spacing:.02em;}.cls-165{letter-spacing:.02em;}.cls-166{letter-spacing:.02em;}.cls-167{letter-spacing:.02em;}.cls-168{letter-spacing:.02em;}.cls-169{letter-spacing:.02em;}.cls-170{letter-spacing:.01em;}.cls-171{letter-spacing:.02em;}.cls-172{letter-spacing:.05em;}.cls-173{letter-spacing:.05em;}.cls-174{letter-spacing:.05em;}.cls-175{letter-spacing:.05em;}.cls-176{letter-spacing:.05em;}.cls-177{letter-spacing:.05em;}.cls-178{letter-spacing:.05em;}.cls-179{letter-spacing:.05em;}.cls-180{letter-spacing:.06em;}.cls-181{letter-spacing:.06em;}.cls-182{letter-spacing:.06em;}.cls-183{letter-spacing:.05em;}.cls-184{letter-spacing:.04em;}.cls-185{letter-spacing:.04em;}.cls-186{letter-spacing:.04em;}.cls-187{letter-spacing:.04em;}.cls-188{letter-spacing:.04em;}.cls-189{letter-spacing:.04em;}.cls-190{letter-spacing:.04em;}.cls-191{letter-spacing:.05em;}.cls-192{letter-spacing:.05em;}.cls-193{letter-spacing:.03em;}.cls-194{letter-spacing:.03em;}.cls-195{letter-spacing:.04em;}.cls-196{letter-spacing:.04em;}.cls-197{letter-spacing:.04em;}.cls-198{letter-spacing:.03em;}.cls-199{letter-spacing:.03em;}.cls-200{letter-spacing:.03em;}.cls-201{letter-spacing:.03em;}.cls-202{letter-spacing:.03em;}.cls-203{letter-spacing:.03em;}.cls-204{letter-spacing:.03em;}.cls-205{letter-spacing:0em;}.cls-206{letter-spacing:0em;}.cls-207{letter-spacing:0em;}.cls-208{letter-spacing:0em;}.cls-209{letter-spacing:0em;}.cls-210{letter-spacing:.01em;}.cls-211{letter-spacing:.01em;}.cls-212{letter-spacing:.01em;}.cls-213{letter-spacing:.01em;}.cls-214{letter-spacing:0em;}.cls-215{letter-spacing:0em;}.cls-216{letter-spacing:0em;}</style></defs><g id="_レイヤー_1-2"><rect class="cls-83" x="0" y="463.83" width="1125" height="82"/><polygon class="cls-83" points="230.46 545.83 0 545.83 0 463.83 291.78 463.83 230.46 545.83"/><polygon class="cls-83" points="894.54 463.83 1125 463.83 1125 545.83 833.22 545.83 894.54 463.83"/><text class="cls-3" transform="translate(191.07 81.84)"><tspan class="cls-181" x="0" y="0">団</tspan><tspan class="cls-147" x="65.42" y="0">体</tspan><tspan class="cls-144" x="130.71" y="0">限</tspan><tspan class="cls-88" x="197.11" y="0">定</tspan><tspan class="cls-137" x="259.17" y="0">プ</tspan><tspan class="cls-103" x="320.4" y="0">ラ</tspan><tspan class="cls-120" x="376.69" y="0">ン</tspan></text><text class="cls-3" transform="translate(618.11 81.84) scale(1.5)"><tspan class="cls-109" x="0" y="0">1</tspan><tspan class="cls-192" x="37.7" y="0">5</tspan></text><text class="cls-3" transform="translate(741.5 81.84)"><tspan class="cls-176" x="0" y="0">大</tspan><tspan class="cls-149" x="64.98" y="0">特</tspan><tspan class="cls-141" x="130.44" y="0">典</tspan></text><text class="cls-21" transform="translate(258.35 165.24)"><tspan class="cls-179" x="0" y="0">大</tspan><tspan class="cls-100" x="33.73" y="0">人</tspan><tspan class="cls-131" x="63.12" y="0">1</tspan><tspan class="cls-182" x="82.94" y="0">0</tspan><tspan class="cls-195" x="106.24" y="0">0</tspan><tspan class="cls-171" x="128.93" y="0">名</tspan><tspan class="cls-184" x="161.42" y="0">様</tspan><tspan class="cls-175" x="194.62" y="0">以</tspan><tspan class="cls-126" x="228.26" y="0">上</tspan><tspan class="cls-129" x="259.52" y="0">の</tspan><tspan class="cls-154" x="289.99" y="0">ご</tspan><tspan class="cls-152" x="322.8" y="0">利</tspan><tspan class="cls-155" x="355.62" y="0">用</tspan><tspan class="cls-188" x="388.4" y="0">特</tspan><tspan class="cls-206" x="421.7" y="0">典</tspan><tspan class="cls-87" x="453.91" y="0">に</tspan><tspan class="cls-113" x="485.9" y="0">な</tspan><tspan class="cls-94" x="516.03" y="0">り</tspan><tspan class="cls-125" x="544.88" y="0">ま</tspan><tspan class="cls-174" x="576.29" y="0">す</tspan></text><rect class="cls-86" x="78" y="228.04" width="288.26" height="94.79" rx="46.2" ry="46.2"/><text class="cls-15" transform="translate(143.53 296.26)"><tspan class="cls-215" x="0" y="0">忘</tspan><tspan class="cls-167" x="52.41" y="0">年</tspan><tspan class="cls-172" x="105.2" y="0">会</tspan></text><text class="cls-2" transform="translate(120.21 385.26)"><tspan class="cls-139" x="0" y="0">新</tspan><tspan class="cls-143" x="49.09" y="0">年</tspan><tspan class="cls-140" x="97.14" y="0">会</tspan><tspan class="cls-122" x="146.64" y="0">・</tspan><tspan class="cls-150" x="184.89" y="0">歓</tspan><tspan class="cls-151" x="234.86" y="0">送</tspan><tspan class="cls-145" x="284.99" y="0">迎</tspan><tspan class="cls-140" x="333.5" y="0">会</tspan><tspan class="cls-122" x="383" y="0">・</tspan><tspan class="cls-178" x="421.25" y="0">打</tspan><tspan class="cls-90" x="468.68" y="0">ち</tspan><tspan class="cls-197" x="513.71" y="0">上</tspan><tspan class="cls-140" x="560.35" y="0">げ</tspan><tspan class="cls-122" x="609.85" y="0">・</tspan><tspan class="cls-139" x="648.1" y="0">結</tspan><tspan class="cls-146" x="697.19" y="0">婚</tspan><tspan class="cls-142" x="745.43" y="0">式</tspan><tspan class="cls-214" x="794.19" y="0">な</tspan><tspan class="cls-140" x="839.57" y="0">ど</tspan></text><rect class="cls-86" x="418.2" y="228.04" width="288.26" height="94.79" rx="46.2" ry="46.2"/><text class="cls-15" transform="translate(482.72 296.26)"><tspan class="cls-189" x="0" y="0">懇</tspan><tspan class="cls-153" x="54.07" y="0">親</tspan><tspan class="cls-173" x="107.22" y="0">会</tspan></text><text class="cls-2" transform="translate(470.87 521.26)"><tspan class="cls-185" x="0" y="0">特</tspan><tspan class="cls-159" x="46.62" y="0">典</tspan><tspan class="cls-78" x="92.56" y="0">内</tspan><tspan class="cls-79" x="138.26" y="0">容</tspan></text><rect class="cls-86" x="758.41" y="228.04" width="288.26" height="94.79" rx="46.2" ry="46.2"/><text class="cls-15" transform="translate(795.08 296.26)"><tspan class="cls-191" x="0" y="0">社</tspan><tspan class="cls-148" x="54.46" y="0">員</tspan><tspan class="cls-193" x="109.36" y="0">旅</tspan><tspan class="cls-173" x="162.91" y="0">行</tspan></text><text class="cls-2" transform="translate(197.43 635.26)"><tspan class="cls-106" x="0" y="0">ス</tspan><tspan class="cls-92" x="41.9" y="0">タ</tspan><tspan class="cls-119" x="82.4" y="0">ッ</tspan><tspan class="cls-108" x="119.65" y="0">フ</tspan><tspan class="cls-135" x="161.66" y="0">に</tspan><tspan class="cls-123" x="205.25" y="0">よ</tspan><tspan class="cls-127" x="244.97" y="0">る</tspan><tspan class="cls-180" x="289.19" y="0">会</tspan><tspan class="cls-199" x="336.67" y="0">場</tspan><tspan class="cls-194" x="382.85" y="0">設</tspan><tspan class="cls-212" x="429.33" y="0">営</tspan><tspan class="cls-208" x="474.84" y="0">サ</tspan><tspan class="cls-133" x="520.09" y="0">ポ</tspan><tspan class="cls-104" x="563.33" y="0">ー</tspan><tspan class="cls-79" x="604.35" y="0">ト</tspan></text><text class="cls-1" transform="translate(178.93 694.26)"><tspan class="cls-80" x="0" y="0">（</tspan><tspan class="cls-99" x="38.85" y="0">イ</tspan><tspan class="cls-116" x="72.85" y="0">ス・</tspan><tspan class="cls-209" x="132.05" y="0">テ</tspan><tspan class="cls-97" x="169.23" y="0">ー</tspan><tspan class="cls-130" x="203.04" y="0">ブ</tspan><tspan class="cls-118" x="238.04" y="0">ル・</tspan><tspan class="cls-124" x="297.24" y="0">グ</tspan><tspan class="cls-121" x="333.25" y="0">リ</tspan><tspan class="cls-118" x="365.46" y="0">ル・</tspan><tspan class="cls-105" x="424.66" y="0">タ</tspan><tspan class="cls-93" x="459.07" y="0">ー</tspan><tspan class="cls-186" x="492.37" y="0">プ</tspan><tspan class="cls-81" x="530.94" y="0">等</tspan><tspan class="cls-89" x="569.79" y="0">）</tspan></text><text class="cls-1" transform="translate(178.93 1426.26)"><tspan class="cls-80" x="0" y="0">（</tspan><tspan class="cls-183" x="38.85" y="0">投</tspan><tspan class="cls-200" x="77.77" y="0">影</tspan><tspan class="cls-198" x="115.84" y="0">時</tspan><tspan class="cls-116" x="153.8" y="0">間・</tspan><tspan class="cls-165" x="213" y="0">場</tspan><tspan class="cls-209" x="250.85" y="0">所</tspan><tspan class="cls-138" x="288.03" y="0">は</tspan><tspan class="cls-177" x="324.93" y="0">要</tspan><tspan class="cls-187" x="363.75" y="0">確</tspan><tspan class="cls-80" x="402.24" y="0">認　</tspan><tspan class="cls-205" x="479.94" y="0">※</tspan><tspan class="cls-132" x="517.14" y="0">夜</tspan><tspan class="cls-160" x="552.95" y="0">の</tspan><tspan class="cls-169" x="590.69" y="0">部</tspan><tspan class="cls-136" x="628.38" y="0">の</tspan><tspan class="cls-81" x="665.21" y="0">み</tspan><tspan class="cls-89" x="704.06" y="0">）</tspan></text><text class="cls-11" transform="translate(197.43 848.76)"><tspan class="cls-63" x="0" y="0">ク</tspan><tspan class="cls-67" x="41.83" y="0">ー</tspan><tspan class="cls-69" x="85.89" y="0">ラ</tspan><tspan class="cls-55" x="129.78" y="0">ー</tspan><tspan class="cls-62" x="173.05" y="0">ボ</tspan><tspan class="cls-58" x="215.5" y="0">ッ</tspan><tspan class="cls-60" x="256.85" y="0">ク</tspan><tspan class="cls-59" x="297.9" y="0">ス</tspan><tspan class="cls-64" x="339.83" y="0">と</tspan><tspan class="cls-52" x="382.44" y="0">保</tspan><tspan class="cls-47" x="429.94" y="0">冷</tspan><tspan class="cls-49" x="476.7" y="0">剤</tspan><tspan class="cls-50" x="523.16" y="0">貸</tspan><tspan class="cls-44" x="568.69" y="0">出 </tspan><tspan class="cls-27" x="633.18" y="-3.04">※</tspan><tspan class="cls-30" x="670.42" y="-3.04">上</tspan><tspan class="cls-34" x="708.22" y="-3.04">限</tspan><tspan class="cls-39" x="745.07" y="-3.04">あ</tspan><tspan class="cls-23" x="779.21" y="-3.04">り</tspan></text><text transform="translate(197.43 1034.26)"><tspan><tspan class="cls-12" x="0" y="0">ビ</tspan><tspan class="cls-13" x="40.69" y="0">ー</tspan><tspan class="cls-18" x="82.72" y="0">ル</tspan><tspan class="cls-14" x="125.5" y="0">サ</tspan><tspan class="cls-17" x="169.54" y="0">ー</tspan><tspan class="cls-19" x="212.1" y="0">バ</tspan><tspan class="cls-16" x="254.68" y="0">ー</tspan><tspan class="cls-71" x="297.75" y="0">レ</tspan><tspan class="cls-70" x="337.4" y="0">ン</tspan><tspan class="cls-72" x="381.2" y="0">タ</tspan><tspan class="cls-76" x="421.61" y="0">ル</tspan><tspan class="cls-77" x="467.97" y="0">無</tspan><tspan class="cls-73" x="514.39" y="0">料</tspan><tspan class="cls-20" x="561.64" y="0"> </tspan><tspan class="cls-5" x="560.37" y="-3.04">（</tspan><tspan class="cls-8" x="599.22" y="-3.04">3</tspan><tspan class="cls-6" x="625.33" y="-3.04">L </tspan><tspan class="cls-10" x="664.04" y="-3.04">5</tspan><tspan class="cls-4" x="689.89" y="-3.04">,</tspan><tspan class="cls-7" x="699.92" y="-3.04">00</tspan><tspan class="cls-9" x="753.68" y="-3.04">0</tspan><tspan class="cls-5" x="779.86" y="-3.04">円</tspan><tspan class="cls-22" x="818.71" y="-3.04">）</tspan></tspan></text><text class="cls-2" transform="translate(197.43 1214.76)"><tspan class="cls-95" x="0" y="0">マ</tspan><tspan class="cls-115" x="40.33" y="0">イ</tspan><tspan class="cls-117" x="77.06" y="0">ク・</tspan><tspan class="cls-107" x="149.06" y="0">ス</tspan><tspan class="cls-111" x="191.08" y="0">ピ</tspan><tspan class="cls-114" x="232.65" y="0">ー</tspan><tspan class="cls-128" x="274.81" y="0">カ</tspan><tspan class="cls-157" x="319.1" y="0">ー</tspan><tspan class="cls-170" x="365.06" y="0">等</tspan><tspan class="cls-213" x="410.69" y="0">の</tspan><tspan class="cls-196" x="456.2" y="0">音</tspan><tspan class="cls-166" x="502.83" y="0">響</tspan><tspan class="cls-202" x="548.83" y="0">設</tspan><tspan class="cls-79" x="595.22" y="0">備 </tspan></text><text class="cls-74" transform="translate(857.13 1211.34) scale(.8)"><tspan x="0" y="0">▶︎</tspan></text><text class="cls-75" transform="translate(894.93 1214.76)"><tspan class="cls-79" x="0" y="0"> </tspan><tspan class="cls-91" x="17.23" y="0">無</tspan><tspan class="cls-79" x="63.65" y="0">料</tspan></text><text class="cls-2" transform="translate(197.43 1369.26)"><tspan class="cls-207" x="0" y="0">プ</tspan><tspan class="cls-112" x="45.3" y="0">ロ</tspan><tspan class="cls-102" x="87.93" y="0">ジ</tspan><tspan class="cls-101" x="129.22" y="0">ェ</tspan><tspan class="cls-98" x="170.55" y="0">ク</tspan><tspan class="cls-96" x="211.69" y="0">タ</tspan><tspan class="cls-134" x="253.36" y="0">ー</tspan><tspan class="cls-211" x="297.05" y="0">貸</tspan><tspan class="cls-79" x="342.58" y="0">出 </tspan></text><text class="cls-74" transform="translate(604.49 1365.84) scale(.8)"><tspan x="0" y="0">▶︎</tspan></text><text class="cls-75" transform="translate(642.29 1369.26)"><tspan class="cls-79" x="0" y="0"> </tspan><tspan class="cls-91" x="17.23" y="0">無</tspan><tspan class="cls-79" x="63.65" y="0">料</tspan></text><text class="cls-1" transform="translate(683.43 1984.26)"><tspan class="cls-158" x="0" y="0">※</tspan><tspan class="cls-210" x="37.78" y="0">通</tspan><tspan class="cls-162" x="75.16" y="0">常</tspan><tspan class="cls-204" x="113.03" y="0">不</tspan><tspan class="cls-80" x="151.16" y="0">可</tspan></text><text class="cls-2" transform="translate(197.43 1582.26)"><tspan class="cls-216" x="0" y="0">通</tspan><tspan class="cls-110" x="45.32" y="0">常</tspan><tspan class="cls-163" x="87.41" y="0">ご</tspan><tspan class="cls-159" x="133.32" y="0">利</tspan><tspan class="cls-168" x="179.26" y="0">用</tspan><tspan class="cls-164" x="225.11" y="0">時</tspan><tspan class="cls-161" x="271.16" y="0">間</tspan><tspan class="cls-156" x="317.1" y="0">3</tspan><tspan class="cls-164" x="348.47" y="0">時</tspan><tspan class="cls-79" x="394.52" y="0">間 </tspan></text><text class="cls-74" transform="translate(656.43 1578.84) scale(.8)"><tspan x="0" y="0">▶︎</tspan></text><text class="cls-75" transform="translate(694.23 1582.26)"><tspan class="cls-79" x="0" y="0"> </tspan><tspan class="cls-203" x="17.23" y="0">4時</tspan><tspan class="cls-79" x="97.15" y="0">間</tspan></text><text class="cls-11" transform="translate(197.43 1771.26)"><tspan class="cls-46" x="0" y="0">C</tspan><tspan class="cls-68" x="35.86" y="0">O</tspan><tspan class="cls-61" x="71.41" y="0">Y</tspan><tspan class="cls-56" x="99.93" y="0">A</tspan><tspan class="cls-66" x="132.87" y="0">レ</tspan><tspan class="cls-54" x="171.12" y="0">ン</tspan><tspan class="cls-65" x="214.09" y="0">タ</tspan><tspan class="cls-44" x="253.56" y="0">ル</tspan><tspan class="cls-24" x="282.31" y="-3.04">（</tspan><tspan class="cls-38" x="321.16" y="-3.04">各</tspan><tspan class="cls-41" x="354.96" y="-3.04">1</tspan><tspan class="cls-32" x="377.77" y="-3.04">0</tspan><tspan class="cls-31" x="403.52" y="-3.04">,</tspan><tspan class="cls-25" x="413.55" y="-3.04">00</tspan><tspan class="cls-26" x="467.3" y="-3.04">0</tspan><tspan class="cls-24" x="493.49" y="-3.04">円</tspan><tspan class="cls-37" x="532.34" y="-3.04">）</tspan><tspan class="cls-44" x="552.69" y="0"> </tspan></text><text class="cls-74" transform="translate(767.35 1767.84) scale(.8)"><tspan x="0" y="0">▶︎</tspan></text><text class="cls-75" transform="translate(805.15 1771.26)"><tspan class="cls-79" x="0" y="0"> </tspan><tspan class="cls-201" x="17.23" y="0">2</tspan><tspan class="cls-190" x="50.55" y="0">棟</tspan><tspan class="cls-91" x="97.34" y="0">無</tspan><tspan class="cls-79" x="143.75" y="0">料</tspan></text><text class="cls-11" transform="translate(197.43 1929.26)"><tspan class="cls-43" x="0" y="0">行</tspan><tspan class="cls-45" x="45.7" y="0">事</tspan><tspan class="cls-57" x="91.59" y="0">の</tspan><tspan class="cls-53" x="136.4" y="0">記</tspan><tspan class="cls-51" x="182.52" y="0">録</tspan><tspan class="cls-48" x="227.96" y="0">写</tspan><tspan class="cls-44" x="274.49" y="0">真</tspan><tspan class="cls-24" x="303.24" y="-3.04">（</tspan><tspan class="cls-28" x="342.09" y="-3.04">撮</tspan><tspan class="cls-24" x="381.24" y="-3.04">影</tspan><tspan class="cls-36" x="420.09" y="-3.04">、</tspan><tspan class="cls-42" x="440.44" y="-3.04">デ</tspan><tspan class="cls-35" x="477.56" y="-3.04">ー</tspan><tspan class="cls-40" x="514.51" y="-3.04">タ</tspan><tspan class="cls-33" x="548.59" y="-3.04">の</tspan><tspan class="cls-29" x="586.31" y="-3.04">提</tspan><tspan class="cls-23" x="625.27" y="-3.04">供</tspan><tspan class="cls-37" x="664.12" y="-3.04">）</tspan><tspan class="cls-44" x="684.47" y="0"> </tspan></text><text class="cls-74" transform="translate(899.13 1925.84) scale(.8)"><tspan x="0" y="0">▶︎</tspan></text><text class="cls-75" transform="translate(936.93 1929.26)"><tspan class="cls-79" x="0" y="0"> </tspan><tspan class="cls-91" x="17.23" y="0">無</tspan><tspan class="cls-79" x="63.65" y="0">料</tspan></text><line class="cls-84" x1="189" y1="108.83" x2="931" y2="108.83"/><line class="cls-85" x1="75" y1="734.16" x2="1047" y2="734.16"/><line class="cls-85" x1="75" y1="917.98" x2="1047" y2="917.98"/><line class="cls-85" x1="75" y1="1101.8" x2="1047" y2="1101.8"/><line class="cls-85" x1="75" y1="1285.63" x2="1047" y2="1285.63"/><line class="cls-85" x1="75" y1="1469.45" x2="1047" y2="1469.45"/><line class="cls-85" x1="75" y1="1653.28" x2="1047" y2="1653.28"/><line class="cls-85" x1="75" y1="1837.1" x2="1047" y2="1837.1"/><text class="cls-82" transform="translate(97.52 667.3)"><tspan x="0" y="0">1</tspan><tspan x="0" y="184">2</tspan><tspan x="0" y="368">3</tspan><tspan x="0" y="552">4</tspan><tspan x="0" y="736">5</tspan><tspan x="0" y="920">6</tspan><tspan x="0" y="1104">7</tspan><tspan x="0" y="1288">8</tspan></text></g></svg>