<?xml version="1.0" encoding="UTF-8"?>
<svg id="_レイヤー_2" data-name="レイヤー 2" xmlns="http://www.w3.org/2000/svg" viewBox="0 0 423.83 106.19">
  <defs>
    <style>
      .cls-1 {
        fill: #fff;
        stroke-width: 0px;
      }
    </style>
  </defs>
  <g id="_レイヤー_1-2" data-name="レイヤー 1">
    <g>
      <g>
        <path class="cls-1" d="M99.58,100.75c0,1.78-.46,3.13-1.37,4.05-.91.92-2.23,1.39-3.95,1.39-.96,0-1.82-.14-2.59-.42-.77-.28-1.5-.76-2.2-1.44l1.17-1.33c.51.56,1.06.98,1.64,1.26.58.28,1.24.43,1.99.43s1.32-.11,1.8-.32c.48-.22.86-.51,1.14-.87.28-.37.47-.79.58-1.26s.17-.97.17-1.48v-1.25h-.04c-.39.63-.9,1.08-1.52,1.38-.62.29-1.26.44-1.92.44-.76,0-1.47-.12-2.1-.37-.64-.25-1.19-.6-1.65-1.04-.46-.44-.81-.97-1.06-1.58-.25-.61-.37-1.28-.37-2,0-.79.13-1.51.37-2.15.25-.64.6-1.18,1.05-1.62.45-.44,1-.77,1.64-1.01.64-.24,1.35-.35,2.12-.35.33,0,.67.04,1,.11.33.08.66.19.97.35.31.16.59.36.84.6.25.24.46.52.63.84h.04v-1.67h1.63v9.31ZM91.03,96.31c0,.5.09.96.27,1.39.18.42.43.79.74,1.1.31.31.68.56,1.09.74.42.18.86.27,1.33.27.56,0,1.05-.1,1.48-.29.43-.19.8-.46,1.09-.78.3-.33.52-.7.68-1.13.15-.42.23-.87.23-1.34,0-.53-.08-1.01-.25-1.45-.17-.44-.4-.82-.71-1.14s-.67-.57-1.1-.74c-.43-.17-.9-.26-1.42-.26s-.98.09-1.41.28c-.42.19-.79.44-1.08.77-.3.33-.53.71-.7,1.15-.17.44-.25.91-.25,1.43Z"/>
        <path class="cls-1" d="M108.83,93.75c0-.44-.01-.86-.04-1.25s-.04-.74-.04-1.06h1.54c0,.26,0,.53.02.79.01.26.02.54.02.81h.04c.11-.24.27-.47.47-.69.2-.22.44-.42.72-.59.28-.17.59-.31.94-.42.35-.1.72-.16,1.13-.16.11,0,.22,0,.33.02.11.01.22.04.33.08l-.1,1.65c-.28-.08-.57-.13-.88-.13-1,0-1.73.32-2.18.97-.45.65-.68,1.53-.68,2.66v4.75h-1.63v-7.44Z"/>
        <path class="cls-1" d="M121.85,96.31c0-.76.13-1.46.4-2.08.26-.63.62-1.16,1.08-1.62.46-.45,1.01-.8,1.65-1.05.64-.25,1.33-.37,2.08-.37s1.44.12,2.08.37c.64.25,1.19.6,1.65,1.05.46.45.82.99,1.08,1.62.26.62.4,1.32.4,2.08s-.13,1.46-.4,2.08c-.26.62-.62,1.16-1.08,1.61-.46.45-1.01.8-1.65,1.05-.64.25-1.33.37-2.08.37s-1.44-.13-2.08-.37c-.64-.25-1.19-.6-1.65-1.05-.46-.45-.82-.99-1.08-1.61s-.4-1.32-.4-2.08ZM123.6,96.31c0,.51.08.99.24,1.43s.39.82.7,1.15c.31.33.67.58,1.09.77.42.19.9.28,1.43.28s1-.09,1.43-.28c.42-.19.79-.44,1.09-.77.31-.33.54-.71.7-1.15s.24-.91.24-1.43-.08-.99-.24-1.43-.39-.82-.7-1.15c-.31-.33-.67-.58-1.09-.77-.42-.19-.9-.28-1.43-.28s-1,.09-1.43.28c-.42.19-.79.44-1.09.77-.31.33-.54.71-.7,1.15s-.24.91-.24,1.43Z"/>
        <path class="cls-1" d="M151.5,101.19h-1.61l-2.77-7.5h-.04l-2.46,7.5h-1.67l-3.17-9.75h1.79l2.23,7.5h.04l2.52-7.5h1.71l2.56,7.5h.04l2.21-7.5h1.75l-3.15,9.75Z"/>
        <path class="cls-1" d="M162.73,93.75c0-.44-.01-.86-.04-1.25s-.04-.74-.04-1.06h1.54c0,.26,0,.53.02.79.01.26.02.54.02.81h.04c.11-.24.27-.47.47-.69.2-.22.44-.42.72-.59.28-.17.59-.31.94-.42.35-.1.72-.16,1.13-.16.64,0,1.19.1,1.66.29.47.19.85.47,1.16.81.31.35.53.77.68,1.26.15.49.22,1.03.22,1.62v6.02h-1.63v-5.86c0-.82-.18-1.47-.54-1.94-.36-.47-.92-.71-1.69-.71-.53,0-.98.09-1.37.27-.38.18-.69.44-.94.77-.24.33-.42.73-.54,1.19-.12.46-.18.97-.18,1.52v4.75h-1.63v-7.44Z"/>
        <path class="cls-1" d="M213.16,98.88c0,.45.01.86.04,1.25.03.39.04.74.04,1.06h-1.54c0-.26,0-.53-.02-.79-.01-.26-.02-.53-.02-.81h-.04c-.11.24-.27.47-.47.69-.2.22-.44.42-.72.59s-.59.31-.94.42c-.35.1-.72.16-1.13.16-.64,0-1.19-.1-1.66-.29s-.85-.47-1.16-.81c-.31-.35-.53-.77-.68-1.26-.15-.49-.22-1.03-.22-1.62v-6.02h1.63v5.86c0,.82.18,1.47.54,1.94.36.47.92.71,1.69.71.53,0,.98-.09,1.37-.27.38-.18.69-.44.94-.77.24-.33.42-.73.54-1.19.12-.46.18-.97.18-1.52v-4.75h1.63v7.44Z"/>
        <path class="cls-1" d="M222.41,91.44h1.63v1.42h.04c.45-.53.96-.94,1.55-1.23.59-.29,1.24-.44,1.95-.44.76,0,1.46.13,2.1.38.63.26,1.17.61,1.61,1.07s.79,1,1.04,1.63c.25.62.38,1.31.38,2.04s-.13,1.42-.38,2.04c-.25.62-.59,1.17-1.03,1.63-.44.46-.95.82-1.55,1.07-.6.26-1.24.39-1.92.39-.87,0-1.64-.19-2.3-.57-.66-.38-1.14-.85-1.45-1.41h-.04v6.48h-1.63v-14.5ZM224.04,96.31c0,.51.08.99.24,1.43.16.44.39.82.7,1.15.31.33.67.58,1.09.77.42.19.9.28,1.43.28s1-.09,1.43-.28c.42-.19.79-.44,1.1-.77.31-.33.54-.71.7-1.15s.24-.91.24-1.43-.08-.99-.24-1.43c-.16-.44-.39-.82-.7-1.15-.31-.33-.67-.58-1.1-.77-.42-.19-.9-.28-1.43-.28s-1,.09-1.43.28c-.42.19-.79.44-1.09.77s-.54.71-.7,1.15c-.16.44-.24.91-.24,1.43Z"/>
        <path class="cls-1" d="M265.56,93.75c0-.44-.01-.86-.04-1.25-.03-.39-.04-.74-.04-1.06h1.54c0,.26,0,.53.02.79.01.26.02.54.02.81h.04c.11-.24.27-.47.47-.69s.44-.42.72-.59c.28-.17.59-.31.94-.42s.72-.16,1.13-.16c.11,0,.22,0,.33.02.11.01.22.04.33.08l-.11,1.65c-.28-.08-.57-.13-.87-.13-1,0-1.73.32-2.18.97s-.68,1.53-.68,2.66v4.75h-1.63v-7.44Z"/>
        <path class="cls-1" d="M287.86,99.42c-.58.75-1.22,1.27-1.92,1.57-.7.3-1.5.45-2.42.45-.76,0-1.45-.14-2.06-.41-.61-.27-1.13-.64-1.55-1.09-.42-.46-.75-1-.98-1.62-.23-.63-.34-1.29-.34-2,0-.75.12-1.44.37-2.07.25-.63.6-1.17,1.04-1.63.44-.45.97-.8,1.58-1.05.61-.25,1.28-.37,2-.37.68,0,1.31.11,1.88.34.57.23,1.06.56,1.47,1,.41.44.73.97.95,1.6.22.63.33,1.35.33,2.16v.52h-7.88c.03.42.13.82.3,1.2.17.38.4.72.68,1s.61.51.98.68c.37.17.79.25,1.23.25.71,0,1.31-.12,1.79-.37.48-.25.92-.62,1.31-1.1l1.23.96ZM286.46,95.44c-.03-.83-.3-1.5-.81-2-.51-.5-1.22-.75-2.12-.75s-1.63.25-2.19.75c-.56.5-.89,1.17-1,2h6.12Z"/>
        <path class="cls-1" d="M297.19,98.63c.32.4.67.72,1.05.96.38.24.86.35,1.45.35.25,0,.5-.03.76-.08.26-.06.49-.15.7-.27.21-.13.37-.28.5-.47s.19-.41.19-.68-.06-.48-.18-.65c-.12-.17-.27-.31-.47-.43-.19-.12-.42-.21-.67-.28-.25-.07-.51-.13-.77-.19-.46-.1-.9-.21-1.31-.33-.42-.12-.78-.29-1.09-.49-.31-.2-.56-.46-.75-.78s-.28-.73-.28-1.23c0-.47.11-.89.31-1.25.21-.36.49-.66.83-.9.35-.24.74-.42,1.17-.54.43-.13.87-.19,1.33-.19.7,0,1.34.14,1.93.42.59.28,1.05.73,1.39,1.35l-1.35.9c-.21-.35-.48-.63-.82-.84s-.75-.32-1.24-.32c-.22,0-.45.03-.68.08-.23.06-.43.14-.62.25-.18.11-.33.25-.45.43s-.18.37-.18.59c0,.21.06.39.2.53s.31.27.54.39.49.21.79.29c.3.08.61.15.93.21.43.08.84.19,1.23.32.39.13.73.31,1.02.53.29.22.52.5.69.83s.25.74.25,1.23c0,.56-.11,1.03-.33,1.42-.22.39-.52.71-.89.95-.37.24-.79.42-1.25.53-.46.11-.94.17-1.43.17-.83,0-1.55-.13-2.16-.39s-1.15-.73-1.64-1.43l1.29-1Z"/>
        <path class="cls-1" d="M311.55,96.31c0-.76.13-1.46.4-2.08.26-.63.63-1.16,1.08-1.62.46-.45,1.01-.8,1.65-1.05.64-.25,1.33-.37,2.08-.37s1.44.12,2.08.37c.64.25,1.19.6,1.65,1.05.46.45.82.99,1.08,1.62.26.62.4,1.32.4,2.08s-.13,1.46-.4,2.08-.63,1.16-1.08,1.61c-.46.45-1.01.8-1.65,1.05-.64.25-1.33.37-2.08.37s-1.45-.13-2.08-.37c-.64-.25-1.19-.6-1.65-1.05-.46-.45-.82-.99-1.08-1.61s-.4-1.32-.4-2.08ZM313.3,96.31c0,.51.08.99.24,1.43s.39.82.7,1.15c.31.33.67.58,1.09.77.42.19.9.28,1.43.28s1-.09,1.43-.28c.42-.19.79-.44,1.09-.77.31-.33.54-.71.7-1.15.16-.44.24-.91.24-1.43s-.08-.99-.24-1.43c-.16-.44-.39-.82-.7-1.15s-.67-.58-1.09-.77c-.42-.19-.9-.28-1.43-.28s-1,.09-1.43.28c-.42.19-.79.44-1.09.77-.31.33-.54.71-.7,1.15-.16.44-.24.91-.24,1.43Z"/>
        <path class="cls-1" d="M330.74,93.75c0-.44-.01-.86-.04-1.25-.03-.39-.04-.74-.04-1.06h1.54c0,.26,0,.53.02.79.01.26.02.54.02.81h.04c.11-.24.27-.47.47-.69s.44-.42.72-.59c.28-.17.59-.31.94-.42s.72-.16,1.13-.16c.11,0,.22,0,.33.02.11.01.22.04.33.08l-.11,1.65c-.28-.08-.57-.13-.87-.13-1,0-1.73.32-2.18.97s-.68,1.53-.68,2.66v4.75h-1.63v-7.44Z"/>
        <path class="cls-1" d="M349.66,92.81h-2.88v4.88c0,.32,0,.61.02.89.01.27.07.51.17.71.1.2.24.36.44.48s.47.18.83.18c.24,0,.48-.03.73-.08.25-.06.48-.14.71-.25l.06,1.48c-.28.13-.59.22-.93.27-.34.06-.66.08-.97.08-.58,0-1.05-.08-1.4-.23-.35-.15-.62-.37-.81-.65-.19-.28-.32-.62-.38-1.03-.06-.41-.09-.86-.09-1.37v-5.36h-2.13v-1.38h2.13v-2.77h1.62v2.77h2.88v1.38Z"/>
        <path class="cls-1" d="M358.12,98.63c.32.4.67.72,1.05.96.38.24.86.35,1.45.35.25,0,.5-.03.76-.08.26-.06.49-.15.7-.27.21-.13.37-.28.5-.47s.19-.41.19-.68-.06-.48-.18-.65c-.12-.17-.27-.31-.47-.43-.19-.12-.42-.21-.67-.28-.25-.07-.51-.13-.77-.19-.46-.1-.9-.21-1.31-.33-.42-.12-.78-.29-1.09-.49-.31-.2-.56-.46-.75-.78s-.28-.73-.28-1.23c0-.47.11-.89.31-1.25.21-.36.49-.66.83-.9.35-.24.74-.42,1.17-.54.43-.13.87-.19,1.33-.19.7,0,1.34.14,1.93.42.59.28,1.05.73,1.39,1.35l-1.35.9c-.21-.35-.48-.63-.82-.84-.34-.22-.75-.32-1.24-.32-.22,0-.45.03-.68.08-.23.06-.43.14-.62.25-.18.11-.33.25-.45.43s-.18.37-.18.59c0,.21.06.39.2.53s.31.27.54.39.49.21.79.29c.3.08.61.15.93.21.43.08.84.19,1.23.32.39.13.73.31,1.02.53s.52.5.69.83.25.74.25,1.23c0,.56-.11,1.03-.33,1.42-.22.39-.52.71-.89.95-.37.24-.79.42-1.25.53-.46.11-.94.17-1.43.17-.83,0-1.55-.13-2.16-.39s-1.15-.73-1.64-1.43l1.29-1Z"/>
      </g>
      <g>
        <path class="cls-1" d="M73.23,13.26c-1.3-2.1-3.03-3.63-5.19-4.59-2.16-.96-4.42-1.44-6.77-1.44-1.73,0-3.43.22-5.1.65-1.67.43-3.17,1.08-4.5,1.95-1.33.87-2.4,2.01-3.2,3.43-.8,1.42-1.21,3.09-1.21,5.01,0,1.48.23,2.8.7,3.94.46,1.14,1.22,2.18,2.27,3.11,1.05.93,2.47,1.79,4.26,2.59,1.79.8,3.98,1.61,6.58,2.41,2.53.8,4.99,1.67,7.37,2.6,2.38.93,4.48,2.1,6.3,3.52,1.82,1.42,3.27,3.2,4.36,5.33,1.08,2.13,1.62,4.81,1.62,8.02s-.65,6.12-1.95,8.53c-1.3,2.41-3.01,4.4-5.14,5.98-2.13,1.58-4.59,2.75-7.37,3.52-2.78.77-5.66,1.16-8.62,1.16-1.92,0-3.83-.17-5.75-.51-1.92-.34-3.75-.86-5.52-1.58-1.76-.71-3.42-1.64-4.96-2.78-1.54-1.14-2.87-2.55-3.99-4.22l6.68-5.47c1.42,2.41,3.4,4.23,5.93,5.47,2.53,1.24,5.22,1.86,8.06,1.86,1.67,0,3.35-.25,5.05-.74,1.7-.49,3.23-1.22,4.59-2.18,1.36-.96,2.47-2.15,3.34-3.57.86-1.42,1.3-3.06,1.3-4.91,0-2.04-.34-3.69-1.02-4.96-.68-1.27-1.73-2.36-3.15-3.29-1.42-.93-3.22-1.76-5.38-2.5-2.16-.74-4.7-1.61-7.6-2.6-2.35-.74-4.51-1.59-6.49-2.55-1.98-.96-3.69-2.13-5.14-3.52-1.45-1.39-2.6-3.06-3.43-5.01-.83-1.95-1.25-4.28-1.25-7,0-3.15.62-5.9,1.86-8.25,1.23-2.35,2.9-4.31,5.01-5.89,2.1-1.58,4.48-2.76,7.14-3.57,2.66-.8,5.44-1.2,8.34-1.2,3.71,0,7.09.57,10.15,1.71,3.06,1.14,5.79,3.14,8.2,5.98l-6.4,5.56Z"/>
        <path class="cls-1" d="M121.43,1.67h41.25v7.23h-33.47v20.58h31.24v7.23h-31.24v23.36h35.14v7.23h-42.92V1.67Z"/>
        <path class="cls-1" d="M204.22,1.67h41.25v7.23h-33.47v20.58h31.24v7.23h-31.24v23.36h35.13v7.23h-42.92V1.67Z"/>
        <path class="cls-1" d="M281.53,60.35l37.92-51.45h-37.36V1.67h46.82v6.67l-37.92,51.73h38.38v7.23h-47.84v-6.95Z"/>
        <path class="cls-1" d="M368.02,1.67h9.83l38.01,54.51h.18V1.67h7.79v65.63h-9.83l-38.01-54.51h-.19v54.51h-7.79V1.67Z"/>
      </g>
      <circle class="cls-1" cx="5.78" cy="62.13" r="5.63"/>
      <rect class="cls-1" y="43.77" width="423.83" height="2.11"/>
    </g>
  </g>
</svg>