<?xml version="1.0" encoding="UTF-8"?>
<svg id="_レイヤー_2" data-name="レイヤー 2" xmlns="http://www.w3.org/2000/svg" viewBox="0 0 1125 145">
  <defs>
    <style>
      .cls-1 {
        fill: #ffff82;
      }

      .cls-1, .cls-2, .cls-3 {
        stroke-width: 0px;
      }

      .cls-2 {
        fill: #000;
      }

      .cls-4 {
        opacity: .5;
      }

      .cls-3 {
        fill: #fff;
      }
    </style>
  </defs>
  <g id="_レイヤー_1-2" data-name="レイヤー 1">
    <g>
      <g class="cls-4">
        <rect class="cls-2" width="1125" height="145"/>
      </g>
      <g>
        <path class="cls-1" d="M386.06,78.75c-.97-3.76-2.57-7.47-7.92-7.47-4.45,0-5.99,3.25-5.99,6.21,0,3.93,2.51,5.93,7.24,8.38,6.84,3.53,9.81,6.16,9.81,11.57,0,5.99-5.19,10.55-12.54,10.55-3.42,0-6.38-.97-8.72-1.88-.46-1.6-1.14-5.47-1.54-8.55l1.77-.46c1.14,3.82,3.65,8.78,9.58,8.78,4.1,0,6.61-2.85,6.61-6.56,0-4.39-2.34-6.16-7.35-8.89-5.99-3.25-9.35-5.99-9.35-11.29s4.22-9.86,11.74-9.86c3.19,0,6.33.86,7.53,1.08.23,2.05.46,4.33.91,8.04l-1.77.34Z"/>
        <path class="cls-1" d="M424.37,79.04c-.51-1.82-1.2-3.71-1.82-4.73-.91-1.54-1.48-1.94-4.62-1.94h-5.7v27.76c0,4.45.46,5.07,5.87,5.42v1.6h-16.59v-1.6c5.3-.34,5.76-.91,5.76-5.42v-27.76h-5.19c-3.14,0-4.05.34-5.02,2.05-.68,1.14-1.14,2.51-1.88,4.62h-1.71c.34-3.48.68-7.07.86-10.26h1.31c.86,1.37,1.48,1.31,3.08,1.31h22.57c1.6,0,2.05-.23,2.91-1.31h1.37c0,2.68.23,6.78.51,10.09l-1.71.17Z"/>
        <path class="cls-1" d="M449.62,107.14v-1.6c3.71-.46,4.16-1.03,3.36-3.19-.74-2.22-1.88-5.07-3.08-8.67h-12.31c-.91,2.57-1.77,4.79-2.57,7.13-1.25,3.71-.46,4.16,4.22,4.73v1.6h-13.17v-1.6c3.59-.46,4.5-.86,6.5-5.99l11.8-29.93,1.82-.34c3.59,9.75,7.52,20.52,11.12,30.38,1.82,4.96,2.34,5.42,6.38,5.87v1.6h-14.08ZM443.92,76.76c-1.82,4.9-3.76,10.09-5.47,14.59h10.66l-5.19-14.59Z"/>
        <path class="cls-1" d="M490.03,78.98c-.51-1.6-.97-2.96-1.77-4.22-1.08-1.94-1.94-2.39-5.13-2.39h-6.1c-1.65,0-1.82.17-1.82,1.82v13.17h7.07c4.1,0,4.39-.68,5.24-4.67h1.71v11.91h-1.77c-.74-3.99-1.14-4.9-5.19-4.9h-7.07v10.2c0,4.96.57,5.19,5.76,5.64v1.6h-15.85v-1.6c4.62-.34,5.13-.74,5.13-5.64v-22.57c0-4.96-.57-5.19-5.13-5.64v-1.6h18.07c5.13,0,7.07-.06,8.04-.11.06,2.05.28,6.04.57,8.78l-1.77.23Z"/>
        <path class="cls-1" d="M521.33,78.98c-.51-1.6-.97-2.96-1.77-4.22-1.08-1.94-1.94-2.39-5.13-2.39h-6.1c-1.65,0-1.82.17-1.82,1.82v13.17h7.07c4.1,0,4.39-.68,5.24-4.67h1.71v11.91h-1.77c-.74-3.99-1.14-4.9-5.19-4.9h-7.07v10.2c0,4.96.57,5.19,5.76,5.64v1.6h-15.85v-1.6c4.62-.34,5.13-.74,5.13-5.64v-22.57c0-4.96-.57-5.19-5.13-5.64v-1.6h18.07c5.13,0,7.07-.06,8.04-.11.06,2.05.28,6.04.57,8.78l-1.77.23Z"/>
        <path class="cls-1" d="M592.12,71.69c-3.99.57-4.56,1.03-6.1,5.7-1.88,5.7-6.44,20.18-9.58,30.38h-1.94c-2.96-8.89-6.78-19.9-9.75-28.33-3.31,9.81-6.67,19.55-9.63,28.33h-1.88c-2.85-9.81-6.1-20.47-9.18-30.44-1.48-4.62-2.11-5.24-5.81-5.64v-1.6h14.08v1.6c-4.22.46-4.33,1.08-3.53,3.93,2.22,7.7,4.5,15.28,6.84,23.32,3.14-9.06,6.56-18.98,9.46-28.33h1.82c3.19,9.69,6.38,18.7,9.69,28.39,2.39-7.58,5.64-17.73,6.9-22.69.85-3.31.4-4.05-4.45-4.62v-1.6h13.05v1.6Z"/>
        <path class="cls-1" d="M612.87,107.14v-1.6c3.71-.46,4.16-1.03,3.36-3.19-.74-2.22-1.88-5.07-3.08-8.67h-12.31c-.91,2.57-1.77,4.79-2.57,7.13-1.25,3.71-.46,4.16,4.22,4.73v1.6h-13.17v-1.6c3.59-.46,4.5-.86,6.5-5.99l11.8-29.93,1.82-.34c3.59,9.75,7.52,20.52,11.12,30.38,1.82,4.96,2.34,5.42,6.38,5.87v1.6h-14.08ZM607.17,76.76c-1.82,4.9-3.76,10.09-5.47,14.59h10.66l-5.19-14.59Z"/>
        <path class="cls-1" d="M667.76,71.69c-3.65.4-4.85.97-5.02,3.59-.06,1.82-.17,4.22-.17,9.52v22.86h-2.17l-24.4-29.81v14.25c0,5.13.17,7.7.29,9.35.11,2.91,1.54,3.76,5.64,4.1v1.6h-13.85v-1.6c3.53-.28,4.9-1.14,5.13-3.93.17-1.82.29-4.39.29-9.58v-14.54c0-1.6-.11-2.51-1.14-3.76-1.08-1.43-2.28-1.77-5.07-2.05v-1.6h8.55l24.17,28.67v-13.97c0-5.3-.11-7.75-.29-9.46-.17-2.57-1.48-3.36-6.04-3.65v-1.6h14.08v1.6Z"/>
        <path class="cls-1" d="M701.84,79.04c-.51-1.82-1.2-3.71-1.82-4.73-.91-1.54-1.48-1.94-4.62-1.94h-5.7v27.76c0,4.45.46,5.07,5.87,5.42v1.6h-16.59v-1.6c5.3-.34,5.76-.91,5.76-5.42v-27.76h-5.19c-3.14,0-4.05.34-5.02,2.05-.68,1.14-1.14,2.51-1.88,4.62h-1.71c.34-3.48.68-7.07.86-10.26h1.31c.86,1.37,1.48,1.31,3.08,1.31h22.57c1.6,0,2.05-.23,2.91-1.31h1.37c0,2.68.23,6.78.51,10.09l-1.71.17Z"/>
        <path class="cls-1" d="M737.47,98.08c-.34,1.48-1.88,7.35-2.45,9.06h-27.71v-1.6c5.3-.4,5.7-.91,5.7-5.59v-22.52c0-5.07-.63-5.36-4.9-5.76v-1.6h17.44c5.36,0,7.58-.06,8.27-.11.06,1.43.28,5.7.51,8.72l-1.71.29c-.51-1.94-1.08-3.14-1.71-4.33-.91-1.88-2.22-2.28-5.64-2.28h-5.42c-1.77,0-1.88.17-1.88,1.82v12.6h6.33c4.28,0,4.56-.86,5.24-4.73h1.77v11.74h-1.77c-.74-4.1-1.2-4.67-5.3-4.67h-6.27v11.34c0,3.99,1.25,4.33,4.1,4.39h5.3c3.48,0,4.05-.51,5.3-2,1.08-1.2,2.28-3.53,3.08-5.24l1.71.46Z"/>
        <path class="cls-1" d="M757.3,70.09c8.04,0,13.11,1.6,16.65,4.96,2.79,2.74,4.84,6.73,4.84,12.2,0,6.67-2.74,12.09-7.12,15.39-4.33,3.25-9.86,4.5-16.87,4.5h-13.34v-1.6c4.9-.46,5.13-.86,5.13-5.53v-22.75c0-4.9-.68-5.13-5.13-5.59v-1.6h15.85ZM751.54,99.56c0,4.28,1.82,5.47,6.1,5.47,10.26,0,15.51-7.01,15.51-16.99,0-6.21-2.11-10.95-6.61-13.68-2.62-1.65-5.93-2.28-9.75-2.28-2.57,0-3.93.34-4.5.8-.51.34-.74.97-.74,3.19v23.49Z"/>
      </g>
      <g>
        <path class="cls-3" d="M512.89,51.01c2.15-1.07,5.47-2.95,8.57-4.72l.53,1.5c-2.75,1.67-5.72,3.42-7.65,4.5,0,.2-.08.4-.22.5l-1.22-1.77ZM525.39,38.06c.7,2.12,1.65,4.17,2.8,6.02,1.65-1.47,3.65-3.57,4.85-5.17l1.7,1.27c-.12.15-.35.18-.55.12-1.3,1.52-3.45,3.62-5.17,5.02,1.97,2.8,4.47,5.07,7.37,6.32-.4.32-.95.97-1.22,1.45-4.27-2.07-7.57-6.2-9.77-11.15v10.67c0,2.3-1.1,2.42-5.7,2.42-.1-.5-.35-1.27-.62-1.77.75.02,1.47.02,2.12.02q2.47,0,2.47-.67v-14.87h-10.1v-1.65h10.1v-4.27l2.2.15c-.03.17-.15.3-.48.35v3.77h10.27v1.65h-10.27v.3ZM516.29,39.39c1.58,1.35,3.4,3.3,4.2,4.65l-1.35.97c-.77-1.35-2.55-3.37-4.12-4.77l1.27-.85ZM528.94,31.92c1.57.82,3.62,2.02,4.7,2.87l-1.07,1.22c-1-.87-3.02-2.17-4.65-3.05l1.03-1.05Z"/>
        <path class="cls-3" d="M555.79,32.77c0,.2-.2.32-.52.38l-.05.72c.28,3.52,1.77,15.2,11.3,19.52-.48.35-1,.95-1.28,1.4-6.75-3.2-9.55-10-10.72-15.17h-.03c-1.05,5.07-3.62,11.57-10.4,15.15-.3-.4-.83-.92-1.35-1.27,10.42-5.22,10.5-17.52,10.67-20.9l2.37.18Z"/>
        <path class="cls-3" d="M575.57,36.89c0,2.22-.42,4.92-1.45,6.52-.92-.55-1.08-.62-1.25-.7.9-1.37,1.3-3.92,1.35-6.02l1.35.2ZM576.54,31.77l2.12.15c-.03.18-.15.3-.48.32v22.72h-1.65v-23.19ZM580.39,39.86c-.35-.95-1.12-2.52-1.8-3.67l1.15-.57c.73,1.12,1.52,2.6,1.85,3.52l-1.2.72ZM589.16,40.19h6.97v1.42h-15.47v-1.42h6.75v-1.82h-4.87v-1.3h4.87v-1.7h-5.87v-1.35h5.87v-2.25l2.25.15c-.03.18-.15.3-.5.35v1.75h6.1v1.35h-6.1v1.7h5.07v1.3h-5.07v1.82ZM593.89,43.29v9.92c0,1.62-.65,1.8-4.12,1.8-.07-.43-.3-1.02-.52-1.45.7.03,1.35.05,1.82.05,1.03,0,1.15,0,1.15-.4v-2.22h-7.77v3.97h-1.62v-11.67h11.07ZM592.21,44.66h-7.77v1.87h7.77v-1.87ZM584.44,49.71h7.77v-1.9h-7.77v1.9Z"/>
        <path class="cls-3" d="M609.61,35.79v2.8h5.02v1.47h-11.6v-1.47h5v-2.8h-4v-1.45h4v-2.52l2.05.12c-.03.17-.15.3-.48.32v2.07h3.97v1.45h-3.97ZM610.04,44.06c.53-1,1.17-2.65,1.5-3.72l1.77.6c-.08.15-.25.22-.52.22-.4.87-1.03,2.2-1.6,3.1h3v1.47h-4.6v2.9h4.27v1.47h-4.27v4.92h-1.58v-4.92h-4.3v-1.47h4.3v-2.9h-4.62v-1.47h7.1l-.45-.2ZM605.94,44.11c-.12-.9-.6-2.35-1.15-3.45l1.3-.35c.55,1.07,1.05,2.5,1.2,3.37l-1.35.42ZM624.29,42.46l1.05.37c-.05.15-.1.23-.17.32-.45,2.65-1.38,5.27-2.75,7.52,1.1,1.25,2.38,2.25,3.8,2.87-.4.35-.92,1-1.17,1.45-1.35-.7-2.55-1.7-3.6-2.92-.85,1.05-1.8,1.97-2.92,2.72-.28-.38-.75-.85-1.15-1.12,1.17-.77,2.2-1.77,3.05-2.95-1.22-1.72-2.17-3.77-2.82-5.92l1.35-.35c.55,1.72,1.37,3.4,2.37,4.85.92-1.62,1.58-3.45,1.97-5.3h-6.37v11.02h-1.6v-22.07h9.72v6.27c0,1.8-.9,1.8-4.3,1.8-.05-.42-.3-1.02-.5-1.45.65,0,1.27.02,1.75.02,1.38,0,1.47,0,1.47-.4v-4.7h-6.55v8.02h7.07l.3-.07Z"/>
      </g>
    </g>
  </g>
</svg>