<?xml version="1.0" encoding="UTF-8"?>
<svg id="_レイヤー_2" data-name="レイヤー 2" xmlns="http://www.w3.org/2000/svg" viewBox="0 0 442 88.9">
  <defs>
    <style>
      .cls-1 {
        fill: #ffff82;
      }

      .cls-1, .cls-2, .cls-3 {
        stroke-width: 0px;
      }

      .cls-4 {
        opacity: .7;
      }

      .cls-2 {
        fill: #000;
      }

      .cls-3 {
        fill: #fff;
      }
    </style>
  </defs>
  <g id="_レイヤー_1-2" data-name="レイヤー 1">
    <g>
      <g class="cls-4">
        <rect class="cls-2" y="0" width="442" height="88.9"/>
      </g>
      <g>
        <path class="cls-1" d="M119.98,44.53c-.54-2.08-1.42-4.14-4.39-4.14-2.46,0-3.32,1.8-3.32,3.44,0,2.18,1.39,3.28,4.01,4.64,3.79,1.96,5.43,3.41,5.43,6.41,0,3.32-2.88,5.84-6.95,5.84-1.9,0-3.54-.54-4.83-1.04-.25-.88-.63-3.03-.85-4.74l.98-.25c.63,2.12,2.02,4.86,5.31,4.86,2.27,0,3.66-1.58,3.66-3.63,0-2.43-1.29-3.41-4.07-4.93-3.32-1.8-5.18-3.32-5.18-6.25s2.34-5.46,6.51-5.46c1.77,0,3.51.47,4.17.6.13,1.14.25,2.4.5,4.45l-.98.19Z"/>
        <path class="cls-1" d="M141.21,44.69c-.28-1.01-.66-2.05-1.01-2.62-.51-.85-.82-1.07-2.56-1.07h-3.16v15.38c0,2.46.25,2.81,3.25,3v.88h-9.19v-.88c2.94-.19,3.19-.51,3.19-3v-15.38h-2.88c-1.74,0-2.24.19-2.78,1.14-.38.63-.63,1.39-1.04,2.56h-.95c.19-1.93.38-3.92.47-5.69h.73c.47.76.82.73,1.71.73h12.51c.88,0,1.14-.13,1.61-.73h.76c0,1.48.13,3.76.28,5.59l-.95.09Z"/>
        <path class="cls-1" d="M155.2,60.26v-.88c2.05-.25,2.31-.57,1.86-1.77-.41-1.23-1.04-2.81-1.71-4.8h-6.82c-.51,1.42-.98,2.65-1.42,3.95-.69,2.05-.25,2.31,2.34,2.62v.88h-7.3v-.88c1.99-.25,2.5-.47,3.6-3.32l6.54-16.58,1.01-.19c1.99,5.4,4.17,11.37,6.16,16.84,1.01,2.75,1.29,3,3.54,3.25v.88h-7.8ZM152.04,43.43c-1.01,2.72-2.08,5.59-3.03,8.09h5.91l-2.87-8.09Z"/>
        <path class="cls-1" d="M177.6,44.66c-.28-.88-.54-1.64-.98-2.34-.6-1.07-1.07-1.33-2.84-1.33h-3.38c-.92,0-1.01.09-1.01,1.01v7.3h3.92c2.27,0,2.43-.38,2.91-2.59h.95v6.6h-.98c-.41-2.21-.63-2.72-2.87-2.72h-3.92v5.65c0,2.75.32,2.87,3.19,3.13v.88h-8.78v-.88c2.56-.19,2.84-.41,2.84-3.13v-12.51c0-2.75-.32-2.87-2.84-3.13v-.88h10.01c2.84,0,3.92-.03,4.45-.06.03,1.14.16,3.35.32,4.86l-.98.13Z"/>
        <path class="cls-1" d="M194.94,44.66c-.28-.88-.54-1.64-.98-2.34-.6-1.07-1.07-1.33-2.84-1.33h-3.38c-.92,0-1.01.09-1.01,1.01v7.3h3.92c2.27,0,2.43-.38,2.91-2.59h.95v6.6h-.98c-.41-2.21-.63-2.72-2.87-2.72h-3.92v5.65c0,2.75.32,2.87,3.19,3.13v.88h-8.78v-.88c2.56-.19,2.84-.41,2.84-3.13v-12.51c0-2.75-.32-2.87-2.84-3.13v-.88h10.01c2.84,0,3.92-.03,4.45-.06.03,1.14.16,3.35.32,4.86l-.98.13Z"/>
        <path class="cls-1" d="M234.17,40.62c-2.21.32-2.53.57-3.38,3.16-1.04,3.16-3.57,11.18-5.31,16.84h-1.07c-1.64-4.93-3.76-11.02-5.4-15.7-1.83,5.43-3.7,10.83-5.34,15.7h-1.04c-1.58-5.43-3.38-11.34-5.08-16.87-.82-2.56-1.17-2.91-3.22-3.13v-.88h7.8v.88c-2.34.25-2.4.6-1.96,2.18,1.23,4.26,2.5,8.46,3.79,12.92,1.74-5.02,3.63-10.52,5.24-15.7h1.01c1.77,5.37,3.54,10.36,5.37,15.73,1.33-4.2,3.13-9.82,3.82-12.57.47-1.83.22-2.24-2.46-2.56v-.88h7.23v.88Z"/>
        <path class="cls-1" d="M245.67,60.26v-.88c2.05-.25,2.31-.57,1.86-1.77-.41-1.23-1.04-2.81-1.71-4.8h-6.82c-.51,1.42-.98,2.65-1.42,3.95-.69,2.05-.25,2.31,2.34,2.62v.88h-7.3v-.88c1.99-.25,2.5-.47,3.6-3.32l6.54-16.58,1.01-.19c1.99,5.4,4.17,11.37,6.16,16.84,1.01,2.75,1.29,3,3.54,3.25v.88h-7.8ZM242.52,43.43c-1.01,2.72-2.08,5.59-3.03,8.09h5.91l-2.87-8.09Z"/>
        <path class="cls-1" d="M276.09,40.62c-2.02.22-2.68.54-2.78,1.99-.03,1.01-.09,2.34-.09,5.27v12.67h-1.2l-13.52-16.52v7.9c0,2.84.09,4.26.16,5.18.06,1.61.85,2.08,3.13,2.27v.88h-7.67v-.88c1.96-.16,2.72-.63,2.84-2.18.09-1.01.16-2.43.16-5.31v-8.05c0-.88-.06-1.39-.63-2.08-.6-.79-1.26-.98-2.81-1.14v-.88h4.74l13.39,15.89v-7.74c0-2.94-.06-4.3-.16-5.24-.09-1.42-.82-1.86-3.35-2.02v-.88h7.8v.88Z"/>
        <path class="cls-1" d="M294.99,44.69c-.28-1.01-.66-2.05-1.01-2.62-.51-.85-.82-1.07-2.56-1.07h-3.16v15.38c0,2.46.25,2.81,3.25,3v.88h-9.19v-.88c2.94-.19,3.19-.51,3.19-3v-15.38h-2.87c-1.74,0-2.24.19-2.78,1.14-.38.63-.63,1.39-1.04,2.56h-.95c.19-1.93.38-3.92.47-5.69h.73c.47.76.82.73,1.71.73h12.51c.88,0,1.14-.13,1.61-.73h.76c0,1.48.13,3.76.28,5.59l-.95.09Z"/>
        <path class="cls-1" d="M314.73,55.24c-.19.82-1.04,4.07-1.36,5.02h-15.35v-.88c2.94-.22,3.16-.51,3.16-3.1v-12.48c0-2.81-.35-2.97-2.72-3.19v-.88h9.67c2.97,0,4.2-.03,4.58-.06.03.79.16,3.16.28,4.83l-.95.16c-.28-1.07-.6-1.74-.95-2.4-.5-1.04-1.23-1.26-3.13-1.26h-3c-.98,0-1.04.09-1.04,1.01v6.98h3.51c2.37,0,2.53-.47,2.91-2.62h.98v6.51h-.98c-.41-2.27-.66-2.59-2.94-2.59h-3.47v6.29c0,2.21.7,2.4,2.27,2.43h2.94c1.93,0,2.24-.28,2.94-1.11.6-.66,1.26-1.96,1.71-2.91l.95.25Z"/>
        <path class="cls-1" d="M325.72,39.73c4.45,0,7.26.88,9.22,2.75,1.55,1.52,2.69,3.73,2.69,6.76,0,3.7-1.52,6.7-3.95,8.53-2.4,1.8-5.46,2.5-9.35,2.5h-7.39v-.88c2.72-.25,2.84-.47,2.84-3.06v-12.6c0-2.72-.38-2.84-2.84-3.1v-.88h8.78ZM322.53,56.06c0,2.37,1.01,3.03,3.38,3.03,5.69,0,8.59-3.89,8.59-9.41,0-3.44-1.17-6.06-3.66-7.58-1.45-.92-3.29-1.26-5.4-1.26-1.42,0-2.18.19-2.5.44-.28.19-.41.54-.41,1.77v13.01Z"/>
      </g>
      <g>
        <path class="cls-3" d="M188.61,29.15c1.19-.6,3.03-1.64,4.75-2.62l.29.83c-1.52.93-3.17,1.9-4.24,2.49,0,.11-.04.22-.12.28l-.68-.98ZM195.54,21.98c.39,1.18.91,2.31,1.55,3.34.91-.82,2.02-1.98,2.69-2.87l.94.71c-.07.08-.19.1-.3.07-.72.85-1.91,2.01-2.87,2.78,1.09,1.55,2.48,2.81,4.09,3.51-.22.18-.53.54-.68.8-2.37-1.15-4.2-3.44-5.42-6.18v5.92c0,1.27-.61,1.34-3.16,1.34-.06-.28-.19-.71-.35-.98.42.01.82.01,1.18.01q1.37,0,1.37-.37v-8.24h-5.6v-.91h5.6v-2.37l1.22.08c-.01.1-.08.17-.26.19v2.09h5.69v.91h-5.69v.17ZM190.49,22.71c.87.75,1.88,1.83,2.33,2.58l-.75.54c-.43-.75-1.41-1.87-2.29-2.65l.71-.47ZM197.5,18.57c.87.46,2.01,1.12,2.6,1.59l-.6.68c-.55-.48-1.68-1.21-2.58-1.69l.57-.58Z"/>
        <path class="cls-3" d="M212.39,19.04c0,.11-.11.18-.29.21l-.03.4c.15,1.95.98,8.42,6.26,10.82-.26.19-.55.53-.71.78-3.74-1.77-5.29-5.54-5.94-8.41h-.01c-.58,2.81-2.01,6.41-5.76,8.4-.17-.22-.46-.51-.75-.71,5.78-2.9,5.82-9.71,5.92-11.58l1.32.1Z"/>
        <path class="cls-3" d="M223.34,21.33c0,1.23-.24,2.73-.8,3.62-.51-.3-.6-.35-.69-.39.5-.76.72-2.18.75-3.34l.75.11ZM223.89,18.49l1.18.08c-.01.1-.08.17-.26.18v12.59h-.91v-12.86ZM226.02,22.97c-.19-.53-.62-1.4-1-2.04l.64-.32c.4.62.84,1.44,1.02,1.95l-.67.4ZM230.88,23.15h3.87v.79h-8.58v-.79h3.74v-1.01h-2.7v-.72h2.7v-.94h-3.26v-.75h3.26v-1.25l1.25.08c-.01.1-.08.17-.28.19v.97h3.38v.75h-3.38v.94h2.81v.72h-2.81v1.01ZM233.5,24.87v5.5c0,.9-.36,1-2.29,1-.04-.24-.17-.57-.29-.8.39.01.75.03,1.01.03.57,0,.64,0,.64-.22v-1.23h-4.31v2.2h-.9v-6.47h6.14ZM232.57,25.63h-4.31v1.04h4.31v-1.04ZM228.26,28.43h4.31v-1.05h-4.31v1.05Z"/>
        <path class="cls-3" d="M242.22,20.72v1.55h2.78v.82h-6.43v-.82h2.77v-1.55h-2.22v-.8h2.22v-1.4l1.14.07c-.01.1-.08.17-.26.18v1.15h2.2v.8h-2.2ZM242.45,25.3c.29-.55.65-1.47.83-2.06l.98.33c-.04.08-.14.12-.29.12-.22.48-.57,1.22-.89,1.72h1.66v.82h-2.55v1.61h2.37v.82h-2.37v2.73h-.87v-2.73h-2.38v-.82h2.38v-1.61h-2.56v-.82h3.93l-.25-.11ZM240.18,25.33c-.07-.5-.33-1.3-.64-1.91l.72-.19c.3.6.58,1.39.67,1.87l-.75.24ZM250.35,24.42l.58.21c-.03.08-.06.12-.1.18-.25,1.47-.76,2.92-1.52,4.17.61.69,1.32,1.25,2.11,1.59-.22.19-.51.55-.65.8-.75-.39-1.41-.94-2-1.62-.47.58-1,1.09-1.62,1.51-.15-.21-.42-.47-.64-.62.65-.43,1.22-.98,1.69-1.63-.68-.96-1.21-2.09-1.57-3.28l.75-.19c.3.96.76,1.88,1.32,2.69.51-.9.87-1.91,1.09-2.94h-3.53v6.11h-.89v-12.23h5.39v3.48c0,1-.5,1-2.38,1-.03-.24-.17-.57-.28-.8.36,0,.71.01.97.01.76,0,.82,0,.82-.22v-2.6h-3.63v4.45h3.92l.17-.04Z"/>
      </g>
    </g>
  </g>
</svg>