<?xml version="1.0" encoding="UTF-8"?>
<svg id="_レイヤー_2" data-name="レイヤー 2" xmlns="http://www.w3.org/2000/svg" viewBox="0 0 170 100">
  <defs>
    <style>
      .cls-1 {
        fill: #fff;
      }

      .cls-2 {
        stroke: #fff;
      }

      .cls-2, .cls-3 {
        fill: none;
        stroke-miterlimit: 10;
      }

      .cls-4 {
        fill: #c9974e;
      }

      .cls-3 {
        stroke: #000;
        stroke-width: .73px;
      }

      .cls-5 {
        opacity: .9;
      }
    </style>
  </defs>
  <g id="_レイヤー_1-2" data-name="レイヤー 1">
    <g>
      <g class="cls-5">
        <path class="cls-4" d="M13.57,0C6.08,0,0,6.72,0,15v70c0,8.28,6.08,15,13.57,15h156.43V0H13.57Z"/>
      </g>
      <polyline class="cls-3" points="77.55 51.55 95.02 51.55 91.65 46.25"/>
      <g>
        <path class="cls-1" d="M23.02,22.69c-.26,0-.48-.02-.74-.04-1.45-.1-2.23-.48-3.11-1.71-.74-1.02-1.45-2.27-2.09-3.29-.4-.64-.66-.76-1.67-.76h-.7v3.13c0,1.69.22,1.79,1.81,1.95v.56h-5.32v-.56c1.65-.18,1.79-.26,1.79-1.95v-7.95c0-1.69-.22-1.75-1.79-1.93v-.56h5.08c1.45,0,2.43.18,3.19.68.82.52,1.35,1.41,1.35,2.63,0,1.71-1.09,2.79-2.57,3.42.36.62,1.21,1.95,1.81,2.85.74,1.06,1.12,1.55,1.57,2.05.54.58,1,.8,1.45.92l-.08.56h.02ZM15.67,16.22c1.04,0,1.69-.16,2.19-.58.78-.58,1.1-1.37,1.1-2.45,0-2.13-1.41-2.91-2.95-2.91-.58,0-.92.08-1.06.2-.18.14-.24.34-.24.86v4.88h.96Z"/>
        <path class="cls-1" d="M35.74,19.37c-.12.52-.66,2.57-.86,3.17h-9.68v-.56c1.85-.14,1.99-.32,1.99-1.95v-7.87c0-1.77-.22-1.87-1.71-2.01v-.56h6.09c1.87,0,2.65-.02,2.89-.04.02.5.1,1.99.18,3.05l-.6.1c-.18-.68-.38-1.1-.6-1.51-.32-.66-.78-.8-1.97-.8h-1.89c-.62,0-.66.06-.66.64v4.4h2.21c1.49,0,1.59-.3,1.83-1.65h.62v4.1h-.62c-.26-1.43-.42-1.63-1.85-1.63h-2.19v3.96c0,1.39.44,1.51,1.43,1.53h1.85c1.21,0,1.41-.18,1.85-.7.38-.42.8-1.23,1.08-1.83l.6.16h0Z"/>
        <path class="cls-1" d="M46.04,12.62c-.34-1.31-.9-2.61-2.77-2.61-1.55,0-2.09,1.13-2.09,2.17,0,1.37.88,2.07,2.53,2.93,2.39,1.23,3.42,2.15,3.42,4.04,0,2.09-1.81,3.68-4.38,3.68-1.19,0-2.23-.34-3.05-.66-.16-.56-.4-1.91-.54-2.99l.62-.16c.4,1.33,1.27,3.07,3.35,3.07,1.43,0,2.31-1,2.31-2.29,0-1.53-.82-2.15-2.57-3.11-2.09-1.13-3.27-2.09-3.27-3.94s1.47-3.44,4.1-3.44c1.12,0,2.21.3,2.63.38.08.72.16,1.51.32,2.81l-.62.12h.01Z"/>
        <path class="cls-1" d="M61.25,19.37c-.12.52-.66,2.57-.86,3.17h-9.68v-.56c1.85-.14,1.99-.32,1.99-1.95v-7.87c0-1.77-.22-1.87-1.71-2.01v-.56h6.09c1.87,0,2.65-.02,2.89-.04.02.5.1,1.99.18,3.05l-.6.1c-.18-.68-.38-1.1-.6-1.51-.32-.66-.78-.8-1.97-.8h-1.89c-.62,0-.66.06-.66.64v4.4h2.21c1.49,0,1.59-.3,1.83-1.65h.62v4.1h-.62c-.26-1.43-.42-1.63-1.85-1.63h-2.19v3.96c0,1.39.44,1.51,1.43,1.53h1.85c1.21,0,1.41-.18,1.85-.7.38-.42.8-1.23,1.08-1.83l.6.16h0Z"/>
        <path class="cls-1" d="M76.45,22.69c-.26,0-.48-.02-.74-.04-1.45-.1-2.23-.48-3.11-1.71-.74-1.02-1.45-2.27-2.09-3.29-.4-.64-.66-.76-1.67-.76h-.7v3.13c0,1.69.22,1.79,1.81,1.95v.56h-5.32v-.56c1.65-.18,1.79-.26,1.79-1.95v-7.95c0-1.69-.22-1.75-1.79-1.93v-.56h5.08c1.45,0,2.43.18,3.19.68.82.52,1.35,1.41,1.35,2.63,0,1.71-1.1,2.79-2.57,3.42.36.62,1.21,1.95,1.81,2.85.74,1.06,1.12,1.55,1.57,2.05.54.58,1,.8,1.45.92l-.08.56h.02ZM69.1,16.22c1.04,0,1.69-.16,2.19-.58.78-.58,1.1-1.37,1.1-2.45,0-2.13-1.41-2.91-2.95-2.91-.58,0-.92.08-1.06.2-.18.14-.24.34-.24.86v4.88h.96Z"/>
        <path class="cls-1" d="M91,10.15c-1.33.18-1.67.36-2.39,2.15-.54,1.31-3.29,7.99-4.26,10.45h-.66c-1.17-3.21-2.89-7.87-4.02-10.81-.56-1.47-.9-1.67-2.11-1.79v-.56h5.06v.56c-1.47.16-1.55.4-1.27,1.14.5,1.45,1.95,5.42,3.21,8.72,1.06-2.57,2.37-5.81,3.31-8.32.44-1.15.2-1.33-1.43-1.53v-.56h4.58v.56h-.02Z"/>
        <path class="cls-1" d="M99.9,22.53v-.56c1.29-.16,1.45-.36,1.18-1.12-.26-.78-.66-1.77-1.08-3.03h-4.3c-.32.9-.62,1.67-.9,2.49-.44,1.29-.16,1.45,1.47,1.65v.56h-4.6v-.56c1.25-.16,1.57-.3,2.27-2.09l4.12-10.45.64-.12c1.25,3.41,2.63,7.17,3.88,10.61.64,1.73.82,1.89,2.23,2.05v.56h-4.92.01ZM97.91,11.92c-.64,1.71-1.31,3.52-1.91,5.1h3.72l-1.81-5.1Z"/>
        <path class="cls-1" d="M117.81,12.72c-.18-.64-.42-1.29-.64-1.65-.32-.54-.52-.68-1.61-.68h-1.99v9.7c0,1.55.16,1.77,2.05,1.89v.56h-5.79v-.56c1.85-.12,2.01-.32,2.01-1.89v-9.7h-1.81c-1.1,0-1.41.12-1.75.72-.24.4-.4.88-.66,1.61h-.6c.12-1.21.24-2.47.3-3.58h.46c.3.48.52.46,1.08.46h7.89c.56,0,.72-.08,1.02-.46h.48c0,.94.08,2.37.18,3.52l-.6.06h-.02Z"/>
        <path class="cls-1" d="M121.91,22.53v-.56c1.63-.18,1.79-.26,1.79-1.95v-7.91c0-1.71-.16-1.79-1.79-1.97v-.56h5.34v.56c-1.65.18-1.81.26-1.81,1.97v7.91c0,1.71.16,1.77,1.81,1.95v.56h-5.34Z"/>
        <path class="cls-1" d="M137.76,9.31c3.41,0,6.45,2.61,6.45,6.57,0,4.28-2.91,6.95-6.57,6.95s-6.61-2.91-6.61-6.65,2.53-6.87,6.73-6.87h0ZM137.36,10.05c-2.23,0-4.26,1.87-4.26,5.6s2.03,6.43,4.86,6.43c2.41,0,4.22-1.79,4.22-5.64,0-4.18-2.21-6.39-4.82-6.39Z"/>
        <path class="cls-1" d="M161.8,10.15c-1.27.14-1.69.34-1.75,1.25-.02.64-.06,1.47-.06,3.33v7.98h-.76l-8.52-10.41v4.98c0,1.79.06,2.69.1,3.27.04,1.02.54,1.31,1.97,1.43v.56h-4.84v-.56c1.23-.1,1.71-.4,1.79-1.37.06-.64.1-1.53.1-3.35v-5.08c0-.56-.04-.88-.4-1.31-.38-.5-.8-.62-1.77-.72v-.56h2.99l8.44,10.02v-4.88c0-1.85-.04-2.71-.1-3.31-.06-.9-.52-1.17-2.11-1.27v-.56h4.92v.56h0Z"/>
      </g>
      <g>
        <path d="M16.37,35.65c-.28.03-.33.04-.68.11-.65.13-1.01.19-1.53.24v1.62c.78-.23,1.51-.34,2.23-.34.84,0,1.52.18,2.05.52.73.47,1.13,1.22,1.13,2.06,0,1.38-1.03,2.42-2.4,2.42-.88,0-1.51-.44-1.76-1.23-.12-.37-.17-.73-.17-1.34.47-.13.63-.19,1.02-.41-.02.21-.02.29-.02.43,0,.4.04.76.11.95.14.36.43.55.86.55.73,0,1.25-.57,1.25-1.36,0-1-.84-1.64-2.13-1.64-.66,0-1.34.12-2.18.4v2.25c.01.44-.01.65-.06.85-.1.36-.45.59-.91.59-.67,0-1.45-.3-1.98-.76-.36-.32-.56-.72-.56-1.16,0-.51.32-1.04.91-1.56.38-.33.86-.6,1.57-.91v-1.86c-.06,0-.21.02-.44.03-.18,0-.34,0-.63,0-.18,0-.5,0-.62,0-.14,0-.23,0-.26,0-.04,0-.12,0-.22,0v-1.02c.3.06.7.09,1.27.09.17,0,.29,0,.46,0,.29,0,.31,0,.43-.02v-.87c0-.54-.01-.85-.07-1.18h1.17c-.05.33-.07.56-.07,1.12v.85c.67-.06,1.59-.24,2.17-.44l.04,1.05.02-.02ZM13.14,38.95c-.95.48-1.46,1.01-1.46,1.45,0,.21.13.4.41.57.25.17.57.27.81.27.2,0,.24-.1.24-.51v-1.79h0ZM19.22,36.79c-.56-.84-1.36-1.67-2.21-2.29l.85-.58c.98.74,1.58,1.33,2.19,2.19,0,0-.83.68-.83.68Z"/>
        <path d="M22.72,41.55c0,.65.02,1.02.07,1.31h-1.1c.04-.32.07-.66.07-1.31v-7.18c0-.56-.01-.87-.04-1.22.33.03.59.04,1.14.04h1.79c.56,0,.81,0,1.12-.04-.02.33-.03.62-.03,1.03v1.69c0,.46.01.76.03,1-.28-.02-.66-.03-1.06-.03h-1.99v4.71ZM22.72,34.64h2.11v-.69h-2.11v.69ZM22.72,36.09h2.11v-.71h-2.11v.71ZM28.32,40.29c0,.3.01.52.03.72-.24-.02-.43-.03-.75-.03h-2.52v.79h-.99c.04-.31.05-.63.05-1.06v-2.3c0-.27-.01-.51-.03-.74.23.02.47.03.79.03h2.61c.34,0,.61,0,.84-.03-.02.21-.03.43-.03.72v1.9ZM25.08,40.15h2.32v-1.62h-2.32v1.62ZM30.79,41.63c0,.53-.09.79-.34.93-.21.13-.43.17-1.1.17-.23,0-.34,0-1.01-.04-.05-.43-.1-.62-.25-.98.48.07,1,.11,1.36.11.31,0,.37-.05.37-.3v-4.68h-2.15c-.4,0-.78,0-1.06.03.02-.29.03-.57.03-1v-1.69c0-.41-.01-.73-.03-1.03.33.03.57.04,1.12.04h1.95c.55,0,.83,0,1.16-.04-.04.37-.05.71-.05,1.21v7.27ZM27.56,34.64h2.27v-.69h-2.27v.69ZM27.56,36.09h2.27v-.71h-2.27v.71Z"/>
        <path d="M34.61,36.27c-.77.51-1.2.75-1.98,1.11-.12-.34-.26-.57-.57-.92,1.03-.42,2.01-1,2.88-1.72.77-.64,1.25-1.16,1.71-1.87h1.12c.47.73.96,1.23,1.83,1.91.9.7,1.83,1.22,2.89,1.63-.25.35-.37.59-.53,1-.8-.37-1.24-.63-2.04-1.17v.88c-.26-.03-.56-.04-.97-.04h-3.44c-.32,0-.63,0-.9.04v-.86h0ZM33.63,42.83c.04-.33.07-.66.07-1.11v-2.52c0-.43-.02-.74-.05-1.06.23.03.5.04.91.04h5.35c.42,0,.68,0,.92-.04-.04.31-.05.6-.05,1.06v2.52c0,.47,0,.77.07,1.11h-1.1v-.58h-5.01v.58h-1.11ZM34.73,41.35h5.01v-2.28h-5.01v2.28ZM38.95,36.14c.34,0,.53,0,.76-.02-1.14-.82-1.78-1.43-2.49-2.38-.73,1.02-1.32,1.61-2.4,2.38.23,0,.41.02.7.02h3.43Z"/>
        <path d="M49.88,34.92c0-1.06,0-1.24-.07-1.63h1.15c-.04.36-.05.5-.05.7v.12c0,.22,0,.23,0,.67,0,.24,0,.3,0,.51v.21c1.24-.04,1.97-.07,2.2-.1l.02,1.1c-.28-.03-.39-.03-.64-.03-.2,0-1,0-1.58.02,0,1-.11,1.85-.26,2.24-.22.59-.65.89-1.27.89-.45,0-.92-.13-1.53-.43,0-.25.02-.36.02-.53,0-.2,0-.31-.03-.57.57.35,1.09.55,1.42.55.3,0,.42-.15.5-.64.07-.35.1-.83.11-1.5-1.19.05-2.3.11-3.34.17v.21s0,.22,0,.54v.34c0,.59.02,1.8.04,2.05.08,1.06.56,1.32,2.44,1.32,1.28,0,2.35-.14,3.1-.41l.09,1.21c-.22.03-.51.06-.88.1-.8.1-1.74.15-2.52.15-1.73,0-2.65-.32-3.01-1.03-.26-.51-.33-1.09-.33-2.6v-1.81c-1.08.08-1.78.15-2.1.21l-.08-1.08c.13,0,.23,0,.3,0,.09,0,.71-.04,1.88-.12,0-.2,0-.29,0-.36,0-1.21,0-1.54-.08-1.9h1.24c-.04.25-.07.98-.09,2.21,1.12-.06,2.23-.12,3.34-.17v-.63h0Z"/>
        <path d="M60.39,37.86c0,.63-.52,1.14-1.14,1.14s-1.14-.52-1.14-1.14.52-1.14,1.14-1.14,1.14.51,1.14,1.14Z"/>
        <path d="M68.59,38.24c-.72.58-1.02,1.06-1.02,1.55,0,.45.29.76.86.94.38.12,1.11.2,1.95.2,1.33,0,2.7-.19,3.37-.45l.11,1.25c-.18,0-.23.02-.43.06-1.16.18-2.04.24-2.97.24-1.14,0-2.09-.12-2.66-.35-.9-.34-1.35-.94-1.35-1.75s.4-1.47,1.35-2.29l.8.61h-.01ZM67.12,33.91c.64.18,1.71.26,2.99.26,1.5,0,2.32-.06,3-.21l.05,1.03c-.68.29-1.78.97-2.87,1.76l-.79-.64c.69-.45.85-.54,1.23-.77.12-.07.15-.09.29-.17l.22-.12c-.57.08-1.02.11-1.61.11-.68,0-1.61-.05-2.22-.13-.2-.03-.23-.03-.39-.03l.09-1.1h.01ZM72.76,36.15c.52.58.76.94,1.14,1.65l-.68.37c-.36-.68-.67-1.14-1.14-1.68l.68-.34ZM74.04,35.52c.53.58.76.91,1.13,1.61l-.67.38c-.34-.64-.65-1.1-1.12-1.65l.66-.34Z"/>
        <path d="M85.15,33.97c-.14.11-.17.13-.37.31-.78.68-1.59,1.24-2.63,1.8.33.22.36.25.68.47l-.31.31h1.98c.65,0,.96,0,1.19-.06l.59.63s-.05.06-.11.13c-.8,1.09-1.45,1.78-2.27,2.44-.24-.3-.42-.44-.81-.68.8-.57,1.14-.9,1.67-1.54h-2.87v3.98c0,.83-.33,1.04-1.55,1.04-.29,0-.99-.02-1.25-.04-.06-.44-.11-.65-.28-1.03.66.09,1.08.12,1.58.12.37,0,.46-.07.46-.31v-3.76h-3.12c-.55,0-.89.02-1.28.07v-1.06c.33.04.69.07,1.35.07h3.82c-.79-.59-1.55-1.06-2.72-1.65l.69-.66c.83.43,1.13.62,1.74,1,.86-.44,1.43-.8,2.04-1.32h-4.68c-.65,0-.89,0-1.25.06v-1.03c.36.06.67.07,1.28.07h4.95c.45,0,.65,0,.89-.04l.58.69h.01Z"/>
        <path d="M88.69,39.08c-.15,1.56-.29,2.24-.63,3.2l-.83-.39c.34-.88.41-1.21.61-2.95l.85.13h0ZM87.28,37.54c.15.02.24.03.44.03.12,0,.21,0,.48,0,.35-.42.44-.53.71-.91-.58-.74-.74-.9-1.56-1.65l.54-.75c.19.21.25.27.38.41.47-.72.87-1.47.98-1.88l.9.39c-.08.1-.13.18-.24.4-.3.56-.62,1.09-1.04,1.71.14.15.33.37.57.66.7-1.03,1.07-1.63,1.21-1.99l.87.5c-.11.13-.18.23-.35.48-.69,1.06-1.4,2.01-1.91,2.61.8-.06.88-.06,1.45-.12-.11-.29-.18-.42-.36-.8l.69-.29c.38.72.6,1.25.91,2.13l-.78.33c-.08-.31-.11-.41-.18-.61-.37.05-.66.08-.88.09v3.53c0,.53.02.82.07,1.15h-1.03c.04-.31.07-.65.07-1.15v-3.44c-1.11.09-1.71.14-1.82.17l-.12-.97v-.02ZM91.36,38.88c.25.91.45,1.84.58,2.73l-.85.23c-.1-.91-.28-1.91-.48-2.75l.75-.21ZM93.19,35.48c-.35.69-.63,1.12-1.1,1.71-.24-.29-.43-.47-.75-.68.53-.59.95-1.28,1.27-2.07.29-.67.43-1.13.5-1.55l1.03.21c-.08.18-.09.21-.21.57-.13.4-.21.61-.32.88h2.54c.45,0,.66,0,.9-.04-.03.23-.04.83-.05,1.81-.01,1.07-.12,2.86-.23,3.74-.14,1.1-.31,1.8-.53,2.16-.24.38-.64.52-1.53.52-.25,0-.63,0-1.06-.04-.06-.42-.11-.66-.25-1.04.56.09,1.03.13,1.43.13.52,0,.64-.13.79-.83.23-1.13.39-3.17.4-5.47h-2.83ZM93.98,40c-.48-1.31-.73-1.8-1.36-2.75l.81-.46c.68,1.02.98,1.59,1.44,2.74l-.89.47Z"/>
        <path d="M12.95,45.44c-.46,1-.87,3.55-.87,5.42v.3c0,.23.01.45.01.67v.46h.02c.17-.66.19-.73.52-1.54.07-.15.08-.19.11-.3l.83.35c-.57,1.07-1.04,2.55-1.04,3.26,0,.07,0,.08.02.26l-1.14.09c0-.06-.02-.2-.05-.42-.22-1.35-.3-2.24-.3-3.42,0-1.52.11-2.46.53-4.49.1-.47.13-.65.13-.79l1.24.14h-.01ZM13.81,47.42c.53.13,1.12.18,2.29.18.29,0,.44,0,.78-.03,0-.65-.01-1.23-.01-1.74,0-.22-.01-.38-.03-.51h1.17c-.05.3-.08.77-.08,1.53v.64c.72-.08,1.5-.24,1.84-.39l.04,1.03c-.09,0-.1,0-.31.07-.36.08-1.04.19-1.56.24v.25c0,.64.01.69.07,1.84.02.31.03.57.04.8.77.35,1.1.55,1.77,1.03.13.09.18.12.29.19l-.45,1.1c-.2-.23-.56-.54-.87-.73-.36-.23-.64-.41-.74-.47v.2c0,.31-.04.56-.13.75-.29.58-1.02.91-2.02.91-1.34,0-2.17-.65-2.17-1.71,0-1,.91-1.71,2.21-1.71.43,0,.77.06,1.06.18-.02-.21-.05-1.07-.09-2.56-.56.02-.76.03-1.11.03-.44,0-.87,0-1.3-.04-.18,0-.3,0-.34-.02h-.2s-.08,0-.1,0h-.05v-1.06h0ZM15.95,51.84c-.73,0-1.19.31-1.19.77s.46.75,1.12.75c.41,0,.78-.13.96-.34.11-.14.17-.35.17-.68v-.29c-.42-.15-.68-.21-1.06-.21Z"/>
        <path d="M24.74,50.22c-.71.58-1.02,1.06-1.02,1.55,0,.45.29.76.86.95.39.11,1.11.19,1.95.19,1.33,0,2.7-.19,3.37-.45l.11,1.27c-.18,0-.23,0-.43.04-1.16.17-2.04.24-2.97.24-1.14,0-2.09-.12-2.66-.35-.9-.35-1.35-.94-1.35-1.75s.4-1.47,1.35-2.29l.8.6h-.01ZM23.28,45.89c.64.17,1.71.26,2.99.26,1.5,0,2.32-.05,3-.21l.05,1.03c-.68.3-1.78.97-2.87,1.76l-.79-.64c.69-.45.85-.54,1.23-.77.12-.07.15-.08.29-.15.09-.05.11-.07.22-.13-.57.08-1.02.11-1.61.11-.68,0-1.61-.06-2.22-.13-.2-.02-.23-.03-.38-.03,0,0,.09-1.1.09-1.1Z"/>
        <path d="M32.96,46.71c.52.12,1.21.18,2.38.19.21-.86.31-1.41.32-1.88l1.24.11c-.03.12-.09.34-.18.66-.12.53-.17.73-.26,1.09,2.04-.07,3.54-.23,4.25-.46l.06,1.11c-.17.01-.59.06-1.24.13-.84.1-2.21.19-3.31.22-.26.89-.75,2.12-1,2.53.73-.54,1.8-.84,3.07-.84.86,0,1.62.22,2.17.63.46.35.73.9.73,1.53,0,1.56-1.53,2.6-3.84,2.6-.98,0-1.94-.14-2.78-.41,0-.54,0-.63-.09-1.17.94.36,1.85.54,2.81.54,1.65,0,2.73-.62,2.73-1.56,0-.75-.71-1.18-1.96-1.18-.81,0-1.73.21-2.44.56-.42.21-.64.38-.85.66l-1.11-.4c.2-.31.36-.64.55-1.07.37-.87.74-1.85.91-2.44-.57,0-1.16-.03-1.74-.08-.14,0-.25,0-.33,0,0,0-.04,0-.09,0l.02-1.08h-.02Z"/>
        <path d="M46.3,47.26c-.15.6-.32,1.52-.51,2.83-.03.2-.03.24-.08.39.68-.68,2.08-1.14,3.45-1.14,1.84,0,3.03.88,3.03,2.23,0,.8-.42,1.57-1.09,2.04-.73.5-1.63.73-2.83.73-.95,0-1.53-.09-2.79-.4,0-.55-.02-.74-.12-1.19.99.36,1.97.55,2.89.55,1.63,0,2.76-.69,2.76-1.71,0-.79-.74-1.28-1.97-1.28-1.36,0-2.76.55-3.34,1.32l-1.18-.03c.03-.19.03-.24.09-.65.11-.8.25-1.78.46-3.14.04-.25.06-.38.08-.62l1.14.07h.01ZM46.59,45.21c.71.41,2.76,1.03,3.95,1.22l-.38,1.04c-1.95-.46-2.82-.76-4.1-1.35l.54-.91h-.01Z"/>
        <path d="M54.55,47.84c.4,0,1.45-.12,2.39-.25.19-1.03.3-1.88.3-2.24,0-.04,0-.11,0-.2l1.21.12c-.03.14-.05.22-.08.36-.03.14-.05.27-.08.39-.03.12-.09.48-.19,1.07-.04.25-.04.27-.08.43.3-.02.47-.03.71-.03.69,0,1.21.18,1.55.53.38.4.53.91.53,1.88,0,1.83-.31,3.31-.8,3.93-.3.36-.62.5-1.17.5-.45,0-.95-.11-1.67-.37,0-.18.02-.32.02-.42,0-.2-.02-.37-.08-.76.59.29,1.23.47,1.61.47.35,0,.55-.24.73-.86.18-.58.29-1.63.29-2.59,0-1.02-.3-1.36-1.21-1.36-.23,0-.42,0-.7.04-.44,1.83-.87,3.07-1.56,4.53-.08.18-.33.66-.73,1.46l-1.07-.61c.33-.42.77-1.21,1.14-2.04.48-1.08.74-1.8,1.13-3.27-.86.12-1.65.26-2.08.37l-.11-1.09h.01ZM62.05,46.78c1.11,1.27,1.79,2.49,2.29,4.13l-1.03.54c-.21-.89-.47-1.58-.9-2.4-.42-.77-.76-1.25-1.28-1.8l.92-.46h0Z"/>
        <path d="M68.3,47.26c-.15.6-.32,1.52-.51,2.83-.03.2-.03.24-.08.39.68-.68,2.08-1.14,3.45-1.14,1.84,0,3.03.88,3.03,2.23,0,.8-.42,1.57-1.09,2.04-.73.5-1.63.73-2.83.73-.95,0-1.53-.09-2.79-.4,0-.55-.02-.74-.12-1.19.99.36,1.97.55,2.89.55,1.63,0,2.76-.69,2.76-1.71,0-.79-.74-1.28-1.97-1.28-1.36,0-2.76.55-3.34,1.32l-1.18-.03c.03-.19.03-.24.09-.65.11-.8.25-1.78.46-3.14.04-.25.06-.38.08-.62l1.14.07h.01ZM68.59,45.21c.71.41,2.76,1.03,3.95,1.22l-.38,1.04c-1.95-.46-2.82-.76-4.1-1.35l.54-.91h-.01Z"/>
      </g>
      <g>
        <path d="M12.5,75.66c-.51,0-.81.01-1.2.03.07-.42.09-.77.09-1.31v-5.79c0-.57-.02-.91-.09-1.3h1.03c-.07.41-.09.69-.09,1.3v6.28h3.47c.55,0,.85-.02,1.28-.08v.94c-.35-.06-.66-.08-1.28-.08h-3.21Z"/>
        <path d="M18.96,67.3c-.07.36-.1.77-.1,1.23v5.9c0,.48.03.86.1,1.23h-1.04c.07-.41.09-.68.09-1.23v-5.9c0-.55-.02-.84-.09-1.23h1.04Z"/>
        <path d="M21.83,67.3c.1.25.24.5.56.99l3.48,5.2c.12.19.45.73.71,1.2-.04-.88-.07-1.36-.07-1.46v-4.66c0-.54-.02-.88-.09-1.27h1.02c-.07.4-.09.7-.09,1.27v5.86c0,.55.02.88.09,1.23h-1.2c-.15-.32-.27-.54-.57-.99l-3.53-5.3c-.09-.13-.45-.76-.6-1.06.04.52.07,1.06.07,1.34v4.7c0,.58.02.95.09,1.31h-1.02c.07-.35.09-.74.09-1.31v-5.82c0-.51-.02-.84-.09-1.23h1.16,0Z"/>
        <path d="M34.84,75.74c-.35-.06-.65-.08-1.23-.08h-3.22c-.53,0-.84.01-1.21.03.07-.42.09-.75.09-1.31v-5.86c0-.47-.02-.77-.09-1.25.39.02.68.03,1.21.03h3.14c.48,0,.86-.02,1.23-.08v.92c-.38-.06-.68-.08-1.23-.08h-3.39v2.82h2.89c.48,0,.81-.02,1.23-.08v.92c-.37-.05-.66-.08-1.23-.08h-2.89v3.23h3.49c.51,0,.81-.02,1.22-.08v.95Z"/>
        <path d="M38.22,67.76c0-.6-.02-.82-.07-1.11h.81c-.04.34-.06.64-.06,1.11v.74h1.04c.42,0,.7-.02,1.01-.07v.74c-.27-.03-.52-.04-1-.04-.1,1.36-.34,2.41-.78,3.47.69.9,1.03,1.42,1.57,2.31l-.55.53c-.35-.66-.88-1.52-1.34-2.16-.63,1.18-1.32,2.02-2.44,2.94-.18-.24-.3-.35-.55-.53,1.2-.89,1.94-1.76,2.54-3-.73-.94-1.22-1.5-1.99-2.24l.52-.44c.54.53,1.03,1.1,1.77,1.99.3-.85.47-1.73.54-2.86h-2.29c-.46,0-.7.01-.98.06v-.75c.31.04.59.07,1.01.07h1.22v-.74l.02-.02ZM41.41,70.71c.69.84,1.07,1.4,1.63,2.45l-.6.42c-.47-1.06-.89-1.71-1.58-2.53l.56-.34h-.01ZM42.11,69.8c-.43,0-.74.02-1.03.07v-.75c.26.04.55.05,1.05.05h1.72v-1.23c0-.58-.02-.91-.08-1.2h.85c-.06.34-.07.69-.07,1.2v1.23h.28c.45,0,.79-.02,1.07-.07v.76c-.38-.06-.63-.07-1.08-.07h-.26v5.67c0,.73-.22.89-1.21.89-.5,0-.77-.01-1.25-.03-.07-.34-.11-.47-.23-.74.53.08,1.05.12,1.41.12.5,0,.58-.04.58-.27v-5.63h-1.75Z"/>
        <path d="M51.77,67.16c0-.25-.02-.46-.07-.69h.85c-.06.2-.07.37-.07.7v.57h3.12c.58,0,.9-.02,1.19-.07v.76c-.32-.04-.64-.06-1.19-.06h-7.08c0,3.05-.07,4.29-.26,5.46-.17.99-.42,1.74-.86,2.5-.22-.23-.37-.35-.62-.51.82-1.41,1.02-2.68,1.02-6.66,0-.76,0-1.14-.06-1.48.34.04.67.05,1.11.05h2.9v-.58h.02ZM48.62,74.96c.54-.97.78-1.91.94-3.6l.69.19c-.21,1.78-.41,2.55-.97,3.81l-.66-.4ZM51.89,70.4c-.04.24-.07.52-.07,1v3.94c0,.18.03.23.18.29.12.04.44.07.89.07.95,0,1.22-.07,1.33-.3.1-.21.19-1.02.19-1.71v-.28c.32.17.46.22.7.28-.08,1.38-.21,2.06-.45,2.32-.23.26-.66.34-1.73.34-1.55,0-1.82-.11-1.82-.76v-4.2c0-.48-.02-.74-.07-.99h.85ZM53.86,71.08c-.89-.83-1.46-1.22-2.65-1.82l.46-.48c1.14.59,1.64.92,2.67,1.74,0,0-.48.56-.48.56ZM56.18,75.19c-.32-1.57-.58-2.32-1.27-3.64l.64-.27c.68,1.39.97,2.16,1.34,3.61l-.72.31h.01Z"/>
        <path d="M58.46,68.27c0-.46,0-.77-.04-1.06.15.01.49.02,1.01.03h.81c.56,0,.75-.01.99-.03-.03.26-.03.44-.03,1.08v6.03c0,.53,0,.81.03,1.06h-.68v-.55h-1.44v.9h-.72c.04-.33.07-.7.07-1.17v-6.29ZM59.11,70.59h1.44v-2.73h-1.44v2.73ZM59.11,74.21h1.44v-3.03h-1.44v3.03ZM62.95,68.53c-.38,0-.78.02-1.06.05v-.73c.28.04.58.07,1.05.07h1.17v-.35c0-.34-.02-.59-.07-.89h.81c-.04.29-.07.53-.07.89v.35h1.56c.45,0,.76-.02,1.05-.07v.73c-.29-.03-.63-.05-1.05-.05h-1.56v1.43h1.95c.48,0,.84-.02,1.11-.07v.74c-.3-.04-.62-.07-1.07-.07h-.36v1.29h.34c.48,0,.8-.02,1.08-.07v.76c-.32-.04-.62-.07-1.08-.07h-.34v3.08c0,.7-.24.87-1.27.87-.18,0-.35-.01-.99-.04-.02-.29-.07-.48-.18-.73.43.08.92.13,1.25.13.42,0,.5-.04.5-.29v-3.03h-3.1c-.41,0-.78.02-1.1.07v-.76c.27.04.6.07,1.11.07h3.09v-1.29h-3.09c-.45,0-.78.02-1.11.07v-.74c.27.04.64.07,1.11.07h1.46v-1.43h-1.16.02ZM63.8,75.14c-.57-.84-.88-1.22-1.53-1.85l.54-.39c.66.63,1.02,1.03,1.58,1.79l-.59.44h0Z"/>
        <path d="M70.15,75.27c0,.62.02.95.07,1.23h-.81c.04-.3.07-.64.07-1.23v-7.11c0-.54-.01-.86-.04-1.21.31.03.59.04,1.16.04h1.57c.55,0,.81-.01,1.12-.04-.02.31-.03.64-.03,1.04v1.36c0,.44.01.75.03,1.02-.3-.02-.67-.03-1.11-.03h-2.01v4.92h-.02ZM70.15,68.42h2.46v-.88h-2.46v.88ZM70.15,69.83h2.46v-.89h-2.46v.89ZM75.92,74c0,.42.01.71.03,1-.31-.02-.67-.03-1.12-.03h-2.41v.77h-.68c.04-.3.06-.58.06-1.03v-2.44c0-.4-.01-.72-.03-1.03.33.03.59.04,1.09.04h2.01c.51,0,.76-.01,1.09-.04-.02.31-.03.59-.03,1.03v1.74h0ZM72.42,72.8h2.87v-.98h-2.87v.98ZM72.42,74.42h2.87v-1.07h-2.87v1.07ZM78.32,75.44c0,.73-.23.91-1.12.91-.23,0-.83-.02-1.1-.04-.04-.3-.1-.47-.2-.7.52.07.98.11,1.21.11.45,0,.54-.05.54-.32v-5.04h-2.26c-.46,0-.81.01-1.11.03.02-.29.03-.62.03-1.02v-1.36c0-.39-.01-.71-.03-1.04.31.03.56.04,1.12.04h1.82c.57,0,.84-.01,1.16-.04-.04.43-.06.71-.06,1.21v7.27h0ZM74.94,68.42h2.71v-.88h-2.71v.88ZM74.94,69.83h2.71v-.89h-2.71v.89Z"/>
        <path d="M12.14,86.19c.14.38.23.54.41.74.32.36.82.54,1.45.54.83,0,1.43-.33,1.85-1.06.22-.37.4-.93.5-1.47.05-.29.08-.76.1-1.35-.16.31-.25.43-.46.64-.59.55-1.23.81-2.09.81s-1.58-.26-2.07-.76c-.49-.49-.78-1.25-.78-2.07,0-1.83,1.23-3.03,3.12-3.03,1.29,0,2.35.74,2.78,1.93.23.62.33,1.4.33,2.39,0,1.6-.33,2.9-.96,3.67-.58.72-1.33,1.07-2.39,1.07-.79,0-1.44-.21-1.93-.62-.32-.26-.51-.53-.81-1.14l.94-.3h.01ZM16.24,82.14c0-1.24-.92-2.17-2.15-2.17-.76,0-1.45.37-1.83.98-.18.3-.3.76-.3,1.21,0,1.3.79,2.12,2.05,2.12s2.23-.91,2.23-2.13h0Z"/>
        <path d="M19.95,83.03h-1.14v-1.14h1.14v1.14ZM18.81,88.1v-1.14h1.14v1.14h-1.14Z"/>
        <path d="M22.43,87.45c-.31-.31-.55-.67-.69-1.06-.29-.81-.44-1.71-.44-2.66,0-1.22.26-2.46.67-3.13.55-.93,1.44-1.42,2.58-1.42.85,0,1.59.28,2.11.82.32.32.55.68.69,1.06.29.79.44,1.71.44,2.67,0,1.39-.3,2.62-.81,3.33-.58.81-1.38,1.21-2.44,1.21-.85,0-1.56-.28-2.11-.82ZM23.1,80.57c-.24.26-.43.55-.52.84-.24.7-.36,1.48-.36,2.32,0,1.07.23,2.2.54,2.74.4.67,1,1,1.78,1,.58,0,1.07-.18,1.42-.54.25-.26.44-.56.54-.9.24-.71.36-1.47.36-2.32,0-1-.22-2.14-.52-2.68-.38-.69-1-1.05-1.81-1.05-.6,0-1.07.2-1.44.59h0Z"/>
        <path d="M29.99,87.45c-.31-.31-.55-.67-.69-1.06-.29-.81-.44-1.71-.44-2.66,0-1.22.26-2.46.67-3.13.55-.93,1.44-1.42,2.58-1.42.85,0,1.59.28,2.11.82.32.32.55.68.69,1.06.29.79.44,1.71.44,2.67,0,1.39-.3,2.62-.81,3.33-.58.81-1.38,1.21-2.44,1.21-.85,0-1.56-.28-2.11-.82ZM30.66,80.57c-.24.26-.43.55-.52.84-.24.7-.36,1.48-.36,2.32,0,1.07.23,2.2.54,2.74.4.67,1,1,1.78,1,.58,0,1.07-.18,1.42-.54.25-.26.44-.56.54-.9.24-.71.36-1.47.36-2.32,0-1-.22-2.14-.52-2.68-.38-.69-1-1.05-1.81-1.05-.6,0-1.07.2-1.44.59h.01Z"/>
        <path d="M36.46,83.77c1.02-1,1.74-1.36,2.77-1.36.52,0,.98.1,1.44.33.3.15.45.24,1.08.69.97.69,1.55.94,2.21.94.32,0,.64-.07.92-.2.5-.21.82-.48,1.31-1.12l.6.52c-.55.64-.86.92-1.32,1.19-.44.25-.99.39-1.52.39-.36,0-.74-.07-1.09-.18-.48-.17-.85-.38-1.6-.93-.91-.68-1.37-.87-2.07-.87-.44,0-.81.09-1.19.3-.32.18-.54.37-.97.81l-.58-.51h.01Z"/>
        <path d="M49.23,79.3c.3.05.52.06.95.06h.73c.39,0,.58-.01.95-.06-.07.7-.1,1.29-.1,1.91v5.59c0,.54.02.87.09,1.3h-1.09c.07-.4.09-.77.09-1.3v-6.66h-.62c-.37,0-.67.02-1,.07,0,0,0-.91,0-.91Z"/>
        <path d="M56.62,86.19c.14.38.23.54.41.74.32.36.82.54,1.45.54.83,0,1.43-.33,1.85-1.06.22-.37.4-.93.5-1.47.05-.29.08-.76.1-1.35-.16.31-.25.43-.46.64-.59.55-1.23.81-2.09.81s-1.58-.26-2.07-.76c-.49-.49-.78-1.25-.78-2.07,0-1.83,1.23-3.03,3.12-3.03,1.29,0,2.35.74,2.78,1.93.23.62.33,1.4.33,2.39,0,1.6-.33,2.9-.96,3.67-.58.72-1.33,1.07-2.39,1.07-.79,0-1.44-.21-1.93-.62-.32-.26-.51-.53-.81-1.14l.94-.3h.01ZM60.72,82.14c0-1.24-.92-2.17-2.15-2.17-.76,0-1.45.37-1.83.98-.18.3-.3.76-.3,1.21,0,1.3.79,2.12,2.05,2.12s2.23-.91,2.23-2.13h0Z"/>
        <path d="M64.43,83.03h-1.14v-1.14h1.14v1.14ZM63.29,88.1v-1.14h1.14v1.14h-1.14Z"/>
        <path d="M66.92,87.45c-.31-.31-.55-.67-.69-1.06-.29-.81-.44-1.71-.44-2.66,0-1.22.26-2.46.67-3.13.55-.93,1.44-1.42,2.58-1.42.85,0,1.59.28,2.11.82.32.32.55.68.69,1.06.29.79.44,1.71.44,2.67,0,1.39-.3,2.62-.81,3.33-.58.81-1.38,1.21-2.44,1.21-.85,0-1.56-.28-2.11-.82ZM67.58,80.57c-.24.26-.43.55-.52.84-.24.7-.36,1.48-.36,2.32,0,1.07.23,2.2.54,2.74.4.67,1,1,1.78,1,.58,0,1.07-.18,1.42-.54.25-.26.44-.56.54-.9.24-.71.36-1.47.36-2.32,0-1-.22-2.14-.52-2.68-.38-.69-1-1.05-1.81-1.05-.6,0-1.07.2-1.44.59h0Z"/>
        <path d="M74.47,87.45c-.31-.31-.55-.67-.69-1.06-.29-.81-.44-1.71-.44-2.66,0-1.22.26-2.46.67-3.13.55-.93,1.44-1.42,2.58-1.42.85,0,1.59.28,2.11.82.32.32.55.68.69,1.06.29.79.44,1.71.44,2.67,0,1.39-.3,2.62-.81,3.33-.58.81-1.38,1.21-2.44,1.21-.85,0-1.56-.28-2.11-.82ZM75.14,80.57c-.24.26-.43.55-.52.84-.24.7-.36,1.48-.36,2.32,0,1.07.23,2.2.54,2.74.4.67,1,1,1.78,1,.58,0,1.07-.18,1.42-.54.25-.26.44-.56.54-.9.24-.71.36-1.47.36-2.32,0-1-.22-2.14-.52-2.68-.38-.69-1-1.05-1.81-1.05-.6,0-1.07.2-1.44.59h0Z"/>
      </g>
      <line class="cls-2" x1="10.74" y1="60.99" x2="97.15" y2="60.99"/>
      <path d="M159.8,56.12c0-11.87-11.9-21.52-26.52-21.52s-26.52,9.65-26.52,21.52c0,10.64,9.44,19.55,22.18,21.23.86.19,2.04.57,2.34,1.31.27.67.17,1.72.09,2.4,0,0-.31,1.87-.38,2.27-.12.67-.53,2.62,2.3,1.43,2.83-1.19,15.27-8.99,20.84-15.4h0c3.84-4.21,5.69-8.49,5.69-13.24ZM122.89,63.18h-5.27c-.77,0-1.39-.62-1.39-1.39v-10.54c0-.77.62-1.39,1.39-1.39s1.39.62,1.39,1.39v9.15h3.88c.77,0,1.39.62,1.39,1.39s-.62,1.39-1.39,1.39ZM128.34,61.79c0,.77-.62,1.39-1.39,1.39s-1.39-.62-1.39-1.39v-10.54c0-.77.62-1.39,1.39-1.39s1.39.62,1.39,1.39v10.54ZM141.03,61.79c0,.6-.38,1.13-.95,1.32-.14.05-.29.07-.44.07-.43,0-.85-.21-1.11-.56l-5.4-7.35v6.52c0,.77-.62,1.39-1.39,1.39s-1.39-.62-1.39-1.39v-10.54c0-.6.38-1.13.95-1.32.14-.05.29-.07.44-.07.43,0,.85.21,1.11.56l5.4,7.35v-6.52c0-.77.62-1.39,1.39-1.39s1.39.62,1.39,1.39v10.54ZM149.55,55.13c.77,0,1.39.62,1.39,1.39s-.62,1.39-1.39,1.39h-3.88v2.49h3.88c.77,0,1.39.62,1.39,1.39s-.62,1.39-1.39,1.39h-5.27c-.77,0-1.39-.62-1.39-1.39v-5.27h0v-5.27h0c0-.77.62-1.4,1.39-1.4h5.27c.77,0,1.39.62,1.39,1.39s-.62,1.39-1.39,1.39h-3.88v2.49h3.88Z"/>
    </g>
  </g>
</svg>