<?xml version="1.0" encoding="UTF-8"?>
<svg id="_レイヤー_2" data-name="レイヤー 2" xmlns="http://www.w3.org/2000/svg" viewBox="0 0 165.8 71.79">
  <g id="_レイヤー_1-2" data-name="レイヤー 1">
    <g>
      <path d="M30.68,23.1h.42c.2-.01.42-.02.63,0l.1-.04h.13s.05.06.05.06c.43.04.88.14,1.3.23l.14-.03h.07s.13,0,.13,0h.07s.1-.05.1-.05h.04s.11.1.11.1l.12.05.18.09s.04.01.06,0c.04.01.06.04.07.06l.29.15.04.12h-.15s-.17-.09-.17-.09l-.25-.08-1.86-.26-.11.02-.16-.06c-.08-.02-.17-.02-.25-.03h-.04s-.02,0-.02,0c-.04,0-.06,0-.09,0h-.02s-.11,0-.11,0h-.05s-.04-.02-.04-.02l-.34-.03c-.42,0-.87,0-1.33.02l-.1.04-.16.03-.07.03h-.08s-.29-.06-.29-.06c-.33,0-.67.04-1,.07v.06s-.07-.02-.07-.02l-.02-.02-1.21.13-.38.13-.09.02-.65.05-.11.02v-.02s-.2.04-.2.04l-.31.04h-.04s-.06,0-.06,0l-.38.04c-.12.02-.25.03-.38.06h-.07c-.07.03-.15.02-.2.03l-.39.08v.04s-.21.02-.21.02h-.04c-.12.01-.25.02-.38.04v.02s-.1-.04-.1-.04l-.08.03-.04.06-.05.05-.03.03h-.04s-.11,0-.11,0l-.2.04h-.15s-.19,0-.19,0l-.14.06h.02s0,.07,0,.07l-.17.07-.28.07-.2.02-.15-.02-.19-.02-.48.09h-.15s-.13.02-.13.02l-1.32.26-.3.08-.14.03-.17.07-.32.06h-.17s-.16.05-.16.05l-.1.06-.19-.02c-.11.02-.23.06-.33.08l-.07.03-.17.07h-.13s-.08.06-.08.06l-.18.03-.08.05-.13-.03-.09.02-.47.13c-.07.03-.12.04-.19.06l-.17.07-.29.11-.28.06-.64.22-.2.13-.31.1h-.07s-.11.02-.11.02c-.07.03-.14.06-.21.08l-.05.05-.19.06-.22.12-.35.09-.26.1v.02s-.06.05-.06.05l-.5.15h.02s-.21.07-.21.07l-.41.19-.3.08h-.05s-.31.13-.31.13v.02s-.34.12-.34.12l-.05.03v-.02s-.04.03-.04.03l-.07.03-.16.05v.02s-.03,0-.03,0l-.22.1-.12.06-.05.03h-.07s-.05.04-.05.04l-.24.08-.05.05-.12.04-.12.06-.31.1-.26.2-.13.06-.09.03h-.04s-.04,0-.04,0l-.16.05-.15-.02-.83.37c-.31.21-.66.39-.98.54l-.03.04-.05.1h-.05s-.03.03-.03.03l-.19.07-.39.15-.22.08-.52.27c-.36.22-.6.43-.92.66-.3.28-.59.48-.91.75h-.02c-.2.1-.36.44-.54.55-.06.05-.12.02-.17,0l-.03.12v.22s-.02.06-.02.06l-.1.04-.06.08-.19.07-.05.05-.03.04-.46.57-.29-.09v-.05s-.07-.12-.07-.12v-.09s-.03-.07,0-.13v-.07s-.03-.18-.03-.18h.02s.14-.21.14-.21h-.05s-.01-.06-.01-.06l.1-.15.12-.25.13-.17h.05s.01-.05.01-.05l.1-.07.09-.09-.03-.07.06.02.17-.18.04.03h.11s.07-.11.07-.11l.12.03.06.02.11-.11.16-.05.1-.07.06-.14.11-.17.2-.11.38-.11c.06-.05.13-.1.2-.13l.16-.12.27-.14.35-.2.16-.14.14-.03.42-.23.12-.13.15-.07.03.03.09-.07.14-.14.21-.13h.04s0-.04,0-.04l.11-.02.08-.07v-.04s.03,0,.03,0v.02s.19-.07.19-.07h.04s.07,0,.07,0l.1-.06.06.02.11-.02.1-.04.09-.02.18-.11.05-.05.17-.09.19-.07.3-.08c.51-.21.96-.37,1.32-.53l.24-.1.12-.06.91-.36.25-.07.05-.03.88-.38.26-.07.21-.08v.02s.1-.06.1-.06l.43-.14.45-.24.21-.08.29-.09.37-.09.22-.08.2-.1.8-.17h.07c.11-.03.23-.08.33-.12l.23-.14v-.08s.11,0,.11,0l.16.06c.07-.01.12-.02.19-.06l.08-.03.27-.11.08-.04.16-.03.06.02,1.1-.31.05-.03.24-.08.1-.04.27-.02c.05-.01.08-.04.14-.05h.04s1.36-.33,1.36-.33l.07-.03.12-.02.21-.08.11-.02.11-.09.09-.02.23.03.21-.04h.07s.57-.11.57-.11v-.02s.19-.05.19-.05l.25-.07.17-.05.3.02.8-.16.05-.03v-.04s.03.01.03.01v.02s.09-.02.09-.02v.02s.79-.12.79-.12l.11-.08.21-.08h.28s.27-.11.27-.11l.12-.02h.18s.22,0,.22,0h.13s.14-.03.14-.03l.38.04c.14-.03.29-.04.43-.05l.05-.03.03-.04.06.04.8-.08.93-.07.1-.04h.15s.09,0,.09,0h.29s.16-.03.16-.03l.02.02h.13s.25-.04.25-.04l.09-.02.08.06h.52s.12-.05.12-.05h.15s.24.02.24.02l.31-.04.04.03ZM9.77,41.53v.06s-.1.18-.1.18l-.02.08-.03.15-.04.1-.15.47-.1.41-.14.3-.06.05-.12.35h.02s-.02.02-.02.02c-.05.14-.08.27-.12.41v.09l-.18.77h.02s-.03.04-.03.04l-.08.24.03.07-.28,1.11-.06.07-.03.04c-.03.12-.05.23-.04.34-.01.02-.04.06-.06.07v.11s-.01.1-.01.1v.02s-.16-.06-.16-.06v-.08s.09-.14.09-.14h-.02s.08-.71.08-.71l.15-.66h-.02s0-.07,0-.07v-.02s.01-.19.01-.19c.04-.08.11-.11.15-.08.16-.79.31-1.61.55-2.38l.14-.62.07-.11c.04-.17.1-.35.19-.52l.09-.37.11-.21v-.2s.29-.69.29-.69l.02-.19.16-.4.11-.28.28-.29.29-.67-.04-.03.06-.08.1-.13.02-.08.15-.34.03-.21.27-.61.09-.22.29-.7.2-.37.04-.16.03-.04.12-.32v-.02s.01-.02.01-.02l.1-.24v-.3s.05-.12.05-.12l.1-.13.13-.08v-.15s.03-.06.03-.06v-.07s-.04-.05-.04-.05l.06-.09v-.09s.05-.1.05-.1l-.04-.03h.05s.1-.16.1-.16l.02.03v-.02s.11-.17.11-.17l.07-.2.45-.9.11-.59.08-.42.09-.4.15-.25.08-.05.07-.12.23-.45.41-.28.11.09.05.06.05-.03.09-.09h.05s0,0,0,0l.16-.05v-.02s.1-.04.1-.04l.12-.02.1.05.06.12-.06.16-.12.26-.04.16-.03.02v.06s-.1,0-.1,0l-.11.02-.13.08-.16.05-.06.05-.13.39-.13.27-.03.06h-.02s-.37.85-.37.85l-.11.09-.25.53v.11s.04.31.04.31l-.08.16-.09.29-.06.05-.06.09h-.05s-.05.06-.05.06l-.1.06-.05.1-.03.13-.17.35-.05.3-.09.11-.07.14-.07.12-.04.06-.24.49v.06s-.04.12-.04.12l-.05.12-.02.08-.06.05-.04.08h-.02s-.39.84-.39.84l-.02.17-.04.16-.08.18-.09.22-.11.19h-.06s-.1.53-.1.53l-.12.21-.11-.02-.25.62h.02s-.06.08-.06.08v.15s-.02.02-.02.02l-.05.12-.04.06-.05.1-.05.12-.08.16-.08.18-.1.07-.24.64v.02s-.05.18-.05.18v.02s-.23.5-.23.5Z"/>
      <path d="M21.7,38.92l-.15.18-.23.16-.15.07-.08.07v.04s-.06.05-.06.05l-.21.13-.15.1v.04s-.06.05-.06.05l-.12.06-.24.19-.1.07-.23.23-.13.08-.1.07-.17.14-.15.1-.1.06-.27.11-.22.17-.21.08-.31.04-.19.09h-.35c-.19-.02-.35-.08-.46-.21l-.09-.06v-.11c-.05-.14-.08-.3-.04-.49v-.07s.04-.38.04-.38l.07-.38v-.13s.09-.24.09-.24l.1-.17.02-.08.09-.11c.03-.06.05-.12.09-.2l.1-.24.03-.14.03-.12.04-.06.02-.19.13-.19.1-.07.05-.12.13-.17.23-.64.04-.28.15-.29.1-.13.04-.16.06-.07v-.18l-.02-.09.06-.16.11-.11.05-.05h.04s0-.04,0-.04l.1-.15.11-.1c.05-.1.13-.19.26-.2.02,0,.04.01.06.02l.05-.05v-.04s.11-.04.11-.04h.15s.14.06.14.06l.02.09v.2s-.08.22-.08.22l-.14.23-.04.06-.06.07h-.04s-.1.06-.1.06l-.25.34-.02.09v.04s-.21.3-.21.3c-.01.04-.04.06-.06.09v.11s-.13.17-.13.17l-.09.2-.12.17-.02.08-.11.11-.05.14-.03.06-.16.29-.21.35-.09.2-.08.18-.13.38c-.11.19-.12.21-.14.25l-.06.34v.15s-.09.33-.09.33l-.03.39.02.11v.22c.07.15.09.17.1.19l.08.02.1-.04h.05s.13-.02.13-.02l.1-.06.1-.04.08.02.09-.02.36-.16h.05c.08-.06.19-.1.29-.16l.08-.07.19-.17.14-.12.34-.16.26-.16.15-.07.56-.42.02-.08.11-.02.29-.22v-.02s.04-.06.04-.06l.13-.1h.05s.04-.09.04-.09l.1-.06.13-.1.16-.14.14-.12.17-.18.04-.06.19-.17.08-.05.06-.07.33-.29h.05s.11-.12.11-.12l.08-.05.08-.07s.03-.02.05-.03l.07-.11.11-.08.06-.09.11-.09.16-.12.08-.07c.12-.12.26-.26.44-.4l.02-.08h.05s.06,0,.06,0l.07.1-.04.08-.05.05-.1.07-.03.06h-.04s-.02,0-.02,0v.04s-.2.17-.2.17h-.05s-.49.46-.49.46l-.13.16-.13.17-.15.08-.1.07c-.29.3-.57.57-.84.81l-.05.1-.05.05-.2.11-.05.05-.03.04-.13.1ZM21.63,30.45l-.09.28-.05.1-.04.08v.02s-.17.07-.17.07l-.15.07-.13.08-.12.13v.02s-.08.05-.08.05l-.06.16-.17.09-.09.29-.17.09-.05.1-.1.17v.04s-.16.16-.16.16l-.04-.14.06-.07s.02-.06.01-.11l.15-.34-.06-.13.07-.29.03-.12.14-.25.1-.17.03-.02.16-.23.05-.1.12-.12.08-.16h.02s.06-.09.06-.09h-.04s.08-.05.08-.05v.04s.11-.15.11-.15l.17-.09.17.11.19.04v.21s.04.08.04.08l-.06.16Z"/>
      <path d="M32.4,37.33l-.06-.12s-.04-.03-.04-.05c-.07-.06-.09-.17-.1-.3v-.05s0-.18,0-.18l.05-.29.05-.2.07-.12.12-.21.12-.3.11-.21.03-.06v-.07s.12-.24.12-.24l.03-.12.02-.09v-.07s-.06.05-.06.05h-.04s-.13.11-.13.11l-.07.03-.38.33-.12.15-.1.15-.12.06-.11.08-.32.26-.05.12-.19.18-.1.07-.28.27-.3.34-.04.08-.05.1-.1.06-.03.02c-.06.07-.12.12-.17.18l-.08.07-.11.1-.15.18-.1.07c-.23.23-.44.38-.57.41h-.02s0,.02,0,.02l-.08.04-.08-.04-.08-.06-.14-.17c-.07-.08-.1-.24-.07-.47l-.02-.38v-.11s.05-.19.05-.19l.05-.05.1-.35.04-.08.21-.41.07-.2.03-.04v-.06s.15-.23.15-.23l.03-.14.05-.1.25-.68.25-.6.19-.35.25-.49-.27.05h-.35s-.07.04-.07.04h-.04s-.01.01-.01.01l-.27.22-.18.22-.55.42-.13.16-.54.55-.34.25-.05.03-.1.13v.02s-.08.05-.08.05l-.46.48-.2.21-.12.21-.29.39-.23.23c-.04.06-.09.11-.14.16l-.08.24-.04.06-.11.19-.13.08-.04.1h-.04s-.03.05-.03.05h-.05s-.05.11-.05.11l-.03.02-.4.52v.06s-.08.09-.08.09l-.06.07-.03.02-.19.24-.09.13h-.02s-.16.22-.16.22v.05s-.03,0-.03,0l-.03.03-.14.23-.2.22-.07.12v.04s-.15.21-.15.21l-.1.17-.06.18-.04.1-.08.05-.05.03v.02s-.02.06-.02.06v.04s-.09.07-.09.07v.04s0,.04,0,.04l-.03.06v.05s-.05.09-.05.09v.02s-.04,0-.04,0l-.05.03-.03.04h-.02s-.01.02-.01.02l-.09.09-.2.1h-.04s0-.01,0-.01l-.12.06-.09.02h-.09l-.05-.07-.1.07h-.04s-.09-.1-.09-.1l-.07-.06v-.15s.01-.17.01-.17l.04-.06h-.02s0-.09,0-.09l.08-.09.05-.1.13-.38.3-.46v-.02s.02-.07.02-.07l.05-.03.14-.34.1-.17.08-.18.02-.08.04-.08.09-.2v-.04s.07-.07.07-.07l.04-.1.08-.18.23-.51.08-.15.05-.14.25-.49.06-.16.24-.47.15-.34.04-.1.02-.19v-.11s.09-.09.09-.09l.08-.05v-.11s.04-.04.04-.04v-.05s-.04-.03-.04-.03l.03-.06v-.07s.02-.1.02-.1h-.02s.01-.02.01-.02h.02s.05-.03.05-.03v-.06s.04,0,.04,0v-.02s.09-.11.09-.11l.05-.03.09-.29.1-.15.04-.16h-.04s.06-.15.06-.15l.03-.06.02-.08v-.02s-.03-.01-.03-.01v-.02s.01,0,.01,0v-.16s-.01-.18-.01-.18l.03-.06.07-.2.16-.14.08.02v-.07s.03-.05.03-.05h.05s.02-.07.02-.07l.09-.04.19-.06.11-.02.1.02.06.04.02.11-.06.16.02.09-.02.1-.07.4-.25.25-.17.18v.02s-.15.36-.15.36v.04s-.04.12-.04.12v.13s-.02.13-.02.13l-.02.08-.06.07v.02s-.05.02-.05.02v.04s-.05,0-.05,0v.07s-.06.08-.06.08l-.09.11-.1.24-.08.16-.04.17-.04.06-.17.18-.16.31-.11.1-.15.29v.04s-.09.15-.09.15l-.12.26-.02.17-.05.12-.09.18v.06s-.13.13-.13.13l-.12.23-.15.34-.14.32-.13.27-.23.52-.06.34-.02.08v-.02s.09-.01.09-.01l.05-.05h.05s.03-.03.03-.03l.03-.04.1-.07v-.09l.07-.12.08-.07.16-.11.14-.14.15-.19.03-.04.03-.02.09-.11.17-.26.34-.44.12-.12.32-.36.08-.14.03-.04.1-.07.21-.23.09-.2.07-.03.21-.23.13-.19.08-.07v-.04s.29-.39.29-.39l.11-.1.16-.22.04-.08.09-.09.13-.17.12-.12.14-.23.39-.44.12-.15.08-.15.29-.21.2-.19.05-.12h.04s.06-.06.06-.06l.07-.03.1-.13.03-.04.11-.08.14-.14.2-.13.24-.21.02-.08.24-.19.49-.21.36-.24.17-.09.1-.06.05-.05.03-.03h.04s-.03.04-.03.04h.16s.07-.01.07-.01l.14.16v.18s-.04.08-.04.08c-.07.23-.23.51-.32.71-.03.06-.06.08-.07.12l-.12.15-.07.2-.23.34-.15.27-.02.06-.11.19-.33.88-.16.42-.09.46h-.02s0,.02,0,.02l-.13.39-.02.26-.04.08-.03.04-.03.13v.04s.03.12.03.12l.06.14.03.09.05.06.03.05.02.02.25-.16.07-.03c.09-.09.18-.2.29-.33l.07-.11.08-.05c.12-.13.22-.28.34-.44l.18-.2.09-.11.37-.39.65-.72.05-.12.06-.07.11-.08h.07c.03-.06.06-.08.09-.11l.04-.06v-.04s0-.02,0-.02l.03-.04v-.06s0-.02,0-.02l.08-.07h-.02s.02-.02.02-.02h.04s.05-.02.05-.02l.03-.04h.04s.13-.09.13-.09l.12-.02.08-.05h.06s-.01.03-.01.03l.12-.04v-.02s.11,0,.11,0l.1.02.06.04.02.09v.02s0,0,0,0l-.03.04-.05.32v.05s-.04.23-.04.23l-.12.25-.05.29-.03.12-.08.16-.16.31-.05.14-.07.2-.04.16-.02.19.07.19.15.08c.16.04.39.03.64-.05l.1-.04v.02s.04-.03.05-.03l.02-.02.05-.05.21-.06.16-.11.1-.07.1.02.05-.05v-.02s.12-.04.12-.04l.33-.27.2-.19.1-.04.09-.11h.05s.22-.2.22-.2l.1-.04.1-.07.21-.15.21-.17.45-.35.05-.05.58-.45.06-.07.21-.13.08-.07.2-.19.11-.11.07-.03.07.08v.07s-.08.05-.08.05l-.03.03-.08.07-.02.06-.03.04-.1.04-.47.44-.12.13h-.05s-.19.16-.19.16l-.14.14-.08.05-.03.04-.05.03-.27.22-.1.07-.08.07-.09.09-.06.05-.06.07-.14.12-.03.02-.08.05-.06.07-.15.1-.23.14-.29.2-.12.12h-.07s-.16.1-.16.1c-.05.03-.1.07-.16.11l-.03.02-.08.04-.2.1v.02s-.03,0-.03,0l-.1.07-.1.04-.09.02c-.12.06-.22.1-.34.12l-.18.04c-.07.01-.15,0-.22,0h-.05s-.27-.06-.27-.06Z"/>
      <path d="M37.46,34.99l.02.09-.07.11-.04.08s-.01.02,0,.04v.05s-.04.12-.04.12l.07.45s.02.27.1.35c.13.1.08.11.55.17h.32s.23-.03.23-.03l.26-.09,1.24-.54.23-.15.65-.37.12-.12.06-.05h.04s.98-.66.98-.66h.07s.11-.11.11-.11l.15-.07.54-.33.07-.03c.59-.39.8-.6,1.37-1.01l.36-.22v-.04s.11-.07.11-.07l.3-.17.31-.21v-.04s.05-.01.05-.01l.19-.15v-.04s.86-.77.86-.77l.08-.04c.11-.1.22-.21.34-.34.03-.04.09-.04.11,0v-.02s.06-.07.06-.07h.08s.08.15.08.15l-.08.05-.15.08-.08.05-.35.37-.07.14-.09.02-.06.05c-.14.14-.3.26-.44.38v.02s-.12.1-.12.1l-.06.07h-.05s-.51.41-.51.41v.04s-.08.03-.08.03l-.13.1-.03.02-.22.21-.62.42c-.19.15-.38.31-.58.45l-.04.06-.8.6-.06.07-.05-.05-.17.16-.21.08-.13.1h-.02c-.21.15-.42.29-.64.42l-.24.19-.5.37-.14.06-.21.08-.29.15-.17.05-.06.05-.06.07-.22.1h-.04c-.2.12-.44.22-.68.31l-.04.06-.08.03h.02s-.34.14-.34.14h-.11s-.18.09-.18.09h-.44s-.43-.11-.43-.11l-.23-.21-.13-.21-.1-.24-.06-.3v-.04s-.01-.03-.01-.03l-.02-.12.04-.47.08-.24.08-.35.07-.2.03-.04.03-.15.09-.11.03-.14.08-.18.04-.06.18-.13.05-.1.12-.08.12-.13.03-.03.15-.19.13-.15.09-.2.06-.08.07-.12.06-.07.1-.06.02-.06.07-.11.13-.08.08-.05c.33-.36.68-.74,1.06-1.08l.03-.04.15-.16.21-.13s.04,0,.03-.02l.19-.18.11-.1.05-.03.24-.08c.18-.11.36-.22.55-.31l.14-.12.18-.03.1-.06.06.02c.14-.03.28-.06.41-.06v-.02s.06-.03.06-.03h.04s.05-.02.05-.02v-.02s.13.01.13.01v-.02s.01,0,.01,0v.04s.05.03.05.03h.05s.02.02.02.02h.02s.12.03.12.03l.02.02c.1.05.18.09.22.18h.06s-.01.05-.01.05h.02s-.01.02-.01.02l.02.09.03.07v.13s-.04.06-.04.06l.02.11-.02.28-.1.26-.14.21-.17.16-.14.14-.56.44-.08.09-.12.06c-.35.36-.75.7-1.15,1.02v.04s-.48.35-.48.35l-.2.2-.42.29-.31.19-.46.18-.28.07-.12.02-.12-.03-.05-.08.02-.06.08-.27.2-.28.21-.13.14-.03h.13s.15.02.15.02l.23-.05.21-.08.21-.13h.07s.03-.07.03-.07l.48-.28.43-.32.21-.17.07-.12.21-.13.02-.08.25-.14.06-.08.2-.22.67-.83.05-.1v-.13s.04-.06.04-.06l.04-.28h-.02s-.02-.05-.02-.05l-.05-.08-.11-.09-.13-.03h-.13s-.2.03-.2.03l-.12.04h-.07c-.46.2-.92.56-1.2.76l-.19.15-.04.06-.08.09h-.07s-.01.02-.03.02v.04s-.09.06-.09.06l-.03.04h-.04s-.35.3-.35.3l-.17.2-.1.15-.17.09-.06.05c-.14.14-.26.29-.39.44l-.07.12-.19.26-.1.15-.16.22-.2.3-.19.33-.04.06-.08.18-.09.2-.14.21-.11.28Z"/>
      <path d="M59.23,27.41v.04s.04.05.04.05l-.02.06v.07s.04.06.04.06h.02s0,.26,0,.26l-.12.12-.08.07-.18-.06-.29-.09h-.13s-.05-.07-.05-.07h-.07s.02-.08.02-.08l-.03-.14v-.11s-.04-.16-.04-.16l-.03-.18-.04-.03-.03-.07-.14-.03-.09.02-.15-.02-.24.03c-.54.16-.34-.03-.96.28l-.19.15h-.07s-.51.21-.51.21l-.34.25-.28.18-.17.15-.13.08-.2.1-.27.2-.08.05-.43.33-.23.23v.04s-.26.22-.26.22l-.09.11-.06.07-.09.09-.09.13-.08.18-.12.12-.07.11-.17.16c-.08.15-.11.26-.11.37-.02.19.01.05.12.14l.07.08.14.05.12.13.07.08h.02c.12.05.23.06.33.1l.25.04v.04s.33.07.33.07h.17s.1.06.1.06h.02s.02.01.02.01l.5.09.2-.04h.15s.16.07.16.07v-.02s.06.03.06.03l.08.04.37.08h.16s.12.02.12.02l.36-.07.1.04h.26s.33,0,.33,0l.1.05.32.05.14.16.07.15v.04s-.01.08-.01.08l-.05.1-.1.13-.23.16-.09.02-.09.09-.22.12h-.06s-.2.01-.2.01l-.41.19-.77.21-.23.04-.7.17-.21.04-.23.06-.31.04-.2.1-.26.11h-.48s-.28.06-.28.06l-.17.05-.31.12-.11.02-.24.1-.11.02-.34.16-.25.14h-.15s-.19.07-.19.07l-.46.2-.05.03-.19.07h-.04s-.01.01-.01.01h-.07s-.06.06-.06.06l-.07.03-.04-.03v-.04s-.03,0-.03,0v-.02s0-.01,0-.01l.03-.04.03-.02h.02s.06-.09.06-.09l.51-.21.18-.09h.04s.24-.09.24-.09l.17-.07h.05s.46-.32.46-.32l.18-.03.14-.06.27-.02.19-.06.14-.06.37-.11.29-.09.26-.07.37-.11h.06s.21-.04.21-.04l.11-.08h.06c.09,0,.17-.04.28-.07l.15-.1.4-.12.29-.13.53-.12h.06s.1-.05.1-.05l.2-.04.14-.12.29-.11-.1-.02-.06-.04h-.2s-.24,0-.24,0l-.29-.05-.03-.05h-.08s-.18.03-.18.03l-.13-.1-.48-.09-.08-.02-.13-.03-.49-.13h-.02s-.02-.01-.02-.01c-.36-.06-.68-.09-.81-.16h-.02s0-.01,0-.01l-.12-.03h-.09s-.23-.05-.23-.05l-.05.03-.07-.1-.09.02-.2-.09-.28-.28-.03-.27.03.07c0-.07.03-.15.07-.23.02-.08.08-.15.1-.22h-.02s.17-.4.17-.4l.1-.17h.04s.05-.14.05-.14l.09-.09.06-.14.09-.09.06-.08.17-.09h.02s.04-.09.04-.09l.1-.07h.02s.31-.29.31-.29l.14-.12.13-.17.05-.05.09-.11.06-.07.02-.1.06-.05.12-.02.12-.04.33-.18.22-.08.1-.04.05-.03.28-.15.05-.05c.28-.09.3-.19.38-.24l.11-.11h.07s.2-.03.2-.03l.08-.05.08-.04s.07-.01.12-.04c.15-.07.36-.16.58-.23l.1-.06.13-.08.06-.05.25-.05.12-.06h.31s.13,0,.13,0h.05s.02,0,.02,0h.18s.05-.03.05-.03l.24.03.2.09.07.06.05.06c.05.08.09.19.15.3h.04s0,.08,0,.08v.02Z"/>
      <path d="M60.78,29.42c-.18.2-.34.42-.51.62l-.03.04-.1.13-.06.14-.04.1-.09.04v.08s-.08.07-.08.07v.06s-.08.01-.08.01l-.24.4v.04s-.02.04-.02.04l-.04.16-.04.08-.04.1c-.04.16-.04.28.06.38l.07.06.1.04h.11s.02.03.02.03c.17.02.36-.03.59-.1l.21-.14.14-.05.23-.04.27-.13.14-.03.15-.08.03-.02.44-.22h.07s.27-.16.27-.16l.11-.08.15-.1.09-.11.41-.17.13-.08.08-.09.32-.17c.38-.22.73-.4,1.08-.6l.51-.32h.05s.1-.07.1-.07l.12-.06.43-.25.21-.08c.2-.11.42-.23.63-.36l.48-.3v-.04s.03,0,.03,0c.04,0,.07-.03.1-.06l.1-.07v-.04s.68-.43.68-.43c.24-.18.5-.39.77-.61l.04-.06.05-.03.11-.02.07.08-.04.06-.18.22-.18.11c-.63.56-.95.79-1.28,1.01v.05s-.02.04-.02.04l-.14.03-.25.14-.18.13h-.07s-.15.1-.15.1l-.41.27v.02s-.05,0-.05,0l-.44.31-.28.17h-.02s-.06.05-.06.05l-.08.07-.18.11-.05.03-.08.03-.1.04-.18.11-.53.31-.15.1h-.07s-.55.42-.55.42l-.77.41-.55.31-.43.27-.47.31-.3.15-.4.11-.12.02-.05.05h-.33s-.34-.05-.34-.05h-.04s-.28-.03-.28-.03l-.11-.07-.02-.09-.05-.08-.04-.1.02-.1c-.02-.11-.04-.2-.04-.31l-.04-.03v-.05s-.03-.03-.03-.03l.05-.03-.02-.11h-.02s0-.01,0-.01h.04s0-.06,0-.06v-.05s0-.02,0-.02v-.02s0-.13,0-.13l.11-.19.02-.08.03-.03v.02s.05-.12.05-.12v-.02s.06-.07.06-.07l.03-.03.13-.21.03-.06.11-.17.08-.18.05-.05.12-.17.1-.06.03-.04.04-.1.08-.09.13-.06c.1-.13.23-.25.37-.39v-.04s.04-.02.04-.02l.1-.15.05-.03c.06-.05.12-.12.18-.18l.09-.13.12-.06.06-.07h.02s.75-.69.75-.69l.1-.13.35-.27.12-.12.4-.32.03-.02.45-.33.11-.1.14-.12.11-.17.08-.07.21-.04.06-.09.05-.03v-.04s.02-.06.02-.06l.05-.03v-.04s.02-.02.02-.02l.08-.05v-.02s0-.04,0-.04l.03.03h.05s.05-.04.05-.04h.04s.12-.05.12-.05l.21-.04.02.03.19-.15.29-.06.07.06s.06,0,.06.02l.11.09v.13s.13.09.13.09l.04.1.02.09-.11.19-.19.18h-.05s-.26-.01-.26-.01l-.26-.1-.12.06-.02.17-.09.11-.15-.08-.03-.07-.27.13-.46.37-.2.1-.17.14-.12.04-.36.31-.09.02-.07.11-.11.02-.2.13-.32.27-.04.08-.04-.03-.22.17-.05.03-.17.16-.08.15-.11.1-.16.12s-.01.04-.03.04l-.2.22-.15.16-.07.11-.12.12Z"/>
      <path d="M74.66,28.03l.02.12-.05.12v.02s-.03.13-.03.13l.02.03-.04.1c0,.07,0,.15.02.22l.04.1.07.06.09.08.1.04.1.02c.07-.01.12-.04.19-.07l.13-.08.03-.04h.05s.57-.47.57-.47l.07-.03.08-.05.56-.55s.03-.02.05-.03l.31-.32.04-.08h.07s.09-.12.09-.12l.19-.15.23-.25.04-.06.16-.14v-.02s.25-.3.25-.3c.01-.02.03-.03.05-.03l.03-.04.06-.05.09.07v.07s-.03.05-.03.05l-.14.12-.22.21-.06.08-.18.2c-.15.19-.34.42-.54.62l-.13.17h-.05s-.07.1-.07.1l-.04.08-.03.02-.04.1-.09.09-.06.05-.09.11-.04.06-.16.14-.06.08-.1.06-.13.06-.03.04-.16.12-.24.27-.05.05-.09.11-.05.05h-.04s-.05.05-.05.05l-.13.1-.12.06-.17.05c-.1.06-.16.11-.22.12-.05.01-.11.02-.15,0l-.1.04-.1-.05-.05-.05s-.02-.02-.02-.02l-.13-.12v.02s-.09-.09-.09-.09l-.05-.34-.04-.32v-.13s-.05-.14-.05-.14v-.04s.11-.07.11-.07l.02-.08.05-.1v-.07s.09-.15.09-.15l.02-.08.03-.06v-.22s.07-.26.07-.26c.02-.28.1-.61.14-.89l.02-.3c.08-.24.14-.41.07-.66v-.04s0-.13,0-.13l-.11-.07c-.12.02-.27.11-.45.24l-.24.19-.12.06-.17.15-.12.13-.03.04-.13.1-.1.13-.31.23-.08.05c-.08.05-.14.12-.19.17l-.04.06-.84.7-.06.14-.09.02-.04.1-.06.09-.1.17-.17.07-.23.32-.48.59-.39.48-.37.39-.08.07-.11.1-.09.13v.05s-.1-.01-.1-.01l-.26.2-.17.16-.17.07-.32.08-.06.08-.12.02-.11-.07-.07-.15v-.24s.03-.28.03-.28v-.13s.1-.28.1-.28l.06-.18.05-.29v-.04s.05-.1.05-.1l.03-.15-.02-.18v-.22s.13-.26.13-.26l.02-.28.03-.13.06-.16.09-.2.05-.12.05-.14.21-.41.09-.31v-.08s.02-.02.02-.02v-.06s.06-.03.06-.03l.16-.33.02-.06.02-.08h.02s.17-.44.17-.44l.03-.12.07-.12.09-.2.04-.19.05-.12.16-.23c.06-.16.12-.32.2-.48l.2-.59.11-.11c.23-.52.48-1.05.72-1.58l.04-.08.02-.08.04-.17.12-.15.07-.2.05-.14v-.13s.04-.05.04-.05l.13-.17.06-.14.05-.14.08-.35.06-.18.08-.16.1-.17.1-.35v-.07s.02-.09.02-.09l.04-.06v-.05s.05-.18.05-.18v-.02s.03,0,.03,0l.04-.1.04-.08.03-.02v-.04s.1-.2.1-.2l.09-.18.05-.12.03-.03v.04s0-.02,0-.02v-.02s.03-.13.03-.13v-.07s.11-.13.11-.13l.03-.12.04-.08.03-.06.16-.31.06-.18.04-.17.02-.08v-.11s.05-.08.05-.08l-.04-.1v-.06s.14-.06.14-.06l.18-.22.06-.16.21-.26.08-.16.05-.12v-.07s.05-.07.05-.07l.04.1.11-.19.13-.1.17.12.1.22-.14.71-.31.65-.12.21-.32.45-.17.18-.54,1.21h.02s-.06.17-.06.17l-.08.24-.06.18-.09.13-.13.17-.51,1.08v.07s-.1.28-.1.28l-.05.14-.07.09-.08.16-.11.28-.33.58v.13s-.21.32-.21.32l-.12.24v.11s-.2.39-.2.39l-.12.34-.12.15-.58,1.37c-.11.28-.22.56-.35.84v.08s-.03.04-.03.04l-.04.08c-.12.3-.25.6-.36.92v.04s-.04.03-.04.03l-.1.31.03.14-.11.39-.04.34-.12.52-.06.34v.19s-.08.27-.08.27v.26s.1.09.1.09l.08.02.09-.02.21-.17.09-.13.03-.02.04-.08.11-.08.05-.1.09-.11.06-.08.17-.14.06-.05.12-.14.49-.44.12-.15.06-.07.09-.13.06-.05.21-.17.5-.54.03-.06.11-.17.26-.2.19-.18.05-.03c.17-.18.34-.34.51-.51l.19-.28.13-.12.04-.08.09-.04.04-.06.12-.14.15-.07.39-.19h.07c.28-.18.58-.24.95-.16.04.01.08.02.08.06l.1.04.16.06.06.1v.15s-.05.25-.05.25v.02c-.1.29-.16.6-.21.89-.02.21-.09.41-.14.62l.03.16-.12.26-.07.31Z"/>
      <path d="M78.35,26.99l.02.09-.07.11-.04.08s-.01.02-.01.04v.05s-.04.12-.04.12l.07.45s.02.27.11.35c.13.1.08.11.55.17h.32s.23-.03.23-.03l.26-.09,1.24-.54.23-.15.65-.37.12-.12.06-.05h.04s.98-.66.98-.66h.07s.11-.11.11-.11l.15-.07.54-.33.07-.03c.59-.39.81-.6,1.37-1.01l.36-.22v-.04s.11-.07.11-.07l.3-.17.31-.21v-.04s.05-.01.05-.01l.19-.15v-.04s.86-.77.86-.77l.08-.04c.11-.1.22-.21.34-.34.03-.04.09-.04.11,0v-.02s.06-.07.06-.07h.08s.08.15.08.15l-.08.05-.15.08-.08.05-.35.36-.06.14-.09.02-.06.05c-.14.14-.3.26-.44.38v.02s-.12.1-.12.1l-.06.07h-.05s-.51.41-.51.41v.04s-.08.03-.08.03l-.13.1-.03.02-.22.21-.62.42c-.19.15-.38.31-.58.45l-.04.06-.81.6-.06.07-.05-.05-.17.16-.21.08-.13.1h-.02c-.21.16-.42.29-.64.42l-.24.19-.5.37-.13.06-.21.08-.28.15-.17.05-.06.05-.06.07-.22.1h-.04c-.2.12-.44.22-.68.31l-.04.06-.08.03h.02s-.34.14-.34.14h-.11s-.18.09-.18.09h-.44s-.43-.11-.43-.11l-.23-.21-.13-.21-.1-.24-.06-.3v-.04s-.01-.03-.01-.03l-.02-.12.04-.47.08-.24.08-.35.07-.2.03-.04.03-.15.09-.11.03-.14.07-.18.04-.06.18-.13.05-.1.11-.08.12-.13.03-.03.15-.2.14-.15.09-.2.06-.08.07-.12.06-.07.1-.06.03-.06.07-.1.13-.08.08-.05c.33-.36.68-.74,1.06-1.08l.03-.04.15-.16.21-.13s.04,0,.03-.02l.19-.18.11-.1.05-.03.24-.08c.18-.11.36-.22.55-.31l.14-.12.18-.03.1-.06.06.02c.14-.03.28-.06.41-.06v-.02s.06-.03.06-.03h.04s.05-.02.05-.02v-.02s.13.01.13.01v-.02s.01,0,.01,0v.04s.05.03.05.03h.05s.03.02.03.02h.02s.12.03.12.03h.02c.1.07.18.11.22.19h.06s-.01.05-.01.05h.02s-.01.02-.01.02l.02.09.03.07v.13s-.04.06-.04.06l.02.11-.02.28-.1.26-.14.21-.17.16-.14.14-.56.44-.07.09-.12.06c-.35.36-.75.7-1.15,1.02v.04s-.48.35-.48.35l-.2.2-.42.29-.31.19-.46.18-.28.07-.12.02-.12-.03-.05-.08.03-.06.08-.27.2-.28.21-.13.14-.03h.13s.15.02.15.02l.23-.04.21-.08.21-.13h.07s.03-.07.03-.07l.48-.28.43-.32.21-.17.07-.12.21-.13.02-.08.25-.14.06-.08.2-.22.67-.83.05-.1v-.13s.04-.06.04-.06l.04-.28h-.02s-.03-.05-.03-.05l-.05-.08-.11-.09-.13-.03h-.13s-.2.03-.2.03l-.12.04h-.08c-.46.2-.92.56-1.2.77l-.19.15-.04.06-.08.09h-.07s-.01.02-.03.02v.04s-.09.06-.09.06l-.03.04h-.04s-.35.3-.35.3l-.16.2-.1.15-.17.09-.06.05c-.14.14-.26.29-.39.45l-.07.12-.19.26-.1.15-.16.22-.2.3-.19.33-.04.06-.07.18-.09.2-.14.21-.11.28Z"/>
      <path d="M95.31,25.96l-.15.08-.08.15-.04.08-.17.09-.26.18-.21.17-.1.04-.05.03-.04.06v.04s-.01-.02-.01-.02v-.02s-.08.01-.08.01l-.19.15-.16.05s-.05.03-.09.04l-.12.04-.32.04-.19-.15-.03-.03-.16-.15-.19-.24v-.09s-.12-.16-.12-.16l-.04-.47c-.06-.19,0-.33-.03-.55v-.07s0-.11,0-.11h-.02s-.07-.35-.07-.35l.04-.34v-.13s0-.15,0-.15v-.06s.03-.06.03-.06v-.04s.02-.02.02-.02l-.04-.1v-.07s.05-.12.05-.12l.07-.4v-.17s.03-.08.03-.08l.02.02.05-.2v-.06s0-.02,0-.02v-.09s.02-.08.02-.08l.03-.04v-.04s-.03-.03-.03-.03l.04-.1v-.05s.03-.19.03-.19l-.12-.22-.03-.07-.11-.16-.07-.06s-.04-.01-.04-.03l-.12-.13-.28.46-.2.41-.35.38-.24.3-.13.19-.03.06-.03.03-.42.62-.05.03-.14.21-.08.09c-.12.13-.22.28-.32.41l-.1.24-.09.18-.2.19-.15.25-.09.09-.12.13-.17.14-.08.09-.11.11-.14.12-.45.44v.04s-.02.06-.02.06h-.05s-.13.11-.13.11h-.04c-.44.39-.91.7-1.37.79-.11.02-.48-.09-.5-.09-.03-.05-.05-.06-.06-.1h-.02s-.17-.19-.17-.19l-.08-.32v-.24s.03-.19.03-.19l.09-.22v-.11s.08-.15.08-.15l.12-.45v-.04s.04-.14.04-.14l.27-.39.09-.13-.02-.2.02-.06.08-.09.65-.85h.02c.17-.26.36-.52.54-.74v-.02s.15-.17.15-.17l.1-.07.21-.23.07-.11.09-.09.14-.12.18-.13.16-.22.03-.02h.04c.17-.15.37-.3.58-.43l.04-.06.05-.05h.07s.18-.12.18-.12l.17-.18.07-.03.12-.02c.1-.06.2-.11.3-.19.22-.12.49-.13.77-.13l.12-.02.13.03.12-.02s.06,0,.08.04l.23.34.05-.1v-.13s.15-.07.15-.07l.33-.47.06-.16.12-.08.35-.49.17-.35.24-.36.24-.4.3-.46.37-.65v-.02s.01,0,.01,0l.23-.41.16-.33.1-.22.08-.09.03-.13.15-.25v-.05s.1-.1.1-.1l.03-.13.14-.23.29-.52.05-.1v-.04s.03,0,.03,0l.27-.53.05-.12.06-.09.02-.08.09-.18v-.04s.06-.05.06-.05l.02-.1.08-.16.22-.47.1-.17.05-.12.23-.45.07-.14.24-.45.17-.26.07-.12v-.04s.19-.41.19-.41l.02-.17.03-.12.19-.15.04-.1.03-.04-.02-.09.03-.06v-.04s.03-.1.03-.1v-.02s.04,0,.04,0l.06-.08h.04s0-.02,0-.02l.09-.11.12-.06.06-.05h.04s.12-.05.12-.05l.02-.02.09-.02h.06s.15,0,.15,0l.12.14.07.1-.14.41-.18.33h.02s.13.03.13.03l.06.12-.11.17-.15.27-.06.16-.05.03-.03.06h-.07s-.23.12-.23.12l-.22.12h-.04s-.18.33-.18.33l-.11.17-.07.2-.2.11-.22.36-.1.22-.05.05-.08.16-.12.15-.33.69-.18.4-.2.37v.06s-.12.37-.12.37l-.07.11-.05.14-.09.22h-.02s-.09.2-.09.2l-.05.23-.02.08-.04.06-.33.67v.04s0,0,0,0l-.11.2v.05s-.45.94-.45.94l-.06.08-.25.53v.02s-.01,0-.01,0c-.35.77-.61,1.41-.74,1.71v.02s-.03.04-.03.04l-.04.08-.04.1v.02s-.03.02-.03.02c-.17.44-.33.88-.46,1.34v.02s-.04.06-.04.08h.02s0,.03,0,.03l-.03.06.03.07v.19s.04.03.04.03l-.05.05h.02s-.05.06-.05.06l.02.09-.04.27h-.07s-.01.05-.01.05l-.08.16h-.02s-.07,0-.07,0l-.04.1-.08.46h-.02s-.03.16-.03.16l.02.29-.05.29v.35s0,.35,0,.35l-.04.16-.02.1c.01.07,0,.15.04.2.07.56.29.83.57.92h.15s.02.02.02.02c.08,0,.15,0,.22,0l.11-.08.24-.1.03-.04.18-.15.1-.04.18-.03h.07c.36-.25.71-.56,1-.84l.2-.21.11-.1.03-.02v-.04s.04-.04.04-.04l.11-.11.16-.12.19-.17.39-.46.18-.13.24-.29.07-.09.23-.25.08-.05.08-.09.2-.2v-.02s.04-.05.04-.05l.2-.3.16-.11.14-.12v-.02s.4-.46.4-.46l.03-.04.19-.18.03-.06v-.02s.07-.01.07-.01l.03-.04.02-.08.05-.05h.05s.01-.03.01-.03l.11-.02.09.11-.04.08-.08.04s-.01.02-.01.02h-.02s-1.04,1.22-1.04,1.22l-.04.1-.05.05-.08.07-.06.05c-.26.29-.52.56-.78.84l-.25.25v.04s-.09.05-.09.05l-.08.15-.1.06-.9.89-.07.11-.2.21v.02s-.05,0-.05,0l-.09.09v.06s-.06.03-.06.03l.07-.03v.05s-.05.08-.05.08h-.07s0-.08,0-.08v.02s-.09.09-.09.09ZM87.19,24.65l-.14.23-.13.17-.04.25-.12.15-.07.2v.26s.05.21.05.21l-.03.06v.07s-.07.22-.07.22v.22s.04.29.04.29l.06.21.03.05.04.03h.11s.09-.02.09-.02l.08-.05s.11-.08.16-.11l.11-.17.14-.14.11-.09.22-.12.19-.15s.03-.03.05-.05c.25-.23.48-.46.68-.69v-.04s.2-.18.2-.18c.05-.05.09-.09.14-.16l.12-.15.05-.12.22-.3.1-.13.04-.1.07-.03.24-.19c.32-.43.66-.94,1.11-1.57l.31-.41v-.06s.23-.36.23-.36l.12-.21v.04s.12-.1.12-.1l.07-.22.09-.2-.15-.21-.19-.13-.08-.02-.04-.03c-.43,0-.96.26-1.37.54l-.29.24-.13.08-.12.06s-.08.07-.1.07c-.41.34-.72.47-1.42,1.35l-.18.29-.12.26-.15.19v.04s0,.06,0,.06l-.14.14-.1.15-.11.19-.06.08h-.02s.01.06.01.06l-.05.03ZM92.48,21.5l.02.02.05.05.11.07.05.08h.11s.05.04.05.04v.02s.12-.17.12-.17v-.04s.01,0,.01,0v-.06s.02,0,.02,0v.04s.03,0,.03,0l.07-.22v-.04s.03-.1.03-.1l.04-.08-.02-.18.05-.05.04-.1.1-.07.03-.12v-.02s.15-.36.15-.36v-.02s.06-.16.06-.16l.1-.24.04-.06c.21-.5.43-1.01.67-1.5-.31.47-.74,1.12-1.13,1.75l-.19.37-.1.13h-.04s-.53.89-.53.89c0,.05.04.1.08.13Z"/>
      <path d="M104.8,22.89c0-.07-.01-.15.03-.23v-.04s0-.06,0-.06l.06-.18v-.08s.04-.08.04-.08c0-.02.03-.06.02-.08v-.04c.08-.23.16-.45.23-.69l.02-.1.04-.08.06-.18v-.06s.06-.18.06-.18v-.11s.05-.12.05-.12l-.03-.14-.05-.05-.05-.08-.06.07h-.04s-.21.14-.21.14l-.35.2-.05.05-.12.06-.16.12-.4.32-.28.26-.1.07-.93.81-.07.11h-.04s-.04.09-.04.09l-.46.39-.18.11-.03.04-.62.53-.03.04-.03.02-.05.1-.05.03v.02s-.14.1-.14.1l-.04.06h-.05s-.07.1-.07.1l-.03.03v.02s-.05.03-.05.03l-.05.03-.06.05-.09.13-.07.03-.12.06-.09.09-.04.06-.13.1-.26.09-.11.08v.02s-.04.05-.04.05h-.02s-.02-.01-.02-.01l-.1.06h-.05s-.01.05-.01.05v.02s-.04-.02-.04-.02v-.02s-.06.01-.06.01l-.51.04v-.02s-.11.02-.11.02l-.12-.03-.2-.07s-.06,0-.09,0v-.02s-.02.02-.02.02l-.07-.08c-.02-.09-.03-.16-.03-.23l-.02-.11v-.33s0-.15,0-.15l.05-.1.03-.15v-.06s.08-.12.08-.12l.02-.08.1-.17.14-.41.03-.15.08-.16.06-.14.04-.19.08-.18.05-.1.09-.11v-.04s.04-.04.04-.04l.06-.14v-.04s.01,0,.01,0l.06-.16.2-.32.05-.14.02-.06v-.04s.01-.18.01-.18l-.04-.2v-.13s-.05-.1-.05-.1v-.07s.02-.12.02-.12l.09-.11.15-.29.14-.14.12-.02.1.05v.02s0,.02.03.02c.07.06.08.15.1.24l.02.02.09.29v.22s-.07.16-.07.16l-.14.23-.08.35-.1.13-.04.06-.09.13-.08.14-.06.07v.04s-.06.1-.06.1l-.09.11v.06s-.02,0-.02,0l-.03.02-.28.55-.02.08-.04.1-.06.08c-.06.14-.13.28-.18.42l-.13.28c-.02.08-.05.14-.07.2l-.05.14v.13s0,.18,0,.18l-.06.16v.11s-.01.02-.01.02c0,.05.02.11.04.14.12.13.56-.07.97-.32l.09-.11.17-.05.25-.16.13-.06.13-.1c.23-.16.44-.31.66-.48l.09-.11.11-.08.15-.1.1-.07.12-.17.41-.26s.03-.04.05-.05l.03-.06.12-.06.35-.31v-.02s.07-.1.07-.1l.07-.03.03-.06.08-.07.04-.06.23-.12.47-.42.13-.16.21-.17.17-.26.11-.1.14-.12.2-.13.08-.07.13-.12.39-.24.06-.05.14-.12.09-.13v-.04s.04-.02.04-.02l.08.02c.08-.07.17-.14.27-.2v-.02s.16-.1.16-.1h.06c.06.01.1.06.13.09l.03-.02h.11s.1.05.1.05v.07s-.01.06-.01.06h.04s0,.03,0,.03h-.04s0,.02,0,.02l-.03.04-.03.12-.11.19-.06.16.02.11-.12.25-.02.09-.04.1-.06.14-.02.06-.04.19-.04.17-.08.15v.07s-.1.24-.1.24v.07s-.04.17-.04.17v.11s-.05.18-.05.18l-.04.06c-.04.25-.04.43.06.49.11.07.22.11.39.09l.18-.02.14-.03h.11s.12-.03.12-.03c.2-.04.38-.11.61-.19v-.02s.12-.02.12-.02l.23-.12h.09l.38-.13.02-.02h.02s.1-.06.1-.06l.23-.06.17-.05h.02s.03-.03.05-.03h.02s.1-.04.1-.04l.1.02.05.05-.06.07-.07.03-.05.03-.32.08-.06.07-.05.05-.04-.03-.22.1-.57.31-.16.05-.1.04-.22.12-.16.05-.12.04h-.04s-.03.03-.05.04h-.04s-.21.08-.21.08l-.26.1-.14.03c-.21.06-.38.13-.51.14l-.03.02h-.04s-.06-.02-.07-.01h-.05s-.07-.05-.07-.05l-.03-.05v-.04s-.03-.01-.03-.01v-.02s-.07-.15-.07-.25v-.13s.02-.06.02-.06Z"/>
      <path d="M111.75,21.9c.21-.15.42-.32.62-.49v-.02s.84-.7.84-.7l.07-.1.12-.12.03-.04.2-.2.08-.04.04-.06.33-.29.09-.02.06-.07.05-.03.06-.08.09-.09h.04s.07-.1.07-.1l.11-.1.06-.08.11-.11.18-.11.14-.12c.11-.09.22-.21.32-.32.01-.02.03-.03.05-.03l.04-.08h.05s.06,0,.06,0l.07.06v.07s-.07.07-.07.07l-.07.03-.05.05-.03.04h-.04c-.29.3-.63.57-.94.85l-.1.15-.16.11-.11.09c-.08.05-.14.12-.2.19-.11.1-.18.31-.29.41l-.38.3-.11.11-.1.07-.2.19-.03.04-.05.05-.14.12-.22.21-.07.09-.21.13-.11.11-.05.05-.31.32-.08.16-.06.05-.12.17v.11s-.04.05-.04.05h-.15s-.1.08-.1.08l-.31.13-.32.14h-.02s-.21.16-.21.16l-.09.02-.03.04-.37.27h-.05s-.06.06-.06.06l-.09.02-.04.06-.06.05h-.02s-.07.04-.07.04h-.06s-.05,0-.05,0l-.06-.02-.08-.02-.28-.04h-.08s-.12-.15-.12-.15c-.09-.09-.21-.24-.26-.37-.06-.19-.08-.39-.03-.61h-.05s0,0,0,0h.02s.02-.06.02-.06v-.07s.03-.15.03-.15l.11-.3.03-.43.07-.2.08-.07.09-.18.06-.18.07-.31h.04s.06-.07.06-.07v-.06s.04-.12.04-.12l.05-.03.19-.44.04-.1.11-.26.05-.19.22-.49.02-.1.52-1.12.06-.18.08-.15v-.05s.12-.28.12-.28l.05-.1.02-.08.21-.45.08-.07.03-.12.03-.03.04-.08v-.04s.06-.12.06-.12v-.02s.05-.08.05-.08l.02-.08.09-.13v-.02s0-.11,0-.11l.08-.16.12-.15.07-.12.22-.49v-.02s.04-.08.04-.08l.02-.17.05-.05h.05c.04-.11.09-.21.14-.31l.05-.12.06-.18.08-.15.06-.08.05-.12.06-.07s0-.04.03-.04v-.05s.04-.1.04-.1l.06-.09v-.07s.04-.08.04-.08v-.05s.18-.43.18-.43l.04-.06.02-.1.12-.26.03-.02.08-.16.07-.11.43-.99.08-.09.17-.44.1-.13.1-.24.06-.08.15-.38.03-.06v-.02s.06-.07.06-.07v-.04s.03-.09.03-.09l.03-.06-.06.07-.02-.03v-.02s.03-.1.03-.1l.09-.04v.07s.06-.14.06-.14l.1-.15.06-.14v-.07s.1-.18.1-.18l.3-.28.11-.26.11-.1.03-.04.03-.06v-.02s.01,0,.01,0h.04s.07-.02.07-.02l.06-.09.11-.11.08-.07.02-.08-.03-.03h.05s.03.02.03.02l.08-.07h.06s.01-.01.01-.01c.03-.03.03-.06.06-.05h.04s0-.06,0-.06v-.05s.04-.01.04-.01v.02s.09-.03.09-.03h.11s.09.09.09.09l.12.16-.08.35-.19.24-.23.23-.05.12-.35.2-.08.07-.09.22-.21.26-.03.06-.23.34-.29.68-.15.18-.07.2-.18.29v.02s-.17.37-.17.37l-.1.13-.27.61-.19.28-.21.45-.26.57-.12.15-.52,1.21-.09.2-.08.24-.14.21-.15.27-.39.76v.11s-.11.28-.11.28l-.05.03v.07s-.1.08-.1.08v.13s-.05.08-.05.08l-.06.07h-.02s-.24.57-.24.57l-.13.28v.13s0,.18,0,.18l-.04.08-.11.21-.08.05v.17s-.12.17-.12.17l-.15.19-.1.32-.08.07-.11.26v.04s-.09.24-.09.24l-.15.34s0,.02-.01.02l-.13.38s-.03.04-.03.06l-.05.21-.08.25-.07.11-.28.92.02.2-.02.09-.08.27-.06.08-.02.08.03.25.06.1.08.06.05.05h.06s.18.07.18.07l.14-.03.23-.12.06-.07.15-.07.05-.05.18-.13.31-.19.05-.05.17-.09.09-.09.23-.16.14-.12.3-.24.28-.15h.02Z"/>
      <path d="M115.21,19.79l.02.09-.07.11-.04.08s-.01.02,0,.04v.05s-.04.12-.04.12l.07.45s.02.27.1.35c.13.1.08.11.55.17h.32s.23-.03.23-.03l.26-.09,1.24-.54.23-.15.65-.37.12-.12.06-.05h.04s.98-.66.98-.66h.07s.11-.11.11-.11l.15-.07.54-.33.07-.03c.59-.39.81-.6,1.37-1.01l.36-.22v-.04s.11-.07.11-.07l.3-.17.31-.21v-.04s.05-.01.05-.01l.19-.15v-.04s.86-.77.86-.77l.08-.04c.11-.1.22-.21.34-.34.03-.04.09-.04.11,0v-.02s.06-.07.06-.07h.08s.08.15.08.15l-.08.05-.15.08-.08.05-.35.37-.07.14-.09.02-.06.05c-.14.14-.3.26-.44.38v.02s-.12.1-.12.1l-.06.07h-.05s-.51.41-.51.41v.04s-.08.03-.08.03l-.13.1-.03.02-.22.21-.62.42c-.19.15-.38.31-.58.45l-.04.06-.8.6-.06.07-.05-.05-.17.16-.21.08-.13.1h-.02c-.21.16-.42.29-.64.42l-.24.19-.5.37-.13.06-.21.08-.29.15-.17.05-.06.05-.06.07-.22.1h-.04c-.2.12-.44.22-.68.31l-.04.06-.08.03h.02s-.34.14-.34.14h-.11s-.18.09-.18.09h-.44s-.43-.11-.43-.11l-.23-.21-.13-.21-.1-.24-.06-.3v-.04s-.01-.03-.01-.03l-.02-.12.04-.47.08-.24.08-.35.07-.2.03-.04.03-.15.09-.11.03-.14.08-.18.04-.06.18-.13.05-.1.11-.08.12-.13.03-.03.15-.19.13-.15.09-.2.06-.08.07-.12.06-.07.1-.06.03-.06.07-.1.13-.08.08-.05c.33-.36.68-.74,1.06-1.08l.03-.04.15-.16.21-.13s.04,0,.03-.02l.19-.18.11-.1.05-.03.24-.08c.18-.11.36-.22.55-.31l.14-.12.18-.04.1-.06.06.02c.14-.03.28-.06.41-.06v-.02s.06-.03.06-.03h.04s.05-.02.05-.02v-.02s.13.01.13.01v-.02s.01,0,.01,0v.04s.05.03.05.03h.05s.02.02.02.02h.02s.12.03.12.03l.02.02c.1.05.18.09.22.18h.06s-.01.05-.01.05h.02s-.01.02-.01.02l.02.09.03.07v.13s-.04.06-.04.06l.02.11-.02.28-.1.26-.14.21-.17.16-.14.14-.56.44-.08.09-.12.06c-.35.36-.75.7-1.15,1.02v.04s-.48.35-.48.35l-.2.2-.42.29-.31.19-.46.18-.28.07-.12.02-.12-.03-.05-.08.02-.06.08-.27.2-.28.21-.13.14-.03h.13s.15.02.15.02l.23-.05.21-.08.21-.13h.07s.03-.07.03-.07l.48-.28.43-.32.21-.17.07-.12.21-.13.02-.08.25-.14.06-.08.2-.22.67-.83.05-.1v-.13s.04-.06.04-.06l.04-.28h-.02s-.03-.05-.03-.05l-.05-.08-.11-.09-.13-.03h-.13s-.2.03-.2.03l-.12.04h-.07c-.46.2-.92.56-1.2.76l-.19.15-.04.06-.08.09h-.07s-.01.02-.03.02v.04s-.09.06-.09.06l-.03.04h-.04s-.35.3-.35.3l-.16.2-.1.15-.17.09-.06.05c-.14.14-.26.29-.39.44l-.07.12-.19.26-.1.15-.16.22-.2.3-.19.33-.04.06-.08.18-.09.2-.14.21-.11.28Z"/>
      <path d="M134.25,14.79l-.04.16s.02.09,0,.15l-.07.2-.09.2-.14.14-.14.21-.05.1-.07.11-.12.14-.03.02c-.25.33-.57.65-.9.95v.04s-.05.01-.05.01l-.17.16v.02s-.03.04-.03.04h-.07s-.01.04-.03.04v.05s-.06.01-.06.01l-.12.13h-.02s-.07.11-.07.11l-.12.06-.05.1-.11.11-.07.03-.19.06-.06.05-.1.04h-.04c-.26.17-.49.33-.73.45l-.06.07-.05.03-.05.1-.05.03h-.13s-.12.01-.12.01l-.34.05-.33.03v-.02s-.05.03-.07.03c-.11,0-.19,0-.28-.02-.08-.04-.49-.14-.53-.26l-.03-.16-.05.03-.04-.1.06-.34.07-.33.05-.12.17-.25.11-.11.03-.06.26-.27.21-.32.04-.1.06-.08.33-.38.09-.11.08-.03.03-.04.12-.12.03-.06.02.03.36-.4.07-.11.05-.03.14-.14.1-.17.13-.17.23-.14.19-.24.13-.1.14-.12c.16-.14.29-.3.43-.42h-.25c-.12.06-.22.09-.33.11l-.05.03v.02s-.07,0-.07,0l-.21.04c-.16.05-.35.12-.54.16h-.02s-.41.1-.41.1h-.22s-.12-.06-.12-.06l-.07-.08v-.13s.09-.24.09-.24l.13-.08.17-.07.17-.05.15.02.28.02c.27-.05.55-.09.87-.1l.19-.07.29-.04.33-.12h.06s.29-.09.29-.09c.05-.03.1-.07.14-.12l.14-.14.13-.1.05-.03.08-.07.14-.04.16-.05c.12-.04.24-.08.37-.09l.12-.04.06.04c.07,0,.13.03.22.07l.49-.15v-.02s.22-.09.22-.09l.26-.07.27-.15.1-.04.17-.05.36-.07.14-.05.22-.02h.02c.07-.02.16-.03.23-.07.09-.02.19-.06.3-.08l.07-.03.03-.02h.04s.04.02.04.02l.11-.02.1-.06.12-.02h.16s.04-.02.04-.02l.12-.04.12.03h.05s.07-.04.07-.04h.15s.07,0,.07,0c.22,0,.41,0,.52,0l.08.04h.07s.07.05.07.05c.12.03.22.09.34.14h.04s.06.04.06.04l.1.02.07.1.09.09v.05s-.08.11-.08.11l-.03.14-.1.32-.05.12v.02s-.03.04-.02.06l-.05.12-.1.06-.03-.14.03-.06v-.04c0-.07.03-.17.05-.25l.02-.1.06-.34s-.03-.03-.03-.07l-.07-.08-.2-.05-.16-.08-.28-.02c-.41-.01-.91.09-1.19.14l-.27.05-.21.06c-.2.04-.28.09-.45.14-.77.21-1.31.39-1.81.56l-.03.02-.15.07-.08.07-.29.04c-.28.09-.55.2-.87.3l-.13.08-.14.03-.31.1-.08.07c.19.02.36.06.5.09h.04s.06.04.06.04h.04s.08.05.08.05l.16.06.26.19.08.11.13.2.05.32c0,.09,0,.18-.02.28ZM133.8,14.75l-.02-.11.04-.17-.03-.25v-.02s-.13-.16-.13-.16l-.13-.09-.14-.06-.16-.06-.14-.03-.17-.02-.16-.06h-.11s-.04-.03-.04-.03c-.2.19-.38.41-.66.68l-.13.16-.1.13-.57.5-.15.16-.11.09-.31.3v.02s-.09.09-.09.09l-.24.19-.19.18-.17.16-.08.09-.21.23v.02s-.16.27-.16.27l-.12.24-.06.14s-.01.02-.03.03c-.1.17-.17.35-.2.5v.04s0,.07,0,.07l-.02.1.02.11v.04s-.02.06-.02.06c.04.14.11.25.21.31h.04s.12.04.12.04c.04,0,.08,0,.11,0,.59-.08.71-.16,1.26-.47.23-.12.48-.28.71-.43v-.04s.06-.01.06-.01l.19-.15.11-.17.27-.22.07-.03h.04s.48-.49.48-.49l.04-.06.03-.02c.12-.13.24-.29.36-.44l.04-.08.03-.06.09-.11.08-.15.04-.1.07-.03.02-.08.04-.06.03-.06h.04c.1-.23.19-.43.23-.62ZM134.12,12.67c-.14-.05-.35.09-.52.19l.52-.19Z"/>
      <path d="M139.32,14.4v.15s-.03.08-.03.08v.06s-.11.06-.11.06c-.06.18-.11.35-.19.54v.04s0,.11,0,.11l-.09.13s-.01.02-.01.02c.11.11.23.21.32.32l.06.02.09.09.06.04h.11s.03.05.03.05l.03.14.06.12.05.17.08.11.05.05v.02c.12.23.21.47.31.73v.04s.11.15.11.15v.13s.14.29.14.29l.06.21v.28s.07.28.07.28l.02.12v.19s-.01.22-.01.22v.13s.02.15.02.15l-.05.32v.04c-.01.09,0,.2-.02.32l.07.17.04.03-.03.04-.09.11v.15s.02.16.02.16v.07s0,.06,0,.06l-.04.06-.15.29c-.02.17-.07.33-.11.5l.07.08-.02.1-.12.13-.06.23.02.03-.03.03-.06.18v.11s-.02.06-.02.06v.17s-.06.18-.06.18v.16s-.02.23-.02.23l-.04.08-.14.23-.03.12-.08.15-.12.17-.04.08-.1.24-.08.27-.1.15-.02.08-.1.24-.03.12-.15.36-.26.38c-.38.81-.79,1.61-1.23,2.4l-.02.08-.14.23-.08.27-.07.12-.08.15-.2.3-.07.12-.12.13-.31.58v.02s0,.04,0,.04l-.05.03-.46.79s-.04.08-.07.12v.04s.06.06.06.06l-.1-.04v.02s0,.04,0,.04l-.07.12h-.02s-.12.3-.12.3l-.34.62-.12.24-.46.48-.45.42.08.02-.02.08v.05s-.05,0-.05,0l-.03-.05-.13.08h-.04s-.01.01-.01.01v-.02s-.09.02-.09.02l-.17-.13-.11-.2c.02-.1.04-.19.04-.28l-.05-.16v.02s-.04,0-.04,0l-.02-.11-.07-.15v-.16s-.02-.05-.02-.05v-.07s0-.05,0-.05l-.04-.03v-.02s.04.01.04.01v-.13s.02-.04.02-.04l.03-.02v-.07s.05-.03.05-.03v-.02s.07-.2.07-.2l-.05-.14-.03-.14.03-.14.09-.22.07-.22.03-.23c0-.22.03-.43.06-.66v-.04s0-.11,0-.11h.02c.01-.13.06-.25.09-.39.19-.53.29-1.07.39-1.59l-.02-.36-.02-.09.14-.16.05-.21v-.05s.02-.04.02-.04l.12-.35c.06-.18.1-.35.14-.52v-.04s.01-.08.01-.08v-.07s.05-.05.05-.05l.08-.33.04-.06.18-.59v-.05s.04-.12.04-.12v-.07s.06-.18.06-.18l.14-.49.06-.08.07-.22.16-.51.03-.15.12-.26.25-.73.06-.18.07-.14.02-.08c.03-.06.03-.12.06-.16l.02-.17.33-.88.04-.28.23-.43.33-.88.28-.76.12-.45.08-.18.1-.13.49-1.29.06-.23h.04s.05-.15.05-.15v-.04s.04-.06.04-.06l.1-.26s-.07-.06-.09-.09l-.14-.14-.1-.05v-.07s-.08-.02-.08-.02l-.07-.08-.06-.03-.16-.14-.3-.22c-.39-.2-1.09.06-1.41-.32l-.08-.04-.02-.09.02-.08.04-.1h.02s.09-.09.09-.09h-.02s.01-.04.01-.04l.06-.05.09-.09.12-.06h.02s.01-.02.01-.02l.05-.03.03-.02v-.04s0,0,0,0v.02s.11-.02.11-.02h.02s.07,0,.1-.02c.32-.14.47-.17.64-.2l.15-.1.68-.3.26-.11.41-.15.19-.09.14-.06.13-.08.1-.13h.04s.08.03.08.03h.07s.12-.06.12-.06t.01-.04l.19-.74.16-.23v-.11s.13-.16.13-.16l.1-.22.5-1.52c.02-.11.07-.23.12-.35l-.02-.03v-.09l.11-.09.16-.33.1-.22.06-.08.14-.23.09-.18c.09-.41.31-.8.45-1.18.08-.27.23-.51.37-.74v-.06s.15-.21.15-.21l.04-.1c.11-.3.27-.59.42-.89l.02-.08.33-.58.07-.22.33-.66.2-.3v-.02s.01-.11.01-.11l.09-.03.02-.08.19-.35.08-.24.06-.25.05-.14.07-.12.09-.02.04-.1h-.04s-.01-.06-.01-.06l.05-.14.09-.02v-.07s.01-.04.01-.04l.02-.08v-.04s.04-.14.04-.14v-.04s.04.03.04.03l.06-.05.03-.06h.04s.01-.03.01-.03l.14-.16.15-.07.08-.07.03.03.03-.04.16-.14.07-.11.03-.06v-.05s.04-.01.04-.01l.03.05.15-.08.12-.02.17.13.15.19-.05.41-.52.27v.06s-.12.19-.12.19l-.08.24-.06.18-.41.19-.17.27.07.06h-.11s-.03,0-.03,0l-.21.56c-.43.73-1.02,1.84-1.41,2.6-.2.59-.46.83-.7,1.41-.52.95-.77,2-1.35,2.92l-.1.24c-.06.23-.15.45-.26.64l-.04.19-.19.33-.27.81v.15s-.04.05-.04.05l-.03.02-.09.28h.04s.1-.05.1-.05c.59-.28,1.15-.56,1.5-.66l.21-.04c.31-.1.75-.22,1.24-.35.14-.05.29-.11.45-.16.14-.05.28-.07.42-.12.2-.02.69-.17,1.04-.28.14-.05.59-.1.6-.06h.04s.05.09.05.09l-.06.05-.57.11h-.02s-.6.16-.6.16l-.1.06h-.02c-.24.03-.42.1-.61.2v-.02c-.16.05-.28.07-.38.13l-.05.03-.2.04c-.25.07-.98.3-1.2.36l-.05.12-.04-.03-.12.02h-.06s-.06.08-.06.08h-.04c-.33.13-.7.29-1.02.46l-.28.17-.32.17-.09.02c-.06.09-.1.17-.12.23l-.49,1.28ZM139.85,21.91l.09-.2.07-.2v-.06s.02-.02.02-.02l.05-.29v-.04s.06-.49.06-.49v-.22s.02-.32.02-.32v-.2s-.04-.27-.04-.27l.03-.24v-.19s.03-.34.03-.34c-.06-.4-.14-.8-.24-1.21h-.02s-.05-.17-.05-.17l-.07-.25-.11-.18-.03-.07-.21-.31-.09-.09-.06-.04-.1-.13c-.18-.15-.34-.25-.5-.38h-.02s-.11.3-.11.3v.06s-.02.02-.02.02l-.05.1.02.12-.13.19-.06.16-.08.24-.04.06-.33.86c-.17.44-.48.74-.65,1.2-.12.32-.24.66-.34.99l-.03.14-.06.14s-.03.04-.03.06l-.03.21-.09.28-.28.81-.1.52-.15.29c-.02.08-.04.17-.08.26v.04s-.04.14-.04.14l-.23.78v.16s-.1.17-.1.17l-.06.27-.05.21-.16.51-.18.66-.04.27-.11.26c-.07.2-.12.41-.19.63l-.44,1.45-.1.44-.08.16c-.3,1.04-.16,2.38-.22,3.42v.02s.06.08.06.08l.06.21.03.05.28-.28.82-1.18.08-.07.13-.17.38-.81.17-.27.12-.23.51-.88.46-.77.21-.34.27-.59.15-.18.27-.5.08-.16v-.02s0-.02,0-.02l.38-.72.16-.58.19-.18.24-.64v-.05s.01-.06.01-.06l.05-.05v-.07s.02,0,.02,0v-.02s0-.04,0-.04l.05-.1c.08-.24.16-.49.26-.73l.12-.35v-.04s.02-.03.02-.03v-.05s.05-.18.05-.18v-.04s.13-.5.13-.5l.03-.14ZM138.77,13.39l-.34.12-.17.15-.15.07-.1.07-.22.1-.16.11-.12.06-.17.07.07.1c.4.07-.03.23.29.35v.02s.05-.03.05-.03v.04c.17.08.28.15.37.23l.05.05.12.03.13.09.05.05.09.17.08.06v.02s.24-.6.24-.6l.03-.21.16-.31.37-.87.06-.18.02-.08-.09.09h-.09s-.08.05-.12.06l-.42.19Z"/>
      <path d="M103.65,55.39v.05s.25.21.25.21l.06.04.03.05c.27.32.42.73.37,1.22l-.05.19.03-.02-.12.36-.24.49-.06.05-.1.24v.02s-.05.01-.05.01v.02s-.08.05-.08.05l-.33.41-.23.14-.22.21-.17.09-.1.04-.12.04-.07.03s-.09.09-.16.11l.04.03-.04.06-.07.03h-.02s0-.01,0-.01v-.04s0,0,0,0v.02s-.01,0-.01,0c-.66.41-1.66.86-2.68,1.28l-.13.1h-.08s-.04,0-.04,0l-.05.05-.37.18h-.06s-.08.05-.08.05h-.07s-.06.06-.06.06l-.09.04h-.04s-.1.06-.1.06l-.16.11-.14.06-.17.05-.55.11-.15.07-.06.07h-.05s-.04,0-.04,0l-.45.14.05.05-.08.05h-.11s-.29.08-.29.08l-.27.13-.22.08.07.06-.04.08-.15.08-.05-.05v-.04s.05-.07.05-.07l-.12.04h-.16s-.07.04-.07.04l-.08.05-.14.03-.1.04-.65.24-.03.02-.09.02c-.17.07-.34.14-.53.2l-.06.05-.57.19-.27.11-.08.04-1.07.36-.67.24-.2.11-.25.07-.08.07-.47.16h-.15s-.08.04-.08.04l-.73.25-.27.05c-.09.02-.17.05-.26.09l-.23.06-.21.08-.28.11-.43.16-.25.05c-.19.06-.4.12-.59.19-.04.36-.06.73-.15,1.1-.05.14-.09.31-.22.39l-.17.37-.42.32c-.18-.09-.18-.34-.23-.53.03-.23.09-.46.17-.66v-.02s.03-.04.03-.04v-.05s-.05-.01-.05-.01v-.02s.03,0,.03,0l.04-.1h.02s.06-.09.06-.09l.03-.03c.02-.08.05-.14.09-.2l-.03-.14h-.06c-.12.04-.22.07-.33.09l.02.03-.08.07-.11.02-.04-.03v-.02c-.73.24-1.49.44-2.24.66v.02s-1.23.37-1.23.37c-.05.03-.12.04-.17.05l-.1.06-.21.08-.05.03-.35.11h-.07s-.11.02-.11.02l-.03.04-.46.11-1.17.36v.02s-.05.01-.05.01c-.61.18-1.2.37-1.84.58l-.04.06-.06-.02-.4.15-.84.33-.14.03-.17.07h-.04c-.64.22-1.27.51-1.89.82l-.12.06-.26.16h-.07s-.69.37-.69.37l-.03.03-.57.31v.02s-.04-.01-.04-.01l-.4.23-.63.36h-.02c-.13.07-.25.13-.37.21-.02,0-.04,0-.04-.01l-.06.07h-.07s-.06-.01-.06-.01l-.04-.12.06-.07h.13s.03-.03.03-.03l.83-.48.2-.11s.03-.02.05-.03c.03-.03.06-.05.1-.06l.03-.04h.07c.26-.18.53-.32.82-.47l.12-.06.04-.06.26-.11.04-.06.11-.02.1-.07.12-.02.52-.27.17-.09.19-.09v.02s.08-.05.12-.06v-.04s.03,0,.03,0l.22-.12.83-.31s.05-.01.09-.04l.17-.09.91-.33.5-.15.26-.11.05-.03.22-.1.03-.02.21-.04.12-.06.02.03.07-.05.3-.08h.11c.29-.1.59-.21.94-.32l.12-.04.27-.14h.24s.12-.03.12-.03c.38-.13.76-.24,1.27-.4h.04s.15-.07.15-.07l.5-.15.29-.13.77-.21.73-.25.21-.08.24-.1.68-.21.43-.14.18-.02.52-.17.04-.06.08-.25.03-.03.05-.14.05-.29.16-.49.08-.16.15-.47.07-.12.06-.16.18-.5.06-.18.04-.06.02-.09.03-.04.06-.18.04-.08.1-.24.18-.48v-.07s.03-.04.03-.04l.04-.08.08-.18.07-.22v-.06s.08-.18.08-.18l.08-.24v-.11s.03-.04.03-.04h.07s.06-.16.06-.16l.03-.04.37-.94h-.02s-.06-.02-.06-.02v-.07s.02-.04.02-.04l.06-.07v-.08s.04,0,.04,0v-.04s.09-.18.09-.18l.05-.03.21-.45.08-.16.04-.16.07-.12.07-.1.05-.1c.27-.62.57-1.25.87-1.87l.04-.1.05-.1v-.02s.06-.14.06-.14l.19-.37.1-.24.1-.17.05-.14h.04c.38-.8.8-1.58,1.21-2.4l.53-.95c.03-.06.06-.14.03-.21l.24-.55c.09-.02.08-.09.08-.16.18-.22.27-.5.45-.71l.56-1.27c.19-.15.21-.43.34-.62.12-.13.21-.32.27-.5l.11-.08.23-.51-.04-.09c.06,0,.08-.07.11-.08,0-.05.01-.11.02-.17.09-.09.15-.2.2-.32v-.02c.12-.13.28-.16.3-.33l.1-.22c.21-.17.25-.33.51-.49.2-.19.33-.4.54-.38h.04c.32.06.63.2.34.53l-.34.34-.15.08c-.22.1-.3.43-.45.35-.18.2-.45.25-.45.53l-.24.29c-.74,1.51-1.6,2.86-2.46,4.32l-.1.43c-.16.12-.25.44-.34.6l-.3.74-.02.09-.31.39c-.06.08-.07.12-.14.21,0,.08,0,.17-.09.2l-.63,1.21h.02s-.01.04-.01.04l-.03.04c-.04.06-.07.12-.09.18l-.02.08-.04.08h.04s.01.06.01.06l-.03.06h-.04s0-.01,0-.01v-.06s-.02.06-.02.06l-.05.05-.03.04v.05s0,.02,0,.02l-.03.03-.15.29v.07s-.1.18-.1.18l-.03.12-.16.33-.02.08-.35.75v.11s-.09.11-.09.11v.05s-.08.18-.08.18l-.04.06v.06s-.15.3-.15.3l-.05.05-.03.06-.05.05-.04.16h-.04s-.03.12-.03.12l-.04.1-.08.18-.07.12-.23.45-.02.11-.03.03h-.04c-.21.54-.42,1.08-.6,1.64.04.21-.1.41-.18.61-.01.13-.22.39-.29.61-.02.17-.07.31-.05.49-.1.07-.12.32-.13.45l-.15.64c-.1.17-.16.31-.24.49l-.03.3-.21.61c.55-.18,1.11-.37,1.68-.57l.12-.06.18-.04.27-.13.05-.03.36-.07.18-.11h.06s.22-.07.22-.07l.33-.12h.05s.35-.12.35-.12l.24-.08.57-.2s.01-.02.03-.02l.17-.05c.05-.01.1-.04.16-.05l.53-.2.17-.07.19-.06.52-.19.71-.31.26-.09.27-.13.87-.28.58-.22.12-.04.41-.17.13-.06.02.02c.6-.25,1.34-.52,2.12-.86l.35-.22h.04s.14-.07.14-.07v-.04s.05,0,.05,0l.43-.25h.05s.05-.06.05-.06l.31-.13v-.02s.13-.08.13-.08l.1-.04.3-.17h.04s.25-.17.25-.17l.29-.15.41-.25.09-.09.13-.08.03-.04.68-.39v-.02s.08-.03.08-.03l.54-.33.04-.06v-.06s.17-.11.17-.11h.11s.29-.3.29-.3l.02-.08.04-.08v-.09s.04-.06.04-.06l.05-.05.1-.04.08-.05c.09-.13.14-.23.21-.35.04-.1.05-.21.05-.32v-.05s-.04-.05-.04-.05l-.02-.09c-.07-.17-.19-.33-.34-.49h-.02s-.09-.11-.09-.11l-.1-.04-.19-.13-.08-.13s-.02-.01-.03-.03c-.19-.11-.41-.21-.63-.3h-.02s-.08-.02-.08-.02l-.1-.05h-.02c-.38-.14-.81-.26-1.25-.38l-.19-.02-.28-.04-.36-.13c-.07,0-.17-.02-.25-.04l-.34-.06h-.22s-.28,0-.28,0h-.15s-.11-.08-.11-.08l-.11-.09-.15-.03h-.08s-.05,0-.05,0l-.04.06-.06-.04-.07.03h-.02s-.13,0-.13,0v.02s-.05-.01-.05-.01l.03-.02-.06-.04-.08-.04-.02-.03h-.02s-.15-.08-.15-.08l-.15-.12-.07-.06-.14-.05-.09-.17-.04-.1v-.11s.04-.08.04-.08c-.03-.07-.05-.14-.06-.21l-.04-.03v-.05s-.04-.03-.04-.03h-.02s-.02-.12-.02-.12h-.02s0-.01,0-.01h.04s0-.06,0-.06v-.05s0-.02,0-.02v-.02s0-.13,0-.13l.05-.12.02-.08.03-.02v.02c.01-.06.04-.12.06-.18v-.08s.15-.27.15-.27l.15-.25v-.02s.1-.11.1-.11l.02-.09.04-.06h.05s.03-.07.06-.1l.03-.12.03-.04.05-.1.19-.17.12-.13h.02s.09-.1.09-.1l.09-.2.14-.14.06-.05.02-.06h.07s.25-.26.25-.26l.13-.1.19-.18.06-.07.16-.14v-.04s.1-.04.1-.04l.06-.08.13-.1.05-.05.1-.13.63-.62.18-.13.15-.08.35-.31.06-.08.07-.09.1-.04h.02s.19-.17.19-.17v-.02s0-.05,0-.05l.05-.05v-.04s0-.02,0-.02l.09-.09h-.02s.01-.02.01-.02l.02.03.1-.06h.04s.11-.08.11-.08h.04s.11-.1.11-.1l.2-.13.11-.19.29-.22.14-.05.16-.12.04-.06h.02s.1-.08.1-.08l.21-.26.29-.21h.02c.11-.1.22-.19.3-.32l.08-.15.13-.27.08-.35.03-.06.04-.1c.01-.11,0-.24-.02-.37-.04-.2-.12-.4-.25-.54h-.02s-.13-.12-.13-.12l-.13-.12v.02s-.04-.01-.04-.01v-.02s0-.01,0-.01l-.08-.02-.04-.03-.17-.02h-.18s-.27-.04-.27-.04h-.41s-.15-.04-.15-.04h-.13s-.45-.07-.45-.07l-.48-.02-.17-.04h-.32s-.1-.03-.1-.03h-.26s-.1-.04-.1-.04l-.39-.02-.12.02h-.15s-.14-.04-.14-.04c-.4.04-.8.06-1.11.07l-.35.09-.18.03-.19-.04-.34.05h-.41s-.09,0-.09,0h-.09c-.54.07-1.08.14-1.62.22l-.09.02-.17.05-.39.08-.05.03h-.11s-.09.02-.09.02l-.08-.02-.3.04-.82.16-.24.08-.31.13-.29.02-.23.06-.67.19-.66.2-.74.18-.33.12-.72.18-1.29.49-.63.29h-.07s-.11.07-.11.07l-.12.02c-.46.2-.91.42-1.35.63l-.11.08-.12.06-.15.08-.52.27-.54.25-.04.06-.05.03-.58.32c-.26.18-.5.39-.76.57-.16.2-.34.36-.48.57-.16.14-.32.27-.48.39l-.06.05-.26.27-.15.18s-.05.04-.08.05v.11s-.02.15-.02.15l-.21.23-.16.03h-.07s-.03.04-.03.04c.1.11-.1.22-.06.44-.03.21-.14.42-.28.55v.11s0,.13,0,.13l-.03.02-.06.09-.09.09c.11-.02.2-.02.31-.04.21-.06.41.03.4.27-.13.28-.47.33-.7.39-.23-.06-.54-.1-.7-.19-.34-.12-.45-.49-.05-1.1l.04-.17.12-.21.03-.04v-.04s.07-.09.07-.09l.06-.08-.05-.08h.04s0,.03,0,.03l.16-.12.09-.02.09-.11.08.02.24-.29.15-.18.05-.1.13-.08.15-.16.03-.04.06-.05c.15-.16.33-.3.48-.45l.14-.16.13-.1.07-.11.26-.2.16-.11.11-.08.16-.05c.07-.03.12-.06.18-.11l.1-.06v-.05s.04-.05.04-.05h.11s.05-.03.07-.05l.03-.02h.04c.11-.08.25-.15.38-.23l.05-.05.16-.11.16-.12.07-.03.11-.11h.05s.06-.1.06-.1l.05-.05h.15s.15-.1.15-.1l.43-.17c.13-.06.29-.13.42-.21l.08-.05.18-.09.52-.27h.04c.46-.21.92-.41,1.37-.61l.15-.08.25-.07.23-.12.41-.15.19-.09.2-.04.64-.24.39-.19,1.07-.28.31-.1.59-.17.32-.08.24-.12.28-.05.19-.08.58-.13.37-.02.36-.07.19.04.56-.13.13-.08h.06s.07.01.07.01v.04s.71-.1.71-.1l.18-.11h.07s.13.01.13.01l.36-.03.27-.05.06.04h.02c.05-.01.11-.02.18-.02l.16-.03.29-.02h.02s.06,0,.06,0h.04s.08-.04.08-.04l.03.03.69-.06.53-.03.07-.03.09.02c.05-.01.13,0,.18-.02h.02s.05-.05.05-.05l.08.04s.07,0,.13,0l.05-.03,1.02-.05h.24s.2-.03.2-.03h.74s.53.08.53.08l.14.06.59.09h.02s0,.01,0,.01l.52.12.09-.02.15.03.06.02.15.12.02.03.33.19h.06s.02.02.02.02l.03-.02v.02s-.01.02-.01.02l.06.04.03.05v.04c.1.11.2.24.27.39l.04.03.06.32v.06c-.01.06-.02.11-.05.17l.02.09-.05.05v.02s0,.07,0,.07l-.08.16-.12.15-.11.17-.09.22-.27.31-.17.18-.24.18c-.13.12-.21.23-.33.32l-.06.05c-.22.21-.41.36-.51.43l-.41.38-.06.08-.16.14-.06.08-.05.03v.02s-.07,0-.07,0h-.02s-.9.77-.9.77l-.04.08-.15.08-.24.21-.5.47-.21.15-.06.05-.42.41-.25.16-.23.21-.14.16-.21.13v.02s-.19.24-.19.24l-.23.15c-.23.23-.45.46-.61.67l-.27.4c-.07.12-.12.24-.15.36h.04s.04.13.04.13l.04.21.04.1v.04s0,.04,0,.04l-.03.04-.06.07c.09.19.23.32.41.48h.09l.04.03h.04s.05.06.05.06l.13.12.05.05c.08.06.17.1.27.13h.02s.08,0,.08,0l.09.09.1.04c.18.08.36.12.47.15l.1.04v-.02s.11.01.11.01l.17.04h.06s.08.03.08.03h.02s.1.07.1.07l.11-.02.21.05.15.03.27.08.03.03.03-.02.1.04h.09l.13.03.07.06s.02.01.04,0l.03-.02h.07s.11.02.11.02l.04.03h.09l.25.17.24.08h.02s.13.03.13.03l.07.06c.42.16.8.34,1.11.58h.02s.06.02.06.02Z"/>
      <path d="M133.79,49.5v.05s.25.21.25.21l.06.04.03.05c.27.32.42.73.37,1.22l-.05.19.03-.02-.12.35-.24.49-.06.05-.1.24v.02s-.05.01-.05.01v.02s-.08.05-.08.05l-.33.41-.23.14-.22.21-.17.09-.1.04-.12.04-.07.03s-.09.09-.17.1l.04.03-.04.06-.07.03h-.02s0-.01,0-.01v-.04s0,0,0,0v.02s-.02,0-.02,0c-.66.41-1.66.86-2.68,1.28l-.13.1h-.08s-.04,0-.04,0l-.05.05-.37.18h-.06s-.08.05-.08.05h-.07s-.06.06-.06.06l-.09.04h-.04s-.1.06-.1.06l-.16.11-.14.06-.17.05-.55.11-.15.07-.06.07h-.05s-.04,0-.04,0l-.45.14.05.05-.08.05h-.11s-.3.08-.3.08l-.27.13-.22.08.07.06-.04.08-.15.08-.05-.05v-.04s.05-.07.05-.07l-.12.04h-.16s-.07.04-.07.04l-.08.05-.14.03-.1.04-.65.24-.03.02-.09.02c-.17.07-.34.14-.53.2l-.06.05-.57.19-.27.11-.08.04-1.07.36-.67.24-.2.11-.25.07-.08.07-.47.16h-.15s-.08.04-.08.04l-.73.25-.27.05c-.09.02-.17.05-.26.09l-.23.06-.21.08-.27.11-.43.16-.25.05c-.19.06-.4.12-.59.19-.04.36-.06.73-.15,1.1-.05.14-.09.31-.22.39l-.17.37-.42.32c-.18-.09-.18-.34-.23-.53.03-.23.09-.46.17-.66v-.02s.03-.04.03-.04v-.05s-.05-.01-.05-.01v-.02s.03,0,.03,0l.04-.1h.02s.06-.09.06-.09l.03-.03c.02-.08.05-.14.09-.2l-.03-.14h-.06c-.12.04-.22.07-.33.09l.03.03-.08.07-.11.02-.04-.03v-.02c-.73.24-1.49.44-2.24.66v.02s-1.23.37-1.23.37c-.05.03-.12.04-.17.05l-.1.06-.21.08-.05.03-.35.11h-.07s-.11.02-.11.02l-.03.04-.46.11-1.17.36v.02s-.05.01-.05.01c-.61.17-1.2.36-1.84.58l-.04.06-.06-.03-.4.15-.84.33-.14.03-.17.07h-.04c-.64.22-1.27.51-1.89.82l-.12.06-.26.16h-.07s-.69.37-.69.37l-.03.03-.57.31v.02s-.04-.01-.04-.01l-.4.23-.63.36h-.02c-.14.07-.25.13-.37.21-.02,0-.04,0-.04-.01l-.06.07h-.07s-.06-.01-.06-.01l-.04-.12.06-.07h.13s.03-.03.03-.03l.83-.48.2-.11s.03-.02.05-.03c.03-.03.06-.05.1-.06l.03-.04h.07c.26-.18.53-.32.81-.47l.12-.06.04-.06.26-.11.04-.06.11-.02.1-.07.12-.02.52-.27.17-.09.18-.09v.02s.09-.05.12-.06v-.04s.03,0,.03,0l.22-.12.83-.31s.05-.01.08-.04l.17-.09.91-.33.5-.15.26-.11.05-.03.22-.1.03-.02.21-.04.12-.06.02.03.06-.05.3-.08h.11c.29-.1.59-.21.93-.32l.12-.04.27-.14h.24s.12-.03.12-.03c.38-.13.76-.24,1.27-.4h.04s.15-.07.15-.07l.5-.15.29-.13.77-.21.73-.25.21-.08.24-.1.68-.21.43-.14.18-.02.52-.18.04-.06.08-.25.03-.03.05-.14.05-.29.16-.49.08-.16.15-.47.07-.12.06-.16.18-.5.06-.18.04-.06.02-.09.03-.04.06-.18.04-.08.1-.24.18-.48v-.07s.03-.04.03-.04l.04-.08.08-.18.07-.22v-.06s.08-.18.08-.18l.08-.24v-.11s.03-.04.03-.04h.07s.06-.16.06-.16l.03-.04.37-.94h-.02s-.06-.02-.06-.02v-.07s.01-.04.01-.04l.06-.07v-.08s.04,0,.04,0v-.04s.09-.18.09-.18l.05-.03.21-.45.08-.16.04-.16.07-.12.07-.11.05-.1c.27-.62.57-1.25.87-1.87l.04-.1.05-.1v-.02s.06-.14.06-.14l.19-.37.1-.24.1-.17.05-.14h.04c.38-.8.8-1.58,1.21-2.4l.53-.95c.02-.06.06-.14.03-.21l.24-.54c.09-.02.08-.09.08-.16.18-.22.27-.5.45-.72l.56-1.27c.19-.15.21-.43.34-.62.12-.13.21-.32.27-.5l.11-.08.23-.51-.04-.09c.06,0,.08-.07.11-.08-.01-.05.01-.11.02-.17.09-.09.15-.19.2-.32v-.02c.12-.13.28-.16.3-.33l.1-.22c.21-.17.25-.33.51-.49.2-.19.33-.4.53-.38h.04c.32.06.63.2.34.53l-.34.34-.15.08c-.22.1-.3.43-.45.35-.18.2-.45.25-.45.53l-.24.29c-.74,1.51-1.6,2.86-2.46,4.32l-.1.43c-.16.12-.25.44-.34.6l-.3.74-.02.09-.31.39c-.06.08-.07.12-.14.21,0,.08,0,.17-.09.2l-.63,1.21h.02s-.01.04-.01.04l-.03.04c-.04.06-.07.12-.09.18l-.02.08-.04.08h.04s.01.06.01.06l-.03.06h-.04s0-.01,0-.01v-.06s-.02.06-.02.06l-.05.05-.03.04v.05s0,.02,0,.02l-.03.02-.15.29v.07s-.1.18-.1.18l-.03.12-.16.33-.02.08-.35.75v.11s-.09.11-.09.11v.05s-.08.18-.08.18l-.04.06v.06s-.15.3-.15.3l-.05.05-.02.06-.05.04-.04.16h-.04s-.03.12-.03.12l-.04.1-.08.18-.07.12-.23.45v.11s-.05.03-.05.03h-.04c-.21.54-.42,1.08-.6,1.64.04.21-.1.41-.18.61-.01.13-.22.39-.29.61-.02.17-.07.31-.05.49-.1.07-.12.32-.13.45l-.15.64c-.1.17-.16.31-.24.49l-.03.3-.21.61c.55-.18,1.11-.37,1.68-.57l.12-.06.18-.04.27-.13.05-.03.36-.07.18-.11h.06s.22-.07.22-.07l.33-.12h.05s.35-.12.35-.12l.24-.08.57-.21s.01-.02.03-.02l.17-.05c.05-.01.1-.04.16-.05l.53-.2.17-.07.19-.06.52-.19.71-.31.26-.09.27-.13.87-.28.58-.22.12-.04.41-.17.13-.06h.02c.6-.23,1.34-.51,2.12-.84l.34-.22h.04s.13-.07.13-.07v-.04s.05,0,.05,0l.43-.25h.05s.05-.06.05-.06l.31-.13v-.02s.13-.08.13-.08l.1-.04.3-.17h.04s.25-.17.25-.17l.29-.15.41-.25.09-.09.13-.08.03-.04.68-.39v-.02s.08-.03.08-.03l.54-.33.04-.06v-.06s.17-.11.17-.11h.11s.29-.3.29-.3l.02-.08.04-.08v-.09l.04-.06.05-.05.1-.04.08-.05c.09-.13.14-.23.21-.35.04-.1.05-.21.05-.32v-.05s-.04-.05-.04-.05l-.02-.09c-.07-.17-.19-.33-.33-.49h-.02s-.09-.11-.09-.11l-.1-.04-.19-.13-.08-.13s-.02-.01-.02-.03c-.19-.11-.41-.21-.63-.3h-.02s-.08-.02-.08-.02l-.1-.05h-.02c-.38-.14-.81-.26-1.25-.38l-.19-.02-.29-.04-.36-.13c-.08,0-.17-.02-.25-.04l-.34-.06h-.22s-.28,0-.28,0h-.15s-.11-.08-.11-.08l-.11-.09-.15-.03h-.07s-.05,0-.05,0l-.04.06-.06-.04-.07.03h-.02s-.13,0-.13,0v.02s-.05-.01-.05-.01l.03-.02-.06-.04-.08-.04-.02-.03h-.02s-.15-.08-.15-.08l-.15-.12-.07-.06-.14-.05-.09-.17-.04-.1v-.11s.04-.08.04-.08c-.03-.07-.04-.14-.06-.21l-.04-.03v-.05s-.04-.03-.04-.03h-.02s-.02-.12-.02-.12h-.02s0-.01,0-.01h.04s0-.06,0-.06v-.05s0-.02,0-.02v-.02s0-.13,0-.13l.05-.12.02-.08.03-.02v.02c.01-.06.04-.12.06-.18v-.08s.16-.27.16-.27l.15-.25v-.02s.1-.11.1-.11l.02-.1.04-.06h.05s.03-.07.06-.1l.03-.12.03-.04.05-.1.19-.17.12-.13h.02s.09-.1.09-.1l.09-.2.14-.14.07-.05.02-.06h.07s.25-.26.25-.26l.13-.1.19-.18.06-.07.16-.14v-.04s.1-.04.1-.04l.06-.09.13-.1.05-.05.1-.13.63-.62.18-.13.15-.08.35-.31.06-.08.07-.09.1-.04h.02s.19-.17.19-.17v-.02s0-.05,0-.05l.05-.05v-.04s0-.02,0-.02l.09-.09h-.02s.01-.02.01-.02l.02.03.1-.06h.04s.11-.08.11-.08h.04s.11-.1.11-.1l.2-.13.11-.19.29-.22.14-.05.16-.12.04-.06h.02s.1-.08.1-.08l.21-.26.29-.21h.02c.11-.1.22-.19.3-.32l.08-.15.13-.27.08-.35.03-.06.04-.1c.01-.11,0-.24-.02-.37-.04-.2-.12-.4-.25-.54h-.02s-.13-.12-.13-.12l-.13-.12v.02s-.04-.01-.04-.01v-.02s0-.02,0-.02l-.08-.02-.04-.03-.17-.02h-.19s-.27-.04-.27-.04h-.41s-.15-.04-.15-.04h-.13s-.45-.07-.45-.07l-.48-.02-.17-.04h-.32s-.1-.03-.1-.03h-.26s-.1-.04-.1-.04l-.39-.02-.12.02h-.15s-.14-.04-.14-.04c-.4.04-.8.06-1.11.07l-.35.09-.18.04-.19-.04-.34.05h-.41s-.09,0-.09,0h-.09c-.54.07-1.08.14-1.62.22l-.09.02-.17.05-.39.08-.05.03h-.11s-.09.02-.09.02l-.08-.02-.31.04-.82.16-.24.08-.31.13-.29.02-.23.06-.67.19-.66.2-.74.18-.33.12-.72.18-1.29.49-.63.29h-.07s-.11.07-.11.07l-.12.02c-.46.2-.92.42-1.35.63l-.11.08-.12.06-.15.08-.52.27-.54.25-.04.06-.05.03-.58.32c-.26.18-.5.39-.75.57-.17.2-.34.36-.48.57-.16.14-.32.26-.48.39l-.07.05-.26.27-.15.18s-.05.05-.08.05v.11s-.02.15-.02.15l-.21.23-.16.03h-.08s-.03.04-.03.04c.1.11-.1.22-.06.44-.03.21-.14.42-.28.55v.11s0,.13,0,.13l-.03.02-.06.09-.09.09c.11-.02.2-.02.31-.04.21-.06.41.03.4.27-.13.28-.47.33-.7.39-.23-.06-.54-.1-.7-.19-.34-.12-.45-.48-.05-1.1l.04-.17.12-.21.03-.04v-.04s.07-.09.07-.09l.06-.08-.05-.08h.04s0,.03,0,.03l.16-.12.09-.02.09-.11.08.02.24-.29.15-.18.05-.1.13-.08.15-.16.03-.04.06-.05c.15-.16.33-.3.49-.45l.14-.16.13-.1.07-.11.26-.2.16-.11.11-.08.16-.05c.07-.03.12-.06.18-.11l.1-.06v-.05s.04-.05.04-.05h.11s.05-.03.06-.05l.03-.02h.04c.11-.09.25-.15.38-.23l.05-.05.16-.11.16-.12.07-.03.11-.11h.05s.06-.1.06-.1l.05-.05h.15s.15-.1.15-.1l.43-.18c.13-.06.29-.13.42-.21l.08-.05.19-.09.52-.27h.04c.46-.21.92-.41,1.38-.61l.15-.08.25-.07.23-.12.41-.15.19-.09.2-.04.64-.24.39-.19,1.07-.28.31-.1.59-.17.32-.08.24-.12.28-.06.19-.07.58-.13.37-.02.36-.07.19.04.57-.13.13-.08h.06s.07.01.07.01v.04s.71-.1.71-.1l.18-.11h.07s.14.02.14.02l.36-.03.27-.05.06.04h.02c.05-.01.11-.02.18-.02l.16-.03.29-.02h.02s.06,0,.06,0h.04s.08-.04.08-.04l.02.03.69-.06.53-.03.07-.03.1.02c.05-.01.13,0,.18-.02h.02s.05-.05.05-.05l.08.04s.07,0,.13,0l.05-.03,1.02-.05h.24s.2-.03.2-.03h.74s.53.08.53.08l.14.06.59.09h.02s0,.02,0,.02l.52.12.09-.02.15.03.06.02.15.12.03.03.33.19h.06s.02.02.02.02l.03-.02v.02s-.01.02-.01.02l.06.04.03.05v.04c.1.11.2.24.27.39l.04.03.06.32v.06c-.01.06-.02.11-.05.17l.02.09-.05.05v.02s0,.08,0,.08l-.08.16-.12.15-.11.17-.09.22-.27.31-.17.18-.24.18c-.12.12-.21.23-.33.32l-.06.05c-.22.21-.41.36-.51.43l-.41.38-.06.08-.16.14-.06.08-.05.03v.02s-.07,0-.07,0h-.02s-.9.77-.9.77l-.04.08-.15.08-.23.21-.5.47-.21.15-.06.05-.42.41-.25.16-.24.21-.14.16-.21.13v.02s-.19.24-.19.24l-.23.15c-.23.23-.45.46-.61.67l-.27.4c-.07.12-.12.24-.15.36h.04s.04.13.04.13l.04.21.04.1v.04s0,.04,0,.04l-.03.04-.06.07c.09.19.23.32.41.48h.09l.04.03h.04s.05.06.05.06l.13.12.05.05c.08.06.17.1.27.13h.02s.08,0,.08,0l.09.09.1.04c.18.08.36.12.47.15l.1.04v-.02s.11.01.11.01l.17.04h.06s.08.03.08.03h.02s.1.07.1.07l.11-.02.21.05.15.03.27.08.02.03.03-.03.1.04h.09l.13.03.07.06s.02.01.04,0l.03-.02h.07s.11.02.11.02l.04.03h.09s.25.17.25.17l.24.08h.02s.14.03.14.03l.07.06c.42.16.81.34,1.11.58h.02s.06.02.06.02Z"/>
      <path d="M154.06,50.7l-.17.07-.25.07h-.13s-.31.01-.31.01l-.27-.13-.06-.12h-.02s-1.05-.1-1.05-.1l-.12.12-.12.13-.09.18-.08.07-.1.04-.08.04-.08.09-.05.03v.04s0,.05,0,.05l-.07.11-.06.07v.02s-.01.02-.01.02l-.03-.03h-.05s-.03.05-.03.05h-.04s-.13.07-.13.07l-.12.02-.08.04h-.04s.01-.03.01-.03l-.14.03h-.02c-.2.12-.39.25-.59.36l-.62.4s-.04,0-.03.03l-.06.05-.07.03s-.04,0-.05.03c-.42.23-.85.46-1.31.68l-.14.12-.15.1h-.07s-.16.06-.16.06h-.09c-.34.14-.69.26-1.04.37l-.32.17-.29.09-.22.02-.29-.04-.27.05-.14-.03h-.18l-.16-.04c-.37-.02-.74-.1-1.1-.23l-.23-.03-.36-.22-.08-.02-.05-.06v-.05s-.14-.1-.14-.1h-.02s-.21-.14-.21-.14l-.13-.27s-.03-.05-.03-.07l-.1-.05-.04-.03.03-.04v-.07c-.11-.2-.19-.41-.25-.62l-.07-.1-.05-.27v-.06s-.03-.18-.03-.18l-.05-.18-.02-.12v-.29s-.09-.26-.09-.26v-.22s.03-.21.03-.21l-.07.03-.12.02h-.15s-.06.04-.06.04l-.05-.05h-.04s-.18-.01-.18-.01l-.15-.1v-.04s.02-.02.02-.02c-.02,0-.04-.01-.06,0l-.06.07h-.17s-.05-.05-.05-.05h-.35s-.03.04-.03.04l-.11.1-.06.05-.06.07-.03.04h-.07s-.11,0-.11,0h-.22s-.14-.02-.14-.02l-.03-.07-.02-.11c-.09,0-.16.01-.25.03l.04.03.04.08v.18s-.18.2-.18.2l-.42.19-.37.02-.11-.07-.22-.09c-.49.04-.99.05-1.11-.02-.05-.08-.03-.14.04-.19l.34-.16.04-.28.18-.02.14-.04.27-.05.31.09s.12-.04.19-.06v-.04s.04-.06.04-.06h.05s-.03-.04-.03-.04h.02s.04,0,.04,0l.09-.02.09-.03.22-.03.27-.11h.13s.07.01.07.01h.13s.12-.03.12-.03h.09s-.02-.01-.02-.01l.06-.05h.08s0,.02,0,.02l.02.02-.05.03h.04s.07,0,.07,0h.04s.05,0,.05,0v-.02s.04.03.04.03h.32s.02,0,.02,0l.07-.03h.2s.13,0,.13,0h.09c.09-.02.2-.02.31-.02h.04s.22-.01.22-.01h.48c0-.15.04-.29.05-.42l-.03-.07-.03-.03.06-.05.04-.08c.02-.17.05-.32.09-.48.05-.31.12-.63.2-.94v-.24s.07-.25.07-.25l.08-.16.13-.45.14-.34.13-.36.03-.02v-.02s.05-.27.05-.27l.21-.32.08-.42.06-.14.11-.21.15-.25.12-.15.05-.19.15-.2.43-.8-.03-.07h.07c.14-.26.27-.51.43-.76v-.07s.03-.13.03-.13l.04-.08.14-.12.02-.08.08-.09.03-.03.17-.27.16-.29.03-.06.02-.08.05-.1.04-.08-.02-.11.03-.04.12-.06.11-.09.05-.03.4-.61.22-.49.08-.15.47-.53.03-.12.04.03.12-.15.26-.29v-.05s.06-.01.06-.01l.34-.44c.06-.07.12-.13.18-.22v-.09l.09-.02.5-.63-.2.11v.06s-.08-.02-.08-.02v.04s-.05,0-.05,0l-.05.03-.24.12v.02s-.05,0-.05,0l-.22.12h-.04s-.26.11-.26.11l-.16.14-.1.06-.13.08-.05.05h-.06s-.04,0-.04,0l-.17.07-.17-.04-.03-.03v-.04s.14-.12.14-.12l.17-.15.42-.14h.04s.27-.13.27-.13l.08-.09.13-.06.03-.04.24-.18.1-.07.06-.14h.05s.12.02.12.02l.07-.03.12-.04.07-.03.12-.02.1-.06.11-.1h.05s.46-.56.46-.56l.19-.28.15-.19.15-.25.08-.13.1-.07h.07s.26-.29.26-.29h.2s.07-.09.07-.09l.03-.12.09-.13.05-.05.17-.09.06-.08.08-.05.13-.08.31-.3.14-.21.09-.09.04-.06v-.11s.05-.02.05-.02l.14-.03.12-.06.31-.12.14-.05c.3-.24.63-.44,1.01-.58.33-.12,1.51-.85,2.53-1.03l.29-.11.05.08c.07-.01.13,0,.18,0v-.02s.03,0,.03,0l.05-.03h.02s-.01.04-.01.04l.36.06.23.14.1.05.24.29.17.37-.05.31-.14.14-.1.04-.08-.04-.02.08-.03-.03v-.05s-.04-.07-.04-.07l-.1-.04-.13-.1-.29-.35-.42-.25-.2-.07-.27-.04-.48.19-.3.1-.21.06-.97.34c-.13.06-.25.14-.32.17l-.41.26v.02s-.23.15-.23.15l-.03.04-.07.03-.1.13-.41.26-.05.03-.13.1-.14.16-.05.05-.1.04-.08.07-.23.25-.08.05-.2.13-.57.55-.29.3-.14.34-.32.34c.82-.42,1.65-.82,2.49-1.15l.14-.06.12-.02.48-.19.13-.06.17-.09.25-.06.22-.03c.4-.11,1-.27,1.6-.39l.06-.08.08.06.18-.03.17-.07.06.02c.07-.01.16-.01.23-.03l.15-.07.22-.02.19.04h.17s.2-.03.2-.03l.11.02.19.02.34.04.15.03.12.03.1-.06v.04s.13-.02.13-.02l.03-.04h.09s.11,0,.11,0l.15.02v.02s.02,0,.02,0l.06.02h.05s.01-.03.01-.03v.02s.11.05.11.05v.07s.07,0,.07,0v.07s.06.03.06.03h.04s.17,0,.17,0h.07s.08.03.08.03l.05.06.11.11c.29.15.56.32.84.54h.02s.21.1.21.1l.08.15c.61.58,1.01,1.32.88,1.95l-.16,1.05h.04s.05.09.05.09l-.02.08h.04s.03.04.03.04h-.05s-.01.03-.01.03l-.04.1v.13s-.13.26-.13.26l-.07.4-.06.09c-.1.35-.22.69-.38,1-.18.33-.33.67-.48,1.02h.04s-.08.08-.08.08l-.05.1-.03.24-.07.2-.16.22-.09.28-.07.11-.1.17-.15.16c-.19.33-.39.65-.62.95v.02s-.03,0-.03,0c-.01.02-.01.04-.03.04l-1,1.29-.04.06-.03.03-.16.2v.08s-.06.01-.06.01l-.43.53-.05.12-.11.17v.11s-.02.06-.02.06l-.14.03-.1.07-.08.05-.57.67-.07.24-.04.06-.1.04-.19.18-.12.13h-.05s-.14.22-.14.22l-.12.13-.08.07-.03.06h-.05s-.22.28-.22.28l-.14.12-.12.13-.05.05-.06.07-.14.14v.04s-.11.04-.11.04h-.02s-.02.08-.02.08l-.14.12-.37.38-.11.1-.11.11-.36.35-.12.13-.4.3-.1.06h.04s.13,0,.13,0h.08s.1.06.1.06l.34.03.38.04.08.02.53.06.41-.06h.21s.1.07.1.07l.23.03h.2s.16.04.16.04l-.05-.07.12-.02h.09s.03.05.03.05v.02h-.11l.19.04.06.03h.09s.02,0,.02,0l.04.03.45.15h.04s.11-.01.11-.01l.31.05h.22s.54.02.54.02h.02s.11,0,.11,0l.42.07c.34.03.68.09,1,.13h.04s.17.02.17.02c.02,0,.02.01.04.01h.05s.34.03.34.03l.04.03s.07,0,.11.02h.04s.51.06.51.06l.03.03.15.03h.02s.17.04.17.04h.02s.15.02.15.02l.21.03.11.02h.13s.21.03.21.03l.2.05.8.12.18-.02.02.03.05.05-.03.06c.1.04.21.05.33.08h.15s.38.14.38.14c.54.12,1.06.25,1.6.43,0,0,.02,0,.02.01l.43.1h.22s.07.07.07.07v.05s-.01.06-.01.06h-.06s-.35-.09-.35-.09h-.07s.01,0,.01,0h-.11s-.1-.03-.1-.03c-.04,0-.05.01-.09,0l-.43-.14v.04s-.06-.05-.06-.05c-.11-.01-.23-.06-.33-.08h-.07s-.06-.03-.06-.03l-.16-.04h-.02s-.17-.04-.17-.04l-.19-.04h-.17s-.13-.02-.13-.02l-.15-.03h-.07s-.03-.04-.03-.04h-.04s-.18-.07-.18-.07l-.03-.03c-.54-.12-1.08-.23-1.63-.33v.02s-.07,0-.07,0l-.06-.03-.39-.09h-.13s-.91-.05-.91-.05l-.06-.04h-.17s-.03.02-.03.02v-.02s-.65-.08-.65-.08l-.08-.04h-.07s-.22-.09-.22-.09h-.04s-.17-.03-.17-.03v.02s-.2-.02-.2-.02l-.12-.03-.43-.04h-.02c-.59-.08-1.19-.15-1.79-.2l-.05.03-.42-.07-.94-.09ZM136.9,50.59h-.02s-.03.01-.03.01v-.07s-.29.09-.29.09l.14-.03c.06,0,.13.01.2,0ZM148.39,50.39l-.08-.04-.03-.05-.07-.06-.08-.02-1.98-.22v.02s-.07,0-.07,0l-.06-.03h-.04s-.26.02-.26.02h-.07s-.7,0-.7,0h-.04s-.15-.02-.15-.02v.02s-.04-.01-.04-.01l-.48-.02-.06-.03h-.05s-.15-.02-.15-.02h-.15s-.02,0-.02,0h-.15s-.26,0-.26,0v.02s-.05.01-.05.01h-.35s-.05.04-.05.04v-.02s-.13.02-.13.02h-.17s-.04,0-.04,0h-.02s-.24-.02-.24-.02l-.12.02-.05.05-.06-.04h-.05s-.27.12-.27.12l-.07.03-.12-.03-.09.02c0,.42.04.88.14,1.3l.04.03.11.09.03.03.05.05-.03.06v.11s.02.11.02.11v.13c.09.15.18.3.27.43l.12.03.14.14.02.12c.14.14.31.25.5.36.04.03.08.06.12.07h.07s.15.1.15.1c.1.05.22.09.32.12l.17.02h.11s.09.01.09.01l.18.08.21.03h.19v.02s.06,0,.08,0l.09-.02h.02c.3.03.6-.01.91-.05l.17-.16h.31s.41-.1.41-.1l.81-.31.19-.09.05-.03.1-.07.29-.15.3-.17.19-.09h.02s.67-.43.67-.43l.06-.08.08-.07.24-.1.13-.19.15-.07h.07s.1-.07.1-.07v-.02s.08-.03.08-.03l.11-.08.03-.04.1-.08h.02c.31-.23.57-.47.85-.67l-1.17-.1h-.05s-1.36.04-1.36.04l-.2.02ZM155.22,46.72c.19-.18.35-.38.52-.56h-.04s.06-.13.06-.13l.15-.08.2-.19c.42-.47.81-.97,1.19-1.47v-.04s.02-.06.02-.06l.1-.13.05-.14.03-.12.07-.03v-.08s.06-.08.06-.08v-.06s.1-.02.1-.02l.05-.05.02.03v-.04s.09-.24.09-.24l.09-.22.14-.16.11-.11.26-.44.05-.14.18-.29.05-.14.2-.37.1-.22.34-.53.29-.57.09-.13.05-.19.29-.5.11-.21c.13-.3.22-.58.31-.89v-.13s0-.24,0-.24l.04-.08.08-.27.06-.05c.05-.32.06-.66.03-.98-.02-.31-.07-.62-.15-.88l-.07-.15-.14-.33-.03-.07-.06-.12-.06-.12-.03-.05-.06-.04-.11-.16-.1-.13c-.25-.25-.57-.44-.89-.6l-.11.02-.14-.06-.05-.06-.43-.14-.11.02-.1.06h-.06s-.04,0-.04,0l-.11-.07-.21-.11h-.02c-.83-.09-1.76-.02-2.65.13h-.07c-1.04.2-2.04.51-2.84.79l-.15.08-.21.17-.52.1-.13.12h-.15s-.88.39-.88.39l-.3.19-.04.06h-.05s-.1.05-.1.05h-.06s-.06.06-.06.06h-.11c-.15.09-.28.17-.43.24l-.05.2-.17.14-.06.07-.17.09h-.04s-.15.19-.15.19l-.15.2-.86.96-.03.04-.39.39-.26.48-.12.15-.18.31-.1.07-.16.23-.09.11-.27.31-.07.14-.08.13-.14.14-.13.17-.28.44-.04.08-.11.19-.03.03v.02s-.08.05-.08.05l-.02.09-.03.04-.07.03c-.21.34-.36.72-.53,1.05l-.07.12-.11.3-.14.23-.08.15-.09.09-.62,1.26-.05.21.04.08-.03.04-.05.1-.07.03v.07s-.06.11-.06.11h-.02s-.09.32-.09.32l-.07.2-.17.38h-.05s-.01.05-.01.05l-.04.08-.08.18v.07s-.02.02-.02.02c-.1.32-.21.63-.29.94l-.03.14.02.18-.08.15-.07.2c-.04.17-.08.35-.1.52-.03.06-.03.13-.04.19l.02.12-.02.19-.08.24c-.02.1-.03.21-.03.32h.2s.06.02.06.02h.02s.05-.03.05-.03h.33s.22.02.22.02h.04s.11,0,.11,0v.02s.06-.01.06-.01h.06s.11,0,.11,0l.07-.03h.02s.07-.03.07-.03l.23.06.46-.02.12-.02.02.02.04.05v.02s.15,0,.15,0h.04s.13-.01.13-.01h.55s.13.01.13.01h.52s.15.02.15.02l.17.02h.52s.19.03.19.03l.16-.03.06.04.18-.02.1.04.07-.03.17.04h.13s.09.01.13.02h.26s.07-.03.07-.03h.04s.11.02.11.02l.19.04h.24s.07-.04.07-.04l.16.04h.26s.12-.05.12-.05h.06s.21.15.21.15c.32.01.64.04.96.07h.02s.2-.02.2-.02l.1.02.2.05s.04.01.06,0h.04s.06,0,.06,0h.02s.07,0,.07,0h.15s.09-.05.09-.05l.04.03h.04s.17.01.17.01l.11.09s.04,0,.06,0l.52-.44.46-.4h.02s.22-.19.22-.19l.11-.11.16-.12.14-.16.08-.05.04-.08.17-.16v-.04s.11-.06.11-.06l.08-.07.7-.69.12-.12.44-.38.12-.15.22-.21v.02Z"/>
    </g>
  </g>
</svg>