<?xml version="1.0" encoding="UTF-8"?><svg id="_レイヤー_2" xmlns="http://www.w3.org/2000/svg" viewBox="0 0 430.81 220.93"><defs><style>.cls-1{fill:#96c646;}.cls-2,.cls-3,.cls-4{font-size:11px;}.cls-2,.cls-4,.cls-5{font-family:HiraginoSans-W5-83pv-RKSJ-H, 'Hiragino Sans';}.cls-2,.cls-6{fill:#ff0;}.cls-7{stroke-width:8.83px;}.cls-7,.cls-8{stroke:#fff;}.cls-7,.cls-8,.cls-9,.cls-10,.cls-11,.cls-12,.cls-13{stroke-miterlimit:10;}.cls-7,.cls-8,.cls-9,.cls-10,.cls-13{fill:none;}.cls-8{stroke-width:16.31px;}.cls-3,.cls-14{font-family:HiraginoSans-W2-83pv-RKSJ-H, 'Hiragino Sans';}.cls-15{fill:#b4b4b4;}.cls-4,.cls-14,.cls-16,.cls-11,.cls-12,.cls-17,.cls-18{fill:#fff;}.cls-14,.cls-19{font-size:8px;}.cls-9{stroke:#231815;stroke-width:.48px;}.cls-5,.cls-18{font-size:16px;}.cls-20{glyph-orientation-vertical:0deg;text-orientation:upright;writing-mode:tb;}.cls-20,.cls-21{fill:#646464;}.cls-20,.cls-17{font-family:NotoSansJP-Light-83pv-RKSJ-H, 'Noto Sans JP';font-size:10.6px;font-weight:300;}.cls-19{font-family:NotoSansJP-Regular-83pv-RKSJ-H, 'Noto Sans JP';}.cls-10{stroke:#a2c9ca;stroke-width:7.1px;}.cls-11{stroke-width:.15px;}.cls-11,.cls-12,.cls-13{stroke:#000;}.cls-12{stroke-width:.41px;}.cls-13{stroke-width:.22px;}.cls-22{font-family:NotoSansJP-Thin-83pv-RKSJ-H, 'Noto Sans JP';font-size:13.05px;font-weight:200;}.cls-23{letter-spacing:-.25em;}.cls-24{letter-spacing:-.5em;}.cls-18{font-family:NotoSansJP-Bold-83pv-RKSJ-H, 'Noto Sans JP';font-weight:700;}.cls-25{fill:#ff5757;}.cls-26{fill:#dcdcdc;}</style></defs><g id="_レイヤー_1-2"><rect class="cls-21" x=".09" y=".26" width="430.64" height="220.42" transform="translate(-.13 .26) rotate(-.07)"/><line class="cls-10" x1="168.89" y1="125.53" x2="419.63" y2="125.53"/><line class="cls-8" x1="336.59" y1="21.01" x2="336.59" y2="170.86"/><line class="cls-7" x1="339.63" y1="109.5" x2="168.75" y2="109.5"/><rect class="cls-16" x="169.65" y="37.28" width="154.24" height="62.51"/><text class="cls-17" transform="translate(363.06 164.07)"><tspan x="0" y="0">スタバ</tspan></text><text class="cls-17" transform="translate(364.37 70.39)"><tspan x="0" y="0">ビバホーム</tspan><tspan x="0" y="11.13">高崎店</tspan></text><text class="cls-17" transform="translate(353.88 115.73)"><tspan x="0" y="0">井野川</tspan></text><rect class="cls-16" x="315.75" y="131.63" width="42.26" height="16.28" rx="6.19" ry="6.19"/><rect class="cls-9" x="315.75" y="131.63" width="42.26" height="16.28" rx="6.19" ry="6.19"/><circle class="cls-9" cx="324.88" cy="139.95" r="5.66"/><circle class="cls-9" cx="337.36" cy="139.95" r="5.66"/><circle class="cls-9" cx="349.83" cy="139.95" r="5.66"/><circle class="cls-16" cx="357.23" cy="67.29" r="4.79"/><circle class="cls-16" cx="356.17" cy="160.52" r="4.79"/><rect class="cls-1" x="274.87" y="37.28" width="48.94" height="62.81"/><rect class="cls-12" x="223.49" y="40.54" width="47.31" height="56.28"/><rect class="cls-15" x="173.32" y="40.54" width="46.9" height="56.28"/><text class="cls-22" transform="translate(230.5 74.44)"><tspan x="0" y="0">Office</tspan></text><text class="cls-20" transform="translate(336.51 50.23)"><tspan x="0" y="0">高渋線</tspan></text><path class="cls-16" d="M399.19,50.1c-7.6,0-13.77-6.18-13.77-13.77s6.18-13.77,13.77-13.77,13.77,6.18,13.77,13.77-6.18,13.77-13.77,13.77ZM399.19,24.47c-6.54,0-11.85,5.32-11.85,11.85s5.32,11.85,11.85,11.85,11.85-5.32,11.85-11.85-5.32-11.85-11.85-11.85Z"/><polygon class="cls-16" points="391.8 43.78 399.25 41.47 407.05 43.65 399.29 26.85 391.8 43.78"/><polygon class="cls-26" points="391.8 43.78 399.25 41.47 399.29 26.85 391.8 43.78"/><path class="cls-16" d="M401.02,20.8c-.15,0-.3-.07-.39-.2l-3.04-4.25v3.97c0,.27-.22.48-.48.48s-.48-.22-.48-.48v-5.47c0-.21.14-.39.33-.46.2-.06.42,0,.54.18l3.04,4.25v-4.08c0-.27.22-.48.48-.48s.48.22.48.48v5.58c0,.21-.14.39-.33.46-.05.02-.1.02-.15.02Z"/><text class="cls-4" transform="translate(22.39 46.69)"><tspan x="0" y="0">施設建物の西側に駐車場あり</tspan></text><text class="cls-18" transform="translate(192.18 76.79)"><tspan x="0" y="0">P</tspan></text><path class="cls-25" d="M280.85,94.07l4.18,8.73h-8.35s4.17-8.73,4.17-8.73Z"/><text class="cls-19" transform="translate(263.69 112.68)"><tspan x="0" y="0">ご入場口</tspan></text><rect class="cls-11" x="33.84" y="54.87" width="118.25" height="47.03"/><text class="cls-3" transform="translate(57.67 70.99)"><tspan x="0" y="0">駐車可能台数</tspan></text><text class="cls-5" transform="translate(56.06 96.35)"><tspan x="0" y="0">15~20台</tspan></text><text class="cls-14" transform="translate(35.3 114.04)"><tspan x="0" y="0">※駐車場のご予約は承ることが</tspan><tspan x="0" y="12">できません</tspan><tspan class="cls-24" x="40" y="12">。</tspan><tspan x="44" y="12">お乗り合わせでの</tspan><tspan x="0" y="24">ご来場をお願いしております</tspan><tspan class="cls-24" x="104" y="24">。</tspan></text><line class="cls-13" x1="36.59" y1="77.26" x2="146.94" y2="77.26"/><rect class="cls-25" x="27.57" y="146.82" width="283.81" height="53.24"/><path class="cls-16" d="M284.04,68.55c-.13-.21-.3-.35-.51-.45-.21-.09-.43-.14-.66-.14-.17,0-.33.02-.5.06s-.31.11-.44.19c-.13.08-.23.2-.31.33-.08.14-.12.3-.12.49,0,.14.02.27.07.38.05.11.12.21.22.3.1.09.24.17.42.25.17.08.39.16.64.24.25.08.49.16.72.25.23.09.44.21.62.34.18.14.32.31.43.52.11.21.16.47.16.78s-.06.6-.19.83c-.13.24-.29.43-.5.58-.21.15-.45.27-.72.34-.27.08-.55.11-.84.11-.19,0-.37-.02-.56-.05-.19-.03-.37-.08-.54-.15s-.33-.16-.48-.27c-.15-.11-.28-.25-.39-.41l.65-.53c.14.24.33.41.58.53.25.12.51.18.79.18.16,0,.33-.02.49-.07.17-.05.32-.12.45-.21s.24-.21.33-.35c.08-.14.13-.3.13-.48,0-.2-.03-.36-.1-.48-.07-.12-.17-.23-.31-.32-.14-.09-.31-.17-.52-.24-.21-.07-.46-.16-.74-.25-.23-.07-.44-.16-.63-.25-.19-.09-.36-.21-.5-.34-.14-.14-.25-.3-.33-.49s-.12-.42-.12-.68c0-.31.06-.58.18-.81.12-.23.28-.42.49-.57.2-.15.44-.27.7-.35.26-.08.53-.12.81-.12.36,0,.69.06.99.17.3.11.57.31.8.58l-.62.54Z"/><path class="cls-16" d="M288.74,67.42h4.03v.71h-3.27v2.01h3.05v.71h-3.05v2.28h3.43v.71h-4.19v-6.41Z"/><path class="cls-16" d="M296.82,67.42h4.03v.71h-3.27v2.01h3.05v.71h-3.05v2.28h3.43v.71h-4.19v-6.41Z"/><path class="cls-16" d="M304.37,73.15l3.7-5.02h-3.65v-.71h4.57v.65l-3.7,5.05h3.75v.71h-4.67v-.68Z"/><path class="cls-16" d="M312.81,67.42h.96l3.71,5.32h.02v-5.32h.76v6.41h-.96l-3.71-5.32h-.02v5.32h-.76v-6.41Z"/><circle class="cls-16" cx="277.45" cy="73.32" r=".55"/><rect class="cls-16" x="276.89" y="71.53" width="41.37" height=".21"/><path class="cls-6" d="M57.61,186.14c-2.44,0-4.88-.01-7.32,0-1.48.01-2.96,0-4.45,0-.67,0-1.33-.12-1.91-.47-.9-.55-1.41-1.35-1.58-2.38-.14-.88.09-1.69.52-2.45.98-1.72,1.96-3.44,2.95-5.15.99-1.73,1.98-3.45,2.97-5.18,1-1.74,1.99-3.48,2.99-5.22.29-.51.54-1.04.93-1.49.49-.56,1.1-.93,1.85-1.04.68-.1,1.35-.07,1.99.21.74.32,1.24.88,1.63,1.56.63,1.11,1.27,2.22,1.9,3.33.74,1.29,1.47,2.57,2.21,3.86,1.31,2.28,2.62,4.56,3.93,6.84.48.84.98,1.68,1.43,2.54.28.52.44,1.07.44,1.64,0,1.65-1.07,3.11-2.84,3.34-.25.03-.5.04-.75.04-2.3,0-4.6,0-6.9,0h0ZM53.77,173.5h0c0,1.44,0,2.88,0,4.32,0,.3.19.53.51.54.61.01,1.22,0,1.83,0,.32,0,.53-.23.53-.54,0-2.86,0-5.71,0-8.57,0-.39-.19-.59-.58-.59-.58,0-1.16,0-1.75,0-.35,0-.54.19-.54.54,0,1.43,0,2.87,0,4.3ZM56.75,181.46c.04-.76-.63-1.57-1.53-1.56-.88.01-1.56.67-1.57,1.53-.02.9.71,1.63,1.59,1.62.81-.01,1.56-.74,1.52-1.59Z"/><text class="cls-2" transform="translate(78.91 172.45)"><tspan x="0" y="0">ビバホーム</tspan><tspan class="cls-23" x="55" y="0">様・</tspan><tspan x="71.5" y="0">ベルク様など近隣の施設への</tspan><tspan x="0" y="12">ご駐車はご遠慮ください</tspan></text></g></svg>