<?xml version="1.0" encoding="UTF-8"?>
<svg id="_レイヤー_2" data-name="レイヤー 2" xmlns="http://www.w3.org/2000/svg" viewBox="0 0 493.5 118.5">
  <defs>
    <style>
      .cls-1 {
        fill: #efefef;
        stroke: #000;
        stroke-width: .5px;
      }

      .cls-1, .cls-2 {
        stroke-miterlimit: 10;
      }

      .cls-3 {
        fill: #231815;
        stroke-width: 0px;
      }

      .cls-2 {
        fill: none;
        stroke: #231815;
      }
    </style>
  </defs>
  <g id="_レイヤー_1-2" data-name="レイヤー 1">
    <g>
      <rect class="cls-1" x=".25" y=".25" width="493" height="118"/>
      <g>
        <path class="cls-3" d="M36.38,46.74c2.49,0,4.48.46,5.92,1.5,1.37,1.01,2.31,2.66,2.31,4.97,0,5.11-4.38,7.18-7.7,7.18-.39,0-.74-.03-.95-.07l-2.42-.63v5.46c0,2.94.24,3.01,3.47,3.36v.98h-9.66v-.98c3.01-.31,3.15-.53,3.15-3.43v-13.9c0-3.12-.39-3.19-3.15-3.47v-.98h9.03ZM33.55,58.46c.42.21,1.36.46,2.56.46,2.35,0,5.25-1.19,5.25-5.6,0-3.85-2.52-5.39-5.46-5.39-1.02,0-1.75.18-1.96.42-.28.25-.38.67-.38,1.61v8.51Z"/>
        <path class="cls-3" d="M55.14,69.49h-8.05v-.98c2.21-.21,2.42-.38,2.42-2.66v-7.28c0-2.31-.14-2.42-2.17-2.66v-.88c1.72-.28,3.29-.7,4.94-1.43v3.85c1.23-1.82,2.7-3.75,4.45-3.75,1.29,0,2.03.81,2.03,1.68,0,.81-.56,1.58-1.19,1.92-.35.21-.63.18-.91-.07-.52-.52-.94-.88-1.58-.88-.73,0-2.03,1.09-2.8,2.87v6.58c0,2.31.18,2.49,2.87,2.7v.98Z"/>
        <path class="cls-3" d="M72.96,66.51c-2.24,2.8-4.69,3.39-5.81,3.39-4.27,0-6.86-3.5-6.86-7.53,0-2.38.84-4.59,2.28-6.13,1.47-1.65,3.4-2.56,5.22-2.56,3.05,0,5.36,2.63,5.36,5.43-.03.7-.14,1.02-.7,1.16-.7.14-5.18.46-9.35.59-.1,4.69,2.77,6.62,5.25,6.62,1.44,0,2.77-.59,4.06-1.79l.56.81ZM66.94,55.03c-1.61,0-3.19,1.51-3.68,4.34,1.96,0,3.92,0,5.99-.1.63,0,.84-.18.84-.7.03-1.86-1.19-3.54-3.15-3.54Z"/>
        <path class="cls-3" d="M88.46,66.34c-1.54,2.03-3.89,3.57-5.99,3.57-4.45,0-7.07-3.61-7.07-7.35,0-2.76,1.19-5.08,3.54-6.86,1.85-1.44,3.96-2,5.32-2,1.58,0,2.73.49,3.26.95.49.38.56.63.56,1.02,0,.84-.88,1.57-1.26,1.57-.17,0-.31-.07-.67-.35-1.08-.98-2.27-1.47-3.54-1.47-2.31,0-4.34,1.96-4.34,5.6-.04,4.87,3.29,6.48,5.32,6.48,1.47,0,2.66-.39,4.27-1.92l.6.77Z"/>
        <path class="cls-3" d="M101.45,69.91c-.52,0-1.29-.28-1.65-.67-.46-.46-.67-.94-.84-1.58-1.4.95-3.12,2.24-4.2,2.24-2.49,0-4.27-2.06-4.27-4.3,0-1.72.95-2.84,2.87-3.5,2.13-.74,4.76-1.65,5.53-2.28v-.7c0-2.48-1.26-3.92-3.08-3.92-.81,0-1.3.38-1.65.8-.38.49-.63,1.26-.94,2.28-.18.56-.49.8-1.02.8-.67,0-1.54-.7-1.54-1.54,0-.49.46-.91,1.15-1.4,1.02-.74,3.05-2.03,5.04-2.45,1.05,0,2.14.32,2.94.95,1.23,1.05,1.79,2.24,1.79,4.06v6.76c0,1.61.6,2.1,1.23,2.1.42,0,.88-.17,1.26-.38l.35.98-2.98,1.75ZM98.89,61.05c-.77.38-2.45,1.12-3.26,1.47-1.33.59-2.14,1.26-2.14,2.56,0,1.86,1.4,2.7,2.52,2.7.91,0,2.17-.56,2.87-1.26v-5.46Z"/>
        <path class="cls-3" d="M122.83,68.68c-1.68.24-3.57.7-5.36,1.22v-2.7c-1.89,1.58-3.43,2.7-5.36,2.7-2.35,0-4.38-1.44-4.38-5.25v-6.79c0-1.89-.28-2.1-1.16-2.28l-.98-.17v-.91c1.51-.07,3.82-.42,5.01-.63-.11,1.12-.11,2.8-.11,5.11v4.76c0,3.08,1.61,3.96,3.19,3.96,1.29,0,2.59-.56,3.78-1.68v-8.16c0-1.89-.42-2.13-1.61-2.31l-1.12-.14v-.91c2.24-.1,4.69-.49,5.5-.63v11.73c0,1.75.28,1.99,1.61,2.06l.98.04v.98Z"/>
        <path class="cls-3" d="M131.44,69.45c-.59.32-1.15.46-1.5.46-2.24,0-3.43-1.37-3.43-4.17v-10.19h-2.42l-.14-.42.95-1.02h1.61v-2.94c.67-.7,1.68-1.61,2.35-2.31l.52.07c-.07,1.47-.1,3.5-.1,5.18h3.99c.31.35.21,1.12-.21,1.44h-3.78v8.96c0,2.84,1.12,3.36,2.03,3.36.84,0,1.65-.32,2.14-.56l.31.91-2.31,1.22Z"/>
        <path class="cls-3" d="M135.19,69.49v-.98c2.21-.21,2.45-.38,2.45-2.77v-7.21c0-2.17-.1-2.31-2.21-2.66v-.84c1.82-.31,3.47-.77,4.97-1.4v12.11c0,2.38.25,2.56,2.52,2.77v.98h-7.74ZM138.83,50.2c-.98,0-1.85-.88-1.85-1.86,0-1.12.88-1.92,1.89-1.92s1.79.81,1.79,1.92c0,.98-.81,1.86-1.82,1.86Z"/>
        <path class="cls-3" d="M152.65,53.7c4.38,0,7.63,3.33,7.63,7.84,0,5.67-4.2,8.37-7.63,8.37-4.83,0-7.77-3.88-7.77-7.81,0-5.71,4.45-8.4,7.77-8.4ZM152.23,54.89c-2.13,0-4.06,2.07-4.06,6.13,0,4.45,1.96,7.67,4.83,7.67,2.17,0,3.99-1.58,3.99-6.37,0-4.1-1.68-7.42-4.76-7.42Z"/>
        <path class="cls-3" d="M172.81,69.49v-.98c2.03-.21,2.24-.46,2.24-2.83v-5.78c0-2.45-.88-4.1-3.19-4.1-1.44,0-2.8.84-3.89,1.82v8.19c0,2.42.21,2.49,2.28,2.7v.98h-7.56v-.98c2.31-.24,2.52-.38,2.52-2.7v-7.21c0-2.27-.25-2.38-2.14-2.7v-.91c1.72-.28,3.43-.73,4.9-1.4v2.76c.7-.49,1.47-1.01,2.38-1.61.98-.63,1.89-1.05,2.91-1.05,2.8,0,4.55,2.07,4.55,5.46v6.65c0,2.38.21,2.49,2.24,2.7v.98h-7.25Z"/>
        <path class="cls-3" d="M191.26,58.29c-.63-2.03-1.54-3.43-3.68-3.43-1.23,0-2.17.88-2.17,2.27,0,1.5,1.02,2.21,2.98,3.12,3.01,1.44,4.52,2.49,4.52,4.8,0,3.22-2.94,4.87-5.71,4.87-1.82,0-3.43-.56-4.17-.98-.18-1.01-.49-2.94-.63-4.09l1.02-.17c.63,2.24,1.86,4.06,4.31,4.06,1.33,0,2.45-.91,2.45-2.38,0-1.58-.95-2.38-2.8-3.29-2.45-1.19-4.45-2.31-4.45-4.83s2.17-4.52,5.46-4.52c1.47,0,2.66.35,3.36.46.1.84.35,3.05.52,3.89l-1.02.25Z"/>
        <path class="cls-3" d="M205.74,54.12v-.94c0-2.52.88-5.11,3.08-7,1.23-1.08,2.56-1.68,3.92-1.86,1.19.04,2.27.46,2.83,1.12.31.38.39.73.21,1.22-.1.35-.49.84-.84,1.12-.39.25-.67.17-1.02-.07-.7-.63-1.68-1.43-2.84-1.43-2.59,0-2.59,3.54-2.59,6.2v1.64h3.71c.21.32.04,1.19-.35,1.44h-3.36v10.12c0,2.52.39,2.56,3.01,2.83v.98h-8.23v-.98c2.21-.21,2.45-.35,2.45-2.62v-10.33h-2.49l-.14-.38.77-1.05h1.85Z"/>
        <path class="cls-3" d="M221.35,53.7c4.38,0,7.63,3.33,7.63,7.84,0,5.67-4.2,8.37-7.63,8.37-4.83,0-7.77-3.88-7.77-7.81,0-5.71,4.45-8.4,7.77-8.4ZM220.93,54.89c-2.13,0-4.06,2.07-4.06,6.13,0,4.45,1.96,7.67,4.83,7.67,2.17,0,3.99-1.58,3.99-6.37,0-4.1-1.68-7.42-4.76-7.42Z"/>
        <path class="cls-3" d="M239.52,69.49h-8.05v-.98c2.21-.21,2.42-.38,2.42-2.66v-7.28c0-2.31-.14-2.42-2.17-2.66v-.88c1.71-.28,3.29-.7,4.94-1.43v3.85c1.23-1.82,2.7-3.75,4.45-3.75,1.29,0,2.03.81,2.03,1.68,0,.81-.56,1.58-1.19,1.92-.35.21-.63.18-.91-.07-.52-.52-.94-.88-1.58-.88-.73,0-2.03,1.09-2.8,2.87v6.58c0,2.31.18,2.49,2.87,2.7v.98Z"/>
        <path class="cls-3" d="M269.58,68.68c-1.68.24-3.57.7-5.36,1.22v-2.7c-1.89,1.58-3.43,2.7-5.36,2.7-2.35,0-4.38-1.44-4.38-5.25v-6.79c0-1.89-.28-2.1-1.16-2.28l-.98-.17v-.91c1.51-.07,3.82-.42,5.01-.63-.1,1.12-.1,2.8-.1,5.11v4.76c0,3.08,1.61,3.96,3.19,3.96,1.29,0,2.59-.56,3.78-1.68v-8.16c0-1.89-.42-2.13-1.61-2.31l-1.12-.14v-.91c2.24-.1,4.69-.49,5.5-.63v11.73c0,1.75.28,1.99,1.61,2.06l.98.04v.98Z"/>
        <path class="cls-3" d="M280.47,58.29c-.63-2.03-1.54-3.43-3.68-3.43-1.23,0-2.17.88-2.17,2.27,0,1.5,1.02,2.21,2.98,3.12,3.01,1.44,4.52,2.49,4.52,4.8,0,3.22-2.94,4.87-5.71,4.87-1.82,0-3.43-.56-4.17-.98-.18-1.01-.49-2.94-.63-4.09l1.02-.17c.63,2.24,1.86,4.06,4.31,4.06,1.33,0,2.45-.91,2.45-2.38,0-1.58-.95-2.38-2.8-3.29-2.45-1.19-4.45-2.31-4.45-4.83s2.17-4.52,5.46-4.52c1.47,0,2.66.35,3.36.46.1.84.35,3.05.52,3.89l-1.02.25Z"/>
        <path class="cls-3" d="M297.23,66.51c-2.24,2.8-4.69,3.39-5.81,3.39-4.27,0-6.86-3.5-6.86-7.53,0-2.38.84-4.59,2.28-6.13,1.47-1.65,3.4-2.56,5.22-2.56,3.05,0,5.36,2.63,5.36,5.43-.03.7-.14,1.02-.7,1.16-.7.14-5.18.46-9.35.59-.1,4.69,2.77,6.62,5.25,6.62,1.44,0,2.77-.59,4.06-1.79l.56.81ZM291.21,55.03c-1.61,0-3.19,1.51-3.68,4.34,1.96,0,3.92,0,5.99-.1.63,0,.84-.18.84-.7.03-1.86-1.19-3.54-3.15-3.54Z"/>
      </g>
      <g>
        <path class="cls-3" d="M325.6,67.91c-1.32.24-3.07.34-4.6.34-1.23,0-2.31-.08-2.9-.2-1.81-.4-2.59-1.54-2.59-2.87,0-1.12.63-2.29,1.53-3.19l.87.45c-.84.86-1.32,1.83-1.32,2.65,0,.89.58,1.67,1.88,1.96.51.11,1.38.17,2.4.17,1.45,0,3.22-.12,4.66-.41l.08,1.08ZM318.86,60.35c.78-.62,1.85-1.34,2.65-1.74v-.02c-1.14.14-3.75.18-5.41.18,0-.29,0-.78-.02-1.05h.81c1.92,0,5.85-.03,7.74-.48l.12,1.1c-.5.07-.85.15-1.58.45-.84.35-2.29,1.16-3.46,2.1l-.85-.54ZM325.58,62.48c-.44-.66-1.36-1.56-2.01-2.04l.5-.46c.72.52,1.59,1.39,2.05,2.02l-.54.48ZM327.16,61.06c-.42-.6-1.31-1.5-2.01-2.03l.5-.48c.73.56,1.6,1.41,2.05,2.04l-.54.46Z"/>
        <path class="cls-3" d="M337.22,56.24c-.04.06-.15.09-.28.06-.63.33-1.49.63-2.45.89v2.89h2.97v.96h-2.97v1.14c.69.52,2.43,2.01,2.88,2.41l-.58.83c-.45-.5-1.5-1.5-2.29-2.2v6.21h-.99v-6.81c-.78,1.78-1.83,3.58-2.85,4.65-.12-.3-.38-.71-.57-.95,1.17-1.17,2.48-3.33,3.19-5.28h-2.95v-.96h3.18v-2.64c-.98.22-2,.42-2.96.58-.06-.23-.21-.56-.33-.76,2.19-.39,4.77-1.02,6.06-1.79l.94.76ZM338.63,57.32l1.27.08c-.02.11-.09.18-.29.21v8.1h-.99v-8.38ZM342.4,55.78l1.29.08c-.02.12-.09.18-.29.21v11.98c0,.72-.21,1.04-.66,1.2-.48.18-1.31.2-2.7.2-.06-.27-.22-.74-.39-1.02.55.01,1.06.01,1.48.01,1.2,0,1.26,0,1.26-.39v-12.27Z"/>
        <path class="cls-3" d="M359.51,56.57v11.4c0,1.38-.66,1.39-3.5,1.37-.04-.25-.21-.71-.36-.97.56.01,1.09.03,1.53.03,1.25,0,1.32,0,1.32-.42v-3.25h-4.32v4.56h-.98v-4.56h-3.94c-.23,1.71-.73,3.46-1.92,4.79-.15-.2-.54-.54-.77-.67,1.68-1.89,1.85-4.59,1.85-6.73v-5.52h11.08ZM349.42,62.09c0,.52-.02,1.08-.06,1.66h3.85v-2.62h-3.79v.96ZM353.21,57.53h-3.79v2.65h3.79v-2.65ZM358.51,60.19v-2.65h-4.32v2.65h4.32ZM354.19,63.76h4.32v-2.62h-4.32v2.62Z"/>
        <path class="cls-3" d="M370.18,67.69h6.81v1.02h-13.63v-1.02h5.77v-11.95l1.36.09c-.02.1-.1.18-.31.21v4.44h5.76v1.02h-5.76v6.19Z"/>
        <path class="cls-3" d="M387.53,58.22c-.06.14-.18.24-.38.24-.54,4.67-2.1,8.73-4.59,8.73-1.26,0-2.4-1.26-2.4-3.63,0-3.6,2.81-6.61,6.75-6.61,4.33,0,6.21,2.75,6.21,5.67,0,3.57-2.07,5.29-5.7,6.13-.13-.24-.39-.65-.63-.92,3.45-.66,5.22-2.34,5.22-5.17,0-2.48-1.59-4.72-5.1-4.72-.15,0-.31.01-.45.03l1.06.25ZM386.09,58.03c-3.03.38-4.9,2.88-4.9,5.5,0,1.61.69,2.61,1.41,2.61,1.81,0,3.12-4,3.49-8.11Z"/>
        <path class="cls-3" d="M396.7,59.74c1.03.33,2.34.92,3,1.41l-.55.87c-.65-.49-1.92-1.14-2.97-1.51l.53-.76ZM396.71,68.53c.83-1.17,2.04-3.19,2.91-4.92l.73.68c-.79,1.59-1.88,3.48-2.64,4.65.05.08.08.14.08.2,0,.08-.03.13-.08.18l-1-.78ZM397.58,55.61c1.02.39,2.28,1.06,2.91,1.61l-.58.85c-.61-.57-1.84-1.29-2.88-1.71l.56-.75ZM405.65,67.99h4.5v.97h-10.02v-.97h4.48v-3.87h-3.42v-.96h3.42v-3.42h-3.97v-.97h9.19v.97h-4.18v3.42h3.61v.96h-3.61v3.87ZM403.31,55.45c1.26.65,2.79,1.65,3.52,2.4l-.7.86c-.71-.76-2.21-1.83-3.48-2.49l.66-.76Z"/>
        <path class="cls-3" d="M415.87,66.38c-.44,1.08-1.11,2.1-2.31,2.69l-.78-.56c1.12-.52,1.86-1.47,2.24-2.44l.85.31ZM426.46,59.53v.83h-13.59v-.83h4.02c-.13-.5-.4-1.12-.7-1.62l.84-.25h-3.21v-.83h5.32v-1.35l1.31.07c-.02.11-.1.18-.3.21v1.06h5.38v.83h-2.85l.73.24c-.04.09-.15.14-.3.14-.2.42-.52,1.02-.81,1.5h4.15ZM424.19,61.1v4.2h-5.37c.9.33,1.88.84,2.42,1.28-.5.51-.56.6-.62.67-.58-.48-1.78-1.11-2.77-1.47l.45-.48h-3.15v-4.2h9.04ZM423.19,62.84v-1.01h-7.06v1.01h7.06ZM423.19,64.57v-1.02h-7.06v1.02h7.06ZM417.73,68.06c0,.35.12.41.85.41h2.56c.6,0,.7-.19.76-1.59.23.15.6.29.87.33-.1,1.69-.41,2.07-1.54,2.07h-2.73c-1.4,0-1.77-.22-1.77-1.21v-1.81l1.27.09c-.01.09-.09.17-.28.2v1.53ZM421.34,59.51c.27-.51.63-1.29.84-1.86h-5.1c.34.55.67,1.3.79,1.8l-.23.08h3.73-.04ZM425.75,69.04c-.57-.76-1.8-1.83-2.91-2.53l.76-.52c1.08.66,2.34,1.69,2.93,2.47l-.78.58Z"/>
      </g>
      <g>
        <polyline class="cls-2" points="443.51 45.27 456.71 61.3 443.51 77.01"/>
        <polyline class="cls-2" points="452.31 45.27 465.51 61.3 452.31 77.01"/>
      </g>
    </g>
  </g>
</svg>