<?xml version="1.0" encoding="UTF-8"?>
<svg id="_レイヤー_2" data-name="レイヤー 2" xmlns="http://www.w3.org/2000/svg" viewBox="0 0 11.49 11.49">
  <defs>
    <style>
      .cls-1 {
        fill: #fff;
      }
    </style>
  </defs>
  <g id="_レイヤー_1-2" data-name="レイヤー 1">
    <g>
      <path class="cls-1" d="M8.01,3.47c-.58-.58-1.38-.94-2.27-.94s-1.69.36-2.27.94c-.58.58-.94,1.38-.94,2.27,0,.89.36,1.69.94,2.27.58.58,1.38.94,2.27.94.89,0,1.69-.36,2.27-.94.58-.58.94-1.38.94-2.27,0-.88-.36-1.69-.94-2.27ZM7.59,7.59c-.47.47-1.12.76-1.84.76-.72,0-1.37-.29-1.84-.76-.47-.47-.76-1.12-.76-1.84,0-.72.29-1.37.76-1.84.47-.47,1.12-.76,1.84-.76s1.37.29,1.84.76c.47.47.76,1.12.76,1.84s-.29,1.37-.76,1.84Z"/>
      <rect class="cls-1" x="5.44" y="9.75" width=".6" height="1.73"/>
      <rect class="cls-1" x="5.44" width=".6" height="1.73"/>
      <polygon class="cls-1" points="8.36 8.79 9.59 10.02 10.02 9.59 8.79 8.37 8.36 8.79"/>
      <polygon class="cls-1" points="3.12 2.7 1.89 1.47 1.47 1.9 2.7 3.12 3.12 2.7"/>
      <rect class="cls-1" x="9.75" y="5.44" width="1.73" height=".6"/>
      <rect class="cls-1" y="5.44" width="1.73" height=".6"/>
      <polygon class="cls-1" points="10.02 1.9 9.59 1.47 8.36 2.7 8.79 3.12 10.02 1.9"/>
      <polygon class="cls-1" points="1.47 9.59 1.89 10.02 3.12 8.79 2.7 8.37 1.47 9.59"/>
    </g>
  </g>
</svg>