<?xml version="1.0" encoding="UTF-8"?>
<svg id="_レイヤー_2" data-name="レイヤー 2" xmlns="http://www.w3.org/2000/svg" viewBox="0 0 8.29 8.48">
  <defs>
    <style>
      .cls-1 {
        fill: #fff;
      }
    </style>
  </defs>
  <g id="_レイヤー_1-2" data-name="レイヤー 1">
    <path class="cls-1" d="M4.21,8.48C1.89,8.48,0,6.59,0,4.27,0,2.2,1.55.41,3.6.11l.76-.11-.53.56c-.59.62-.91,1.43-.91,2.28,0,1.83,1.49,3.31,3.31,3.31.47,0,.92-.1,1.35-.29l.71-.31-.36.69c-.73,1.38-2.16,2.24-3.72,2.24ZM2.96.82C1.54,1.34.54,2.71.54,4.27c0,2.02,1.65,3.67,3.67,3.67,1.11,0,2.15-.5,2.84-1.34-.26.06-.53.08-.81.08-2.12,0-3.85-1.73-3.85-3.85,0-.72.2-1.42.57-2.02Z"/>
  </g>
</svg>