<?xml version="1.0" encoding="UTF-8"?>
<svg id="_レイヤー_2" data-name="レイヤー_2" xmlns="http://www.w3.org/2000/svg" viewBox="0 0 130.67 118.73">
  <defs>
    <style>
      .cls-1 {
        fill: #666;
      }
    </style>
  </defs>
  <g id="_レイヤー_1-2" data-name="レイヤー_1">
    <g>
      <path class="cls-1" d="M17.91,17.37c7.27,3.14,9.66,5.53,12.8,12.8.3.69.97,1.13,1.72,1.13s1.42-.44,1.72-1.13c3.14-7.27,5.53-9.66,12.8-12.8.69-.3,1.13-.97,1.13-1.72s-.44-1.42-1.13-1.72c-7.27-3.14-9.66-5.53-12.8-12.8-.3-.69-.97-1.13-1.72-1.13s-1.42.44-1.72,1.13c-3.14,7.27-5.53,9.66-12.8,12.8-.69.3-1.13.97-1.13,1.72s.44,1.42,1.13,1.72ZM32.43,6.25c2.37,4.47,4.93,7.03,9.4,9.4-4.47,2.37-7.03,4.93-9.4,9.4-2.37-4.47-4.93-7.03-9.4-9.4,4.47-2.37,7.03-4.93,9.4-9.4Z"/>
      <path class="cls-1" d="M90.01,49.99c3.88,1.68,5.08,2.88,6.76,6.75.3.69.97,1.13,1.72,1.13s1.42-.44,1.72-1.13c1.68-3.88,2.87-5.08,6.75-6.75.69-.3,1.13-.97,1.13-1.72s-.44-1.42-1.13-1.72c-3.88-1.68-5.08-2.88-6.75-6.75-.3-.69-.97-1.13-1.72-1.13s-1.42.44-1.72,1.13c-1.68,3.88-2.87,5.08-6.76,6.75-.69.3-1.13.97-1.13,1.72s.44,1.42,1.13,1.72ZM98.49,44.62c.99,1.54,2.11,2.66,3.65,3.65-1.54.99-2.66,2.11-3.65,3.65-.99-1.54-2.11-2.66-3.65-3.65,1.54-.99,2.66-2.11,3.65-3.65Z"/>
      <path class="cls-1" d="M62.91,58.88c10.21,0,18.51-8.3,18.51-18.51s-8.3-18.51-18.51-18.51-18.51,8.3-18.51,18.51,8.3,18.51,18.51,18.51ZM62.91,25.61c8.14,0,14.76,6.62,14.76,14.76s-6.62,14.76-14.76,14.76-14.76-6.62-14.76-14.76,6.62-14.76,14.76-14.76Z"/>
      <path class="cls-1" d="M127.5,60.96c-3.74-3.27-9.43-2.96-12.97.76l-13.81,15.18-15.67-11.5c-2.3-1.69-5.02-2.58-7.87-2.58h-27.05L16.64,29.11c-.05-.05-.09-.1-.15-.15-2.08-1.93-4.04-3.24-6.88-3.33-1.47-.04-2.93.25-4.22.86-2.44,1.15-4.27,3.28-5.02,5.84-.76,2.57-.37,5.35,1.05,7.61.04.06.07.11.12.16l36.04,45.68,2.2,31.19c.07.98.89,1.74,1.87,1.74h41.53c1,0,1.82-.78,1.87-1.78l1.09-21.09c2.74,1.95,6.67,4.75,7.73,5.51,2.92,2.11,6.45,2.93,9.95,2.32,3.09-.54,5.78-2.19,7.36-4.51l17.87-26c2.65-3.87,1.98-9.12-1.56-12.21ZM125.96,71.06l-17.87,26.01c-1.02,1.5-2.82,2.57-4.92,2.94-2.49.44-5.01-.16-7.11-1.67-1.66-1.2-10.44-7.44-10.53-7.51-.56-.4-1.29-.46-1.9-.16-.62.3-1.02.91-1.06,1.59l-1.18,22.72h-38l-2.12-30.02c-.03-.38-.17-.73-.4-1.03L4.55,37.88c-.81-1.34-1.02-2.97-.58-4.48.46-1.56,1.53-2.81,3.02-3.51.76-.36,1.63-.53,2.51-.51,1.48.04,2.58.61,4.35,2.25.02.02.04.04.06.06l34.1,34.33c.35.35.83.55,1.33.55h27.83c2.05,0,4,.64,5.65,1.85l17.04,12.5c.77.57,1.85.46,2.5-.25l14.91-16.4c2.09-2.19,5.57-2.41,7.76-.49,2.11,1.84,2.51,4.97.93,7.27Z"/>
    </g>
  </g>
</svg>