<?xml version="1.0" encoding="UTF-8"?>
<svg id="_レイヤー_2" data-name="レイヤー_2" xmlns="http://www.w3.org/2000/svg" viewBox="0 0 215.5 98.5">
  <defs>
    <style>
      .cls-1 {
        fill: #666;
      }

      .cls-2 {
        fill: none;
        stroke: #666;
        stroke-miterlimit: 10;
        stroke-width: 6px;
      }
    </style>
  </defs>
  <g id="_レイヤー_1-2" data-name="レイヤー_1">
    <g>
      <g>
        <g>
          <circle class="cls-2" cx="49.25" cy="49.25" r="46.25"/>
          <line class="cls-2" x1="83.44" y1="19.53" x2="16.31" y2="79.88"/>
        </g>
        <g>
          <path class="cls-1" d="M33.46,32.84c-1.19.43-1.81,1.75-1.37,2.94.43,1.19,1.75,1.81,2.94,1.37,1.19-.43,1.81-1.75,1.37-2.94-.43-1.19-1.75-1.81-2.94-1.37Z"/>
          <path class="cls-1" d="M51.03,31.34c.79-.29,1.2-1.17.91-1.96s-1.17-1.2-1.96-.91c-.79.29-1.2,1.17-.91,1.96.29.79,1.17,1.2,1.96.91Z"/>
          <path class="cls-1" d="M62.52,59.69c-1.12.41-1.7,1.65-1.29,2.77.41,1.12,1.65,1.7,2.77,1.29,1.12-.41,1.7-1.65,1.29-2.77-.41-1.12-1.65-1.7-2.77-1.29Z"/>
          <path class="cls-1" d="M56.39,44.98c-1,.36-1.51,1.47-1.15,2.47.36,1,1.47,1.51,2.47,1.15,1-.36,1.51-1.47,1.15-2.47-.36-1-1.47-1.51-2.47-1.15Z"/>
          <path class="cls-1" d="M46.11,41.47c.85-.31,1.29-1.25.98-2.11-.31-.85-1.25-1.29-2.11-.98-.85.31-1.29,1.25-.98,2.11s1.25,1.29,2.11.98Z"/>
          <path class="cls-1" d="M39.45,47.21c-1.34.49-2.03,1.97-1.54,3.3.49,1.34,1.97,2.03,3.3,1.54,1.34-.49,2.03-1.97,1.54-3.3-.49-1.34-1.97-2.03-3.3-1.54Z"/>
          <path class="cls-1" d="M46.06,64.47c-.86.31-1.3,1.26-.99,2.11.31.86,1.26,1.3,2.11.99s1.3-1.26.99-2.11c-.31-.86-1.26-1.3-2.11-.99Z"/>
          <path class="cls-1" d="M50.62,54.68c-.85.31-1.29,1.25-.98,2.11.31.85,1.25,1.29,2.11.98.85-.31,1.29-1.25.98-2.11-.31-.85-1.25-1.29-2.11-.98Z"/>
          <path class="cls-1" d="M71.27,44.15c-2.03-5.57-3.68-11.02-4.92-16.19-.57-2.4-2.15-4.45-4.34-5.61-.04-.02-.07-.04-.11-.05,0,0-7.73-2.97-7.84-3.01-1.89-.67-3.97-.67-5.88.02l-17.31,6.3c-2.33.85-4.19,2.65-5.11,4.96-.91,2.29-.8,4.87.3,7.07,1.71,3.42,3.34,7.09,4.88,10.96-.88-.32-1.83-.5-2.82-.5-3.41,0-6.46,2.13-7.67,5.26-3.87.22-6.95,3.44-6.95,7.36s3.18,7.24,7.13,7.37c.48,4.07,3.96,7.25,8.16,7.25,3.13,0,5.93-1.74,7.32-4.49.01,0,.02,0,.03,0,.15,0,.31.01.47.01.49,0,.98-.05,1.44-.13.76,1.81,2.12,3.32,3.88,4.27.5.27,1.03.49,1.57.65,0,0,6.21,2.35,6.21,2.35.99.38,2.04.57,3.09.57s2.02-.18,2.98-.53l17.31-6.3c2.33-.85,4.19-2.65,5.11-4.96.91-2.29.8-4.87-.3-7.07-2.38-4.76-4.61-9.99-6.64-15.57ZM28.79,73.39c-3.46,0-6.27-2.81-6.27-6.25,0-.01,0-.04,0-.05,0-.28-.12-.54-.32-.73-.18-.16-.41-.25-.65-.25-.03,0-.07,0-.1,0-.19.02-.38.03-.57.03-2.99,0-5.42-2.43-5.42-5.42s2.43-5.42,5.42-5.42c2.25,0,4.24,1.36,5.05,3.46.15.39.52.62.91.62.12,0,.24-.02.35-.07.5-.2.75-.76.56-1.26-.91-2.33-2.88-3.99-5.24-4.52,1.04-2.09,3.21-3.48,5.61-3.48,3.21,0,5.88,2.4,6.23,5.58.03.27.17.51.39.68.22.16.49.23.76.18.38-.07.75-.1,1.12-.1,3.46,0,6.27,2.81,6.27,6.27s-2.81,6.27-6.27,6.27c-.19,0-.38-.01-.56-.03-.06,0-.13-.01-.19-.02-1.41-.17-2.71-.8-3.72-1.83-.38-.38-.99-.39-1.38-.01-.38.38-.39,1-.01,1.38.95.97,2.09,1.67,3.34,2.07-1.13,1.8-3.11,2.92-5.29,2.92ZM42.86,73.28c-1.3-.7-2.31-1.81-2.92-3.13,2.88-1.28,4.89-4.16,4.89-7.51,0-4.53-3.69-8.22-8.22-8.22-.16,0-.33,0-.49.02-.38-1.64-1.25-3.08-2.44-4.18-1.82-4.8-3.8-9.33-5.88-13.5-.85-1.7-.93-3.7-.23-5.47.71-1.79,2.16-3.19,3.96-3.85l17.31-6.3c.75-.27,1.53-.41,2.31-.41,1.11,0,2.21.27,3.2.81,1.68.91,2.9,2.49,3.34,4.34,1.25,5.24,2.93,10.77,4.98,16.41,2.05,5.64,4.32,10.95,6.73,15.77.85,1.7.93,3.7.23,5.47-.71,1.79-2.16,3.19-3.96,3.85l-17.31,6.3c-1.81.66-3.81.51-5.51-.4ZM76.39,66.07c-.71,1.79-2.16,3.19-3.96,3.85l-17.31,6.3c-1.53.55-3.2.54-4.71-.03l-1.58-.6c.07-.02.14-.04.21-.07l17.31-6.3c2.33-.85,4.19-2.65,5.11-4.96.91-2.29.8-4.87-.3-7.07-2.38-4.76-4.61-9.99-6.64-15.57-2.03-5.57-3.68-11.02-4.92-16.19-.19-.81-.5-1.58-.91-2.28l2.46.95c1.66.91,2.87,2.48,3.31,4.32,1.25,5.24,2.93,10.76,4.98,16.41,2.05,5.64,4.32,10.95,6.73,15.77.85,1.7.93,3.7.23,5.47Z"/>
          <path class="cls-1" d="M18.61,49.11c.54,0,1.08-.1,1.61-.32,1.05-.43,1.87-1.25,2.3-2.29.44-1.05.44-2.2,0-3.25-.43-1.05-1.25-1.87-2.29-2.3-1.05-.44-2.2-.44-3.25,0-1.05.43-1.87,1.25-2.3,2.29-.44,1.05-.44,2.2,0,3.25.67,1.64,2.26,2.63,3.93,2.63ZM16.49,43.98c.24-.56.68-1,1.24-1.24.28-.12.58-.17.87-.17s.6.06.88.18c.56.24,1,.68,1.24,1.24.23.57.23,1.19,0,1.75-.24.56-.68,1-1.24,1.24-1.17.48-2.51-.08-2.99-1.25-.23-.57-.23-1.19,0-1.75Z"/>
          <path class="cls-1" d="M76.7,37c2.65,0,4.8-2.15,4.8-4.8s-2.15-4.8-4.8-4.8-4.8,2.15-4.8,4.8,2.15,4.8,4.8,4.8ZM76.7,29.35c1.57,0,2.85,1.28,2.85,2.85s-1.28,2.85-2.85,2.85-2.85-1.28-2.85-2.85,1.28-2.85,2.85-2.85Z"/>
          <path class="cls-1" d="M77.85,41.3c-1.78,0-3.23,1.45-3.23,3.23s1.45,3.23,3.23,3.23,3.23-1.45,3.23-3.23-1.45-3.23-3.23-3.23ZM77.85,45.81c-.71,0-1.28-.57-1.28-1.28s.57-1.28,1.28-1.28,1.28.57,1.28,1.28-.57,1.28-1.28,1.28Z"/>
        </g>
      </g>
      <g>
        <g>
          <circle class="cls-2" cx="166.25" cy="49.25" r="46.25"/>
          <line class="cls-2" x1="200.44" y1="19.53" x2="133.31" y2="79.88"/>
        </g>
        <g>
          <path class="cls-1" d="M174.16,26.99c-.1-.81-.43-1.55-.93-2.15l4.86-11.58c.2-.47.14-1.01-.14-1.43-.28-.42-.76-.68-1.27-.68-.3,0-.58.09-.83.25l-4.1,2.68-3.95-4.13c-.57-.6-1.62-.6-2.2,0l-3.95,4.13-4.1-2.68c-.25-.16-.54-.25-.84-.25-.51,0-.98.25-1.26.68-.28.42-.33.96-.14,1.43l4.86,11.58c-.5.6-.83,1.34-.92,2.15-14.59,3.49-24.23,16.86-24.23,29.03,0,7,3.3,12.83,9.53,16.87,5.59,3.62,13.46,5.61,22.16,5.61s16.57-1.99,22.16-5.61c6.23-4.04,9.53-9.87,9.53-16.87,0-12.18-9.64-25.54-24.23-29.03ZM162.25,27.49c0-.62.5-1.12,1.12-1.12h6.66c.62,0,1.12.5,1.12,1.12v.98c0,.62-.5,1.12-1.12,1.12h-6.66c-.62,0-1.12-.5-1.12-1.12v-.98ZM161.05,17.31c.61.4,1.42.31,1.93-.22l3.73-3.9,3.73,3.9c.51.53,1.32.62,1.93.22l1.01-.66-2.82,6.72c-.17-.02-.34-.04-.52-.04h-6.66c-.18,0-.35.01-.52.04l-2.82-6.72,1.01.66ZM166.7,75.46c-13.22,0-28.65-5.09-28.65-19.44,0-10.82,8.53-22.68,21.47-25.98.62,1.51,2.11,2.59,3.85,2.59h6.66c1.74,0,3.22-1.07,3.85-2.59,12.95,3.3,21.47,15.16,21.47,25.98,0,14.35-15.43,19.44-28.65,19.44Z"/>
          <path class="cls-1" d="M179.02,45.73h-24.63c-.84,0-1.52.68-1.52,1.52v11.67c0,.84.68,1.52,1.52,1.52h24.63c.84,0,1.52-.68,1.52-1.52v-11.67c0-.84-.68-1.52-1.52-1.52ZM177.5,57.4h-21.59v-8.63h21.59v8.63Z"/>
        </g>
      </g>
    </g>
  </g>
</svg>