<?xml version="1.0" encoding="UTF-8"?>
<svg id="_レイヤー_2" data-name="レイヤー_2" xmlns="http://www.w3.org/2000/svg" viewBox="0 0 98.5 98.5">
  <defs>
    <style>
      .cls-1 {
        fill: #666;
      }

      .cls-2 {
        fill: none;
        stroke: #666;
        stroke-miterlimit: 10;
        stroke-width: 6px;
      }
    </style>
  </defs>
  <g id="_レイヤー_1-2" data-name="レイヤー_1">
    <g>
      <g>
        <path class="cls-1" d="M70.13,56.8c5.16-3.06,7.98-8.2,8.91-11.98.88-3.62,1.42-15.24-7.37-21.01-.48-.31-1.1-.28-1.55.07-.45.35-.61.96-.42,1.49.79,2.12,1.26,10.07-.65,13.26-.59.99-1.93,2.2-3.47,2.55-1.01.23-1.98.03-2.87-.57-.72-.49-1.3-2.59,1.1-7.37,2.83-5.64,2.73-11-.31-15.92-5.13-8.32-17.49-12.8-21.41-12.8h0c-.48,0-.92.26-1.16.68-.23.42-.21.94.04,1.34.22.35.59.88,1.06,1.56,1.4,2.03,4.02,5.8,4.7,7.74,1.36,3.87,1.54,7.4.48,9.45-.45.87-1.08,1.41-1.95,1.66-.99.29-2.05.11-3.14-.53-2.27-1.31-4.23-4.35-5.12-7.93-.25-1-.41-2.02-.47-3.03-.03-.5-.35-.94-.82-1.14-.47-.19-1-.1-1.38.24l-.11.1c-5.03,4.57-6.86,12.08-4.54,18.7l.04.11c1.37,3.74,2.56,8.86,1.37,11-.28.5-.65.77-1.22.88-1.21.24-3.4-1.5-4.46-2.34-.91-.72-1.36-1.08-1.95-1.13-.39-.04-.76.1-1.04.37-.28.27-.42.64-.4,1.03.77,12.71,5.74,21.35,12.34,26.38,0,0-6.53,15.73-6.53,15.74-.4.75-.55,1.41-.55,2.29,0,3.25,3.08,5.89,6.87,5.89,3.06,0,5.66-1.73,6.54-4.1.02-.04.04-.08.06-.12l3.57-8.62-.41,8.81c0,.09-.04.74-.04.98,0,3.25,3.08,5.89,6.87,5.89s6.87-2.64,6.87-5.89c0-.32.03-.9-.03-1.2,0-.02-.48-8.72-.48-8.72,0,0,3.66,8.83,3.68,8.87.89,2.37,3.48,4.1,6.54,4.1,3.79,0,6.87-2.64,6.87-5.89,0-.88-.15-1.36-.49-2.17,0,0-6.1-14.68-6.1-14.68-.01-.03-.03-.06-.05-.08,4.44-2.61,7.78-6.29,9.47-10.73.2-.52.05-1.11-.37-1.47-.42-.36-1.02-.42-1.51-.15-3.04,1.71-7,1.95-7.63,1.35v-.02c-.35-.95,1.21-2.12,2.58-2.93ZM34.16,90.93c-2.33,0-4.23-1.46-4.23-3.25,0-.44.12-.87.33-1.25.01-.02.02-.04.03-.06.66-1.14,2.14-1.95,3.87-1.95,2.33,0,4.23,1.46,4.23,3.25s-1.9,3.25-4.23,3.25ZM39.93,84.48c-1.23-1.62-3.35-2.7-5.76-2.7-.72,0-1.42.1-2.08.28l4.51-10.89c2.39,1.46,4.94,2.51,7.54,3.15l-4.21,10.16ZM54.71,85.72c-1.12-.68-2.49-1.09-3.96-1.09s-2.88.42-4.01,1.12l.51-10.86c1.06.13,2.11.2,3.17.2,1.29,0,2.55-.06,3.79-.18l.5,10.82ZM50.75,93.78c-2.33,0-4.23-1.46-4.23-3.25s1.9-3.25,4.23-3.25,4.23,1.46,4.23,3.25-1.9,3.25-4.23,3.25ZM71.22,86.37s.02.04.03.05c.21.39.33.81.33,1.25,0,1.79-1.9,3.25-4.23,3.25s-4.23-1.46-4.23-3.25,1.9-3.25,4.23-3.25c1.73,0,3.22.8,3.88,1.95ZM69.42,82.06c-.66-.18-1.35-.28-2.08-.28-2.42,0-4.54,1.08-5.76,2.7l-4.15-10.04c2.81-.52,5.44-1.36,7.82-2.47l4.18,10.09ZM65.06,60.64v.04c.2.52.66,1.23,1.77,1.65,1.6.6,4.01.38,6.25-.25-3.24,5.09-9.3,8.65-16.73,9.89,1.72-1.01,2.96-2.36,3.58-3.88-1.46.76-3.79,1.03-4.09.27-.08-.22-.4-.86,1.35-1.82,2.27-1.26,2.84-2.84,3.14-3.97.28-1.06,1.13-6.11-2.5-8.33.36.89.63,4.27-.32,5.75-.53.83-2.07,1.87-3.53.96-.67-.42-.8-1.61.28-3.62,3.77-6.98-6.65-10.72-8.83-10.71.4.58,2.12,2.74,2.53,3.83.93,2.45.67,4.67-1.01,5.12-1.68.45-3.59-1.23-4.26-3.76-.12-.44-.19-.88-.22-1.31-.01.01-.03.02-.04.04-2,1.69-2.72,4.46-1.8,6.91.06.17,2.08,5.02-.34,5.48-1.1.21-2.64-1.35-2.92-1.38.26,3.98,1.66,6.94,3.65,8.95-7.87-3.4-14.54-11.35-16.11-24.53,1.58,1.17,3.57,2.36,5.48,1.97,1.32-.27,2.35-1.02,3-2.18,1.99-3.56-.18-10.41-1.2-13.19l-.02-.07c-1.68-4.8-.81-10.15,2.12-14.02.05.22.1.43.15.65,1.07,4.31,3.45,7.89,6.36,9.58,1.72.99,3.51,1.26,5.19.78,1.55-.45,2.79-1.48,3.56-2.98,1.41-2.72,1.28-6.93-.34-11.54-.69-1.96-2.68-4.97-4.29-7.32,4.67,1.29,12.61,5.03,16.32,11.04,2.53,4.09,2.59,8.59.2,13.35-3.69,7.35-1.38,9.96-.22,10.75,1.5,1.01,3.2,1.34,4.92.96,2.47-.55,4.32-2.37,5.16-3.76,1.69-2.82,1.9-7.93,1.57-11.65,4.78,5.43,4.13,13.65,3.59,15.87-.28,1.13-1.94,6.92-7.69,10.34-3.29,1.95-4.51,3.95-3.72,6.11Z"/>
        <circle class="cls-2" cx="49.25" cy="49.25" r="46.25"/>
      </g>
      <line class="cls-2" x1="83.44" y1="19.53" x2="16.31" y2="79.88"/>
    </g>
  </g>
</svg>