<?xml version="1.0" encoding="UTF-8"?>
<svg id="_レイヤー_2" data-name="レイヤー_2" xmlns="http://www.w3.org/2000/svg" viewBox="0 0 225.23 86.24">
  <defs>
    <style>
      .cls-1 {
        fill: #666;
      }
    </style>
  </defs>
  <g id="_レイヤー_1-2" data-name="レイヤー_1">
    <g>
      <g>
        <path class="cls-1" d="M213.33,50.97c3.05,0,5.54-2.48,5.54-5.54s-2.48-5.54-5.54-5.54-5.54,2.48-5.54,5.54,2.48,5.54,5.54,5.54ZM213.33,42.6c1.56,0,2.83,1.27,2.83,2.83s-1.27,2.83-2.83,2.83-2.83-1.27-2.83-2.83,1.27-2.83,2.83-2.83Z"/>
        <path class="cls-1" d="M197.7,54.2h2.55c2.32,0,4.29.63,6.07,1.32l.35.14c1.93.74,4.33,1.67,6.65,1.67,6.56,0,11.9-5.34,11.9-11.9,0-6.56-5.34-11.9-11.9-11.9-2.32,0-4.72.93-6.65,1.67l-.35.14c-1.78.69-3.75,1.32-6.07,1.32h-2.55c-2.33,0-4.49-1.15-5.79-3.08l-8.45-12.57c-1.8-2.68-4.81-4.28-8.04-4.28h-37.39c-3.96,0-7.18,3.22-7.18,7.18v43.06c0,3.96,3.22,7.18,7.18,7.18h31.56l16.86,9.74c.58.34,1.26.43,1.91.25.65-.17,1.19-.59,1.53-1.17l3.56-6.16,15.77,9.11c.39.22.82.34,1.25.34.22,0,.44-.03.66-.09.65-.17,1.19-.59,1.53-1.17l1.67-2.89c.34-.58.43-1.26.25-1.91-.17-.65-.59-1.19-1.17-1.53l-25.84-14.92,4.33-6.45c1.3-1.93,3.46-3.09,5.79-3.09ZM210.43,83.46l-16.78-9.69c-.21-.12-.45-.18-.68-.18-.47,0-.92.24-1.17.68l-4.14,7.17-18.75-10.83c-6.26-3.61-8.66-11.39-5.72-17.83l48.72,28.13-1.48,2.55ZM189.67,55.78l-4.44,6.6-21.92-12.66c-.31-.18-.68-.23-1.03-.14-.35.09-.64.32-.82.63-4.13,7.16-2.32,16.15,3.89,21.22h-27.3c-2.47,0-4.48-2.01-4.48-4.48V23.9c0-2.47,2.01-4.48,4.48-4.48h37.39c2.33,0,4.49,1.15,5.79,3.08l8.45,12.57c1.8,2.68,4.81,4.28,8.04,4.28h2.55c2.77,0,5.11-.76,7.04-1.5l.35-.14c1.72-.66,3.86-1.49,5.67-1.49,5.07,0,9.19,4.12,9.19,9.19,0,5.07-4.12,9.19-9.19,9.19-1.81,0-3.95-.83-5.67-1.49l-.35-.14c-1.93-.74-4.28-1.5-7.04-1.5h-2.55c-3.23,0-6.24,1.6-8.04,4.28Z"/>
      </g>
      <g>
        <path class="cls-1" d="M13.28,39.49H1.51c-.84,0-1.51.68-1.51,1.51v24.19c0,.84.68,1.51,1.51,1.51h11.77c2.7,0,4.9-2.2,4.9-4.9v-17.43c0-2.7-2.2-4.9-4.9-4.9ZM15.15,61.81c0,1.03-.84,1.87-1.87,1.87H3.03v-21.17h10.26c1.03,0,1.87.84,1.87,1.87v17.43Z"/>
        <path class="cls-1" d="M81.94,43.25h-17.1c-1.24,0-2.25-1.01-2.25-2.25v-6.27c1.76-.63,3.02-2.3,3.02-4.27v-1.73c0-2.5-2.04-4.54-4.54-4.54h-5.18v-5.47h18.41c2.32,0,4.2-1.88,4.2-4.2,0-3.46-2.47-6.44-5.86-7.09-.03,0-.06-.01-.09-.02l-16.89-2.14c-.56-3-3.2-5.28-6.37-5.28s-5.8,2.28-6.37,5.28l-16.89,2.14s-.06,0-.09.02c-3.4.65-5.86,3.63-5.86,7.09,0,2.32,1.88,4.2,4.2,4.2h18.41v5.47h-5.18c-2.5,0-4.54,2.04-4.54,4.54v1.73c0,2.05,1.36,3.78,3.22,4.34v6.2c0,1.24-1.01,2.25-2.25,2.25h-12.04c-.84,0-1.51.68-1.51,1.51v16.67c0,.84.68,1.51,1.51,1.51h14.44c.7,3.5,3.8,6.14,7.5,6.14h11.09c3.7,0,6.8-2.64,7.5-6.14h10.91c1.93,0,3.51,1.57,3.51,3.51v11.03c0,.84.68,1.51,1.51,1.51h18.27c.84,0,1.51-.68,1.51-1.51v-18.02c0-8.94-7.27-16.21-16.21-16.21ZM24.28,15.69c-.65,0-1.17-.53-1.17-1.17,0-1.99,1.41-3.71,3.36-4.11l18.06-2.28c.77-.1,1.35-.77,1.32-1.55,0-.04,0-.08,0-.1,0-1.9,1.55-3.45,3.45-3.45s3.45,1.55,3.45,3.43v.12c-.03.78.54,1.45,1.32,1.55l18.06,2.28c1.95.39,3.36,2.11,3.36,4.11,0,.65-.53,1.17-1.17,1.17H24.28ZM45.72,18.72h7.14v5.47h-7.14v-5.47ZM36,28.73c0-.83.68-1.51,1.51-1.51h23.56c.83,0,1.51.68,1.51,1.51v1.73c0,.83-.68,1.51-1.51,1.51h-23.56c-.83,0-1.51-.68-1.51-1.51v-1.73ZM95.12,75.97h-15.24v-3.8h15.24v3.8ZM95.12,69.14h-15.24v-2.69c0-3.6-2.93-6.53-6.53-6.53h-12.28c-.84,0-1.51.68-1.51,1.51,0,2.55-2.07,4.62-4.62,4.62h-11.09c-2.55,0-4.62-2.07-4.62-4.62,0-.84-.68-1.51-1.51-1.51h-14.29v-13.64h10.53c2.91,0,5.27-2.37,5.27-5.27v-6h20.34v6c0,2.91,2.37,5.27,5.27,5.27h17.1c7.27,0,13.19,5.91,13.19,13.19v9.68Z"/>
      </g>
    </g>
  </g>
</svg>