<?xml version="1.0" encoding="UTF-8"?>
<svg id="_レイヤー_2" data-name="レイヤー_2" xmlns="http://www.w3.org/2000/svg" viewBox="0 0 132.44 58.25">
  <defs>
    <style>
      .cls-1 {
        fill: #666;
      }
    </style>
  </defs>
  <g id="_レイヤー_1-2" data-name="レイヤー_1">
    <g>
      <path class="cls-1" d="M96.36,33.6v8.87c0,.99-.81,1.8-1.8,1.8h-1.38c.08.65.13,1.31.13,1.99,0,.63-.04,1.26-.11,1.87h1.37c3.12,0,5.65-2.54,5.65-5.65v-8.87h-3.86Z"/>
      <path class="cls-1" d="M41.56,44.26c.08.65.13,1.31.13,1.99,0,.63-.04,1.26-.11,1.87h19.84c-.07-.61-.11-1.24-.11-1.87,0-.67.05-1.33.13-1.99h-19.87Z"/>
      <path class="cls-1" d="M60.76,22.09h-26.62c-.72,0-1.37-.4-1.71-1.03s-.29-1.4.12-1.99l8.47-12.24s.04-.06.07-.09c.44-.55,1.13-.89,1.87-.89h17.8c1.06,0,1.93.86,1.93,1.93v12.39c0,1.06-.86,1.93-1.93,1.93ZM37.82,18.24h21.01v-8.53h-15.11l-5.9,8.53Z"/>
      <path class="cls-1" d="M90.1,22.09h-22.87c-1.06,0-1.93-.86-1.93-1.93V7.78c0-1.06.86-1.93,1.93-1.93h18.02c1.26,0,2.41.79,2.85,1.98l4.16,11.16c.27.72.17,1.49-.27,2.12-.44.63-1.13.99-1.89.99ZM88.64,20.33s0,0,0,0h0ZM69.15,18.24h18.71l-3.18-8.53h-15.52v8.53Z"/>
      <path class="cls-1" d="M25.69,58.25c-6.62,0-12-5.38-12-12s5.38-12,12-12,12,5.38,12,12-5.38,12-12,12ZM25.69,38.11c-4.49,0-8.14,3.65-8.14,8.14s3.65,8.14,8.14,8.14,8.14-3.65,8.14-8.14-3.65-8.14-8.14-8.14Z"/>
      <path class="cls-1" d="M77.31,58.25c-6.62,0-12-5.38-12-12s5.38-12,12-12,12,5.38,12,12-5.38,12-12,12ZM77.31,38.11c-4.49,0-8.14,3.65-8.14,8.14s3.65,8.14,8.14,8.14,8.14-3.65,8.14-8.14-3.65-8.14-8.14-8.14Z"/>
      <rect class="cls-1" x="100.51" y="4.2" width="31.93" height="3.86"/>
      <g>
        <path class="cls-1" d="M97.41,15l-3.55-9.51c-1.23-3.28-4.41-5.49-7.91-5.49h-43.05c-2.71,0-5.27,1.31-6.85,3.51l-11.52,16-20.19,5.49c-2.55.61-4.33,2.87-4.33,5.5v11.97c0,3.12,2.54,5.65,5.65,5.65h4.15c-.07-.61-.11-1.24-.11-1.87,0-.67.05-1.33.13-1.99h-4.16c-.99,0-1.8-.81-1.8-1.8v-11.97c0-.84.57-1.56,1.39-1.75.02,0,.05-.01.07-.02l20.88-5.68c.43-.12.8-.38,1.06-.73l11.92-16.55c.86-1.19,2.25-1.91,3.72-1.91h43.05c1.91,0,3.63,1.2,4.3,2.98l4.5,12.07h31.57v-3.91h-28.91Z"/>
        <path class="cls-1" d="M100.22,24.29c0-.51-.05-1.02-.13-1.53h-3.93c.13.5.2,1.01.2,1.53v5.45h15.84v-3.94h-11.98v-1.51Z"/>
      </g>
    </g>
  </g>
</svg>