<?xml version="1.0" encoding="UTF-8"?>
<svg id="_レイヤー_2" data-name="レイヤー_2" xmlns="http://www.w3.org/2000/svg" viewBox="0 0 98.33 98.33">
  <defs>
    <style>
      .cls-1 {
        fill: #fff;
      }
    </style>
  </defs>
  <g id="_レイヤー_1-2" data-name="レイヤー_1">
    <g>
      <path class="cls-1" d="M0,98.33C0,65.55,0,32.78,0,0c32.78,0,65.55,0,98.33,0,0,32.78,0,65.55,0,98.33-32.78,0-65.55,0-98.33,0ZM78.66,85.21c.73,0,1.46,0,2.19,0v4.35h8.72v-4.35h-2.17v-2.18h2.17v-2.18h-2.17v-2.21h2.17v-2.18h-2.18v-2.19h-2.18v-2.19h-4.37v-2.18h-6.56v-4.37h-2.18v-2.17h-2.18c0-1.46,0-2.92,0-4.38h2.21v2.17c.75,0,1.47,0,2.18,0v2.2h4.36v2.19c.89,0,1.73,0,2.58,0,1.33,0,2.65-.01,3.98-.02,0,.74,0,1.47,0,2.21h-2.17v2.16h2.16v-2.17h4.35v-2.19h-4.34v-2.19h2.17c0-.75,0-1.46,0-2.17h2.17v-6.53h-2.16v6.54h-2.2v-4.39h-2.18v-2.15h-2.15v6.54h2.13v2.18c-1.47,0-2.91,0-4.35,0v-2.2h-4.36v-4.34h2.19v2.14h2.19v-6.53h6.56v-2.2h4.34v-2.18h-4.37v-4.34h-2.18v2.17h-2.18v-4.39h4.36v-2.17h-6.55v-2.18h-2.18v-4.38h-4.38v-2.17c-.75,0-1.46,0-2.18,0v-2.19h-2.19v-2.2h2.19v-2.18h2.17v-2.18h-2.17v-6.54h-4.38v2.17c-.75,0-1.46,0-2.18,0v-4.39h2.17v-4.33h-4.36v4.37h-4.34v2.18h2.17v6.55h-2.21v2.16h-2.18v-2.16c-.75,0-1.47,0-2.18,0,0-1.46,0-2.92,0-4.38.73,0,1.46,0,2.19,0v2.17h2.16v-2.16h-2.17v-4.39h-2.19v-4.33h-2.17v6.54h-2.2v-2.2h-2.18c0-.75,0-1.46,0-2.18h2.17v-2.16h-2.16v2.17h-2.2v2.19h-6.54v2.19h-4.36c0,.75,0,1.47,0,2.18h-2.16v-4.39h2.14v-4.33h-4.37v8.73h-2.14v2.17c2.19,0,4.37,0,6.54,0,0,.73,0,1.46,0,2.2h-2.19v2.19h-2.2v-2.17h-2.17v4.36h-4.37v2.18h0c-1.46,0-2.92,0-4.38,0v-2.17h-4.36v4.35h-2.2v4.38h-2.15v8.74h2.14v2.19h-2.13v4.35h2.17c0,.73,0,1.46,0,2.2h-2.17v6.55h2.17c0,2.92,0,5.83,0,8.75h-2.17v2.16h2.16v-2.17h2.2v4.35h4.35c0-1.47,0-2.91,0-4.35.73,0,1.46,0,2.2,0v2.19h2.19v2.2h4.36v4.36h2.2c0,1.46,0,2.92,0,4.38h-2.17v4.34h4.33v-2.17h-2.17v-2.18h2.2v-2.17h4.35v2.19h-2.15v4.34h2.17v-2.18h2.19v-2.18h2.15v-2.16c-1.47,0-2.92,0-4.36,0v-2.2c-2.21,0-4.38,0-6.54,0v-4.36c-.75,0-1.48,0-2.2,0v-2.2c-1.48,0-2.92,0-4.36,0,0-.73,0-1.46,0-2.2h2.19v-2.19h2.2v-4.37c2.21,0,4.38,0,6.55,0v2.17h2.18v-2.17c1.46,0,2.92,0,4.38,0v2.2h4.37v2.18h-6.56v2.19c-.73,0-1.46,0-2.2,0v-2.17h-2.15v2.16c.74,0,1.45,0,2.16,0,0,.73,0,1.46,0,2.2h-2.18c0,.75,0,1.47,0,2.18h-2.17v2.16h2.16v-2.17c.73,0,1.46,0,2.19,0v2.19h2.19v2.19h4.37v8.72h2.2v-2.14h2.18v2.17h2.18,0v4.34h2.2v-2.16h2.19v-4.37h2.18v4.39h4.38v2.15h4.35v-4.35h2.2v-2.15h2.18c0,1.47,0,2.91,0,4.35h-2.17v2.16h2.16v-2.17c.73,0,1.46,0,2.19,0v2.17h2.16v-2.16h-2.17v-2.2h4.38v-2.18h0c.72,0,1.44,0,2.2,0v-2.2h4.36c0,.73,0,1.46,0,2.2h-2.18c0,.75,0,1.47,0,2.18h-2.17v2.16h2.16v-2.17ZM85.21,34.97v-2.2h-2.17v-4.37h-2.2v-2.15h-2.19v2.13h-2.19v-2.14h-4.33v2.18h2.17v2.18h6.55c0,.75,0,1.47,0,2.18h-2.17v2.16h2.16v-2.17c.73,0,1.47,0,2.2-.01v2.2h2.18v2.17h4.34v-2.16c-1.47,0-2.91,0-4.35,0ZM8.76,24.01h15.25v-15.25h-15.25v15.25ZM89.56,24.02v-15.25h-15.25v15.25h15.25ZM8.76,74.31v15.25h15.25v-15.25h-15.25ZM89.56,30.58v-2.14h-4.33v2.14h4.33ZM89.57,39.36h-2.14v2.14h2.14v-2.14ZM28.42,67.71h2.15v-2.14h-2.15v2.14ZM69.95,10.94v2.14h2.14v-2.14h-2.14ZM58.97,10.91v-2.14h-2.14v2.14h2.14ZM32.8,87.42v2.15h2.14v-2.15h-2.14ZM41.49,89.57v-2.14h-2.14v2.14h2.14ZM45.87,89.57v-2.15h-2.14v2.15h2.14Z"/>
      <path d="M69.92,63.37h2.18v2.17h2.18v4.37h6.56v2.18h4.37v2.19h2.18v2.19h2.18v2.18h-2.17v2.21h.01c-1.46,0-2.92,0-4.38,0h0v-4.34h-2.19v4.35h0c-1.44-.01-2.88-.01-4.36-.01v2.2c-.76,0-1.48,0-2.2,0,0-.72,0-1.44,0-2.17h-2.16v2.16h2.17v2.18h-4.38v2.2h0c-.73,0-1.46-.01-2.19-.01h0v-4.34h-2.18v2.15h-2.2,0v-4.38h2.19v-2.18h2.15v-2.19h-2.17v-2.19h-2.19v-2.15h-4.36v4.35h0c-.72,0-1.45,0-2.2,0v-4.36h-8.73c0-.73,0-1.46,0-2.2h6.54v-2.2h-2.17v-2.18h-2.17v-2.18h0c1.45,0,2.9,0,4.39,0v-2.19h2.18v2.2h4.37c0,.75,0,1.46,0,2.18-1.45,0-2.9,0-4.35,0v2.19h2.16v2.15h2.18v-4.35h2.21v2.2h2.18v4.35c.75,0,1.47,0,2.18,0,0,.72,0,1.44,0,2.17h2.16v-2.16h-2.17v-2.2h2.16v-2.18h-2.14v-2.18h2.17v-2.18h0ZM78.65,72.13h-6.51v6.51h6.51v-6.51Z"/>
      <path d="M21.84,28.41v-2.18h4.37v-4.36h2.17v2.17h2.2,0c0,1.45,0,2.91.01,4.37-.72,0-1.45,0-2.17,0v4.34h2.16v-4.35h2.17v8.76h-4.35v8.73h0c-.73,0-1.46,0-2.19,0,0-.72,0-1.45,0-2.19h-2.19v-2.17h-2.18v2.17c-.73,0-1.46,0-2.19,0v-2.2h-2.19v-4.35h-2.18c0-.73,0-1.46,0-2.2h0c.72,0,1.44,0,2.2,0v-2.2c.75,0,1.46,0,2.18,0,0,2.18,0,4.36,0,6.53h4.35v-2.17h-2.14v-2.19h2.14v-2.17h-4.35v-2.2h-2.17v-2.18h0c1.46,0,2.92,0,4.38,0,0,.72,0,1.44,0,2.17h2.16v-2.16h-2.17Z"/>
      <path d="M17.48,67.73v4.35h-4.35v-4.35h-2.2,0c0-2.91,0-5.82,0-8.74h-.01c.73,0,1.46,0,2.2,0v4.35h2.19v-2.17h2.17c0-.75,0-1.47,0-2.18h2.17v-4.36h-2.17c0-1.46,0-2.92,0-4.38.73,0,1.46,0,2.2,0v2.17h4.36c0-.74,0-1.45,0-2.17h2.19v-2.19h2.19v-2.18h0c1.45,0,2.9,0,4.38,0v-4.38h0c.73,0,1.46,0,2.19,0v4.37h2.19v2.19h2.19v2.2h4.37v2.18h-6.56c0-.72,0-1.45,0-2.2h-2.2v-2.15h-4.33v2.18h2.17v2.18h-6.57v2.2h-4.34v2.18h2.16v2.18h0c-.72,0-1.45,0-2.19,0v2.19h0c-.72,0-1.45,0-2.18,0v2.19h-2.2v2.19h0c-.72,0-1.44,0-2.17,0v2.19h2.17-.01Z"/>
      <path d="M8.76,24.01v-15.25h15.25v15.25h-15.25ZM21.83,21.84v-10.88h-10.88v10.88h10.88Z"/>
      <path d="M89.56,24.02h-15.25v-15.25h15.25v15.25ZM87.38,21.84v-10.88h-10.88v10.88h10.88Z"/>
      <path d="M8.76,74.31h15.25v15.25h-15.25v-15.25ZM10.94,87.38h10.88v-10.88h-10.88v10.88Z"/>
      <path d="M48.08,85.22h-2.18v-2.17h-2.18v2.14h-2.2v-8.72h-.01c1.46,0,2.92,0,4.38,0v2.2h2.19v2.15h2.19v-4.34h2.18,0v2.19h2.19v4.36h0c-.71-.01-1.43-.01-2.18-.01v4.37h-2.19v2.16h-2.2c0-1.45,0-2.9,0-4.35.72,0,1.44,0,2.17,0v-2.16h-2.16v2.17Z"/>
      <path d="M80.84,45.89h2.18v-2.17h2.18v4.34h4.37v2.18h-4.34v2.2h-6.56v6.53h-2.19v-2.14h-2.19c0,1.44,0,2.89,0,4.34,0,0,0-.01,0-.01h-2.18v-2.17h-2.21,0v-2.2h2.19v-2.18h4.36v-4.37h0c.72,0,1.44,0,2.2,0v-2.21h2.18v-2.18h0Z"/>
      <path d="M45.88,10.92v2.18h2.18v2.2h2.2,0v2.18h0c-.72,0-1.45,0-2.19,0v4.38c-.73,0-1.46,0-2.19,0,0-.72,0-1.45,0-2.2h-8.74,0v-2.19h-4.38.01v-2.17h4.36v-2.19h6.54v-2.19h2.2,0ZM39.35,17.46h4.33v-2.14h-4.33v2.14Z"/>
      <path d="M69.92,30.6h2.18v2.17h4.38v4.38h.01c-.72,0-1.45,0-2.21,0v4.36h-2.18v-4.37h-10.93v-2.18h-2.17v-2.18h0c1.46,0,2.92,0,4.38,0v2.17h6.56v-4.35h0Z"/>
      <path d="M10.93,50.25h-2.17v-4.35h2.13v-2.19h-2.14v-8.74h2.15v-4.38h2.2,0v2.19h2.19v2.18h0c-.72,0-1.45,0-2.18,0,0,.76,0,1.48,0,2.19h-2.17v2.18h2.17v2.2h2.15v2.19h-2.16v4.37h-2.18v2.18h0Z"/>
      <path d="M69.92,24.03v2.18h-2.19v2.2h.01c-1.46,0-2.92,0-4.38,0,0-1.46,0-2.92,0-4.38.72,0,1.44,0,2.17,0v-4.38h-2.16v-2.18h0c.71.01,1.43.01,2.18.01v-2.17h4.38v6.54h.01c-.72,0-1.44,0-2.17,0v2.19h2.17-.01Z"/>
      <path d="M59,21.86v-6.55h-2.17v-2.18h4.34v-4.37h4.36v4.33h-2.17c0,1.49,0,2.94,0,4.39h0c-.72-.01-1.45-.01-2.19-.01v4.38c-.73,0-1.46,0-2.19,0h.01Z"/>
      <path d="M32.78,61.18h-6.55v4.37h-2.2,0v-2.18h-2.2c0-.73,0-1.46,0-2.19h0c.72,0,1.45,0,2.19,0v-2.19h0c.72,0,1.45,0,2.21,0v-2.2h2.18v-2.18h4.37c0,.73,0,1.46,0,2.19h-2.17v2.18h2.17c0,.73,0,1.46,0,2.2h0Z"/>
      <path d="M87.4,61.18v2.17h-2.17c0,.75,0,1.47,0,2.19,0,0,0-.01,0-.01-1.33,0-2.65.01-3.98.02-.85,0-1.7,0-2.58,0v-2.19h0c1.44,0,2.89,0,4.35,0v-2.18h-2.13v-6.54h2.15v2.15h2.18v4.39h2.2,0Z"/>
      <path d="M52.44,21.86h2.18v2.16h2.18v-2.16c.76,0,1.48,0,2.21,0h-.01c0,3.64,0,7.28,0,10.93h0c-.73,0-1.46,0-2.19,0,0-.72,0-1.45,0-2.21h-2.19v-4.36h-2.17v-4.37h0Z"/>
      <path d="M43.71,65.56v-2.18h-4.37v-2.2h-.01c2.91,0,5.82,0,8.74,0v-2.19h2.19v-2.19c.73,0,1.46,0,2.19,0v4.39h-2.2v2.18h0c-1.45,0-2.9,0-4.37,0v2.19c-.73,0-1.46,0-2.2,0h.01Z"/>
      <path d="M87.4,83.03v2.18h2.17v4.35h-8.72v-4.35h-.01c.73,0,1.46,0,2.19,0,0,.72,0,1.44,0,2.17h2.16v-2.16h-2.17c0-.73,0-1.46.01-2.19h0c1.46,0,2.92,0,4.38,0h-.01Z"/>
      <path d="M32.78,19.66h-6.54v-2.17h2.14v-8.73h4.37v4.33h-2.14v4.39c.72,0,1.44,0,2.16,0h-.01v2.19h0Z"/>
      <path d="M76.47,37.15h2.18v2.18h6.55v2.17h-4.36v4.39h0c-1.45-.01-2.9-.01-4.37-.01v-8.74h-.01Z"/>
      <path d="M83.05,32.76c-.73,0-1.47,0-2.2.01h0v-2.17h-6.55v-2.18h-2.17v-2.18h4.33v2.14h2.19v-2.13h2.19v2.15h2.2c0,1.47,0,2.92,0,4.37,0,0,0-.01,0-.01Z"/>
      <path d="M37.15,67.74v-2.19h6.56-.01v4.36h2.2v2.19h-2.2v2.18h-2.18,0v-4.37h-2.2v-2.18h-2.18.01Z"/>
      <path d="M63.36,85.21v4.35h-4.35v-2.15h-4.38v-4.39h0c.73.01,1.46.01,2.19.01h0v2.18h6.57,0Z"/>
      <path d="M69.92,58.99c0,1.46,0,2.92,0,4.38h0c-.72-.01-1.44-.01-2.2-.01v-2.2h-6.55v-2.17h4.37v-4.37h2.2v4.38h2.18,0Z"/>
      <path d="M50.26,15.3v-6.54h2.17v4.33h2.19v4.39h0c-.73,0-1.46,0-2.19,0h0v-2.18h-2.19,0Z"/>
      <path d="M34.95,78.68h4.36v2.16h-2.15v2.18h-2.19v2.18h-2.17v-4.34h2.15c0-.75,0-1.47,0-2.19,0,0,0,.01,0,.01Z"/>
      <path d="M28.41,80.85c0-1.46,0-2.92,0-4.38h0c2.17,0,4.34,0,6.54,0,0,.74,0,1.47,0,2.2,0,0,0-.01,0-.01-1.44,0-2.88,0-4.35,0v2.17h-2.2,0Z"/>
      <path d="M10.93,58.99h-2.17v-6.55h2.17,0v2.17h2.19c0,.73,0,1.46,0,2.2h-2.19v2.18h.01Z"/>
      <path d="M28.4,80.84v2.18h2.17v2.17h-4.33v-4.34c.72,0,1.44,0,2.17,0,0,0,0,0,0,0Z"/>
      <path d="M32.78,21.86c0-.73,0-1.46,0-2.2h0c1.46.01,2.92.01,4.38.01h0c0,1.45,0,2.91,0,4.37-.73,0-1.46,0-2.19,0,0-.72,0-1.45,0-2.2h-2.19.01Z"/>
      <path d="M87.41,61.19v-6.54h2.16v6.53c-.72,0-1.44,0-2.17,0,0,0,0,0,0,0Z"/>
      <path d="M13.12,30.6v-4.35h4.36c0,.72,0,1.44,0,2.17h0c-.72-.01-1.44-.01-2.2-.01v2.19h-2.18,0Z"/>
      <path d="M39.34,61.18c-1.46,0-2.92,0-4.38,0h0c0-.72,0-1.45,0-2.18,1.46,0,2.92,0,4.38.01h0c0,.72,0,1.45,0,2.18h.01Z"/>
      <path d="M78.67,63.36h-4.36c0-.74,0-1.47,0-2.2,0,0,0,.01,0,.01,1.44,0,2.88,0,4.36,0,0,.75,0,1.48,0,2.2,0,0,0,0,0,0Z"/>
      <path d="M28.41,76.47h-2.2c0-1.46,0-2.91,0-4.36,0,0,0,.01,0,.01h2.2c0,1.46,0,2.91,0,4.36,0,0,0,0,0,0Z"/>
      <path d="M21.85,69.93h4.36c0,.74,0,1.47,0,2.2,0,0,0-.01,0-.01-1.44,0-2.88,0-4.36,0v-2.2h0Z"/>
      <path d="M89.56,30.58h-4.33v-2.14h4.33v2.14Z"/>
      <path d="M52.44,17.48c0,1.46,0,2.92,0,4.38h0c-.73,0-1.46,0-2.19,0,0-1.46,0-2.92,0-4.38h0c.73,0,1.46,0,2.19,0h0Z"/>
      <path d="M85.21,34.97h4.35v2.16h-4.34v-2.17h0Z"/>
      <path d="M85.22,67.74c0-.74,0-1.47,0-2.21,0,0,0,.01,0,.01,1.44,0,2.88,0,4.34,0v2.19h-4.35,0Z"/>
      <path d="M41.52,76.47h-4.37v-2.19h-.01c1.46,0,2.92,0,4.38,0h0v2.19h.01Z"/>
      <path d="M69.92,87.41h2.17v2.16h-2.16c0-.72,0-1.45,0-2.17,0,0,0,0,0,0Z"/>
      <path d="M89.57,39.36v2.14h-2.14v-2.14h2.14Z"/>
      <path d="M34.96,61.18v2.17h-2.18c0-.72,0-1.44,0-2.17h0c.73.01,1.46.01,2.19.01h0Z"/>
      <path d="M19.67,67.73c-.73,0-1.46,0-2.2,0h.01c0-.72,0-1.45,0-2.19h0c.73,0,1.46,0,2.19,0,0,.73,0,1.46,0,2.2h0Z"/>
      <path d="M24.03,65.55v2.19h-2.19,0c0-.72,0-1.45,0-2.18.73,0,1.46,0,2.19,0h0Z"/>
      <path d="M28.42,67.71v-2.14h2.15v2.14h-2.15Z"/>
      <path d="M34.96,67.73h-2.16v-2.16h2.15v2.17h0Z"/>
      <path d="M85.22,34.96h-2.18c0-.74,0-1.47,0-2.2,0,0,0,.01,0,.01.71,0,1.43,0,2.17,0,0,.76,0,1.48,0,2.2,0,0,0,0,0,0Z"/>
      <path d="M80.84,32.77v2.17h-2.16v-2.16c.72,0,1.45,0,2.17,0,0,0,0,0,0,0Z"/>
      <path d="M10.92,67.73v2.17h-2.16v-2.16c.72,0,1.45,0,2.17,0,0,0,0,0,0,0Z"/>
      <path d="M21.86,69.92h-2.19v-2.19h0c.73.01,1.46.01,2.19.01h0c0,.72,0,1.45,0,2.19,0,0,0,0,0,0Z"/>
      <path d="M34.96,67.74c.73,0,1.46,0,2.2,0h-.01v2.18h-2.19.01c0-.72,0-1.45,0-2.19,0,0,0,0,0,0Z"/>
      <path d="M85.21,67.73v2.17h-2.16v-2.16c.72,0,1.45,0,2.17,0,0,0,0,0,0,0Z"/>
      <path d="M67.73,28.41h2.19v2.19h0c-.73,0-1.46,0-2.19,0,0-.73,0-1.46,0-2.2h-.01Z"/>
      <path d="M34.97,72.1c-.73,0-1.46,0-2.19,0h0v-2.17h2.18-.01c0,.72,0,1.45,0,2.19h0Z"/>
      <path d="M32.77,72.1v2.17h-2.16v-2.16c.72,0,1.45,0,2.17,0,0,0,0,0,0,0Z"/>
      <path d="M37.15,74.29h-2.19v-2.19h0c.72.01,1.45.01,2.19.01v2.19h.01Z"/>
      <path d="M69.92,21.86h2.17v2.18h-2.17.01c0-.72,0-1.45,0-2.19h-.01Z"/>
      <path d="M30.6,24.04v-2.19c.74,0,1.46,0,2.19,0h-.01c0,.72,0,1.45,0,2.19-.73,0-1.46,0-2.19,0h0Z"/>
      <path d="M54.62,17.48h2.17v2.16h-2.16c0-.72,0-1.45,0-2.17,0,0,0,0,0,0Z"/>
      <path d="M80.85,83.04c0-.73,0-1.46,0-2.2h0c.73.01,1.46.01,2.19.01h0c0,.72,0,1.45,0,2.19h0c-.73,0-1.46,0-2.19,0h.01Z"/>
      <path d="M87.4,80.85h2.17v2.18h-2.17.01v-2.19h-.01Z"/>
      <path d="M69.95,10.94h2.14v2.14h-2.14v-2.14Z"/>
      <path d="M78.67,85.22v-2.18h2.18-.01v2.19h.01c-.73,0-1.46-.01-2.19-.01h0Z"/>
      <path d="M58.97,10.91h-2.14v-2.14h2.14v2.14Z"/>
      <path d="M78.66,85.21v2.17h-2.16v-2.16c.72,0,1.45,0,2.17,0,0,0,0,0,0,0Z"/>
      <path d="M45.89,10.93v-2.17h2.16v2.16c-.72,0-1.45,0-2.17,0,0,0,0,0,0,0Z"/>
      <path d="M32.8,87.42h2.14v2.15h-2.14v-2.15Z"/>
      <path d="M41.49,89.57h-2.14v-2.14h2.14v2.14Z"/>
      <path d="M45.87,89.57h-2.14v-2.15h2.14v2.15Z"/>
      <path d="M67.73,87.4v2.17h-2.16v-2.16c.72,0,1.45,0,2.17,0,0,0,0,0,0,0Z"/>
      <path d="M10.93,52.45c0-.73,0-1.46,0-2.2h0c.72.01,1.45.01,2.2.01,0,.76,0,1.47,0,2.18-.73,0-1.46,0-2.2,0h0Z"/>
      <path class="cls-1" d="M56.82,83.04c-.73,0-1.46,0-2.19,0v-4.36h-2.19c0-.76,0-1.48,0-2.2.72,0,1.44,0,2.17,0v-2.16h-2.16v2.17h-2.18v4.34h-2.19v-2.15h-2.19v-2.2h0c.72,0,1.45,0,2.19,0v-4.38h0c2.9,0,5.8,0,8.73,0v4.36h2.2c0,.72,0,1.44,0,2.17h2.16v-2.16h-2.17v-4.35h4.36v2.15h2.19v2.19h2.17v2.19h-2.15v2.18h-2.19v4.39h-6.57c0-.75,0-1.47,0-2.19.72,0,1.44,0,2.17,0v-2.16h-2.16v2.17Z"/>
      <path class="cls-1" d="M61.18,58.99v2.17h6.55v2.2h2.2v2.18h-2.17v2.18h2.14v2.18h-2.16v2.2h0c-.71,0-1.43,0-2.18,0v-4.35h-2.18v-2.2h-2.21,0v-2.17h-4.37v-2.2h0c.72,0,1.44,0,2.2,0v-2.19h2.18,0Z"/>
      <path class="cls-1" d="M78.65,72.13v6.51h-6.51v-6.51h6.51ZM76.45,76.46v-2.15h-2.14v2.15h2.14Z"/>
      <path class="cls-1" d="M45.89,65.56v-2.19h4.37v2.18h2.17v2.18h2.17v2.2h-6.54,0v-4.37h-2.19,0Z"/>
      <path class="cls-1" d="M50.25,63.37v-2.18h2.2v-4.39h0c.73,0,1.46,0,2.19,0h0v2.19h2.19v2.18h0c-.71,0-1.43,0-2.18,0v2.19h-4.39Z"/>
      <path class="cls-1" d="M61.18,65.55v4.35h-2.18v-2.15h-2.16v-2.19c1.45,0,2.9,0,4.35,0,0,0,0,0,0,0Z"/>
      <path class="cls-1" d="M83.04,80.85c-.73,0-1.46,0-2.19,0v-4.35h2.19v4.35Z"/>
      <path class="cls-1" d="M87.41,80.84v2.19c-1.46,0-2.92,0-4.38,0,0-.73,0-1.46,0-2.19h4.38Z"/>
      <path class="cls-1" d="M45.89,72.11v-2.19h0c.73,0,1.46,0,2.19,0h0c0,.72,0,1.45,0,2.19h0c-.73,0-1.46,0-2.19,0h0Z"/>
      <path class="cls-1" d="M67.73,72.11h2.17v2.16h-2.16c0-.72,0-1.45,0-2.17,0,0,0,0,0,0Z"/>
      <path class="cls-1" d="M74.3,83.03h-2.17v-2.16h2.16c0,.72,0,1.45,0,2.17,0,0,0,0,0,0Z"/>
      <path class="cls-1" d="M30.59,24.03c.73,0,1.46,0,2.19,0h0v2.18h2.19,0v2.16h2.19v-2.17h0c.73,0,1.46,0,2.19,0h0c0,2.18,0,4.37.01,6.55-.72,0-1.44,0-2.17,0v2.16h2.16v-2.17h2.19v4.38c-.72,0-1.45,0-2.19,0v2.19h-2.2v-2.16h-2.18v4.35h0c-.73,0-1.46,0-2.19,0,0-.72,0-1.44,0-2.17h-2.16v2.16h2.17v4.38h-4.38c0-2.9,0-5.8,0-8.73h4.35v-8.76h-2.17,0c0-1.45,0-2.91-.01-4.37Z"/>
      <path class="cls-1" d="M13.12,52.45v-2.18h-2.2v-2.18h2.18v-4.37h2.16v-2.19h-2.15v-2.2h0c.72,0,1.45,0,2.19,0v-2.19h0c.71,0,1.43,0,2.18,0v4.35h2.19v2.2h0c-.72,0-1.45,0-2.21,0v2.2h-2.15v4.36h2.17,0c0,1.45,0,2.91,0,4.37h0c-.73,0-1.46,0-2.19,0h0v-2.19h-2.19,0Z"/>
      <path class="cls-1" d="M13.11,30.59h2.18v-2.19h2.2v2.18h2.17v2.2h0c-.71,0-1.43,0-2.18,0v2.2h-2.2v-2.18h-2.19v-2.2Z"/>
      <path class="cls-1" d="M19.66,32.78h4.35v2.17h-2.14v2.19h2.14v2.17h-4.35c0-2.18,0-4.36,0-6.53,0,0,0,0,0,0Z"/>
      <path class="cls-1" d="M19.66,43.71c.73,0,1.46,0,2.19,0h0v2.18h2.19,0c0,.72,0,1.45,0,2.19h0c-1.46,0-2.92,0-4.38,0h0c0-1.45,0-2.91,0-4.37h0Z"/>
      <path class="cls-1" d="M30.59,28.4v4.35h-2.16v-4.34c.72,0,1.45,0,2.17,0,0,0,0,0,0,0Z"/>
      <path class="cls-1" d="M28.41,45.88v2.18h-2.19,0c0-.72,0-1.45,0-2.18h0c.73,0,1.46,0,2.19,0Z"/>
      <path class="cls-1" d="M24.03,43.71h2.19c0,.74,0,1.46,0,2.19h0c-.73,0-1.46,0-2.19,0h0c0-.72,0-1.45,0-2.19h0Z"/>
      <path class="cls-1" d="M21.86,43.71v-2.17h2.18v2.17h0c-.73,0-1.46,0-2.19,0h0Z"/>
      <path class="cls-1" d="M13.12,37.15v-2.19h2.18c0,.73,0,1.46,0,2.2h0c-.73,0-1.46,0-2.19,0h0Z"/>
      <path class="cls-1" d="M21.84,28.41h2.17v2.16h-2.16c0-.72,0-1.45,0-2.17,0,0,0,0,0,0Z"/>
      <path class="cls-1" d="M39.34,59c-1.46,0-2.92,0-4.38-.01h0c0-.72,0-1.45,0-2.18h0c.72,0,1.45,0,2.19,0v-4.38h0c2.19,0,4.38,0,6.56,0h0v4.36h2.19c0,.72,0,1.45,0,2.2h2.19,0v2.19h-8.74c0-.73,0-1.46,0-2.19.72,0,1.45,0,2.17,0v-4.34h-2.16v4.35Z"/>
      <path class="cls-1" d="M43.71,52.45v-2.18h-4.37v-2.2h0c.72,0,1.44,0,2.17,0v-2.19h-2.17,0c0-.72,0-1.45,0-2.19h0c.72,0,1.45,0,2.18,0v-2.19c.73,0,1.46,0,2.2,0v4.39h2.16v6.54h-2.17,0Z"/>
      <path class="cls-1" d="M32.78,54.62h-4.37v2.18h-2.18v2.2h-2.21c0-.71,0-1.43,0-2.18h-2.16v-2.18h4.34v-2.2h6.57,0c0,.72,0,1.45,0,2.18h0Z"/>
      <path class="cls-1" d="M32.78,52.45v-2.18h-2.17v-2.18h4.33v2.15h2.2c0,.76,0,1.48,0,2.2h0c-1.46,0-2.92,0-4.38,0h0Z"/>
      <path class="cls-1" d="M17.48,58.99v2.18h-2.17v2.17h-2.19c0-1.45,0-2.9,0-4.35h0c1.46,0,2.92,0,4.38,0h0Z"/>
      <path class="cls-1" d="M37.15,45.88h-2.19v-4.37h0c1.46,0,2.92,0,4.38,0,0,.73,0,1.46,0,2.2h0c-.72,0-1.45,0-2.19,0v2.19h0Z"/>
      <path class="cls-1" d="M24.03,50.25v2.17h-4.36v-2.17h0c1.46,0,2.92,0,4.38,0h0Z"/>
      <path class="cls-1" d="M17.48,54.63h2.17v4.36h-2.17,0c0-1.45,0-2.91,0-4.37h0Z"/>
      <path class="cls-1" d="M26.22,48.07v2.19h-2.19,0c0-.72,0-1.45,0-2.19h0c.73,0,1.46,0,2.19,0h0Z"/>
      <path class="cls-1" d="M19.67,50.25c-.73,0-1.46,0-2.2,0h0v-2.18h2.19,0c0,.72,0,1.45,0,2.19h0Z"/>
      <path class="cls-1" d="M39.34,48.07h-2.19v-2.19h0c.73,0,1.46,0,2.19,0h0c0,.72,0,1.45,0,2.19h0Z"/>
      <path class="cls-1" d="M10.92,59v-2.18h2.19,0c0,.72,0,1.45,0,2.18h0c-.73,0-1.46,0-2.2,0Z"/>
      <path class="cls-1" d="M24.04,58.99v2.19h-2.19v-2.19h2.19Z"/>
      <path class="cls-1" d="M21.86,61.18c0,.73,0,1.46,0,2.19h0c-.73,0-1.46,0-2.19,0h0v-2.19h2.18Z"/>
      <path class="cls-1" d="M19.67,65.55c-.73,0-1.46,0-2.19,0v-2.19h2.2,0c0,.72,0,1.45,0,2.19h0Z"/>
      <path class="cls-1" d="M17.49,65.55c0,.73,0,1.46,0,2.19h-2.17v-2.19h2.17Z"/>
      <path class="cls-1" d="M21.83,21.84h-10.88v-10.88h10.88v10.88ZM19.65,13.13h-6.51v6.51h6.51v-6.51Z"/>
      <path class="cls-1" d="M87.38,21.84h-10.88v-10.88h10.88v10.88ZM85.19,19.65v-6.52h-6.51v6.52h6.51Z"/>
      <path class="cls-1" d="M10.94,87.38v-10.88h10.88v10.88h-10.88ZM13.13,78.68v6.51h6.51v-6.51h-6.51Z"/>
      <path class="cls-1" d="M41.51,76.48v-2.19h2.18v-2.18h2.2,0v4.37h0c-1.46,0-2.92,0-4.38,0Z"/>
      <path class="cls-1" d="M48.08,85.22v-2.17h2.16v2.16c-.72,0-1.45,0-2.17,0,0,0,0,0,0,0Z"/>
      <path class="cls-1" d="M69.93,59h-2.18v-4.38h-2.2,0v-2.2h-2.2v-2.15h-2.18v6.54h0c-2.19,0-4.38,0-6.56,0h0c0-1.45,0-2.91-.01-4.37.72,0,1.45,0,2.21,0v2.17h2.15v-6.53c-.74,0-1.45,0-2.17,0,0-.72,0-1.45,0-2.19h-2.19v-2.18c-1.48,0-2.93,0-4.37,0,0-.72,0-1.44,0-2.19.87,0,1.7,0,2.53,0,1.35,0,2.7-.01,4.05-.02,0,.73,0,1.46,0,2.2h2.18v2.19h4.37v2.16h4.37v-4.35h2.15v-2.19h-2.16v-2.15h-4.34v2.17h2.14v4.36c-.74,0-1.45,0-2.17,0,0-.72,0-1.45,0-2.19-1.48,0-2.93,0-4.37,0,0-.73,0-1.46,0-2.19.72,0,1.44,0,2.17,0v-2.16h-2.16v2.17c-.73,0-1.46,0-2.18-.01,0-2.91,0-5.82,0-8.74h0c.73,0,1.46,0,2.19,0v2.18h2.17v2.18h10.93v4.37h2.18v-4.36h2.21v8.74h4.37v2.18h-2.18v2.21c-.76,0-1.48,0-2.2,0,0-.72,0-1.44,0-2.2h-2.17v-2.15h-4.36v2.14c1.47,0,2.92,0,4.37,0,0,.73,0,1.46,0,2.2h2.18v4.37h-4.36v2.18h-2.19v2.21ZM72.09,50.28h-4.33v2.14h4.33v-2.14Z"/>
      <path class="cls-1" d="M50.25,21.86c.73,0,1.46,0,2.19,0v4.37h2.17v4.36h2.19c0,.76,0,1.48,0,2.21h0c-1.45,0-2.9,0-4.37,0v2.19c-.73,0-1.46,0-2.2,0v-8.75h-4.37,0c0-1.45,0-2.91,0-4.37h0c.73,0,1.46,0,2.19,0h0v2.16h2.19v-2.17h0Z"/>
      <path class="cls-1" d="M37.15,24.04c0-1.46,0-2.92,0-4.38h8.74c0,.75,0,1.47,0,2.2h0c-.72,0-1.45,0-2.17,0v4.38h2.17,0v2.19h-2.19v2.15h-2.19v-4.35h-2.18,0c0-.72,0-1.45-.01-2.18.72,0,1.44,0,2.17,0v-2.16h-2.16v2.17c-.73,0-1.46,0-2.19-.01h0Z"/>
      <path class="cls-1" d="M50.26,17.48c0,1.46,0,2.92,0,4.38h0c-.73,0-1.46,0-2.19,0h0c0-1.43,0-2.88,0-4.37h2.19Z"/>
      <path class="cls-1" d="M37.15,19.67c-1.46,0-2.92,0-4.38,0,0-.73,0-1.46,0-2.19h4.38v2.19Z"/>
      <path class="cls-1" d="M39.35,17.46v-2.14h4.33v2.14h-4.33Z"/>
      <path class="cls-1" d="M52.45,17.49h-2.19v-2.19h2.19v2.19Z"/>
      <path class="cls-1" d="M58.99,32.78c0-3.64,0-7.29,0-10.93.73,0,1.46,0,2.19,0h0v2.18h2.19,0c0,1.45,0,2.91,0,4.37h0c-.72,0-1.44,0-2.17,0v2.19h2.17,0c0,.72,0,1.45,0,2.19h0c-1.46,0-2.92,0-4.38,0Z"/>
      <path class="cls-1" d="M67.73,30.6c.73,0,1.46,0,2.19,0v4.35h-6.56v-2.17h0c1.45,0,2.9,0,4.38,0v-2.19h0Z"/>
      <path class="cls-1" d="M13.12,39.33h-2.17v-2.18h2.17,0c0,.72,0,1.45,0,2.19h0Z"/>
      <path class="cls-1" d="M61.19,21.86v-4.38h2.19v2.18h2.16v4.38c-.72,0-1.45,0-2.17,0h0v-2.19h-2.19,0Z"/>
      <path class="cls-1" d="M67.74,28.4c0,.73,0,1.46,0,2.2h0c-1.46,0-2.92,0-4.38,0h0c0-.72,0-1.45,0-2.19h0c1.46,0,2.92,0,4.38,0Z"/>
      <path class="cls-1" d="M69.93,21.85c0,.73,0,1.46,0,2.19h-2.17v-2.19h2.17Z"/>
      <path class="cls-1" d="M32.78,56.82c0-.73,0-1.46,0-2.19h0c.72,0,1.45,0,2.19,0v2.19h0c-.73,0-1.46,0-2.19,0h0Z"/>
      <path class="cls-1" d="M32.78,58.99h-2.17v-2.18h2.17,0c0,.72,0,1.45,0,2.19h0Z"/>
      <path class="cls-1" d="M34.97,61.19h-2.19c0-.73,0-1.46,0-2.2h0c.73,0,1.46,0,2.19,0,0,0,0,0,0,0,0,.73,0,1.46,0,2.2Z"/>
      <path class="cls-1" d="M24.04,65.56c-.73,0-1.46,0-2.19,0h0c0-.72,0-1.45,0-2.18h0c.71,0,1.43,0,2.2,0v2.19Z"/>
      <path class="cls-1" d="M45.89,69.92h-2.2v-4.37c.73,0,1.46,0,2.2,0h0c0,1.45,0,2.91,0,4.37h0Z"/>
      <path class="cls-1" d="M52.45,56.81c-.73,0-1.46,0-2.19,0h0c0-.72,0-1.45,0-2.19h2.18v2.2h0Z"/>
      <path class="cls-1" d="M50.25,56.81v2.19h-2.19,0c0-.72,0-1.45-.01-2.19.73,0,1.46,0,2.2,0h0Z"/>
      <path class="cls-1" d="M80.84,85.22v-2.19h2.19c0,.73,0,1.46-.01,2.19h0c-.73,0-1.46,0-2.19,0Z"/>
      <path class="cls-1" d="M83.03,85.22h2.17v2.16h-2.16c0-.72,0-1.45,0-2.17,0,0,0,0,0,0Z"/>
      <path class="cls-1" d="M37.14,74.3v-2.19h-2.19c0-.73,0-1.46,0-2.19h2.19v-2.19h2.18v2.18h2.2v4.38h-4.38Z"/>
      <path class="cls-1" d="M65.55,54.62v4.37h-4.37,0c0-.72,0-1.45,0-2.19h0c.72,0,1.44,0,2.2,0v-2.19h2.18,0Z"/>
      <path class="cls-1" d="M10.92,52.44c.73,0,1.46,0,2.2,0h0c0,.72,0,1.45,0,2.19h0c-.71,0-1.43,0-2.19,0v-2.18Z"/>
      <path class="cls-1" d="M13.12,56.82c0-.73,0-1.46,0-2.2h0c.73,0,1.46,0,2.19,0h0v2.18h-2.19,0Z"/>
      <path class="cls-1" d="M34.96,24.04c.73,0,1.46,0,2.19,0h0c0,.72,0,1.45,0,2.19h0c-.73,0-1.46,0-2.19,0h0c0-.72,0-1.45,0-2.19h0Z"/>
      <path class="cls-1" d="M32.78,24.04c0-.73,0-1.46,0-2.2h2.19c0,.75,0,1.47,0,2.2h0c-.73,0-1.46,0-2.19,0h0Z"/>
      <path class="cls-1" d="M21.86,67.74h-2.19c0-.73,0-1.46,0-2.2h0c.73,0,1.46,0,2.19,0h0c0,.72,0,1.45,0,2.19Z"/>
      <path d="M45.88,76.48v-4.38h2.19v4.38h-2.19Z"/>
      <path d="M52.45,76.48v-2.17h2.16v2.16c-.72,0-1.45,0-2.17,0,0,0,0,0,0,0Z"/>
      <path d="M58.99,76.48h2.17v2.16h-2.16c0-.72,0-1.45,0-2.17,0,0,0,0,0,0Z"/>
      <path d="M56.82,83.04v-2.17h2.16v2.16c-.72,0-1.45,0-2.17,0,0,0,0,0,0,0Z"/>
      <path d="M61.19,56.81c0,.73,0,1.46,0,2.19h-2.18v2.19h-2.2v-2.18h-2.19v-2.2h6.56Z"/>
      <path d="M76.45,76.46h-2.14v-2.15h2.14v2.15Z"/>
      <path d="M45.88,69.93c0-1.46,0-2.92,0-4.38h2.19v4.38h-2.19Z"/>
      <path d="M52.44,56.82v-2.2h-2.18,0v-2.16h-2.19v2.17h0c-.72,0-1.45,0-2.19,0v2.19h0c-.71-.01-1.43-.01-2.19-.01v-4.37h2.17v-6.54h-2.16v-4.39h-.01c.72,0,1.44,0,2.2,0v2.19h2.18,0v2.16h2.19v-2.17h0c1.44.01,2.89.01,4.37.01v2.18h.01c-.72,0-1.44,0-2.17,0v2.19h2.17,0c0,.72,0,1.45,0,2.19h0c-.72,0-1.44,0-2.17,0v2.19h2.17-.01c0,1.45,0,2.91.01,4.37h-2.19Z"/>
      <path d="M39.33,26.22h2.18v4.35h2.19v-2.15h2.19v-2.2h4.37v8.75h.01c-2.18,0-4.36,0-6.57,0v2.19h-2.18.01v-4.37h-2.19,0c0-2.18,0-4.37-.01-6.55Z"/>
      <path d="M39.34,41.51c-1.46,0-2.92,0-4.38.01v-4.35h2.18v2.16h2.2,0c0,.72,0,1.45,0,2.18,0,0,0-.01,0-.01Z"/>
      <path d="M32.78,41.51h-2.17v-2.16h2.16c0,.72,0,1.45,0,2.17,0,0,0,0,0,0Z"/>
      <path d="M39.34,39.34v-2.19c.74,0,1.46,0,2.19,0h-.01c0,.72,0,1.45,0,2.19h0c-.73,0-1.46,0-2.19,0h0Z"/>
      <path d="M39.33,32.77v2.17h-2.16v-2.16c.72,0,1.45,0,2.17,0,0,0,0,0,0,0Z"/>
      <path d="M34.96,26.22h2.19v2.17h-2.19v-2.17Z"/>
      <path d="M37.14,26.23c0-.73,0-1.46,0-2.19.73,0,1.46,0,2.19.01h0c0,.72,0,1.45.01,2.18h-2.19Z"/>
      <path d="M32.77,24.03h2.19c0,.73,0,1.46,0,2.19h-2.19v-2.19Z"/>
      <path d="M19.67,48.08h-2.19v2.19h-2.17v-4.36h2.15v-2.2h2.21c0,1.46,0,2.92,0,4.38Z"/>
      <path d="M13.11,56.81h2.19v-2.19h2.19c0,1.46,0,2.92,0,4.38h-4.38c0-.73,0-1.46,0-2.19Z"/>
      <path d="M15.3,54.63h-2.19c0-.73,0-1.46,0-2.19h2.19v2.19Z"/>
      <path d="M13.11,39.34c0-.73,0-1.46,0-2.19h2.19v2.19h-2.19Z"/>
      <path d="M19.66,50.26c0-.73,0-1.46,0-2.19h4.38c0,.73,0,1.46,0,2.19h-4.38Z"/>
      <path d="M26.23,48.08h-2.19c0-.73,0-1.46,0-2.19h2.19c0,.73,0,1.46,0,2.19Z"/>
      <path d="M21.85,43.7h2.19c0,.73,0,1.46,0,2.19h-2.19v-2.19Z"/>
      <path d="M34.96,56.82v-2.19h-2.19c0-.73,0-1.46,0-2.19h4.38v4.38h-2.19Z"/>
      <path d="M39.34,59v-4.35h2.16v4.34c-.72,0-1.45,0-2.17,0,0,0,0,0,0,0Z"/>
      <path d="M34.97,59h-2.19c0-.73,0-1.46,0-2.19h2.19c0,.73,0,1.46,0,2.19Z"/>
      <path d="M48.07,56.81c0,.73,0,1.46.01,2.19h-2.19c0-.75,0-1.47,0-2.2h0c.73.01,1.46.01,2.19.01h-.01Z"/>
      <path d="M39.33,48.08c0-.73,0-1.46,0-2.19h2.17v2.19h-2.17Z"/>
      <path d="M39.34,45.89h-2.19v-2.19h2.19c0,.73,0,1.46,0,2.19Z"/>
      <path d="M39.33,43.71c0-.73,0-1.46,0-2.2h0c.73.01,1.46.01,2.19.01h-.01v2.19h-2.18Z"/>
      <path d="M43.71,41.51c-.73,0-1.46,0-2.2,0h.01c0-.72,0-1.45,0-2.19h0c.72,0,1.45,0,2.19,0v2.19h.01Z"/>
      <path d="M21.86,65.56h-2.19c0-.73,0-1.46,0-2.19h2.19c0,.73,0,1.46,0,2.19Z"/>
      <path d="M19.65,13.13v6.51h-6.51v-6.51h6.51Z"/>
      <path d="M85.19,19.65h-6.51v-6.52h6.51v6.52Z"/>
      <path d="M13.13,78.68h6.51v6.51h-6.51v-6.51Z"/>
      <path d="M52.45,34.97v-2.19h4.37c0,2.91,0,5.82,0,8.74,0,0,0-.01,0-.01-1.35,0-2.7.01-4.05.02-.83,0-1.65,0-2.53,0,0,.75,0,1.47,0,2.19h0c-.73-.01-1.46-.01-2.19-.01h0v-4.37h6.53v-4.37h-2.17.01Z"/>
      <path d="M63.36,45.89h2.17v-4.36h-2.14v-2.17h4.34v2.15h2.16v2.19h-2.15v4.35h-4.37v-2.16h0Z"/>
      <path d="M65.56,54.63h-2.18v2.19h-2.2v-6.54h2.18v2.15h2.2v2.21Z"/>
      <path d="M56.81,48.08h2.17v6.53h-2.15v-2.17c-.76,0-1.48,0-2.21,0h.01c0-.72,0-1.45,0-2.19h0c.72,0,1.45,0,2.19,0v-2.19h0Z"/>
      <path d="M63.37,45.88h-4.37v-2.19h0c1.44,0,2.89,0,4.37,0,0,.74,0,1.46,0,2.19,0,0,0,0,0,0Z"/>
      <path d="M74.31,48.05h-4.37v-2.14h4.36c0,.71,0,1.43,0,2.15,0,0,0-.01,0-.01Z"/>
      <path d="M72.09,50.28v2.14h-4.33v-2.14h4.33Z"/>
      <path d="M76.48,50.25h-2.18c0-.74,0-1.47,0-2.2,0,0,0,.01,0,.01.71,0,1.43,0,2.17,0,0,.76,0,1.48,0,2.2,0,0,0,0,0,0Z"/>
      <path d="M54.62,45.89h2.19c0,.74,0,1.46,0,2.19h0c-.73-.01-1.46-.01-2.19-.01h0c0-.72,0-1.45,0-2.19h-.01Z"/>
      <path d="M59,43.7h-2.18c0-.74,0-1.47,0-2.2,0,0,0,.01,0,.01.73,0,1.46,0,2.18.01h0c0,.72,0,1.45,0,2.18,0,0,0,0,0,0Z"/>
      <path d="M59,41.52v-2.17h2.16v2.16c-.72,0-1.45,0-2.17,0,0,0,0,0,0,0Z"/>
      <path d="M45.89,26.23h-2.17v-4.38h2.17c0,1.46,0,2.92,0,4.38Z"/>
      <path d="M50.25,34.97c.73,0,1.46,0,2.2,0h-.01v2.16h-2.18v-2.17h-.01Z"/>
      <path d="M48.07,21.85h2.19v2.17h-2.19v-2.17Z"/>
      <path d="M39.34,24.04v-2.17h2.16v2.16c-.72,0-1.45,0-2.17,0,0,0,0,0,0,0Z"/>
      <path d="M63.36,30.59h4.38v2.19h-4.38c0-.73,0-1.46,0-2.19Z"/>
      <path d="M63.37,28.4c0,.73,0,1.46,0,2.19h-2.17v-2.19h2.17Z"/>
      <path d="M61.18,21.85h2.19v2.19h-2.19v-2.19Z"/>
      <path d="M50.26,56.82c-.73,0-1.46,0-2.2,0h.01c0-.72,0-1.45,0-2.19h0c.73,0,1.46,0,2.19,0h0c0,.72,0,1.45,0,2.19Z"/>
      <path class="cls-1" d="M50.26,34.96v2.17h2.18v-2.17h2.17v4.37h-6.53v4.38h-2.18v-2.19h-2.2v-2.19h-2.19c0-.73,0-1.46,0-2.19h2.18v-2.19h6.57Z"/>
      <path class="cls-1" d="M54.62,48.07c.73,0,1.46,0,2.19,0v2.19h-2.19c0-.73,0-1.46,0-2.19Z"/>
      <path class="cls-1" d="M54.63,50.25c0,.73,0,1.46,0,2.19h-2.17v-2.19h2.17Z"/>
      <path class="cls-1" d="M54.63,45.88c0,.73,0,1.46,0,2.19h-2.17v-2.19h2.17Z"/>
      <path class="cls-1" d="M50.26,54.63c-.73,0-1.46,0-2.19,0v-2.17h2.19v2.17Z"/>
      <path class="cls-1" d="M48.07,43.7c.73,0,1.46,0,2.19,0v2.17h-2.19v-2.17Z"/>
      <path class="cls-1" d="M48.08,54.62c0,.73,0,1.46,0,2.19h-2.19v-2.19h2.19Z"/>
      <path class="cls-1" d="M41.52,39.33c0,.73,0,1.46,0,2.19h-2.19c0-.73,0-1.46,0-2.19.73,0,1.46,0,2.19,0Z"/>
    </g>
  </g>
</svg>