<?xml version="1.0" encoding="UTF-8"?>
<svg id="_レイヤー_2" data-name="レイヤー_2" xmlns="http://www.w3.org/2000/svg" viewBox="0 0 104.06 99.42">
  <defs>
    <style>
      .cls-1 {
        fill: #666;
      }
    </style>
  </defs>
  <g id="_レイヤー_1-2" data-name="レイヤー_1">
    <g>
      <g>
        <path class="cls-1" d="M44.36,16.1c-14.21,3.07-25.19,14.26-27.98,28.53-.14.71.32,1.39,1.03,1.53.08.02.17.02.25.02.61,0,1.15-.43,1.28-1.05,2.59-13.24,12.78-23.64,25.97-26.48.7-.15,1.15-.84,1-1.55-.15-.7-.84-1.15-1.55-1Z"/>
        <path class="cls-1" d="M99.12,50.3h-2.98c-.65-22.44-18.14-40.73-40.25-42.66.59-.8.94-1.78.94-2.85,0-2.65-2.15-4.8-4.8-4.8s-4.8,2.15-4.8,4.8c0,1.07.35,2.05.94,2.85C26.07,9.57,8.58,27.86,7.92,50.3h-2.98c-2.73,0-4.95,2.22-4.95,4.94v1.47c0,2.73,2.22,4.94,4.95,4.94h94.17c2.73,0,4.94-2.22,4.94-4.94v-1.47c0-2.73-2.22-4.94-4.94-4.94ZM52.03,2.6c1.21,0,2.2.99,2.2,2.2s-.99,2.2-2.2,2.2-2.2-.99-2.2-2.2.99-2.2,2.2-2.2ZM52.03,10.08c22.46,0,40.81,17.93,41.5,40.22H10.53c.69-22.3,19.04-40.22,41.5-40.22ZM101.46,56.72c0,1.29-1.05,2.34-2.34,2.34H4.95c-1.29,0-2.34-1.05-2.34-2.34v-1.47c0-1.29,1.05-2.34,2.34-2.34h94.17c1.29,0,2.34,1.05,2.34,2.34v1.47Z"/>
      </g>
      <path class="cls-1" d="M88.35,80.75c-.32-1.29-1.16-2.37-2.37-3.06-1.57-.89-3.6-1.06-5.57-.45-.03,0-.05.02-.08.03l-19.7,7.46-16.89-4.41c-.08-.24-.18-.59-.25-.95h12.84c3.19,0,5.79-2.6,5.79-5.79s-2.6-5.79-5.79-5.79h-19.44c-.19,0-.39.04-.56.13l-9.87,4.73v-.62c0-.72-.58-1.3-1.3-1.3h-13.48c-.72,0-1.3.58-1.3,1.3v25.89c0,.72.58,1.3,1.3,1.3h13.48c.72,0,1.3-.58,1.3-1.3v-2.33l4.59-2.29,26.53,5.78c.92.22,1.86.33,2.8.33,1.7,0,3.4-.35,4.96-1.05.02-.01.05-.02.07-.03l19.1-9.92c3.07-1.39,4.72-4.67,3.85-7.67ZM23.86,96.62h-10.88v-23.29h10.88v23.29ZM83.4,86.06s-.05.02-.07.03l-19.09,9.91c-1.89.84-4.04,1.03-6.08.55l-27-5.89c-.09-.02-.18-.03-.28-.03-.2,0-.4.05-.58.14l-3.83,1.91v-17.15l10.72-5.15h19.14c1.76,0,3.19,1.43,3.19,3.19s-1.43,3.19-3.19,3.19h-13.04c-1.35,0-2.46,1.1-2.46,2.46,0,.07,0,.14.02.21.47,2.91,1.34,3.17,1.79,3.29l17.73,4.63c.26.07.54.05.79-.04l20.04-7.59c1.26-.38,2.55-.29,3.48.24.6.34.98.83,1.13,1.44,0,.02.01.04.02.06.45,1.52-.34,3.66-2.44,4.59Z"/>
    </g>
  </g>
</svg>