<?xml version="1.0" encoding="UTF-8"?>
<svg id="_レイヤー_2" data-name="レイヤー_2" xmlns="http://www.w3.org/2000/svg" viewBox="0 0 67.7 67.71">
  <defs>
    <style>
      .cls-1 {
        fill: #fff;
      }

      .cls-2 {
        fill: #44af35;
      }
    </style>
  </defs>
  <g id="_レイヤー_1-2" data-name="レイヤー_1">
    <g>
      <path class="cls-2" d="M55.46.06L12.34,0C5.57,0,.07,5.47.06,12.25L0,55.37c0,6.77,5.47,12.27,12.25,12.28l43.12.06c6.77,0,12.27-5.47,12.28-12.25l.06-43.12c0-6.77-5.47-12.27-12.24-12.28Z"/>
      <path class="cls-1" d="M58.51,30.88c0-11.03-11.06-20-24.65-20S9.21,19.85,9.21,30.88c0,9.89,8.77,18.17,20.62,19.74.8.17,1.89.53,2.17,1.22.25.62.16,1.6.08,2.23,0,0-.29,1.74-.35,2.11-.11.62-.5,2.44,2.14,1.33,2.63-1.11,14.2-8.36,19.37-14.31h0c3.57-3.92,5.28-7.89,5.28-12.31ZM24.21,37.44h-4.9c-.71,0-1.29-.58-1.29-1.29v-9.8c0-.71.58-1.29,1.29-1.29s1.29.58,1.29,1.29v8.5h3.61c.71,0,1.29.58,1.29,1.29s-.58,1.29-1.29,1.29ZM29.28,36.15c0,.71-.58,1.29-1.29,1.29s-1.29-.58-1.29-1.29v-9.8c0-.71.58-1.29,1.29-1.29s1.29.58,1.29,1.29v9.8ZM41.07,36.15c0,.56-.35,1.05-.88,1.23-.13.04-.27.07-.41.07-.4,0-.79-.19-1.03-.52l-5.02-6.84v6.06c0,.71-.58,1.29-1.29,1.29s-1.29-.58-1.29-1.29v-9.8c0-.56.36-1.05.88-1.23.13-.04.27-.07.41-.07.4,0,.79.19,1.03.52l5.02,6.84v-6.06c0-.71.58-1.29,1.29-1.29s1.29.58,1.29,1.29v9.8ZM48.99,29.96c.71,0,1.29.58,1.29,1.29s-.58,1.29-1.29,1.29h-3.6v2.31h3.6c.71,0,1.29.58,1.29,1.29s-.58,1.29-1.29,1.29h-4.9c-.71,0-1.29-.58-1.29-1.29v-4.89h0v-4.9h0c0-.72.58-1.3,1.29-1.3h4.9c.71,0,1.29.58,1.29,1.29s-.58,1.29-1.29,1.29h-3.6v2.31h3.6Z"/>
    </g>
  </g>
</svg>