<?xml version="1.0" encoding="UTF-8"?>
<svg id="_レイヤー_2" data-name="レイヤー_2" xmlns="http://www.w3.org/2000/svg" viewBox="0 0 301 301">
  <defs>
    <style>
      .cls-1 {
        fill: #fff;
      }

      .cls-2 {
        fill: #c9974e;
        opacity: .9;
      }

      .cls-3 {
        fill: #44af35;
      }
    </style>
  </defs>
  <g id="_レイヤー_1-2" data-name="レイヤー_1">
    <g>
      <g>
        <circle class="cls-2" cx="150.5" cy="150.5" r="150.5"/>
        <g>
          <path class="cls-1" d="M45.48,121.04c-.44,0-.81-.03-1.25-.07-2.46-.17-3.77-.81-5.25-2.89-1.25-1.72-2.46-3.84-3.53-5.55-.67-1.08-1.11-1.28-2.83-1.28h-1.18v5.28c0,2.86.37,3.03,3.06,3.3v.94h-8.98v-.94c2.79-.3,3.03-.44,3.03-3.3v-13.42c0-2.86-.37-2.96-3.03-3.26v-.94h8.58c2.46,0,4.1.3,5.38,1.14,1.38.88,2.29,2.39,2.29,4.44,0,2.89-1.85,4.71-4.34,5.79.61,1.04,2.05,3.3,3.06,4.81,1.25,1.78,1.88,2.62,2.66,3.47.91.98,1.68,1.35,2.46,1.55l-.13.94ZM33.06,110.1c1.75,0,2.86-.27,3.7-.98,1.31-.98,1.85-2.32,1.85-4.14,0-3.6-2.39-4.91-4.98-4.91-.98,0-1.55.13-1.78.34-.3.24-.4.57-.4,1.45v8.24h1.62Z"/>
          <path class="cls-1" d="M66.98,115.42c-.2.87-1.11,4.34-1.45,5.35h-16.35v-.94c3.13-.24,3.36-.54,3.36-3.3v-13.29c0-2.99-.37-3.16-2.89-3.4v-.94h10.3c3.16,0,4.47-.03,4.88-.07.03.84.17,3.36.3,5.15l-1.01.17c-.3-1.14-.64-1.85-1.01-2.56-.54-1.11-1.31-1.35-3.33-1.35h-3.2c-1.04,0-1.11.1-1.11,1.08v7.44h3.73c2.52,0,2.69-.5,3.1-2.79h1.04v6.93h-1.04c-.44-2.42-.71-2.76-3.13-2.76h-3.7v6.7c0,2.36.74,2.56,2.42,2.59h3.13c2.05,0,2.39-.3,3.13-1.18.64-.71,1.35-2.09,1.82-3.1l1.01.27Z"/>
          <path class="cls-1" d="M84.37,104.01c-.57-2.22-1.51-4.41-4.68-4.41-2.62,0-3.53,1.92-3.53,3.67,0,2.32,1.48,3.5,4.27,4.95,4.04,2.09,5.79,3.63,5.79,6.83,0,3.53-3.06,6.22-7.4,6.22-2.02,0-3.77-.57-5.15-1.11-.27-.94-.67-3.23-.91-5.05l1.04-.27c.67,2.25,2.15,5.18,5.65,5.18,2.42,0,3.9-1.68,3.9-3.87,0-2.59-1.38-3.63-4.34-5.25-3.53-1.92-5.52-3.53-5.52-6.66s2.49-5.82,6.93-5.82c1.88,0,3.73.5,4.44.64.13,1.21.27,2.56.54,4.74l-1.04.2Z"/>
          <path class="cls-1" d="M110.08,115.42c-.2.87-1.11,4.34-1.45,5.35h-16.35v-.94c3.13-.24,3.36-.54,3.36-3.3v-13.29c0-2.99-.37-3.16-2.89-3.4v-.94h10.3c3.16,0,4.47-.03,4.88-.07.03.84.17,3.36.3,5.15l-1.01.17c-.3-1.14-.64-1.85-1.01-2.56-.54-1.11-1.31-1.35-3.33-1.35h-3.2c-1.04,0-1.11.1-1.11,1.08v7.44h3.73c2.52,0,2.69-.5,3.1-2.79h1.04v6.93h-1.04c-.44-2.42-.71-2.76-3.13-2.76h-3.7v6.7c0,2.36.74,2.56,2.42,2.59h3.13c2.05,0,2.39-.3,3.13-1.18.64-.71,1.35-2.09,1.82-3.1l1.01.27Z"/>
          <path class="cls-1" d="M135.75,121.04c-.44,0-.81-.03-1.25-.07-2.46-.17-3.77-.81-5.25-2.89-1.25-1.72-2.46-3.84-3.53-5.55-.67-1.08-1.11-1.28-2.83-1.28h-1.18v5.28c0,2.86.37,3.03,3.06,3.3v.94h-8.98v-.94c2.79-.3,3.03-.44,3.03-3.3v-13.42c0-2.86-.37-2.96-3.03-3.26v-.94h8.58c2.46,0,4.1.3,5.38,1.14,1.38.88,2.29,2.39,2.29,4.44,0,2.89-1.85,4.71-4.34,5.79.61,1.04,2.05,3.3,3.06,4.81,1.25,1.78,1.88,2.62,2.66,3.47.91.98,1.68,1.35,2.46,1.55l-.13.94ZM123.33,110.1c1.75,0,2.86-.27,3.7-.98,1.31-.98,1.85-2.32,1.85-4.14,0-3.6-2.39-4.91-4.98-4.91-.98,0-1.55.13-1.78.34-.3.24-.4.57-.4,1.45v8.24h1.62Z"/>
          <path class="cls-1" d="M160.34,99.84c-2.25.3-2.83.61-4.04,3.63-.91,2.22-5.55,13.49-7.2,17.66h-1.11c-1.99-5.42-4.88-13.29-6.8-18.27-.94-2.49-1.51-2.83-3.57-3.03v-.94h8.55v.94c-2.49.27-2.62.67-2.15,1.92.84,2.46,3.3,9.15,5.42,14.74,1.78-4.34,4-9.82,5.59-14.06.74-1.95.34-2.25-2.42-2.59v-.94h7.74v.94Z"/>
          <path class="cls-1" d="M175.38,120.77v-.94c2.19-.27,2.46-.61,1.99-1.88-.44-1.31-1.11-2.99-1.82-5.11h-7.27c-.54,1.51-1.04,2.83-1.51,4.21-.74,2.19-.27,2.46,2.49,2.79v.94h-7.77v-.94c2.12-.27,2.66-.5,3.84-3.53l6.96-17.66,1.08-.2c2.12,5.75,4.44,12.11,6.56,17.93,1.08,2.93,1.38,3.2,3.77,3.47v.94h-8.31ZM172.02,102.83c-1.08,2.89-2.22,5.96-3.23,8.61h6.29l-3.06-8.61Z"/>
          <path class="cls-1" d="M205.63,104.18c-.3-1.08-.71-2.19-1.08-2.79-.54-.91-.88-1.14-2.73-1.14h-3.36v16.39c0,2.62.27,2.99,3.46,3.2v.94h-9.79v-.94c3.13-.2,3.4-.54,3.4-3.2v-16.39h-3.06c-1.85,0-2.39.2-2.96,1.21-.4.67-.67,1.48-1.11,2.73h-1.01c.2-2.05.4-4.17.5-6.06h.77c.5.81.88.77,1.82.77h13.32c.94,0,1.21-.13,1.72-.77h.81c0,1.58.13,4,.3,5.96l-1.01.1Z"/>
          <path class="cls-1" d="M212.56,120.77v-.94c2.76-.3,3.03-.44,3.03-3.3v-13.36c0-2.89-.27-3.03-3.03-3.33v-.94h9.02v.94c-2.79.3-3.06.44-3.06,3.33v13.36c0,2.89.27,2.99,3.06,3.3v.94h-9.02Z"/>
          <path class="cls-1" d="M239.34,98.43c5.75,0,10.9,4.41,10.9,11.1,0,7.23-4.91,11.74-11.1,11.74s-11.17-4.91-11.17-11.24,4.27-11.61,11.37-11.61ZM238.67,99.67c-3.77,0-7.2,3.16-7.2,9.45s3.43,10.87,8.21,10.87c4.07,0,7.13-3.03,7.13-9.52,0-7.07-3.74-10.8-8.14-10.8Z"/>
          <path class="cls-1" d="M279.95,99.84c-2.15.24-2.86.57-2.96,2.12-.03,1.08-.1,2.49-.1,5.62v13.49h-1.28l-14.4-17.6v8.41c0,3.03.1,4.54.17,5.52.07,1.72.91,2.22,3.33,2.42v.94h-8.18v-.94c2.09-.17,2.89-.67,3.03-2.32.1-1.08.17-2.59.17-5.65v-8.58c0-.94-.07-1.48-.67-2.22-.64-.84-1.35-1.04-2.99-1.21v-.94h5.05l14.27,16.92v-8.24c0-3.13-.07-4.58-.17-5.58-.1-1.51-.88-1.99-3.57-2.15v-.94h8.31v.94Z"/>
        </g>
        <g>
          <path class="cls-3" d="M169.5,18.59l-43.12-.06c-6.77,0-12.27,5.47-12.28,12.25l-.06,43.12c0,6.77,5.47,12.27,12.25,12.28l43.12.06c6.77,0,12.27-5.47,12.28-12.25l.06-43.12c0-6.77-5.47-12.27-12.24-12.28Z"/>
          <path class="cls-1" d="M172.56,49.41c0-11.03-11.06-20-24.65-20s-24.65,8.97-24.65,20c0,9.89,8.77,18.17,20.62,19.74.8.17,1.89.53,2.17,1.22.25.62.16,1.6.08,2.23,0,0-.29,1.74-.35,2.11-.11.62-.5,2.44,2.14,1.33,2.63-1.11,14.2-8.36,19.37-14.31h0c3.57-3.92,5.28-7.89,5.28-12.31ZM138.26,55.97h-4.9c-.71,0-1.29-.58-1.29-1.29v-9.8c0-.71.58-1.29,1.29-1.29s1.29.58,1.29,1.29v8.5h3.61c.71,0,1.29.58,1.29,1.29s-.58,1.29-1.29,1.29ZM143.32,54.68c0,.71-.58,1.29-1.29,1.29s-1.29-.58-1.29-1.29v-9.8c0-.71.58-1.29,1.29-1.29s1.29.58,1.29,1.29v9.8ZM155.11,54.68c0,.56-.35,1.05-.88,1.23-.13.04-.27.07-.41.07-.4,0-.79-.19-1.03-.52l-5.02-6.84v6.06c0,.71-.58,1.29-1.29,1.29s-1.29-.58-1.29-1.29v-9.8c0-.56.36-1.05.88-1.23.13-.04.27-.07.41-.07.4,0,.79.19,1.03.52l5.02,6.84v-6.06c0-.71.58-1.29,1.29-1.29s1.29.58,1.29,1.29v9.8ZM163.04,48.49c.71,0,1.29.58,1.29,1.29s-.58,1.29-1.29,1.29h-3.6v2.31h3.6c.71,0,1.29.58,1.29,1.29s-.58,1.29-1.29,1.29h-4.9c-.71,0-1.29-.58-1.29-1.29v-4.89h0v-4.9h0c0-.72.58-1.3,1.29-1.3h4.9c.71,0,1.29.58,1.29,1.29s-.58,1.29-1.29,1.29h-3.6v2.31h3.6Z"/>
        </g>
        <g>
          <path class="cls-1" d="M101.27,272.78c0-32.78,0-65.55,0-98.33,32.78,0,65.55,0,98.33,0,0,32.78,0,65.55,0,98.33-32.78,0-65.55,0-98.33,0ZM179.93,259.67c.73,0,1.46,0,2.19,0v4.35h8.72v-4.35h-2.17v-2.18h2.17v-2.18h-2.17v-2.21h2.17v-2.18h-2.18v-2.19h-2.18v-2.19h-4.37v-2.18h-6.56v-4.37h-2.18v-2.17h-2.18c0-1.46,0-2.92,0-4.38h2.21v2.17c.75,0,1.47,0,2.18,0v2.2h4.36v2.19c.89,0,1.73,0,2.58,0,1.33,0,2.65-.01,3.98-.02,0,.74,0,1.47,0,2.21h-2.17v2.16h2.16v-2.17h4.35v-2.19h-4.34v-2.19h2.17c0-.75,0-1.46,0-2.17h2.17v-6.53h-2.16v6.54h-2.2v-4.39h-2.18v-2.15h-2.15v6.54h2.13v2.18c-1.47,0-2.91,0-4.35,0v-2.2h-4.36v-4.34h2.19v2.14h2.19v-6.53h6.56v-2.2h4.34v-2.18h-4.37v-4.34h-2.18v2.17h-2.18v-4.39h4.36v-2.17h-6.55v-2.18h-2.18v-4.38h-4.38v-2.17c-.75,0-1.46,0-2.18,0v-2.19h-2.19v-2.2h2.19v-2.18h2.17v-2.18h-2.17v-6.54h-4.38v2.17c-.75,0-1.46,0-2.18,0v-4.39h2.17v-4.33h-4.36v4.37h-4.34v2.18h2.17v6.55h-2.21v2.16h-2.18v-2.16c-.75,0-1.47,0-2.18,0,0-1.46,0-2.92,0-4.38.73,0,1.46,0,2.19,0v2.17h2.16v-2.16h-2.17v-4.39h-2.19v-4.33h-2.17v6.54h-2.2v-2.2h-2.18c0-.75,0-1.46,0-2.18h2.17v-2.16h-2.16v2.17h-2.2v2.19h-6.54v2.19h-4.36c0,.75,0,1.47,0,2.18h-2.16v-4.39h2.14v-4.33h-4.37v8.73h-2.14v2.17c2.19,0,4.37,0,6.54,0,0,.73,0,1.46,0,2.2h-2.19v2.19h-2.2v-2.17h-2.17v4.36h-4.37v2.18h0c-1.46,0-2.92,0-4.38,0v-2.17h-4.36v4.35h-2.2v4.38h-2.15v8.74h2.14v2.19h-2.13v4.35h2.17c0,.73,0,1.46,0,2.2h-2.17v6.55h2.17c0,2.92,0,5.83,0,8.75h-2.17v2.16h2.16v-2.17h2.2v4.35h4.35c0-1.47,0-2.91,0-4.35.73,0,1.46,0,2.2,0v2.19h2.19v2.2h4.36v4.36h2.2c0,1.46,0,2.92,0,4.38h-2.17v4.34h4.33v-2.17h-2.17v-2.18h2.2v-2.17h4.35v2.19h-2.15v4.34h2.17v-2.18h2.19v-2.18h2.15v-2.16c-1.47,0-2.92,0-4.36,0v-2.2c-2.21,0-4.38,0-6.54,0v-4.36c-.75,0-1.48,0-2.2,0v-2.2c-1.48,0-2.92,0-4.36,0,0-.73,0-1.46,0-2.2h2.19v-2.19h2.2v-4.37c2.21,0,4.38,0,6.55,0v2.17h2.18v-2.17c1.46,0,2.92,0,4.38,0v2.2h4.37v2.18h-6.56v2.19c-.73,0-1.46,0-2.2,0v-2.17h-2.15v2.16c.74,0,1.45,0,2.16,0,0,.73,0,1.46,0,2.2h-2.18c0,.75,0,1.47,0,2.18h-2.17v2.16h2.16v-2.17c.73,0,1.46,0,2.19,0v2.19h2.19v2.19h4.37v8.72h2.2v-2.14h2.18v2.17h2.18,0v4.34h2.2v-2.16h2.19v-4.37h2.18v4.39h4.38v2.15h4.35v-4.35h2.2v-2.15h2.18c0,1.47,0,2.91,0,4.35h-2.17v2.16h2.16v-2.17c.73,0,1.46,0,2.19,0v2.17h2.16v-2.16h-2.17v-2.2h4.38v-2.18h0c.72,0,1.44,0,2.2,0v-2.2h4.36c0,.73,0,1.46,0,2.2h-2.18c0,.75,0,1.47,0,2.18h-2.17v2.16h2.16v-2.17ZM186.49,209.42v-2.2h-2.17v-4.37h-2.2v-2.15h-2.19v2.13h-2.19v-2.14h-4.33v2.18h2.17v2.18h6.55c0,.75,0,1.47,0,2.18h-2.17v2.16h2.16v-2.17c.73,0,1.47,0,2.2-.01v2.2h2.18v2.17h4.34v-2.16c-1.47,0-2.91,0-4.35,0ZM110.03,198.47h15.25v-15.25h-15.25v15.25ZM190.84,198.48v-15.25h-15.25v15.25h15.25ZM110.04,248.76v15.25h15.25v-15.25h-15.25ZM190.84,205.03v-2.14h-4.33v2.14h4.33ZM190.84,213.81h-2.14v2.14h2.14v-2.14ZM129.69,242.17h2.15v-2.14h-2.15v2.14ZM171.22,185.4v2.14h2.14v-2.14h-2.14ZM160.24,185.37v-2.14h-2.14v2.14h2.14ZM134.07,261.87v2.15h2.14v-2.15h-2.14ZM142.76,264.03v-2.14h-2.14v2.14h2.14ZM147.14,264.03v-2.15h-2.14v2.15h2.14Z"/>
          <path d="M171.19,237.83h2.18v2.17h2.18v4.37h6.56v2.18h4.37v2.19h2.18v2.19h2.18v2.18h-2.17v2.21h.01c-1.46,0-2.92,0-4.38,0h0v-4.34h-2.19v4.35h0c-1.44-.01-2.88-.01-4.36-.01v2.2c-.76,0-1.48,0-2.2,0,0-.72,0-1.44,0-2.17h-2.16v2.16h2.17v2.18h-4.38v2.2h0c-.73,0-1.46-.01-2.19-.01h0v-4.34h-2.18v2.15h-2.2,0v-4.38h2.19v-2.18h2.15v-2.19h-2.17v-2.19h-2.19v-2.15h-4.36v4.35h0c-.72,0-1.45,0-2.2,0v-4.36h-8.73c0-.73,0-1.46,0-2.2h6.54v-2.2h-2.17v-2.18h-2.17v-2.18h0c1.45,0,2.9,0,4.39,0v-2.19h2.18v2.2h4.37c0,.75,0,1.46,0,2.18-1.45,0-2.9,0-4.35,0v2.19h2.16v2.15h2.18v-4.35h2.21v2.2h2.18v4.35c.75,0,1.47,0,2.18,0,0,.72,0,1.44,0,2.17h2.16v-2.16h-2.17v-2.2h2.16v-2.18h-2.14v-2.18h2.17v-2.18h0ZM179.92,246.59h-6.51v6.51h6.51v-6.51Z"/>
          <path d="M123.12,202.87v-2.18h4.37v-4.36h2.17v2.17h2.2,0c0,1.45,0,2.91.01,4.37-.72,0-1.45,0-2.17,0v4.34h2.16v-4.35h2.17v8.76h-4.35v8.73h0c-.73,0-1.46,0-2.19,0,0-.72,0-1.45,0-2.19h-2.19v-2.17h-2.18v2.17c-.73,0-1.46,0-2.19,0v-2.2h-2.19v-4.35h-2.18c0-.73,0-1.46,0-2.2h0c.72,0,1.44,0,2.2,0v-2.2c.75,0,1.46,0,2.18,0,0,2.18,0,4.36,0,6.53h4.35v-2.17h-2.14v-2.19h2.14v-2.17h-4.35v-2.2h-2.17v-2.18h0c1.46,0,2.92,0,4.38,0,0,.72,0,1.44,0,2.17h2.16v-2.16h-2.17Z"/>
          <path d="M118.75,242.19v4.35h-4.35v-4.35h-2.2,0c0-2.91,0-5.82,0-8.74h-.01c.73,0,1.46,0,2.2,0v4.35h2.19v-2.17h2.17c0-.75,0-1.47,0-2.18h2.17v-4.36h-2.17c0-1.46,0-2.92,0-4.38.73,0,1.46,0,2.2,0v2.17h4.36c0-.74,0-1.45,0-2.17h2.19v-2.19h2.19v-2.18h0c1.45,0,2.9,0,4.38,0v-4.38h0c.73,0,1.46,0,2.19,0v4.37h2.19v2.19h2.19v2.2h4.37v2.18h-6.56c0-.72,0-1.45,0-2.2h-2.2v-2.15h-4.33v2.18h2.17v2.18h-6.57v2.2h-4.34v2.18h2.16v2.18h0c-.72,0-1.45,0-2.19,0v2.19h0c-.72,0-1.45,0-2.18,0v2.19h-2.2v2.19h0c-.72,0-1.44,0-2.17,0v2.19h2.17-.01Z"/>
          <path d="M110.03,198.47v-15.25h15.25v15.25h-15.25ZM123.1,196.29v-10.88h-10.88v10.88h10.88Z"/>
          <path d="M190.84,198.48h-15.25v-15.25h15.25v15.25ZM188.65,196.29v-10.88h-10.88v10.88h10.88Z"/>
          <path d="M110.04,248.76h15.25v15.25h-15.25v-15.25ZM112.21,261.83h10.88v-10.88h-10.88v10.88Z"/>
          <path d="M149.35,259.68h-2.18v-2.17h-2.18v2.14h-2.2v-8.72h-.01c1.46,0,2.92,0,4.38,0v2.2h2.19v2.15h2.19v-4.34h2.18,0v2.19h2.19v4.36h0c-.71-.01-1.43-.01-2.18-.01v4.37h-2.19v2.16h-2.2c0-1.45,0-2.9,0-4.35.72,0,1.44,0,2.17,0v-2.16h-2.16v2.17Z"/>
          <path d="M182.11,220.35h2.18v-2.17h2.18v4.34h4.37v2.18h-4.34v2.2h-6.56v6.53h-2.19v-2.14h-2.19c0,1.44,0,2.89,0,4.34,0,0,0-.01,0-.01h-2.18v-2.17h-2.21,0v-2.2h2.19v-2.18h4.36v-4.37h0c.72,0,1.44,0,2.2,0v-2.21h2.18v-2.18h0Z"/>
          <path d="M147.15,185.38v2.18h2.18v2.2h2.2,0v2.18h0c-.72,0-1.45,0-2.19,0v4.38c-.73,0-1.46,0-2.19,0,0-.72,0-1.45,0-2.2h-8.74,0v-2.19h-4.38.01v-2.17h4.36v-2.19h6.54v-2.19h2.2,0ZM140.62,191.91h4.33v-2.14h-4.33v2.14Z"/>
          <path d="M171.19,205.05h2.18v2.17h4.38v4.38h.01c-.72,0-1.45,0-2.21,0v4.36h-2.18v-4.37h-10.93v-2.18h-2.17v-2.18h0c1.46,0,2.92,0,4.38,0v2.17h6.56v-4.35h0Z"/>
          <path d="M112.2,224.71h-2.17v-4.35h2.13v-2.19h-2.14v-8.74h2.15v-4.38h2.2,0v2.19h2.19v2.18h0c-.72,0-1.45,0-2.18,0,0,.76,0,1.48,0,2.19h-2.17v2.18h2.17v2.2h2.15v2.19h-2.16v4.37h-2.18v2.18h0Z"/>
          <path d="M171.19,198.49v2.18h-2.19v2.2h.01c-1.46,0-2.92,0-4.38,0,0-1.46,0-2.92,0-4.38.72,0,1.44,0,2.17,0v-4.38h-2.16v-2.18h0c.71.01,1.43.01,2.18.01v-2.17h4.38v6.54h.01c-.72,0-1.44,0-2.17,0v2.19h2.17-.01Z"/>
          <path d="M160.27,196.31v-6.55h-2.17v-2.18h4.34v-4.37h4.36v4.33h-2.17c0,1.49,0,2.94,0,4.39h0c-.72-.01-1.45-.01-2.19-.01v4.38c-.73,0-1.46,0-2.19,0h.01Z"/>
          <path d="M134.05,235.63h-6.55v4.37h-2.2,0v-2.18h-2.2c0-.73,0-1.46,0-2.19h0c.72,0,1.45,0,2.19,0v-2.19h0c.72,0,1.45,0,2.21,0v-2.2h2.18v-2.18h4.37c0,.73,0,1.46,0,2.19h-2.17v2.18h2.17c0,.73,0,1.46,0,2.2h0Z"/>
          <path d="M188.67,235.63v2.17h-2.17c0,.75,0,1.47,0,2.19,0,0,0-.01,0-.01-1.33,0-2.65.01-3.98.02-.85,0-1.7,0-2.58,0v-2.19h0c1.44,0,2.89,0,4.35,0v-2.18h-2.13v-6.54h2.15v2.15h2.18v4.39h2.2,0Z"/>
          <path d="M153.71,196.31h2.18v2.16h2.18v-2.16c.76,0,1.48,0,2.21,0h-.01c0,3.64,0,7.28,0,10.93h0c-.73,0-1.46,0-2.19,0,0-.72,0-1.45,0-2.21h-2.19v-4.36h-2.17v-4.37h0Z"/>
          <path d="M144.98,240.01v-2.18h-4.37v-2.2h-.01c2.91,0,5.82,0,8.74,0v-2.19h2.19v-2.19c.73,0,1.46,0,2.19,0v4.39h-2.2v2.18h0c-1.45,0-2.9,0-4.37,0v2.19c-.73,0-1.46,0-2.2,0h.01Z"/>
          <path d="M188.67,257.48v2.18h2.17v4.35h-8.72v-4.35h-.01c.73,0,1.46,0,2.19,0,0,.72,0,1.44,0,2.17h2.16v-2.16h-2.17c0-.73,0-1.46.01-2.19h0c1.46,0,2.92,0,4.38,0h-.01Z"/>
          <path d="M134.05,194.12h-6.54v-2.17h2.14v-8.73h4.37v4.33h-2.14v4.39c.72,0,1.44,0,2.16,0h-.01v2.19h0Z"/>
          <path d="M177.74,211.61h2.18v2.18h6.55v2.17h-4.36v4.39h0c-1.45-.01-2.9-.01-4.37-.01v-8.74h-.01Z"/>
          <path d="M184.32,207.21c-.73,0-1.47,0-2.2.01h0v-2.17h-6.55v-2.18h-2.17v-2.18h4.33v2.14h2.19v-2.13h2.19v2.15h2.2c0,1.47,0,2.92,0,4.37,0,0,0-.01,0-.01Z"/>
          <path d="M138.42,242.2v-2.19h6.56-.01v4.36h2.2v2.19h-2.2v2.18h-2.18,0v-4.37h-2.2v-2.18h-2.18.01Z"/>
          <path d="M164.63,259.67v4.35h-4.35v-2.15h-4.38v-4.39h0c.73.01,1.46.01,2.19.01h0v2.18h6.57,0Z"/>
          <path d="M171.19,233.45c0,1.46,0,2.92,0,4.38h0c-.72-.01-1.44-.01-2.2-.01v-2.2h-6.55v-2.17h4.37v-4.37h2.2v4.38h2.18,0Z"/>
          <path d="M151.53,189.76v-6.54h2.17v4.33h2.19v4.39h0c-.73,0-1.46,0-2.19,0h0v-2.18h-2.19,0Z"/>
          <path d="M136.22,253.14h4.36v2.16h-2.15v2.18h-2.19v2.18h-2.17v-4.34h2.15c0-.75,0-1.47,0-2.19,0,0,0,.01,0,.01Z"/>
          <path d="M129.68,255.31c0-1.46,0-2.92,0-4.38h0c2.17,0,4.34,0,6.54,0,0,.74,0,1.47,0,2.2,0,0,0-.01,0-.01-1.44,0-2.88,0-4.35,0v2.17h-2.2,0Z"/>
          <path d="M112.2,233.45h-2.17v-6.55h2.17,0v2.17h2.19c0,.73,0,1.46,0,2.2h-2.19v2.18h.01Z"/>
          <path d="M129.67,255.3v2.18h2.17v2.17h-4.33v-4.34c.72,0,1.44,0,2.17,0,0,0,0,0,0,0Z"/>
          <path d="M134.05,196.31c0-.73,0-1.46,0-2.2h0c1.46.01,2.92.01,4.38.01h0c0,1.45,0,2.91,0,4.37-.73,0-1.46,0-2.19,0,0-.72,0-1.45,0-2.2h-2.19.01Z"/>
          <path d="M188.68,235.64v-6.54h2.16v6.53c-.72,0-1.44,0-2.17,0,0,0,0,0,0,0Z"/>
          <path d="M114.39,205.05v-4.35h4.36c0,.72,0,1.44,0,2.17h0c-.72-.01-1.44-.01-2.2-.01v2.19h-2.18,0Z"/>
          <path d="M140.61,235.63c-1.46,0-2.92,0-4.38,0h0c0-.72,0-1.45,0-2.18,1.46,0,2.92,0,4.38.01h0c0,.72,0,1.45,0,2.18h.01Z"/>
          <path d="M179.94,237.82h-4.36c0-.74,0-1.47,0-2.2,0,0,0,.01,0,.01,1.44,0,2.88,0,4.36,0,0,.75,0,1.48,0,2.2,0,0,0,0,0,0Z"/>
          <path d="M129.68,250.93h-2.2c0-1.46,0-2.91,0-4.36,0,0,0,.01,0,.01h2.2c0,1.46,0,2.91,0,4.36,0,0,0,0,0,0Z"/>
          <path d="M123.12,244.38h4.36c0,.74,0,1.47,0,2.2,0,0,0-.01,0-.01-1.44,0-2.88,0-4.36,0v-2.2h0Z"/>
          <path d="M190.84,205.03h-4.33v-2.14h4.33v2.14Z"/>
          <path d="M153.71,191.93c0,1.46,0,2.92,0,4.38h0c-.73,0-1.46,0-2.19,0,0-1.46,0-2.92,0-4.38h0c.73,0,1.46,0,2.19,0h0Z"/>
          <path d="M186.49,209.42h4.35v2.16h-4.34v-2.17h0Z"/>
          <path d="M186.5,242.2c0-.74,0-1.47,0-2.21,0,0,0,.01,0,.01,1.44,0,2.88,0,4.34,0v2.19h-4.35,0Z"/>
          <path d="M142.79,250.93h-4.37v-2.19h-.01c1.46,0,2.92,0,4.38,0h0v2.19h.01Z"/>
          <path d="M171.19,261.86h2.17v2.16h-2.16c0-.72,0-1.45,0-2.17,0,0,0,0,0,0Z"/>
          <path d="M190.84,213.81v2.14h-2.14v-2.14h2.14Z"/>
          <path d="M136.23,235.63v2.17h-2.18c0-.72,0-1.44,0-2.17h0c.73.01,1.46.01,2.19.01h0Z"/>
          <path d="M120.94,242.19c-.73,0-1.46,0-2.2,0h.01c0-.72,0-1.45,0-2.19h0c.73,0,1.46,0,2.19,0,0,.73,0,1.46,0,2.2h0Z"/>
          <path d="M125.3,240v2.19h-2.19,0c0-.72,0-1.45,0-2.18.73,0,1.46,0,2.19,0h0Z"/>
          <path d="M129.69,242.17v-2.14h2.15v2.14h-2.15Z"/>
          <path d="M136.24,242.19h-2.16v-2.16h2.15v2.17h0Z"/>
          <path d="M186.5,209.41h-2.18c0-.74,0-1.47,0-2.2,0,0,0,.01,0,.01.71,0,1.43,0,2.17,0,0,.76,0,1.48,0,2.2,0,0,0,0,0,0Z"/>
          <path d="M182.12,207.23v2.17h-2.16v-2.16c.72,0,1.45,0,2.17,0,0,0,0,0,0,0Z"/>
          <path d="M112.19,242.19v2.17h-2.16v-2.16c.72,0,1.45,0,2.17,0,0,0,0,0,0,0Z"/>
          <path d="M123.13,244.37h-2.19v-2.19h0c.73.01,1.46.01,2.19.01h0c0,.72,0,1.45,0,2.19,0,0,0,0,0,0Z"/>
          <path d="M136.23,242.2c.73,0,1.46,0,2.2,0h-.01v2.18h-2.19.01c0-.72,0-1.45,0-2.19,0,0,0,0,0,0Z"/>
          <path d="M186.49,242.19v2.17h-2.16v-2.16c.72,0,1.45,0,2.17,0,0,0,0,0,0,0Z"/>
          <path d="M169,202.87h2.19v2.19h0c-.73,0-1.46,0-2.19,0,0-.73,0-1.46,0-2.2h-.01Z"/>
          <path d="M136.24,246.56c-.73,0-1.46,0-2.19,0h0v-2.17h2.18-.01c0,.72,0,1.45,0,2.19h0Z"/>
          <path d="M134.04,246.56v2.17h-2.16v-2.16c.72,0,1.45,0,2.17,0,0,0,0,0,0,0Z"/>
          <path d="M138.42,248.74h-2.19v-2.19h0c.72.01,1.45.01,2.19.01v2.19h.01Z"/>
          <path d="M171.19,196.31h2.17v2.18h-2.17.01c0-.72,0-1.45,0-2.19h-.01Z"/>
          <path d="M131.87,198.5v-2.19c.74,0,1.46,0,2.19,0h-.01c0,.72,0,1.45,0,2.19-.73,0-1.46,0-2.19,0h0Z"/>
          <path d="M155.89,191.94h2.17v2.16h-2.16c0-.72,0-1.45,0-2.17,0,0,0,0,0,0Z"/>
          <path d="M182.12,257.49c0-.73,0-1.46,0-2.2h0c.73.01,1.46.01,2.19.01h0c0,.72,0,1.45,0,2.19h0c-.73,0-1.46,0-2.19,0h.01Z"/>
          <path d="M188.67,255.31h2.17v2.18h-2.17.01v-2.19h-.01Z"/>
          <path d="M171.22,185.4h2.14v2.14h-2.14v-2.14Z"/>
          <path d="M179.94,259.68v-2.18h2.18-.01v2.19h.01c-.73,0-1.46-.01-2.19-.01h0Z"/>
          <path d="M160.24,185.37h-2.14v-2.14h2.14v2.14Z"/>
          <path d="M179.93,259.67v2.17h-2.16v-2.16c.72,0,1.45,0,2.17,0,0,0,0,0,0,0Z"/>
          <path d="M147.16,185.39v-2.17h2.16v2.16c-.72,0-1.45,0-2.17,0,0,0,0,0,0,0Z"/>
          <path d="M134.07,261.87h2.14v2.15h-2.14v-2.15Z"/>
          <path d="M142.76,264.03h-2.14v-2.14h2.14v2.14Z"/>
          <path d="M147.14,264.03h-2.14v-2.15h2.14v2.15Z"/>
          <path d="M169,261.85v2.17h-2.16v-2.16c.72,0,1.45,0,2.17,0,0,0,0,0,0,0Z"/>
          <path d="M112.2,226.9c0-.73,0-1.46,0-2.2h0c.72.01,1.45.01,2.2.01,0,.76,0,1.47,0,2.18-.73,0-1.46,0-2.2,0h0Z"/>
          <path class="cls-1" d="M158.09,257.49c-.73,0-1.46,0-2.19,0v-4.36h-2.19c0-.76,0-1.48,0-2.2.72,0,1.44,0,2.17,0v-2.16h-2.16v2.17h-2.18v4.34h-2.19v-2.15h-2.19v-2.2h0c.72,0,1.45,0,2.19,0v-4.38h0c2.9,0,5.8,0,8.73,0v4.36h2.2c0,.72,0,1.44,0,2.17h2.16v-2.16h-2.17v-4.35h4.36v2.15h2.19v2.19h2.17v2.19h-2.15v2.18h-2.19v4.39h-6.57c0-.75,0-1.47,0-2.19.72,0,1.44,0,2.17,0v-2.16h-2.16v2.17Z"/>
          <path class="cls-1" d="M162.45,233.45v2.17h6.55v2.2h2.2v2.18h-2.17v2.18h2.14v2.18h-2.16v2.2h0c-.71,0-1.43,0-2.18,0v-4.35h-2.18v-2.2h-2.21,0v-2.17h-4.37v-2.2h0c.72,0,1.44,0,2.2,0v-2.19h2.18,0Z"/>
          <path class="cls-1" d="M179.92,246.59v6.51h-6.51v-6.51h6.51ZM177.72,250.92v-2.15h-2.14v2.15h2.14Z"/>
          <path class="cls-1" d="M147.16,240.01v-2.19h4.37v2.18h2.17v2.18h2.17v2.2h-6.54,0v-4.37h-2.19,0Z"/>
          <path class="cls-1" d="M151.52,237.83v-2.18h2.2v-4.39h0c.73,0,1.46,0,2.19,0h0v2.19h2.19v2.18h0c-.71,0-1.43,0-2.18,0v2.19h-4.39Z"/>
          <path class="cls-1" d="M162.45,240v4.35h-2.18v-2.15h-2.16v-2.19c1.45,0,2.9,0,4.35,0,0,0,0,0,0,0Z"/>
          <path class="cls-1" d="M184.31,255.31c-.73,0-1.46,0-2.19,0v-4.35h2.19v4.35Z"/>
          <path class="cls-1" d="M188.68,255.3v2.19c-1.46,0-2.92,0-4.38,0,0-.73,0-1.46,0-2.19h4.38Z"/>
          <path class="cls-1" d="M147.16,246.57v-2.19h0c.73,0,1.46,0,2.19,0h0c0,.72,0,1.45,0,2.19h0c-.73,0-1.46,0-2.19,0h0Z"/>
          <path class="cls-1" d="M169,246.57h2.17v2.16h-2.16c0-.72,0-1.45,0-2.17,0,0,0,0,0,0Z"/>
          <path class="cls-1" d="M175.57,257.48h-2.17v-2.16h2.16c0,.72,0,1.45,0,2.17,0,0,0,0,0,0Z"/>
          <path class="cls-1" d="M131.86,198.49c.73,0,1.46,0,2.19,0h0v2.18h2.19,0v2.16h2.19v-2.17h0c.73,0,1.46,0,2.19,0h0c0,2.18,0,4.37.01,6.55-.72,0-1.44,0-2.17,0v2.16h2.16v-2.17h2.19v4.38c-.72,0-1.45,0-2.19,0v2.19h-2.2v-2.16h-2.18v4.35h0c-.73,0-1.46,0-2.19,0,0-.72,0-1.44,0-2.17h-2.16v2.16h2.17v4.38h-4.38c0-2.9,0-5.8,0-8.73h4.35v-8.76h-2.17,0c0-1.45,0-2.91-.01-4.37Z"/>
          <path class="cls-1" d="M114.39,226.9v-2.18h-2.2v-2.18h2.18v-4.37h2.16v-2.19h-2.15v-2.2h0c.72,0,1.45,0,2.19,0v-2.19h0c.71,0,1.43,0,2.18,0v4.35h2.19v2.2h0c-.72,0-1.45,0-2.21,0v2.2h-2.15v4.36h2.17,0c0,1.45,0,2.91,0,4.37h0c-.73,0-1.46,0-2.19,0h0v-2.19h-2.19,0Z"/>
          <path class="cls-1" d="M114.38,205.04h2.18v-2.19h2.2v2.18h2.17v2.2h0c-.71,0-1.43,0-2.18,0v2.2h-2.2v-2.18h-2.19v-2.2Z"/>
          <path class="cls-1" d="M120.93,207.24h4.35v2.17h-2.14v2.19h2.14v2.17h-4.35c0-2.18,0-4.36,0-6.53,0,0,0,0,0,0Z"/>
          <path class="cls-1" d="M120.93,218.16c.73,0,1.46,0,2.19,0h0v2.18h2.19,0c0,.72,0,1.45,0,2.19h0c-1.46,0-2.92,0-4.38,0h0c0-1.45,0-2.91,0-4.37h0Z"/>
          <path class="cls-1" d="M131.86,202.86v4.35h-2.16v-4.34c.72,0,1.45,0,2.17,0,0,0,0,0,0,0Z"/>
          <path class="cls-1" d="M129.68,220.34v2.18h-2.19,0c0-.72,0-1.45,0-2.18h0c.73,0,1.46,0,2.19,0Z"/>
          <path class="cls-1" d="M125.3,218.16h2.19c0,.74,0,1.46,0,2.19h0c-.73,0-1.46,0-2.19,0h0c0-.72,0-1.45,0-2.19h0Z"/>
          <path class="cls-1" d="M123.13,218.16v-2.17h2.18v2.17h0c-.73,0-1.46,0-2.19,0h0Z"/>
          <path class="cls-1" d="M114.39,211.61v-2.19h2.18c0,.73,0,1.46,0,2.2h0c-.73,0-1.46,0-2.19,0h0Z"/>
          <path class="cls-1" d="M123.12,202.87h2.17v2.16h-2.16c0-.72,0-1.45,0-2.17,0,0,0,0,0,0Z"/>
          <path class="cls-1" d="M140.61,233.46c-1.46,0-2.92,0-4.38-.01h0c0-.72,0-1.45,0-2.18h0c.72,0,1.45,0,2.19,0v-4.38h0c2.19,0,4.38,0,6.56,0h0v4.36h2.19c0,.72,0,1.45,0,2.2h2.19,0v2.19h-8.74c0-.73,0-1.46,0-2.19.72,0,1.45,0,2.17,0v-4.34h-2.16v4.35Z"/>
          <path class="cls-1" d="M144.98,226.9v-2.18h-4.37v-2.2h0c.72,0,1.44,0,2.17,0v-2.19h-2.17,0c0-.72,0-1.45,0-2.19h0c.72,0,1.45,0,2.18,0v-2.19c.73,0,1.46,0,2.2,0v4.39h2.16v6.54h-2.17,0Z"/>
          <path class="cls-1" d="M134.05,229.08h-4.37v2.18h-2.18v2.2h-2.21c0-.71,0-1.43,0-2.18h-2.16v-2.18h4.34v-2.2h6.57,0c0,.72,0,1.45,0,2.18h0Z"/>
          <path class="cls-1" d="M134.05,226.9v-2.18h-2.17v-2.18h4.33v2.15h2.2c0,.76,0,1.48,0,2.2h0c-1.46,0-2.92,0-4.38,0h0Z"/>
          <path class="cls-1" d="M118.75,233.45v2.18h-2.17v2.17h-2.19c0-1.45,0-2.9,0-4.35h0c1.46,0,2.92,0,4.38,0h0Z"/>
          <path class="cls-1" d="M138.42,220.34h-2.19v-4.37h0c1.46,0,2.92,0,4.38,0,0,.73,0,1.46,0,2.2h0c-.72,0-1.45,0-2.19,0v2.19h0Z"/>
          <path class="cls-1" d="M125.3,224.71v2.17h-4.36v-2.17h0c1.46,0,2.92,0,4.38,0h0Z"/>
          <path class="cls-1" d="M118.75,229.09h2.17v4.36h-2.17,0c0-1.45,0-2.91,0-4.37h0Z"/>
          <path class="cls-1" d="M127.49,222.52v2.19h-2.19,0c0-.72,0-1.45,0-2.19h0c.73,0,1.46,0,2.19,0h0Z"/>
          <path class="cls-1" d="M120.94,224.71c-.73,0-1.46,0-2.2,0h0v-2.18h2.19,0c0,.72,0,1.45,0,2.19h0Z"/>
          <path class="cls-1" d="M140.61,222.52h-2.19v-2.19h0c.73,0,1.46,0,2.19,0h0c0,.72,0,1.45,0,2.19h0Z"/>
          <path class="cls-1" d="M112.19,233.46v-2.18h2.19,0c0,.72,0,1.45,0,2.18h0c-.73,0-1.46,0-2.2,0Z"/>
          <path class="cls-1" d="M125.31,233.45v2.19h-2.19v-2.19h2.19Z"/>
          <path class="cls-1" d="M123.13,235.63c0,.73,0,1.46,0,2.19h0c-.73,0-1.46,0-2.19,0h0v-2.19h2.18Z"/>
          <path class="cls-1" d="M120.94,240c-.73,0-1.46,0-2.19,0v-2.19h2.2,0c0,.72,0,1.45,0,2.19h0Z"/>
          <path class="cls-1" d="M118.76,240c0,.73,0,1.46,0,2.19h-2.17v-2.19h2.17Z"/>
          <path class="cls-1" d="M123.1,196.29h-10.88v-10.88h10.88v10.88ZM120.92,187.59h-6.51v6.51h6.51v-6.51Z"/>
          <path class="cls-1" d="M188.65,196.29h-10.88v-10.88h10.88v10.88ZM186.46,194.11v-6.52h-6.51v6.52h6.51Z"/>
          <path class="cls-1" d="M112.21,261.83v-10.88h10.88v10.88h-10.88ZM114.41,253.13v6.51h6.51v-6.51h-6.51Z"/>
          <path class="cls-1" d="M142.78,250.94v-2.19h2.18v-2.18h2.2,0v4.37h0c-1.46,0-2.92,0-4.38,0Z"/>
          <path class="cls-1" d="M149.35,259.68v-2.17h2.16v2.16c-.72,0-1.45,0-2.17,0,0,0,0,0,0,0Z"/>
          <path class="cls-1" d="M171.2,233.46h-2.18v-4.38h-2.2,0v-2.2h-2.2v-2.15h-2.18v6.54h0c-2.19,0-4.38,0-6.56,0h0c0-1.45,0-2.91-.01-4.37.72,0,1.45,0,2.21,0v2.17h2.15v-6.53c-.74,0-1.45,0-2.17,0,0-.72,0-1.45,0-2.19h-2.19v-2.18c-1.48,0-2.93,0-4.37,0,0-.72,0-1.44,0-2.19.87,0,1.7,0,2.53,0,1.35,0,2.7-.01,4.05-.02,0,.73,0,1.46,0,2.2h2.18v2.19h4.37v2.16h4.37v-4.35h2.15v-2.19h-2.16v-2.15h-4.34v2.17h2.14v4.36c-.74,0-1.45,0-2.17,0,0-.72,0-1.45,0-2.19-1.48,0-2.93,0-4.37,0,0-.73,0-1.46,0-2.19.72,0,1.44,0,2.17,0v-2.16h-2.16v2.17c-.73,0-1.46,0-2.18-.01,0-2.91,0-5.82,0-8.74h0c.73,0,1.46,0,2.19,0v2.18h2.17v2.18h10.93v4.37h2.18v-4.36h2.21v8.74h4.37v2.18h-2.18v2.21c-.76,0-1.48,0-2.2,0,0-.72,0-1.44,0-2.2h-2.17v-2.15h-4.36v2.14c1.47,0,2.92,0,4.37,0,0,.73,0,1.46,0,2.2h2.18v4.37h-4.36v2.18h-2.19v2.21ZM173.36,224.73h-4.33v2.14h4.33v-2.14Z"/>
          <path class="cls-1" d="M151.52,196.31c.73,0,1.46,0,2.19,0v4.37h2.17v4.36h2.19c0,.76,0,1.48,0,2.21h0c-1.45,0-2.9,0-4.37,0v2.19c-.73,0-1.46,0-2.2,0v-8.75h-4.37,0c0-1.45,0-2.91,0-4.37h0c.73,0,1.46,0,2.19,0h0v2.16h2.19v-2.17h0Z"/>
          <path class="cls-1" d="M138.42,198.5c0-1.46,0-2.92,0-4.38h8.74c0,.75,0,1.47,0,2.2h0c-.72,0-1.45,0-2.17,0v4.38h2.17,0v2.19h-2.19v2.15h-2.19v-4.35h-2.18,0c0-.72,0-1.45-.01-2.18.72,0,1.44,0,2.17,0v-2.16h-2.16v2.17c-.73,0-1.46,0-2.19-.01h0Z"/>
          <path class="cls-1" d="M151.53,191.93c0,1.46,0,2.92,0,4.38h0c-.73,0-1.46,0-2.19,0h0c0-1.43,0-2.88,0-4.37h2.19Z"/>
          <path class="cls-1" d="M138.42,194.13c-1.46,0-2.92,0-4.38,0,0-.73,0-1.46,0-2.19h4.38v2.19Z"/>
          <path class="cls-1" d="M140.62,191.91v-2.14h4.33v2.14h-4.33Z"/>
          <path class="cls-1" d="M153.72,191.94h-2.19v-2.19h2.19v2.19Z"/>
          <path class="cls-1" d="M160.26,207.24c0-3.64,0-7.29,0-10.93.73,0,1.46,0,2.19,0h0v2.18h2.19,0c0,1.45,0,2.91,0,4.37h0c-.72,0-1.44,0-2.17,0v2.19h2.17,0c0,.72,0,1.45,0,2.19h0c-1.46,0-2.92,0-4.38,0Z"/>
          <path class="cls-1" d="M169,205.05c.73,0,1.46,0,2.19,0v4.35h-6.56v-2.17h0c1.45,0,2.9,0,4.38,0v-2.19h0Z"/>
          <path class="cls-1" d="M114.39,213.78h-2.17v-2.18h2.17,0c0,.72,0,1.45,0,2.19h0Z"/>
          <path class="cls-1" d="M162.46,196.31v-4.38h2.19v2.18h2.16v4.38c-.72,0-1.45,0-2.17,0h0v-2.19h-2.19,0Z"/>
          <path class="cls-1" d="M169.01,202.86c0,.73,0,1.46,0,2.2h0c-1.46,0-2.92,0-4.38,0h0c0-.72,0-1.45,0-2.19h0c1.46,0,2.92,0,4.38,0Z"/>
          <path class="cls-1" d="M171.2,196.3c0,.73,0,1.46,0,2.19h-2.17v-2.19h2.17Z"/>
          <path class="cls-1" d="M134.05,231.27c0-.73,0-1.46,0-2.19h0c.72,0,1.45,0,2.19,0v2.19h0c-.73,0-1.46,0-2.19,0h0Z"/>
          <path class="cls-1" d="M134.05,233.45h-2.17v-2.18h2.17,0c0,.72,0,1.45,0,2.19h0Z"/>
          <path class="cls-1" d="M136.24,235.64h-2.19c0-.73,0-1.46,0-2.2h0c.73,0,1.46,0,2.19,0,0,0,0,0,0,0,0,.73,0,1.46,0,2.2Z"/>
          <path class="cls-1" d="M125.31,240.01c-.73,0-1.46,0-2.19,0h0c0-.72,0-1.45,0-2.18h0c.71,0,1.43,0,2.2,0v2.19Z"/>
          <path class="cls-1" d="M147.16,244.37h-2.2v-4.37c.73,0,1.46,0,2.2,0h0c0,1.45,0,2.91,0,4.37h0Z"/>
          <path class="cls-1" d="M153.72,231.26c-.73,0-1.46,0-2.19,0h0c0-.72,0-1.45,0-2.19h2.18v2.2h0Z"/>
          <path class="cls-1" d="M151.52,231.26v2.19h-2.19,0c0-.72,0-1.45-.01-2.19.73,0,1.46,0,2.2,0h0Z"/>
          <path class="cls-1" d="M182.11,259.68v-2.19h2.19c0,.73,0,1.46-.01,2.19h0c-.73,0-1.46,0-2.19,0Z"/>
          <path class="cls-1" d="M184.3,259.68h2.17v2.16h-2.16c0-.72,0-1.45,0-2.17,0,0,0,0,0,0Z"/>
          <path class="cls-1" d="M138.41,248.75v-2.19h-2.19c0-.73,0-1.46,0-2.19h2.19v-2.19h2.18v2.18h2.2v4.38h-4.38Z"/>
          <path class="cls-1" d="M166.82,229.08v4.37h-4.37,0c0-.72,0-1.45,0-2.19h0c.72,0,1.44,0,2.2,0v-2.19h2.18,0Z"/>
          <path class="cls-1" d="M112.19,226.89c.73,0,1.46,0,2.2,0h0c0,.72,0,1.45,0,2.19h0c-.71,0-1.43,0-2.19,0v-2.18Z"/>
          <path class="cls-1" d="M114.39,231.27c0-.73,0-1.46,0-2.2h0c.73,0,1.46,0,2.19,0h0v2.18h-2.19,0Z"/>
          <path class="cls-1" d="M136.23,198.5c.73,0,1.46,0,2.19,0h0c0,.72,0,1.45,0,2.19h0c-.73,0-1.46,0-2.19,0h0c0-.72,0-1.45,0-2.19h0Z"/>
          <path class="cls-1" d="M134.05,198.5c0-.73,0-1.46,0-2.2h2.19c0,.75,0,1.47,0,2.2h0c-.73,0-1.46,0-2.19,0h0Z"/>
          <path class="cls-1" d="M123.13,242.2h-2.19c0-.73,0-1.46,0-2.2h0c.73,0,1.46,0,2.19,0h0c0,.72,0,1.45,0,2.19Z"/>
          <path d="M147.15,250.94v-4.38h2.19v4.38h-2.19Z"/>
          <path d="M153.72,250.94v-2.17h2.16v2.16c-.72,0-1.45,0-2.17,0,0,0,0,0,0,0Z"/>
          <path d="M160.26,250.94h2.17v2.16h-2.16c0-.72,0-1.45,0-2.17,0,0,0,0,0,0Z"/>
          <path d="M158.09,257.49v-2.17h2.16v2.16c-.72,0-1.45,0-2.17,0,0,0,0,0,0,0Z"/>
          <path d="M162.46,231.26c0,.73,0,1.46,0,2.19h-2.18v2.19h-2.2v-2.18h-2.19v-2.2h6.56Z"/>
          <path d="M177.72,250.92h-2.14v-2.15h2.14v2.15Z"/>
          <path d="M147.15,244.38c0-1.46,0-2.92,0-4.38h2.19v4.38h-2.19Z"/>
          <path d="M153.71,231.27v-2.2h-2.18,0v-2.16h-2.19v2.17h0c-.72,0-1.45,0-2.19,0v2.19h0c-.71-.01-1.43-.01-2.19-.01v-4.37h2.17v-6.54h-2.16v-4.39h-.01c.72,0,1.44,0,2.2,0v2.19h2.18,0v2.16h2.19v-2.17h0c1.44.01,2.89.01,4.37.01v2.18h.01c-.72,0-1.44,0-2.17,0v2.19h2.17,0c0,.72,0,1.45,0,2.19h0c-.72,0-1.44,0-2.17,0v2.19h2.17-.01c0,1.45,0,2.91.01,4.37h-2.19Z"/>
          <path d="M140.6,200.67h2.18v4.35h2.19v-2.15h2.19v-2.2h4.37v8.75h.01c-2.18,0-4.36,0-6.57,0v2.19h-2.18.01v-4.37h-2.19,0c0-2.18,0-4.37-.01-6.55Z"/>
          <path d="M140.61,215.97c-1.46,0-2.92,0-4.38.01v-4.35h2.18v2.16h2.2,0c0,.72,0,1.45,0,2.18,0,0,0-.01,0-.01Z"/>
          <path d="M134.05,215.97h-2.17v-2.16h2.16c0,.72,0,1.45,0,2.17,0,0,0,0,0,0Z"/>
          <path d="M140.61,213.79v-2.19c.74,0,1.46,0,2.19,0h-.01c0,.72,0,1.45,0,2.19h0c-.73,0-1.46,0-2.19,0h0Z"/>
          <path d="M140.6,207.23v2.17h-2.16v-2.16c.72,0,1.45,0,2.17,0,0,0,0,0,0,0Z"/>
          <path d="M136.23,200.67h2.19v2.17h-2.19v-2.17Z"/>
          <path d="M138.41,200.68c0-.73,0-1.46,0-2.19.73,0,1.46,0,2.19.01h0c0,.72,0,1.45.01,2.18h-2.19Z"/>
          <path d="M134.04,198.49h2.19c0,.73,0,1.46,0,2.19h-2.19v-2.19Z"/>
          <path d="M120.94,222.53h-2.19v2.19h-2.17v-4.36h2.15v-2.2h2.21c0,1.46,0,2.92,0,4.38Z"/>
          <path d="M114.38,231.26h2.19v-2.19h2.19c0,1.46,0,2.92,0,4.38h-4.38c0-.73,0-1.46,0-2.19Z"/>
          <path d="M116.57,229.09h-2.19c0-.73,0-1.46,0-2.19h2.19v2.19Z"/>
          <path d="M114.38,213.79c0-.73,0-1.46,0-2.19h2.19v2.19h-2.19Z"/>
          <path d="M120.93,224.72c0-.73,0-1.46,0-2.19h4.38c0,.73,0,1.46,0,2.19h-4.38Z"/>
          <path d="M127.5,222.53h-2.19c0-.73,0-1.46,0-2.19h2.19c0,.73,0,1.46,0,2.19Z"/>
          <path d="M123.12,218.15h2.19c0,.73,0,1.46,0,2.19h-2.19v-2.19Z"/>
          <path d="M136.23,231.27v-2.19h-2.19c0-.73,0-1.46,0-2.19h4.38v4.38h-2.19Z"/>
          <path d="M140.61,233.46v-4.35h2.16v4.34c-.72,0-1.45,0-2.17,0,0,0,0,0,0,0Z"/>
          <path d="M136.24,233.46h-2.19c0-.73,0-1.46,0-2.19h2.19c0,.73,0,1.46,0,2.19Z"/>
          <path d="M149.34,231.26c0,.73,0,1.46.01,2.19h-2.19c0-.75,0-1.47,0-2.2h0c.73.01,1.46.01,2.19.01h-.01Z"/>
          <path d="M140.6,222.53c0-.73,0-1.46,0-2.19h2.17v2.19h-2.17Z"/>
          <path d="M140.61,220.35h-2.19v-2.19h2.19c0,.73,0,1.46,0,2.19Z"/>
          <path d="M140.6,218.16c0-.73,0-1.46,0-2.2h0c.73.01,1.46.01,2.19.01h-.01v2.19h-2.18Z"/>
          <path d="M144.98,215.97c-.73,0-1.46,0-2.2,0h.01c0-.72,0-1.45,0-2.19h0c.72,0,1.45,0,2.19,0v2.19h.01Z"/>
          <path d="M123.13,240.01h-2.19c0-.73,0-1.46,0-2.19h2.19c0,.73,0,1.46,0,2.19Z"/>
          <path d="M120.92,187.59v6.51h-6.51v-6.51h6.51Z"/>
          <path d="M186.46,194.11h-6.51v-6.52h6.51v6.52Z"/>
          <path d="M114.41,253.13h6.51v6.51h-6.51v-6.51Z"/>
          <path d="M153.72,209.42v-2.19h4.37c0,2.91,0,5.82,0,8.74,0,0,0-.01,0-.01-1.35,0-2.7.01-4.05.02-.83,0-1.65,0-2.53,0,0,.75,0,1.47,0,2.19h0c-.73-.01-1.46-.01-2.19-.01h0v-4.37h6.53v-4.37h-2.17.01Z"/>
          <path d="M164.63,220.35h2.17v-4.36h-2.14v-2.17h4.34v2.15h2.16v2.19h-2.15v4.35h-4.37v-2.16h0Z"/>
          <path d="M166.83,229.09h-2.18v2.19h-2.2v-6.54h2.18v2.15h2.2v2.21Z"/>
          <path d="M158.08,222.53h2.17v6.53h-2.15v-2.17c-.76,0-1.48,0-2.21,0h.01c0-.72,0-1.45,0-2.19h0c.72,0,1.45,0,2.19,0v-2.19h0Z"/>
          <path d="M164.64,220.34h-4.37v-2.19h0c1.44,0,2.89,0,4.37,0,0,.74,0,1.46,0,2.19,0,0,0,0,0,0Z"/>
          <path d="M175.58,222.51h-4.37v-2.14h4.36c0,.71,0,1.43,0,2.15,0,0,0-.01,0-.01Z"/>
          <path d="M173.36,224.73v2.14h-4.33v-2.14h4.33Z"/>
          <path d="M177.76,224.71h-2.18c0-.74,0-1.47,0-2.2,0,0,0,.01,0,.01.71,0,1.43,0,2.17,0,0,.76,0,1.48,0,2.2,0,0,0,0,0,0Z"/>
          <path d="M155.89,220.35h2.19c0,.74,0,1.46,0,2.19h0c-.73-.01-1.46-.01-2.19-.01h0c0-.72,0-1.45,0-2.19h-.01Z"/>
          <path d="M160.27,218.15h-2.18c0-.74,0-1.47,0-2.2,0,0,0,.01,0,.01.73,0,1.46,0,2.18.01h0c0,.72,0,1.45,0,2.18,0,0,0,0,0,0Z"/>
          <path d="M160.27,215.98v-2.17h2.16v2.16c-.72,0-1.45,0-2.17,0,0,0,0,0,0,0Z"/>
          <path d="M147.16,200.68h-2.17v-4.38h2.17c0,1.46,0,2.92,0,4.38Z"/>
          <path d="M151.52,209.42c.73,0,1.46,0,2.2,0h-.01v2.16h-2.18v-2.17h-.01Z"/>
          <path d="M149.34,196.3h2.19v2.17h-2.19v-2.17Z"/>
          <path d="M140.61,198.5v-2.17h2.16v2.16c-.72,0-1.45,0-2.17,0,0,0,0,0,0,0Z"/>
          <path d="M164.63,205.04h4.38v2.19h-4.38c0-.73,0-1.46,0-2.19Z"/>
          <path d="M164.64,202.86c0,.73,0,1.46,0,2.19h-2.17v-2.19h2.17Z"/>
          <path d="M162.45,196.3h2.19v2.19h-2.19v-2.19Z"/>
          <path d="M151.53,231.27c-.73,0-1.46,0-2.2,0h.01c0-.72,0-1.45,0-2.19h0c.73,0,1.46,0,2.19,0h0c0,.72,0,1.45,0,2.19Z"/>
          <path class="cls-1" d="M151.53,209.41v2.17h2.18v-2.17h2.17v4.37h-6.53v4.38h-2.18v-2.19h-2.2v-2.19h-2.19c0-.73,0-1.46,0-2.19h2.18v-2.19h6.57Z"/>
          <path class="cls-1" d="M155.89,222.52c.73,0,1.46,0,2.19,0v2.19h-2.19c0-.73,0-1.46,0-2.19Z"/>
          <path class="cls-1" d="M155.9,224.71c0,.73,0,1.46,0,2.19h-2.17v-2.19h2.17Z"/>
          <path class="cls-1" d="M155.9,220.34c0,.73,0,1.46,0,2.19h-2.17v-2.19h2.17Z"/>
          <path class="cls-1" d="M151.53,229.09c-.73,0-1.46,0-2.19,0v-2.17h2.19v2.17Z"/>
          <path class="cls-1" d="M149.34,218.15c.73,0,1.46,0,2.19,0v2.17h-2.19v-2.17Z"/>
          <path class="cls-1" d="M149.35,229.08c0,.73,0,1.46,0,2.19h-2.19v-2.19h2.19Z"/>
          <path class="cls-1" d="M142.79,213.78c0,.73,0,1.46,0,2.19h-2.19c0-.73,0-1.46,0-2.19.73,0,1.46,0,2.19,0Z"/>
        </g>
        <g>
          <path d="M48.47,133.41c-.83.28-1.86.48-3.03.62,0,.98-.02,2.08-.02,2.98,1.22-.42,2.53-.72,3.53-.72,2.66,0,4.31,1.44,4.31,3.64,0,2.06-1.27,3.67-3.67,3.67-1.16,0-2.2-.41-3.05-1.5.19-.23.41-.55.56-.81.77.97,1.59,1.28,2.5,1.28,1.66,0,2.53-1.19,2.53-2.64s-1.11-2.7-3.2-2.69c-1,.02-2.3.3-3.52.75,0,1.16.03,3.02.03,3.45,0,1.41-.92,2.48-2.45,2.48-1.44,0-2.64-.89-2.64-2.41,0-1,.72-2.12,1.95-3,.56-.39,1.28-.8,2.08-1.12v-3.3c-1.25.11-2.5.12-3.75.11l-.02-1.06c1.38.02,2.62,0,3.77-.09v-2.92l1.58.09c-.02.19-.17.3-.44.33-.03.61-.05,1.53-.06,2.41,1.05-.12,2-.34,2.81-.66l.19,1.09ZM44.41,141.39c0-.41-.02-1.69-.02-2.97-.58.27-1.12.59-1.59.92-.81.58-1.42,1.45-1.42,2.14,0,.81.53,1.48,1.59,1.48.8,0,1.44-.55,1.44-1.56v-.02ZM53.23,135.27c-.8-.8-2.3-1.7-3.56-2.25l.55-.92c1.34.58,2.84,1.47,3.7,2.25l-.69.92Z"/>
          <path d="M61.82,136h-4.62v8.33h-1.03v-13.84h5.66v5.52ZM60.82,131.34h-3.62v1.44h3.62v-1.44ZM57.19,135.14h3.62v-1.56h-3.62v1.56ZM65.47,142.08h-4.92v.95h-1v-5.55h5.92v4.59ZM64.47,138.39h-3.92v2.78h3.92v-2.78ZM69.1,130.48v12.36c0,.73-.19,1.08-.67,1.27-.52.19-1.42.2-2.8.2-.05-.3-.23-.8-.39-1.09.55.02,1.06.03,1.5.03,1.22,0,1.31,0,1.31-.42v-6.83h-4.75v-5.52h5.8ZM68.05,131.34h-3.73v1.44h3.73v-1.44ZM64.32,135.14h3.73v-1.56h-3.73v1.56Z"/>
          <path d="M79.17,129.88c-.05.14-.16.2-.33.23,1.55,2.09,4.39,4.31,6.84,5.45-.25.23-.52.59-.69.91-2.48-1.3-5.31-3.55-6.81-5.59-1.3,1.94-3.92,4.23-6.66,5.72-.14-.23-.44-.61-.66-.83,2.78-1.44,5.5-3.89,6.75-5.98l1.55.09ZM73.43,144.33v-6.33h9.62v6.33h-1.06v-.67h-7.53v.67h-1.03ZM74.23,134.98h8v.95h-8v-.95ZM81.99,138.97h-7.53v3.73h7.53v-3.73Z"/>
          <path d="M97.61,130.36c0,.16-.11.23-.34.3.06,1.09.11,2.38.14,3.55,1.23-.2,2.42-.39,3.34-.53l.09,1.09c-.94.09-2.16.27-3.42.47.02,1.44-.02,2.7-.17,3.47-.19.92-.86,1.45-1.75,1.45-.64,0-1.55-.22-2.41-.69.08-.23.14-.62.19-.92.88.47,1.67.61,2.05.61.94,0,1.08-.92,1-3.77-1.8.3-3.67.61-5.09.86.03,1.48.06,2.91.12,3.78.19,2.38,1.36,2.52,3.61,2.52,1.28,0,2.97-.08,4.09-.23l.03,1.06c-1.11.12-2.69.17-4,.17-2.42,0-4.55-.06-4.81-3.42-.08-.88-.11-2.23-.14-3.69-.97.17-2.25.42-3.05.58l-.17-1.05c.83-.12,2.12-.36,3.2-.53-.02-1.36-.03-2.83-.03-4.02l1.55.14c-.02.17-.14.27-.39.3-.02.95-.02,2.2,0,3.38l5.06-.84c-.05-1.33-.11-2.84-.2-4.11l1.5.08Z"/>
          <path d="M111.08,137.05c0,.89-.72,1.61-1.61,1.61s-1.61-.72-1.61-1.61.72-1.61,1.61-1.61,1.61.75,1.61,1.61Z"/>
          <path d="M130.24,142.73c-1.38.25-3.2.36-4.8.36-1.28,0-2.41-.08-3.02-.2-1.89-.42-2.7-1.61-2.7-2.98,0-1.17.66-2.39,1.59-3.33l.91.47c-.88.89-1.38,1.91-1.38,2.77,0,.92.61,1.73,1.95,2.05.53.11,1.44.17,2.5.17,1.52,0,3.36-.12,4.86-.42l.08,1.12ZM123.23,134.86c.81-.64,1.92-1.39,2.77-1.81v-.02c-1.19.14-3.91.19-5.64.19,0-.3,0-.81-.02-1.09h.84c2,0,6.09-.03,8.06-.5l.12,1.14c-.52.08-.89.16-1.64.47-.88.36-2.39,1.2-3.61,2.19l-.89-.56ZM130.23,137.08c-.45-.69-1.42-1.62-2.09-2.12l.52-.48c.75.55,1.66,1.45,2.14,2.11l-.56.5ZM131.87,135.59c-.44-.62-1.36-1.56-2.09-2.11l.52-.5c.77.58,1.67,1.47,2.14,2.12l-.56.48Z"/>
          <path d="M147.15,135.72l.78.19c-.05.17-1.97,2.78-3.75,4.23l-.86-.55c.88-.7,1.91-1.81,2.72-2.86h-4.53c-.03.09-.11.14-.31.17v6.11c0,.67-.17.98-.7,1.16-.53.16-1.45.16-2.84.16-.06-.3-.25-.72-.41-1.02.67.02,1.3.03,1.78.03,1.02,0,1.09,0,1.09-.34v-6.27h-6.45v-1h8.41c-1.31-.83-3.25-1.75-4.88-2.33l.72-.77c.97.33,2.06.78,3.08,1.27,1.05-.59,2.2-1.42,3.06-2.19h-8.91v-.98h9.67c.3,0,.33,0,.55-.06l.94.62c-.06.06-.17.11-.28.12-1.02.98-2.56,2.16-3.98,3.02.61.33,1.16.66,1.58.95l-.3.34h3.61l.22-.02Z"/>
          <path d="M151.22,139.11c-.03.09-.12.16-.31.16-.25,1.33-.69,2.83-1.22,3.75-.19-.12-.56-.3-.8-.41.52-.88.91-2.38,1.16-3.8l1.17.3ZM152.96,130.28c-.08.11-.2.14-.33.12-.48.91-1.27,2.17-1.92,3.06.42.41.81.81,1.09,1.17.77-1.06,1.5-2.17,2.02-3.08l1.12.53c-.05.09-.17.12-.34.12-.88,1.36-2.25,3.2-3.47,4.56,1-.02,2.08-.03,3.17-.06-.31-.52-.67-1.05-1.03-1.48.44-.23.61-.31.77-.41.8.98,1.64,2.3,1.97,3.16l-.81.47c-.11-.27-.25-.58-.44-.92l-1.81.09v6.69h-.98v-6.64c-.97.03-1.84.08-2.53.09-.03.12-.12.19-.23.2l-.28-1.17h1.17c.38-.42.77-.89,1.16-1.41-.5-.67-1.39-1.55-2.16-2.17l.52-.67c.16.12.31.25.48.38.61-.91,1.33-2.2,1.73-3.12l1.14.48ZM154.82,142.2c-.17-.84-.67-2.16-1.16-3.14l.84-.3c.5.98,1.02,2.27,1.22,3.11l-.91.33ZM162.66,132.75l.56.06c0,.09-.02.23-.03.34-.25,7.33-.5,9.78-1.12,10.55-.42.52-.84.61-1.92.61-.53,0-1.17-.02-1.8-.06-.03-.3-.14-.72-.34-1,1.08.09,2.06.11,2.45.11.31,0,.52-.05.69-.25.52-.55.78-2.97,1.02-9.33h-4.91c-.42.97-.91,1.84-1.41,2.52-.2-.16-.59-.42-.86-.56,1.05-1.36,1.95-3.69,2.5-5.95l1.31.34c-.03.14-.17.19-.34.17-.22.83-.48,1.66-.8,2.47h4.77l.23-.02ZM157.55,136.2c.91,1.14,1.88,2.66,2.25,3.67l-.92.5c-.36-1-1.3-2.58-2.19-3.73l.86-.44Z"/>
          <path d="M166.29,143.44c-.48-1.12-.67-3.45-.67-5.5s.33-4.69.84-7.3l1.52.3c-.03.16-.19.27-.41.28-.56,2.14-.91,4.92-.91,6.73,0,1.19.02,2.38.14,2.95.34-.94.97-2.44,1.3-3.17l.7.66c-.52,1.06-1.61,3.44-1.61,4.17,0,.22.05.45.16.75l-1.06.12ZM170.26,134.23c1.31.02,2.62.03,3.94-.06-.06-1.34-.11-2.5-.14-3.66l1.58.05c-.02.16-.16.28-.41.33.02,1,.05,2.02.08,3.2,1.23-.12,2.23-.34,3.06-.62l.14,1.09c-.75.23-1.83.45-3.16.56.06,1.73.14,3.56.19,4.56,1.19.48,2.38,1.25,3.19,1.98l-.61,1c-.64-.64-1.56-1.33-2.53-1.78-.02,1.33-.27,2.81-2.61,2.81-1.83,0-3.05-.88-3.05-2.25,0-1.59,1.61-2.3,3.05-2.3.48,0,1,.06,1.48.2-.05-.98-.14-2.62-.22-4.16-.48.03-1.14.05-1.59.05h-2.38l-.02-1.02ZM174.54,140.38c-.5-.16-1.03-.28-1.55-.28-.95,0-2.09.34-2.09,1.33,0,.88.94,1.31,2.08,1.31s1.58-.56,1.58-1.81l-.02-.55Z"/>
          <path d="M192.83,142.7c-1.38.25-3.19.36-4.75.36-1.31,0-2.45-.08-3.06-.2-1.89-.42-2.7-1.61-2.7-2.98,0-1.2.67-2.41,1.59-3.34l.91.47c-.88.91-1.38,1.91-1.38,2.78s.61,1.73,1.95,2.03c.55.12,1.47.19,2.55.19,1.52,0,3.33-.12,4.81-.42l.08,1.12ZM185.81,134.81c.81-.62,1.92-1.39,2.77-1.81v-.02c-1.19.14-3.91.2-5.64.19,0-.3,0-.81-.02-1.09.34.02,6.34.11,8.91-.5l.12,1.16c-1.86.22-4.25,1.84-5.25,2.64l-.89-.56Z"/>
          <path d="M208.36,132.95c-2.03.52-4.86.84-6.72.91-.2,1.95-.48,3.56-.73,4.14,1.22-.98,3.11-1.66,4.44-1.66,2.33,0,3.75,1.25,3.75,3.36,0,3.11-3.14,4.16-8.22,4.28-.06-.3-.17-.77-.31-1.03,4.48-.09,7.39-.86,7.39-3.22,0-1.41-.94-2.38-2.75-2.38-1.39,0-3.78.84-4.81,2.39l-1.09-.52c.5-.56,1.02-2.8,1.25-5.36h-3.66v-1.09c.66.02,2.58.02,3.75.02.06-.89.09-1.89.09-2.83l1.66.16c-.03.27-.22.31-.5.34-.03.78-.08,1.58-.14,2.31,1.66-.05,4.53-.41,6.41-.95l.2,1.12Z"/>
          <path d="M215.88,133.16c-.06.16-.19.23-.41.27-.12,2.31-.42,4.28-.64,4.61h.02c1.53-1.14,3.92-1.92,5.75-1.92,2.41,0,3.91,1.23,3.88,3.42-.05,2.88-2.42,4.16-8.47,4.41-.08-.3-.22-.73-.39-1.03,5.45-.23,7.64-1.12,7.69-3.36.02-1.5-1.03-2.41-2.86-2.41-2.89,0-5.5,1.73-5.94,2.5l-1.06-.52c.31-.3.86-3.09.89-6.16l1.55.19ZM216.15,130.13c2.12.25,4.53.73,6.06,1.38l-.39,1.08c-1.61-.69-3.94-1.14-6-1.42l.33-1.03Z"/>
          <path d="M233.31,130.55c-.03.19-.22.27-.52.28-.17.88-.45,2.39-.64,3.33.7-.08,1.34-.14,1.73-.14,2.38-.03,3.19,1.55,3.19,3.89,0,1.17-.22,2.56-.53,3.5-.48,1.59-1.48,2.36-2.78,2.36-.64,0-1.48-.27-2.83-1.36.17-.28.3-.62.42-.95,1.25.97,1.91,1.19,2.39,1.19.89,0,1.42-.56,1.73-1.56.33-.97.5-2.41.5-3.2-.02-1.78-.59-2.84-2.16-2.83-.47,0-1.11.06-1.91.16-.78,3.19-1.7,5.92-3.2,8.44l-1.03-.5c1.52-2.42,2.38-4.84,3.11-7.81-.8.09-1.94.23-2.78.38l-.09-1.09c.77-.09,2.05-.23,3.09-.36.23-1.14.48-2.55.67-3.92l1.62.22ZM240.54,138.06c-.5-2.28-1.98-4.22-3.52-5.34l.84-.66c1.66,1.17,3.3,3.33,3.8,5.56l-1.12.44Z"/>
          <path d="M247.14,133.16c-.06.16-.19.23-.41.27-.12,2.31-.42,4.28-.64,4.61h.02c1.53-1.14,3.92-1.92,5.75-1.92,2.41,0,3.91,1.23,3.88,3.42-.05,2.88-2.42,4.16-8.47,4.41-.08-.3-.22-.73-.39-1.03,5.45-.23,7.64-1.12,7.69-3.36.02-1.5-1.03-2.41-2.86-2.41-2.89,0-5.5,1.73-5.94,2.5l-1.06-.52c.31-.3.86-3.09.89-6.16l1.55.19ZM247.41,130.13c2.12.25,4.53.73,6.06,1.38l-.39,1.08c-1.61-.69-3.94-1.14-6-1.42l.33-1.03Z"/>
        </g>
      </g>
      <g>
        <path d="M69.88,153.74c-.34,2.03-.83,3.84-1.49,5.42.81,1.1,1.49,2.14,1.93,3.01l-1.35,1.13c-.32-.7-.81-1.55-1.4-2.43-.97,1.73-2.25,3.13-3.89,4.23-.22-.32-.79-.99-1.13-1.3,1.76-1.06,3.06-2.54,4-4.39-.97-1.31-2.05-2.63-3.08-3.75l1.17-.95c.86.9,1.76,1.94,2.63,2.99.43-1.26.76-2.65.99-4.18l1.64.22ZM79.19,154.48h-2.04v8.59c0,1.03-.23,1.51-.81,1.82-.61.27-1.58.34-3.1.34-.07-.49-.31-1.28-.54-1.78,1.08.04,2.05.04,2.36.02.31,0,.43-.09.43-.4v-8.59h-4.72v-1.35h-7.81v-1.55h3.28v-2.84h1.62v2.84h3.47v1.28h4.16v-4.14h1.66v4.14h2.04v1.62ZM72.7,160.75c-.27-1.04-1.06-2.72-1.89-3.94l1.37-.65c.85,1.19,1.69,2.79,1.96,3.87l-1.44.72Z"/>
        <path d="M83.81,155.49c0,2.81-.27,6.99-1.84,9.74-.31-.27-1.04-.77-1.42-.95,1.46-2.56,1.58-6.21,1.58-8.79v-4.57h6.48v-2.2h1.75v2.2h6.68v1.62h-13.23v2.95ZM83.66,162.95c.85-1.39,1.28-3.51,1.46-5.44l1.53.34c-.22,1.96-.63,4.34-1.5,5.76l-1.49-.67ZM91.96,163.4c.65,0,.74-.45.83-2.99.34.27,1.04.56,1.48.68-.16,2.99-.59,3.82-2.18,3.82h-2.34c-1.69,0-2.12-.54-2.12-2.25v-6.61h1.64v6.61c0,.63.13.74.74.74h1.96ZM91.98,156.75c-.86-.81-2.7-2.02-4.16-2.77l1.13-1.1c1.42.68,3.28,1.8,4.23,2.63l-1.21,1.24ZM94.88,157.08c1.15,1.84,2.25,4.23,2.54,5.85l-1.64.68c-.25-1.58-1.26-4.05-2.38-5.94l1.48-.59Z"/>
        <path d="M104.62,161.76h-3.75v1.51h-1.55v-13.41h5.29v11.9ZM100.87,151.37v3.62h2.16v-3.62h-2.16ZM103.03,160.26v-3.8h-2.16v3.8h2.16ZM113.17,155.67v1.8h1.93v1.48h-1.93v4.43c0,.86-.2,1.31-.79,1.57-.63.25-1.55.27-2.95.27-.07-.45-.31-1.1-.54-1.57,1.01.04,2,.04,2.27.04.29-.02.38-.09.38-.34v-4.39h-6.55v-1.48h6.55v-1.8h-6.61v-1.48h4.29v-1.98h-3.6v-1.46h3.6v-2.05h1.67v2.05h3.71v1.46h-3.71v1.98h4.38v1.48h-2.09ZM107.26,159.4c.86.9,1.85,2.12,2.25,2.99l-1.42.86c-.38-.86-1.31-2.14-2.18-3.08l1.35-.77Z"/>
        <path d="M119.23,155.71v9.54h-1.66v-15.81h6.64v6.27h-4.99ZM119.23,150.7v1.24h3.4v-1.24h-3.4ZM122.63,154.47v-1.33h-3.4v1.33h3.4ZM132.45,163.16c0,.95-.2,1.49-.85,1.78-.63.27-1.62.29-3.13.29-.07-.45-.31-1.17-.52-1.64h-4.86v.9h-1.53v-7.54h6.75v6.59c.88.04,1.75.02,2.04.02.32-.02.41-.11.41-.41v-7.4h-5.11v-6.3h6.81v13.72ZM123.08,158.21v1.4h3.66v-1.4h-3.66ZM126.74,162.33v-1.49h-3.66v1.49h3.66ZM127.24,150.7v1.24h3.51v-1.24h-3.51ZM130.76,154.5v-1.37h-3.51v1.37h3.51Z"/>
        <path d="M139,162.66l1.13-1.28c.49.59,1.3.99,2.07.99,1.69,0,3.12-1.3,3.21-5.08-.77.99-1.93,1.57-2.9,1.57-2.23,0-3.73-1.31-3.73-3.98s1.8-4.2,3.94-4.2c2.54,0,4.59,2,4.59,6.27,0,5.08-2.39,7.11-5,7.11-1.5,0-2.58-.61-3.31-1.4ZM142.87,157.36c.79,0,1.75-.47,2.49-1.6-.23-2.38-1.21-3.47-2.61-3.47-1.13,0-2.03.95-2.03,2.59s.76,2.48,2.16,2.48Z"/>
        <path d="M149.56,155.55c0-.85.61-1.48,1.39-1.48s1.39.63,1.39,1.48-.61,1.44-1.39,1.44-1.39-.61-1.39-1.44ZM149.56,162.62c0-.86.61-1.48,1.39-1.48s1.39.61,1.39,1.48-.61,1.44-1.39,1.44-1.39-.59-1.39-1.44Z"/>
        <path d="M154.48,157.33c0-4.34,1.66-6.64,4.29-6.64s4.29,2.32,4.29,6.64-1.64,6.73-4.29,6.73-4.29-2.39-4.29-6.73ZM161.07,157.33c0-3.71-.95-5.01-2.3-5.01s-2.3,1.3-2.3,5.01.95,5.1,2.3,5.1,2.3-1.39,2.3-5.1Z"/>
        <path d="M164.74,157.33c0-4.34,1.66-6.64,4.29-6.64s4.29,2.32,4.29,6.64-1.64,6.73-4.29,6.73-4.29-2.39-4.29-6.73ZM171.33,157.33c0-3.71-.95-5.01-2.3-5.01s-2.3,1.3-2.3,5.01.95,5.1,2.3,5.1,2.3-1.39,2.3-5.1Z"/>
        <path d="M179.62,156.21c-1.31,0-2.45.92-3.17,2.29l-1.58-.86c1.17-2.12,2.86-3.22,4.77-3.22,1.67,0,2.9.67,4.16,1.94.88.88,1.6,1.4,2.88,1.4s2.45-.92,3.17-2.29l1.58.86c-1.17,2.12-2.86,3.22-4.77,3.22-1.67,0-2.9-.67-4.16-1.94-.88-.88-1.6-1.4-2.88-1.4Z"/>
        <path d="M193.7,162.12h2.9v-8.86h-2.38v-1.31c1.24-.22,2.12-.54,2.88-1.01h1.57v11.18h2.59v1.71h-7.56v-1.71Z"/>
        <path d="M203.4,162.66l1.13-1.28c.49.59,1.3.99,2.07.99,1.69,0,3.12-1.3,3.21-5.08-.77.99-1.93,1.57-2.9,1.57-2.23,0-3.73-1.31-3.73-3.98s1.8-4.2,3.94-4.2c2.54,0,4.59,2,4.59,6.27,0,5.08-2.39,7.11-5,7.11-1.5,0-2.58-.61-3.31-1.4ZM207.27,157.36c.79,0,1.75-.47,2.48-1.6-.23-2.38-1.21-3.47-2.61-3.47-1.13,0-2.03.95-2.03,2.59s.76,2.48,2.16,2.48Z"/>
        <path d="M213.96,155.55c0-.85.61-1.48,1.39-1.48s1.39.63,1.39,1.48-.61,1.44-1.39,1.44-1.39-.61-1.39-1.44ZM213.96,162.62c0-.86.61-1.48,1.39-1.48s1.39.61,1.39,1.48-.61,1.44-1.39,1.44-1.39-.59-1.39-1.44Z"/>
        <path d="M218.88,157.33c0-4.34,1.66-6.64,4.29-6.64s4.29,2.32,4.29,6.64-1.64,6.73-4.29,6.73-4.29-2.39-4.29-6.73ZM225.47,157.33c0-3.71-.96-5.01-2.3-5.01s-2.3,1.3-2.3,5.01.95,5.1,2.3,5.1,2.3-1.39,2.3-5.1Z"/>
        <path d="M229.14,157.33c0-4.34,1.66-6.64,4.29-6.64s4.29,2.32,4.29,6.64-1.64,6.73-4.29,6.73-4.29-2.39-4.29-6.73ZM235.73,157.33c0-3.71-.96-5.01-2.3-5.01s-2.3,1.3-2.3,5.01.95,5.1,2.3,5.1,2.3-1.39,2.3-5.1Z"/>
      </g>
    </g>
  </g>
</svg>