<?xml version="1.0" encoding="UTF-8"?>
<svg id="_レイヤー_2" data-name="レイヤー 2" xmlns="http://www.w3.org/2000/svg" viewBox="0 0 463.5 118.5">
  <defs>
    <style>
      .cls-1 {
        fill: #f0f0f0;
        stroke: #000;
        stroke-width: .5px;
      }

      .cls-1, .cls-2 {
        stroke-miterlimit: 10;
      }

      .cls-3 {
        fill: #231815;
        stroke-width: 0px;
      }

      .cls-2 {
        fill: none;
        stroke: #231815;
      }
    </style>
  </defs>
  <g id="_レイヤー_1-2" data-name="レイヤー 1">
    <g>
      <rect class="cls-1" x=".25" y=".25" width="463" height="118"/>
      <g>
        <path class="cls-3" d="M136.65,52.2c-.31-.98-.59-1.82-1.08-2.59-.67-1.19-1.19-1.47-3.15-1.47h-3.75c-1.02,0-1.12.1-1.12,1.12v8.09h4.34c2.52,0,2.7-.42,3.22-2.87h1.05v7.32h-1.09c-.45-2.45-.7-3.01-3.19-3.01h-4.34v6.27c0,3.04.35,3.19,3.54,3.47v.98h-9.73v-.98c2.84-.21,3.15-.46,3.15-3.47v-13.86c0-3.04-.35-3.19-3.15-3.47v-.98h11.1c3.15,0,4.34-.04,4.94-.07.03,1.26.17,3.71.35,5.39l-1.09.14Z"/>
        <path class="cls-3" d="M152.36,69.49v-.98c2.27-.28,2.56-.63,2.06-1.96-.46-1.37-1.16-3.12-1.89-5.32h-7.56c-.56,1.58-1.09,2.94-1.58,4.38-.77,2.27-.28,2.56,2.59,2.91v.98h-8.09v-.98c2.21-.28,2.77-.53,3.99-3.68l7.25-18.38,1.12-.21c2.21,5.99,4.62,12.6,6.83,18.66,1.12,3.05,1.44,3.33,3.92,3.61v.98h-8.65ZM148.86,50.83c-1.12,3.01-2.31,6.2-3.36,8.96h6.55l-3.19-8.96Z"/>
        <path class="cls-3" d="M173.75,46.25c5.99,0,11.34,4.59,11.34,11.55,0,7.53-5.25,12.22-11.69,12.22s-11.48-4.94-11.48-11.69c0-6.27,4.45-12.08,11.83-12.08ZM173.05,47.54c-3.92,0-7.49,3.29-7.49,9.84s3.57,11.31,8.54,11.31c3.92,0,7.42-3.15,7.42-9.91,0-7.35-3.89-11.24-8.47-11.24ZM175.39,67.74c3.68,2.8,7.6,5.32,10.82,6.51l-.25.84c-1.68,0-3.68-.17-4.73-.46-2.42-.67-6.55-3.68-9.38-5.67l3.54-1.23Z"/>
      </g>
      <g>
        <path class="cls-3" d="M210.69,68.08c-1.29-1.02-2.92-1.99-4.5-2.5.03.58-.08,1.35-.2,1.74-.12,1.24-1.27,1.72-2.65,1.72-1.94,0-3.46-.94-3.48-2.46-.03-1.52,1.56-2.45,3.45-2.46.52,0,1.2.03,1.75.13,0-.4-.08-.75-.09-1.09-.13-1.96-.25-5.11-.27-7.27l1.56.09c0,.15-.13.29-.39.31-.01.41,0,2.39,0,2.83.98,0,3.17-.17,4.98-.48l.1,1.06c-1.71.27-3.93.42-5.07.44,0,.85.03,1.2.25,4.3,1.94.57,3.77,1.59,5.23,2.67l-.69.96ZM203.28,65.02c-1.44.03-2.44.63-2.44,1.48,0,1.09,1.19,1.57,2.38,1.57,1.05,0,1.92-.38,1.92-1.44,0-.34,0-.96-.03-1.39-.6-.18-1.26-.23-1.83-.23Z"/>
        <path class="cls-3" d="M224.65,69.31c-1.52-1.77-3.85-3.99-5.88-5.58-.75-.6-1.02-1.02-1.02-1.56,0-.44.24-.85.79-1.36,1.37-1.26,3.93-3.69,5.37-5.16l1.28.84s-.14.15-.33.15c-.06,0-.12-.02-.18-.03-1.5,1.44-3.84,3.48-5.07,4.63-.36.34-.65.65-.65.88,0,.25.27.56.79.94,1.98,1.53,4.1,3.46,5.92,5.44l-1.03.79Z"/>
        <path class="cls-3" d="M241.36,60.41c-.04.19-.09.39-.15.57,2.64.47,3.61,2.12,3.61,3.89,0,2.38-2.04,3.82-5.79,4.24-.06-.21-.27-.66-.4-.9,3.1-.3,5.1-1.38,5.1-3.31v-.1c-.07-1.74-1.24-2.59-2.85-2.86-.65,1.69-1.74,3.27-2.98,4.41.1.31.24.58.39.81l-.88.55c-.13-.21-.25-.46-.36-.75-1.2.88-2.16,1.12-2.83,1.12-1.2,0-1.81-.88-1.81-1.99,0-2.07,1.71-3.72,3.88-4.59-.03-.78-.03-1.63-.02-2.52-2.53,0-2.8,0-3.3-.03l-.03-.99c.76.04,2.07.04,3.36.04.02-.69.04-1.53.07-2.23l1.5.1c-.01.15-.17.27-.39.3-.05.55-.08,1.24-.12,1.8,1.63-.04,4.5-.24,6.01-.63l.14,1.02c-1.59.39-4.48.54-6.19.58-.03.78-.04,1.53-.03,2.23,1.05-.33,2-.35,2.25-.35.23,0,.42,0,.62.02.06-.24.1-.46.15-.71l1.06.27ZM236.76,66.01c-.24-.93-.38-2.11-.44-3.51-1.63.72-2.91,1.96-2.91,3.42,0,.88.5,1.19,1.03,1.15.71-.01,1.52-.42,2.31-1.06ZM239.83,61.79c-.24-.01-1.41-.04-2.53.36.03,1.21.13,2.25.35,3.09.9-.92,1.71-2.13,2.19-3.45Z"/>
        <path class="cls-3" d="M253.3,62.08c.99-.51,2.54-.87,3.72-.87,2.38,0,3.88,1.4,3.88,3.6,0,2.71-2.39,4.21-5.4,4.21-1.95,0-3.28-.78-3.28-2.1,0-1.11,1.09-2.01,2.46-2.01,1.7,0,2.83,1.35,3.06,2.71,1.2-.45,2.07-1.41,2.07-2.81,0-1.62-1.2-2.65-3.09-2.65-2.25,0-4.45,1-5.44,1.96-.45.42-1.03,1.05-1.44,1.52l-.76-.77c1.35-1.41,5.64-5.5,7.68-7.41-.87.12-3.87.24-5.58.3-.04.1-.19.19-.31.22l-.12-1.27c2.02-.01,5.9-.17,6.99-.33l.23-.11.79.98c-.07.06-.21.12-.36.14-1.06.87-3.92,3.54-5.08,4.66v.02ZM255.37,68.08c.45,0,.98-.06,1.37-.15-.17-1.15-1.02-2.13-2.13-2.13-.78,0-1.47.42-1.47,1.11,0,.92,1.25,1.17,2.23,1.17Z"/>
        <path class="cls-3" d="M276.6,67.91c-1.32.24-3.07.34-4.6.34-1.23,0-2.31-.08-2.9-.19-1.81-.41-2.59-1.54-2.59-2.87,0-1.12.63-2.29,1.53-3.19l.87.45c-.84.85-1.32,1.83-1.32,2.65,0,.89.58,1.67,1.88,1.96.51.1,1.38.17,2.4.17,1.45,0,3.22-.12,4.66-.4l.08,1.08ZM269.86,60.35c.78-.61,1.85-1.33,2.65-1.74v-.02c-1.14.14-3.75.18-5.41.18,0-.29,0-.78-.02-1.05h.81c1.92,0,5.85-.03,7.74-.48l.12,1.1c-.5.08-.85.15-1.58.45-.84.35-2.29,1.16-3.46,2.1l-.85-.54ZM276.58,62.48c-.44-.66-1.36-1.56-2.01-2.04l.5-.47c.72.52,1.59,1.4,2.05,2.02l-.54.48ZM278.16,61.06c-.42-.6-1.31-1.5-2.01-2.02l.5-.48c.73.56,1.6,1.41,2.05,2.04l-.54.46Z"/>
        <path class="cls-3" d="M285.31,58.58h-1.96c-.15.92-.54,1.92-1.41,2.75-.13-.21-.46-.52-.69-.66,1.08-.99,1.27-2.2,1.27-3.18v-1.53l.83.24c1.33-.17,2.79-.4,3.63-.67l.76.71s-.09.04-.15.04c-.04,0-.08,0-.12-.02-.96.25-2.59.5-4.03.63v.9h4.67v.79h-1.86v1.94h-.93v-1.94ZM286.98,67.76c-.06.08-.18.12-.33.09-1.2.6-3.03,1.23-4.52,1.6-.18-.2-.49-.56-.69-.74,1.47-.31,3.35-.88,4.46-1.5l1.08.54ZM283.33,67.01v-6.15h9.85v6.15h-9.85ZM284.31,61.58v1.1h7.87v-1.1h-7.87ZM284.31,63.37v1.11h7.87v-1.11h-7.87ZM284.31,65.17v1.14h7.87v-1.14h-7.87ZM289.63,57.4c0,.12,0,.25-.02.39h5.32v.79h-2.31v1.97h-.92v-1.97h-2.25c-.21.74-.67,1.49-1.58,2.1-.12-.21-.4-.54-.63-.67,1.23-.81,1.47-1.8,1.47-2.65v-1.35l.88.23c1.42-.17,2.97-.41,3.87-.68l.76.71s-.09.04-.15.04c-.04,0-.08,0-.12-.02-1.03.27-2.8.51-4.35.66v.45ZM293.83,69.46c-.98-.5-2.62-1.12-4.32-1.67l.83-.52c1.66.51,3.49,1.15,4.6,1.65l-1.11.54Z"/>
        <path class="cls-3" d="M303.93,61.45h-4.44v7.99h-.99v-13.29h5.43v5.29ZM302.97,56.98h-3.48v1.38h3.48v-1.38ZM299.49,60.62h3.48v-1.5h-3.48v1.5ZM307.44,67.28h-4.72v.92h-.96v-5.32h5.68v4.41ZM306.48,63.74h-3.76v2.67h3.76v-2.67ZM310.92,56.15v11.86c0,.7-.18,1.03-.65,1.21-.5.18-1.36.19-2.68.19-.05-.29-.23-.77-.38-1.05.52.01,1.02.03,1.44.03,1.17,0,1.26,0,1.26-.4v-6.55h-4.56v-5.29h5.56ZM309.91,56.98h-3.58v1.38h3.58v-1.38ZM306.33,60.62h3.58v-1.5h-3.58v1.5Z"/>
      </g>
      <g>
        <polyline class="cls-2" points="336.51 45.27 349.71 61.3 336.51 77.01"/>
        <polyline class="cls-2" points="345.31 45.27 358.51 61.3 345.31 77.01"/>
      </g>
    </g>
  </g>
</svg>