<?xml version="1.0" encoding="UTF-8"?><svg id="_レイヤー_1" xmlns="http://www.w3.org/2000/svg" viewBox="0 0 229.14 60.4"><defs><style>.cls-1{fill:#040000;}.cls-2{fill:#fff;}.cls-3{opacity:.6;}</style></defs><g class="cls-3"><path class="cls-1" d="m53.16,48.55c-.96-.22-1.95-.11-2.8.2-.6.22-1.12.55-1.57.98-.45.43-.79.96-1.03,1.56-.22.57-.34,1.2-.34,1.87s.12,1.25.35,1.82c.13.31.28.6.47.87l-1.46,1.68,1.34,1.32c.57.56,1.21.97,1.89,1.22.63.22,1.32.34,2.05.34,1.46,0,2.65-.45,3.52-1.33.86-.87,1.3-2.07,1.3-3.55v-6.94h-3.64s-.06-.01-.09-.02Zm-.83,4.59l-.15.08s-.07-.04-.16-.05l.15-.15h0s.15.12.15.12Z"/><path class="cls-1" d="m63.4,48.62c-.2-.07-.4-.12-.63-.15-.49-.06-1.01-.02-1.47.11h-3.54v2c0,.22,0,.45.03.71.01.16.02.33.02.51v5.95h4.86v-4.29l1.82.55.31-4.87-1.4-.52Z"/><path class="cls-1" d="m72.88,49.77c-.44-.43-.96-.77-1.55-1-1.14-.45-2.52-.45-3.67,0-.59.23-1.11.57-1.54.99-.43.43-.78.93-1.02,1.51-.24.58-.37,1.21-.37,1.88s.12,1.31.37,1.88c.24.58.58,1.08,1.01,1.51.44.43.96.76,1.55,1,.57.22,1.19.34,1.83.34s1.26-.11,1.83-.34c.59-.23,1.11-.57,1.55-.99.43-.42.77-.93,1.02-1.51.24-.58.37-1.21.37-1.88s-.12-1.31-.37-1.88c-.24-.57-.58-1.08-1.01-1.5Zm-3.4,3.31h0s.14.08.14.08l-.17.05-.04-.05.08-.08Z"/><path class="cls-1" d="m93.98,49.7c-.37-.41-.82-.74-1.34-.95-.79-.33-1.82-.41-2.7-.18h-16.43l2.98,9.17h7.44l2.47-7.67v.49c0,.21,0,.45.03.71.01.16.02.33.02.51v5.95h8.51v-5.19c0-.5-.07-.98-.2-1.43-.16-.54-.42-1.02-.77-1.42Z"/><path class="cls-1" d="m117.23,54.52v-5.95h-8.51v5.2c0,.5.07.97.2,1.43.16.54.42,1.02.77,1.42.37.41.82.74,1.34.95.49.21,1.05.31,1.65.31.36,0,.71-.04,1.05-.13h3.54v-2c0-.21,0-.44-.03-.71-.01-.16-.02-.33-.02-.51Z"/><path class="cls-1" d="m126.3,49.83c-.43-.44-.95-.79-1.54-1.03-.9-.36-1.99-.46-2.95-.22h-3.65v11.7h4.85v-2.39c.66-.05,1.25-.12,1.83-.37.56-.24,1.06-.59,1.48-1.02.41-.43.74-.94.96-1.5.23-.57.34-1.18.34-1.83s-.12-1.26-.34-1.81c-.22-.57-.55-1.08-.97-1.52Zm-3.29,3.4h0s-.06-.07-.06-.07l-.08.07-.09-.04.14-.06-.02-.02.02.02.09-.04-.07.06.07.07Zm-.54.1l.21-.09.08-.04.09.08-.33.12-.05-.08Zm.26-.15h-.01s0,0,0,0h.01Z"/><path class="cls-1" d="m146.66,48.62c-.19-.07-.4-.12-.63-.15-.51-.06-1.01-.01-1.46.11h-3.54v2c0,.21,0,.45.03.7.01.16.02.34.02.53v5.95h4.86v-4.29l1.82.55.31-4.87-1.4-.52Z"/><path class="cls-1" d="m173.65,49.77c-.44-.43-.96-.77-1.55-1-1.14-.45-2.55-.44-3.67,0-.59.23-1.11.57-1.55,1-.43.42-.77.93-1.01,1.5-.09.21-.15.44-.2.67l-.8-1.51c-.38-.71-.95-1.26-1.65-1.58-.96-.45-2.1-.53-3.14-.23-.43.12-.83.31-1.18.55-.43.29-.78.67-1.06,1.14-.28.5-.42,1.05-.42,1.65s.12,1.08.35,1.53l-.64.5-.02-.02v-.83c0-.65-.1-1.25-.29-1.81-.21-.59-.52-1.11-.93-1.55h0c-.42-.45-.92-.79-1.49-1.02-1.1-.44-2.47-.43-3.55.02-.58.23-1.09.57-1.51,1.01-.42.43-.76.95-.99,1.53-.23.57-.34,1.19-.34,1.84,0,.61.1,1.19.3,1.75.21.58.53,1.09.93,1.53.41.44.91.8,1.49,1.05.58.26,1.22.39,1.9.39.76,0,1.45-.13,2.07-.4.68-.29,1.29-.78,1.81-1.45l.47-.61h.13l.46.65c.48.68,1.06,1.16,1.72,1.44.57.24,1.22.37,1.93.37.41,0,.82-.05,1.21-.14.47-.11.91-.3,1.31-.56.46-.3.83-.7,1.1-1.18.29-.51.44-1.09.44-1.74,0-.57-.12-1.09-.34-1.55-.02-.04-.04-.07-.06-.11l.75-.5c-.07.34-.12.69-.12,1.06,0,.67.12,1.31.37,1.89.24.57.58,1.08,1.01,1.5.44.43.96.77,1.55,1,.57.22,1.19.34,1.84.34s1.26-.11,1.83-.34c.59-.23,1.11-.57,1.55-.99.43-.42.77-.93,1.02-1.51.24-.58.37-1.21.37-1.88s-.12-1.3-.37-1.88c-.24-.57-.58-1.08-1.01-1.5Zm-3.4,3.31l.14.07-.17.05-.04-.05.07-.07Z"/><path class="cls-1" d="m197.23,50.44c-.38-.71-.95-1.25-1.64-1.58-.95-.45-2.1-.54-3.14-.24-.43.12-.83.31-1.19.55-.43.29-.78.67-1.06,1.14-.28.49-.42,1.03-.42,1.62l-.04-3.36h-1.53v-1.47h-4.85v1.47h-1.13v.39l-.94-.35c-.2-.07-.4-.12-.63-.15-.51-.06-1.01-.01-1.46.11h-3.54v2c0,.22,0,.45.03.7.01.16.02.34.02.53v5.95h4.85v-4.29l1.82.54.04-.7h.94v.85c0,.38.02.72.07,1.03.08.52.26.99.54,1.38.31.45.74.8,1.27,1.03.44.19.95.29,1.54.29.26,0,.54-.02.84-.07.35-.06.69-.16.99-.29l1.23-.56v-1.02s.08.13.08.13c.48.68,1.06,1.16,1.72,1.45.57.24,1.22.36,1.93.36.41,0,.82-.05,1.22-.14.47-.11.91-.3,1.31-.56.45-.3.83-.7,1.1-1.18.29-.51.44-1.1.44-1.74,0-.57-.12-1.09-.34-1.55-.02-.04-.04-.07-.06-.11l.85-.56-.86-1.6Zm-7.43,3.31l-.02-1.74c0,.55.12,1.06.35,1.49l-.33.25Z"/><path class="cls-1" d="m221.01.89v22.36h-1.66L203.76.89h-8.26v22.36h-28.64l11.85-16.17V.89h-28.86v7.83h17.89l-10.71,14.53h-23.83v-7.59h-16.6v-6.94h17.78V.89h-25.91v22.36h-19.25v-7.59h-16.6v-6.94h17.78V.89h-25.91v22.36h-18.72c-.71-1.38-1.67-2.55-2.85-3.47-1.12-.87-2.42-1.6-3.85-2.16-1.3-.5-2.66-.98-4.05-1.43-1.29-.4-2.39-.8-3.27-1.2-.76-.34-1.36-.69-1.76-1.05-.33-.29-.55-.58-.68-.9-.15-.37-.22-.82-.22-1.34,0-.67.12-1.22.38-1.68.27-.48.61-.85,1.05-1.13.52-.34,1.13-.6,1.8-.78,1.66-.43,3.4-.39,4.99.31.78.35,1.39.89,1.87,1.66l1.23,2,6.66-5.79-1.27-1.5c-1.5-1.76-3.24-3.03-5.18-3.76-1.84-.69-3.89-1.04-6.09-1.04-1.73,0-3.42.24-5.01.73-1.63.49-3.11,1.24-4.41,2.21-1.35,1.01-2.44,2.29-3.23,3.79-.81,1.53-1.22,3.32-1.22,5.31,0,1.71.28,3.22.83,4.5.55,1.28,1.31,2.39,2.28,3.31.92.88,2.01,1.63,3.24,2.23.88.43,1.83.82,2.81,1.16H0v5.11h25.38l-6.16,5.05,1,1.5c.72,1.08,1.59,2,2.59,2.74.95.71,1.99,1.29,3.08,1.72,1.06.43,2.18.75,3.33.95,1.13.2,2.27.3,3.4.3,1.75,0,3.47-.23,5.11-.69,1.71-.47,3.24-1.21,4.57-2.19,1.36-1.01,2.48-2.3,3.3-3.83.84-1.57,1.27-3.41,1.27-5.48v-.08h17.63v11.38h26.79v-7.83h-18.66v-3.55h35.85v11.38h26.79v-7.83h-18.66v-3.55h36.65l-3.71,5.04v6.35h29.4v-7.83h-18.45l2.6-3.55h32.39v11.38h8.13v-11.38h9.32l7.94,11.38h8.26V.89h-8.13Zm-17.38,22.36v-8.25l5.75,8.25h-5.75ZM27.15,29.89l-.9-1.53h12.2c0,.12.01.24.01.37,0,.62-.13,1.13-.4,1.57-.32.52-.72.95-1.22,1.3-.54.38-1.16.67-1.85.87-1.96.57-3.83.36-5.54-.47-.99-.48-1.75-1.18-2.31-2.12Z"/><circle class="cls-1" cx="5.07" cy="35" r="4.99"/></g><path class="cls-2" d="m54.89,55.52c0,.94-.24,1.66-.73,2.15-.48.49-1.18.74-2.1.74-.51,0-.97-.07-1.38-.22-.41-.15-.8-.4-1.17-.76l.62-.71c.27.3.56.52.87.67.31.15.66.23,1.06.23s.7-.06.96-.17c.25-.11.46-.27.6-.46.15-.2.25-.42.31-.67s.09-.51.09-.79v-.66h-.02c-.21.33-.48.58-.81.73-.33.15-.67.23-1.02.23-.41,0-.78-.07-1.12-.2-.34-.13-.63-.32-.87-.55-.24-.24-.43-.52-.56-.84-.13-.32-.2-.68-.2-1.06,0-.42.07-.8.2-1.14.13-.34.32-.63.56-.86.24-.23.53-.41.87-.54.34-.13.72-.19,1.13-.19.18,0,.35.02.53.06s.35.1.51.19c.17.09.32.19.45.32.13.13.24.28.33.45h.02v-.89h.86v4.95Zm-4.54-2.36c0,.27.05.51.14.74.1.22.23.42.39.59.17.17.36.3.58.39.22.1.46.14.71.14.3,0,.56-.05.79-.15.23-.1.42-.24.58-.42.16-.17.28-.37.36-.6.08-.22.12-.46.12-.71,0-.28-.04-.54-.13-.77-.09-.23-.21-.43-.38-.6s-.36-.3-.59-.39c-.23-.09-.48-.14-.75-.14s-.52.05-.75.15c-.23.1-.42.24-.58.41-.16.17-.28.38-.37.61-.09.23-.13.49-.13.76Z"/><path class="cls-2" d="m59.81,51.8c0-.24,0-.46-.02-.66s-.02-.39-.02-.56h.82c0,.14,0,.28.01.42,0,.14.01.28.01.43h.02c.06-.13.14-.25.25-.37.11-.12.23-.22.38-.32.15-.09.31-.17.5-.22.18-.06.38-.08.6-.08.06,0,.12,0,.18.01.06,0,.12.02.18.04l-.06.87c-.15-.04-.3-.07-.47-.07-.53,0-.92.17-1.16.51s-.36.81-.36,1.41v2.52h-.86v-3.95Z"/><path class="cls-2" d="m66.73,53.16c0-.41.07-.77.21-1.11.14-.33.33-.62.58-.86.24-.24.54-.43.87-.56.34-.13.71-.2,1.11-.2s.77.07,1.11.2c.34.13.63.32.87.56.24.24.44.53.58.86.14.33.21.7.21,1.11s-.07.78-.21,1.11-.33.62-.58.86c-.24.24-.54.43-.87.56-.34.13-.71.2-1.11.2s-.77-.07-1.11-.2c-.34-.13-.63-.32-.87-.56-.24-.24-.44-.53-.58-.86s-.21-.7-.21-1.11Zm.93,0c0,.27.04.53.13.76s.21.44.37.61c.16.17.36.31.58.41.22.1.48.15.76.15s.53-.05.76-.15c.22-.1.42-.24.58-.41.16-.17.29-.38.37-.61s.13-.49.13-.76-.04-.53-.13-.76-.21-.44-.37-.61c-.16-.17-.36-.31-.58-.41-.23-.1-.48-.15-.76-.15s-.53.05-.76.15c-.23.1-.42.24-.58.41-.16.17-.29.38-.37.61s-.13.49-.13.76Z"/><path class="cls-2" d="m82.48,55.75h-.85l-1.47-3.98h-.02l-1.31,3.98h-.89l-1.68-5.18h.95l1.18,3.99h.02l1.34-3.99h.91l1.36,3.99h.02l1.17-3.99h.93l-1.67,5.18Z"/><path class="cls-2" d="m88.44,51.8c0-.24,0-.46-.02-.66s-.02-.39-.02-.56h.82c0,.14,0,.28.01.42,0,.14.01.28.01.43h.02c.06-.13.14-.25.25-.37.11-.12.23-.22.38-.32.15-.09.31-.17.5-.22.18-.06.38-.08.6-.08.34,0,.63.05.88.15.25.1.45.25.61.43.16.18.28.41.36.67.08.26.12.55.12.86v3.2h-.86v-3.11c0-.44-.1-.78-.29-1.03-.19-.25-.49-.38-.9-.38-.28,0-.52.05-.73.14-.2.1-.37.23-.5.41-.13.18-.23.39-.29.63-.06.24-.09.51-.09.81v2.52h-.86v-3.95Z"/><path class="cls-2" d="m115.23,54.52c0,.24,0,.46.02.66.01.21.02.39.02.56h-.82c0-.14,0-.28-.01-.42,0-.14-.01-.28-.01-.43h-.02c-.06.13-.14.25-.25.37-.11.12-.23.22-.38.32s-.31.17-.5.22c-.18.05-.38.08-.6.08-.34,0-.63-.05-.88-.15s-.45-.25-.61-.43c-.16-.18-.28-.41-.36-.67-.08-.26-.12-.55-.12-.86v-3.2h.86v3.11c0,.44.1.78.29,1.03.19.25.49.38.9.38.28,0,.52-.05.73-.14.2-.1.37-.23.5-.41.13-.18.22-.39.29-.63.06-.24.09-.51.09-.81v-2.52h.86v3.95Z"/><path class="cls-2" d="m120.14,50.57h.86v.75h.02c.24-.28.51-.5.82-.65.31-.15.66-.23,1.04-.23.41,0,.78.07,1.11.2.34.14.62.33.86.57s.42.53.55.86c.13.33.2.69.2,1.08s-.07.75-.2,1.09c-.13.33-.32.62-.55.86-.23.24-.51.43-.82.57-.32.14-.66.2-1.02.2-.46,0-.87-.1-1.22-.3-.35-.2-.61-.45-.77-.75h-.02v3.44h-.86v-7.7Zm.86,2.59c0,.27.04.53.13.76.08.23.21.44.37.61.16.17.36.31.58.41.23.1.48.15.76.15s.53-.05.76-.15c.23-.1.42-.24.58-.41.16-.17.29-.38.37-.61s.13-.49.13-.76-.04-.53-.13-.76-.21-.44-.37-.61c-.16-.17-.36-.31-.58-.41-.23-.1-.48-.15-.76-.15s-.53.05-.76.15-.42.24-.58.41-.29.38-.37.61c-.09.23-.13.49-.13.76Z"/><path class="cls-2" d="m143.07,51.8c0-.24,0-.46-.02-.66-.02-.21-.02-.39-.02-.56h.82c0,.14,0,.28.01.42,0,.14.01.28.01.43h.02c.06-.13.14-.25.25-.37s.23-.22.38-.32c.15-.09.31-.17.5-.22s.38-.08.6-.08c.06,0,.12,0,.18.01.06,0,.12.02.18.04l-.06.87c-.15-.04-.3-.07-.46-.07-.53,0-.92.17-1.16.51s-.36.81-.36,1.41v2.52h-.86v-3.95Z"/><path class="cls-2" d="m154.91,54.81c-.31.4-.65.68-1.02.84-.37.16-.8.24-1.28.24-.41,0-.77-.07-1.1-.22-.32-.14-.6-.34-.82-.58-.23-.24-.4-.53-.52-.86-.12-.33-.18-.69-.18-1.06,0-.4.07-.77.2-1.1.13-.34.32-.62.55-.86.24-.24.52-.43.84-.56.32-.13.68-.2,1.06-.2.36,0,.69.06,1,.18.3.12.56.3.78.53.22.23.39.52.5.85.12.34.18.72.18,1.15v.28h-4.18c.01.22.07.43.16.64.09.2.21.38.36.53s.32.27.52.36c.2.09.42.13.65.13.38,0,.69-.07.95-.2.26-.13.49-.33.7-.59l.65.51Zm-.74-2.11c-.01-.44-.16-.8-.43-1.06-.27-.27-.65-.4-1.13-.4s-.87.13-1.16.4c-.3.27-.47.62-.53,1.06h3.25Z"/><path class="cls-2" d="m159.87,54.39c.17.21.36.38.56.51.2.13.46.19.77.19.13,0,.27-.01.4-.04.14-.03.26-.08.37-.14.11-.07.2-.15.27-.25s.1-.22.1-.36-.03-.25-.09-.34c-.06-.09-.15-.16-.25-.23-.1-.06-.22-.11-.35-.15-.13-.04-.27-.07-.41-.1-.24-.05-.48-.11-.7-.18-.22-.07-.41-.15-.58-.26-.17-.11-.3-.25-.4-.42s-.15-.39-.15-.65c0-.25.06-.47.17-.66.11-.19.26-.35.44-.48.18-.13.39-.22.62-.29.23-.07.46-.1.71-.1.37,0,.71.07,1.02.22s.56.39.74.72l-.72.48c-.11-.18-.26-.33-.44-.45s-.4-.17-.66-.17c-.12,0-.24.01-.36.04-.12.03-.23.07-.33.13-.1.06-.17.13-.24.23s-.09.2-.09.32c0,.11.03.2.1.28s.17.15.29.2.26.11.42.15c.16.04.32.08.49.11.23.04.45.1.65.17.21.07.39.16.54.28s.28.27.36.44.13.39.13.65c0,.3-.06.55-.18.75-.12.21-.27.37-.47.5-.2.13-.42.22-.66.28-.25.06-.5.09-.76.09-.44,0-.83-.07-1.15-.2s-.61-.39-.87-.76l.69-.53Z"/><path class="cls-2" d="m167.5,53.16c0-.41.07-.77.21-1.11.14-.33.33-.62.58-.86.24-.24.54-.43.87-.56.34-.13.71-.2,1.11-.2s.77.07,1.11.2.63.32.87.56c.24.24.44.53.58.86.14.33.21.7.21,1.11s-.07.78-.21,1.11-.33.62-.58.86c-.24.24-.54.43-.87.56-.34.13-.71.2-1.11.2s-.77-.07-1.11-.2c-.34-.13-.63-.32-.87-.56-.24-.24-.44-.53-.58-.86s-.21-.7-.21-1.11Zm.93,0c0,.27.04.53.13.76s.21.44.37.61c.16.17.36.31.58.41.23.1.48.15.76.15s.53-.05.76-.15c.23-.1.42-.24.58-.41.16-.17.29-.38.37-.61s.13-.49.13-.76-.04-.53-.13-.76-.21-.44-.37-.61-.36-.31-.58-.41-.48-.15-.76-.15-.53.05-.76.15-.42.24-.58.41c-.16.17-.29.38-.37.61s-.13.49-.13.76Z"/><path class="cls-2" d="m177.69,51.8c0-.24,0-.46-.02-.66-.02-.21-.02-.39-.02-.56h.82c0,.14,0,.28.01.42,0,.14.01.28.01.43h.02c.06-.13.14-.25.25-.37s.23-.22.38-.32c.15-.09.31-.17.5-.22s.38-.08.6-.08c.06,0,.12,0,.18.01.06,0,.12.02.18.04l-.06.87c-.15-.04-.3-.07-.46-.07-.53,0-.92.17-1.16.51s-.36.81-.36,1.41v2.52h-.86v-3.95Z"/><path class="cls-2" d="m187.74,51.3h-1.53v2.59c0,.17,0,.33.01.47,0,.14.04.27.09.38.05.11.13.19.23.25s.25.09.44.09c.13,0,.25-.01.39-.04.13-.03.26-.07.38-.13l.03.79c-.15.07-.31.11-.49.14-.18.03-.35.04-.51.04-.31,0-.56-.04-.74-.12-.18-.08-.33-.2-.43-.34-.1-.15-.17-.33-.2-.55-.03-.22-.05-.46-.05-.73v-2.84h-1.13v-.73h1.13v-1.47h.86v1.47h1.53v.73Z"/><path class="cls-2" d="m192.24,54.39c.17.21.36.38.56.51.2.13.46.19.77.19.13,0,.27-.01.4-.04.14-.03.26-.08.37-.14.11-.07.2-.15.27-.25s.1-.22.1-.36-.03-.25-.09-.34c-.06-.09-.15-.16-.25-.23-.1-.06-.22-.11-.35-.15-.13-.04-.27-.07-.41-.1-.24-.05-.48-.11-.7-.18-.22-.07-.41-.15-.58-.26-.17-.11-.3-.25-.4-.42s-.15-.39-.15-.65c0-.25.06-.47.17-.66.11-.19.26-.35.44-.48.18-.13.39-.22.62-.29.23-.07.46-.1.71-.1.37,0,.71.07,1.02.22s.56.39.74.72l-.72.48c-.11-.18-.26-.33-.44-.45s-.4-.17-.66-.17c-.12,0-.24.01-.36.04-.12.03-.23.07-.33.13-.1.06-.17.13-.24.23s-.09.2-.09.32c0,.11.03.2.1.28s.17.15.29.2.26.11.42.15c.16.04.32.08.49.11.23.04.45.1.65.17.21.07.39.16.54.28s.28.27.36.44.13.39.13.65c0,.3-.06.55-.18.75-.12.21-.27.37-.47.5-.2.13-.42.22-.66.28-.25.06-.5.09-.76.09-.44,0-.83-.07-1.15-.2s-.61-.39-.87-.76l.69-.53Z"/><path class="cls-2" d="m40.9,9.04c-.69-1.12-1.61-1.93-2.76-2.44-1.15-.51-2.35-.76-3.59-.76-.92,0-1.82.12-2.71.35-.89.23-1.68.57-2.39,1.03-.71.46-1.27,1.07-1.7,1.82-.43.75-.64,1.64-.64,2.66,0,.79.12,1.49.37,2.09.25.61.65,1.16,1.21,1.65.56.49,1.31.95,2.27,1.38.95.43,2.12.85,3.5,1.28,1.35.43,2.65.89,3.91,1.38,1.26.49,2.38,1.12,3.35,1.87.97.76,1.74,1.7,2.32,2.83.57,1.13.86,2.55.86,4.26s-.34,3.25-1.03,4.53c-.69,1.28-1.6,2.34-2.73,3.18-1.13.84-2.44,1.46-3.91,1.87-1.48.41-3,.62-4.58.62-1.02,0-2.04-.09-3.05-.27-1.02-.18-1.99-.46-2.93-.84s-1.81-.87-2.63-1.48c-.82-.61-1.53-1.35-2.12-2.24l3.55-2.91c.75,1.28,1.81,2.25,3.15,2.91,1.35.66,2.77.99,4.28.99.89,0,1.78-.13,2.68-.39.9-.26,1.72-.65,2.44-1.16s1.31-1.14,1.77-1.9c.46-.75.69-1.63.69-2.61,0-1.08-.18-1.96-.54-2.63-.36-.67-.92-1.26-1.67-1.75-.76-.49-1.71-.94-2.86-1.33-1.15-.39-2.5-.85-4.04-1.38-1.25-.39-2.4-.84-3.45-1.35-1.05-.51-1.96-1.13-2.73-1.87-.77-.74-1.38-1.63-1.82-2.66s-.66-2.27-.66-3.72c0-1.67.33-3.13.99-4.38.66-1.25,1.54-2.29,2.66-3.13,1.12-.84,2.38-1.47,3.79-1.9,1.41-.43,2.89-.64,4.43-.64,1.97,0,3.77.3,5.39.91,1.63.61,3.08,1.67,4.36,3.18l-3.4,2.96Z"/><path class="cls-2" d="m66.5,2.88h21.91v3.84h-17.78v10.93h16.6v3.84h-16.6v12.41h18.66v3.84h-22.8V2.88Z"/><path class="cls-2" d="m110.48,2.88h21.91v3.84h-17.78v10.93h16.6v3.84h-16.6v12.41h18.66v3.84h-22.8V2.88Z"/><path class="cls-2" d="m151.55,34.06l20.14-27.33h-19.85v-3.84h24.87v3.55l-20.14,27.48h20.39v3.84h-25.41v-3.69Z"/><path class="cls-2" d="m197.5,2.88h5.22l20.19,28.96h.1V2.88h4.14v34.87h-5.22l-20.19-28.96h-.1v28.96h-4.14V2.88Z"/><circle class="cls-2" cx="5.07" cy="35" r="2.99"/><rect class="cls-2" x="2" y="25.24" width="225.15" height="1.12"/></svg>