<?xml version="1.0" encoding="UTF-8"?>
<svg id="_レイヤー_2" data-name="レイヤー 2" xmlns="http://www.w3.org/2000/svg" viewBox="0 0 238.25 59.69">
  <defs>
    <style>
      .cls-1 {
        fill: #fff;
      }
    </style>
  </defs>
  <g id="_レイヤー_1-2" data-name="レイヤー 1">
    <g>
      <g>
        <path class="cls-1" d="m55.98,56.64c0,1-.26,1.76-.77,2.28-.51.52-1.25.78-2.22.78-.54,0-1.03-.08-1.46-.23-.43-.16-.85-.43-1.24-.81l.66-.75c.29.31.6.55.92.71.32.16.7.24,1.12.24s.74-.06,1.01-.18c.27-.12.48-.29.64-.49.16-.21.27-.44.33-.71s.09-.54.09-.83v-.7h-.02c-.22.35-.5.61-.86.77-.35.16-.71.25-1.08.25-.43,0-.82-.07-1.18-.21-.36-.14-.67-.34-.93-.59-.26-.25-.46-.55-.6-.89-.14-.34-.21-.72-.21-1.12,0-.45.07-.85.21-1.21.14-.36.34-.66.59-.91.25-.25.56-.44.92-.57.36-.13.76-.2,1.19-.2.19,0,.38.02.56.06s.37.11.54.2c.18.09.33.2.47.34.14.14.26.3.35.47h.02v-.94h.91v5.24Zm-4.8-2.5c0,.28.05.54.15.78.1.24.24.44.42.62.18.18.38.31.62.42.23.1.48.15.75.15.31,0,.59-.05.83-.16.24-.11.45-.26.62-.44.17-.18.29-.39.38-.63.09-.24.13-.49.13-.76,0-.3-.05-.57-.14-.81-.09-.25-.23-.46-.4-.64s-.38-.32-.62-.42c-.24-.1-.51-.15-.8-.15s-.55.05-.79.16c-.24.11-.44.25-.61.43-.17.18-.3.4-.39.64-.09.25-.14.51-.14.8Z"/>
        <path class="cls-1" d="m61.18,52.7c0-.25,0-.48-.02-.7s-.02-.42-.02-.6h.87c0,.15,0,.3.01.45,0,.15.01.3.01.46h.02c.06-.13.15-.26.26-.39.11-.12.25-.24.4-.33.16-.1.33-.18.53-.23.19-.06.41-.09.63-.09.06,0,.12,0,.19.01.06,0,.12.02.19.05l-.06.93c-.16-.05-.32-.07-.49-.07-.56,0-.97.18-1.22.54s-.38.86-.38,1.49v2.67h-.91v-4.18Z"/>
        <path class="cls-1" d="m68.5,54.14c0-.43.07-.82.22-1.17.15-.35.35-.65.61-.91.26-.25.57-.45.93-.59.36-.14.75-.21,1.17-.21s.81.07,1.17.21c.36.14.67.34.93.59.26.25.46.56.61.91.15.35.22.74.22,1.17s-.07.82-.22,1.17-.35.65-.61.91c-.26.25-.57.45-.93.59-.36.14-.75.21-1.17.21s-.81-.07-1.17-.21c-.36-.14-.67-.34-.93-.59-.26-.25-.46-.56-.61-.91s-.22-.74-.22-1.17Zm.98,0c0,.29.05.56.13.8s.22.46.39.64c.17.18.38.33.62.43.24.11.51.16.8.16s.56-.05.8-.16c.24-.11.44-.25.61-.43.17-.18.3-.4.39-.64s.13-.51.13-.8-.05-.56-.13-.8-.22-.46-.39-.64c-.17-.18-.38-.33-.61-.43-.24-.11-.51-.16-.8-.16s-.56.05-.8.16c-.24.11-.44.25-.62.43-.17.18-.3.4-.39.64s-.13.51-.13.8Z"/>
        <path class="cls-1" d="m85.16,56.88h-.9l-1.56-4.22h-.02l-1.38,4.22h-.94l-1.78-5.48h1.01l1.25,4.22h.02l1.42-4.22h.96l1.44,4.22h.02l1.24-4.22h.98l-1.77,5.48Z"/>
        <path class="cls-1" d="m91.48,52.7c0-.25,0-.48-.02-.7s-.02-.42-.02-.6h.87c0,.15,0,.3.01.45,0,.15.01.3.01.46h.02c.06-.13.15-.26.26-.39.11-.12.25-.24.4-.33.16-.1.33-.18.53-.23.19-.06.41-.09.63-.09.36,0,.67.05.93.16.26.11.48.26.65.46.17.2.3.43.38.71.08.28.12.58.12.91v3.38h-.91v-3.29c0-.46-.1-.82-.3-1.09-.2-.27-.52-.4-.95-.4-.3,0-.55.05-.77.15-.21.1-.39.25-.53.43-.14.19-.24.41-.3.67-.07.26-.1.54-.1.86v2.67h-.91v-4.18Z"/>
        <path class="cls-1" d="m119.82,55.58c0,.25,0,.48.02.7.02.22.02.42.02.6h-.87c0-.15,0-.3-.01-.45,0-.15-.01-.3-.01-.46h-.02c-.06.13-.15.26-.26.39-.11.12-.25.24-.4.33s-.33.18-.53.23c-.19.06-.41.09-.63.09-.36,0-.67-.05-.93-.16s-.48-.26-.65-.46c-.17-.19-.3-.43-.38-.71-.08-.28-.12-.58-.12-.91v-3.39h.91v3.29c0,.46.1.82.3,1.09.2.27.52.4.95.4.3,0,.55-.05.77-.15.21-.1.39-.25.53-.43.14-.19.24-.41.3-.67.07-.26.1-.54.1-.86v-2.67h.91v4.18Z"/>
        <path class="cls-1" d="m125.02,51.4h.91v.8h.02c.25-.3.54-.53.87-.69.33-.16.7-.25,1.1-.25.43,0,.82.07,1.18.22.35.14.66.35.91.6s.45.56.59.91c.14.35.21.73.21,1.15s-.07.8-.21,1.15c-.14.35-.33.66-.58.91-.25.26-.54.46-.87.6-.34.14-.7.22-1.08.22-.49,0-.92-.11-1.29-.32-.37-.21-.64-.48-.81-.79h-.02v3.64h-.91v-8.15Zm.91,2.74c0,.29.04.56.13.8.09.25.22.46.39.64.17.18.38.33.61.43.24.11.51.16.8.16s.56-.05.8-.16c.24-.11.44-.25.62-.43.17-.18.3-.4.39-.64s.14-.51.14-.8-.05-.56-.14-.8-.22-.46-.39-.64c-.17-.18-.38-.33-.62-.43-.24-.11-.51-.16-.8-.16s-.56.05-.8.16-.44.25-.61.43-.3.4-.39.64c-.09.25-.13.51-.13.8Z"/>
        <path class="cls-1" d="m149.28,52.7c0-.25,0-.48-.02-.7-.02-.22-.02-.42-.02-.6h.87c0,.15,0,.3.01.45,0,.15.01.3.01.46h.02c.06-.13.15-.26.26-.39s.25-.24.4-.33c.16-.1.33-.18.53-.23s.41-.09.63-.09c.06,0,.12,0,.19.01.06,0,.12.02.19.05l-.06.93c-.16-.05-.32-.07-.49-.07-.56,0-.97.18-1.22.54s-.38.86-.38,1.49v2.67h-.91v-4.18Z"/>
        <path class="cls-1" d="m161.82,55.89c-.33.42-.69.72-1.08.88-.39.17-.84.25-1.36.25-.43,0-.82-.08-1.16-.23-.34-.15-.63-.36-.87-.62-.24-.26-.42-.56-.55-.91-.13-.35-.19-.73-.19-1.12,0-.42.07-.81.21-1.17.14-.36.34-.66.59-.91.25-.25.55-.45.89-.59.34-.14.72-.21,1.12-.21.38,0,.73.06,1.05.19.32.13.59.32.83.56.23.25.41.55.53.9.12.36.19.76.19,1.21v.29h-4.43c.02.23.07.46.17.67.1.21.22.4.38.56s.34.29.55.38c.21.09.44.14.69.14.4,0,.73-.07,1.01-.21.27-.14.52-.35.74-.62l.69.54Zm-.79-2.24c-.02-.47-.17-.84-.46-1.12-.29-.28-.69-.42-1.19-.42s-.92.14-1.23.42c-.31.28-.5.66-.56,1.12h3.44Z"/>
        <path class="cls-1" d="m167.06,55.44c.18.23.38.41.59.54.21.13.49.2.81.2.14,0,.28-.02.43-.05.14-.03.28-.08.39-.15.12-.07.21-.16.28-.26s.1-.23.1-.38-.03-.27-.1-.36c-.07-.09-.15-.17-.26-.24-.11-.07-.23-.12-.37-.16-.14-.04-.29-.07-.43-.11-.26-.05-.5-.12-.74-.19-.23-.07-.44-.16-.61-.28-.18-.11-.32-.26-.42-.44s-.16-.41-.16-.69c0-.27.06-.5.18-.7.12-.2.27-.37.47-.5.2-.13.41-.23.66-.3.24-.07.49-.11.75-.11.39,0,.75.08,1.08.23s.59.41.78.76l-.76.5c-.12-.19-.27-.35-.46-.47s-.42-.18-.7-.18c-.12,0-.25.02-.38.05-.13.03-.24.08-.35.14-.1.06-.18.14-.25.24s-.1.21-.1.33c0,.12.04.22.11.3s.18.15.31.22.28.12.45.16c.17.05.34.09.52.12.24.05.47.11.69.18.22.07.41.17.57.3s.29.28.39.47.14.42.14.69c0,.31-.06.58-.19.8-.12.22-.29.4-.5.53-.21.14-.44.24-.7.3-.26.06-.53.09-.8.09-.47,0-.87-.07-1.21-.22s-.65-.41-.92-.8l.73-.56Z"/>
        <path class="cls-1" d="m175.13,54.14c0-.43.07-.82.22-1.17.15-.35.35-.65.61-.91.26-.25.57-.45.93-.59.36-.14.75-.21,1.17-.21s.81.07,1.17.21.67.34.93.59c.26.25.46.56.61.91.15.35.22.74.22,1.17s-.07.82-.22,1.17-.35.65-.61.91c-.26.25-.57.45-.93.59-.36.14-.75.21-1.17.21s-.81-.07-1.17-.21c-.36-.14-.67-.34-.93-.59-.26-.25-.46-.56-.61-.91s-.22-.74-.22-1.17Zm.98,0c0,.29.04.56.13.8s.22.46.39.64c.17.18.38.33.61.43.24.11.51.16.8.16s.56-.05.8-.16c.24-.11.44-.25.61-.43.17-.18.3-.4.39-.64s.13-.51.13-.8-.04-.56-.13-.8-.22-.46-.39-.64-.38-.33-.61-.43-.51-.16-.8-.16-.56.05-.8.16-.44.25-.61.43c-.17.18-.3.4-.39.64s-.13.51-.13.8Z"/>
        <path class="cls-1" d="m185.92,52.7c0-.25,0-.48-.02-.7-.02-.22-.02-.42-.02-.6h.87c0,.15,0,.3.01.45,0,.15.01.3.01.46h.02c.06-.13.15-.26.26-.39s.25-.24.4-.33c.16-.1.33-.18.53-.23s.41-.09.63-.09c.06,0,.12,0,.19.01.06,0,.12.02.19.05l-.06.93c-.16-.05-.32-.07-.49-.07-.56,0-.97.18-1.22.54s-.38.86-.38,1.49v2.67h-.91v-4.18Z"/>
        <path class="cls-1" d="m196.56,52.17h-1.62v2.74c0,.18,0,.35.01.5,0,.15.04.29.09.4.05.11.14.2.25.27s.26.1.47.1c.13,0,.27-.02.41-.05.14-.03.27-.08.4-.14l.04.83c-.16.07-.33.12-.52.15-.19.03-.37.05-.54.05-.33,0-.59-.04-.78-.13-.2-.09-.35-.21-.46-.36-.11-.16-.18-.35-.22-.58-.04-.23-.05-.49-.05-.77v-3.01h-1.2v-.77h1.2v-1.56h.91v1.56h1.62v.77Z"/>
        <path class="cls-1" d="m201.31,55.44c.18.23.38.41.59.54.21.13.49.2.81.2.14,0,.28-.02.43-.05.14-.03.28-.08.39-.15.12-.07.21-.16.28-.26s.1-.23.1-.38-.03-.27-.1-.36c-.07-.09-.15-.17-.26-.24-.11-.07-.23-.12-.37-.16-.14-.04-.29-.07-.43-.11-.26-.05-.5-.12-.74-.19-.23-.07-.44-.16-.61-.28-.18-.11-.32-.26-.42-.44s-.16-.41-.16-.69c0-.27.06-.5.18-.7.12-.2.27-.37.47-.5.2-.13.41-.23.66-.3.24-.07.49-.11.75-.11.39,0,.75.08,1.08.23s.59.41.78.76l-.76.5c-.12-.19-.27-.35-.46-.47s-.42-.18-.7-.18c-.12,0-.25.02-.38.05-.13.03-.24.08-.35.14-.1.06-.18.14-.25.24s-.1.21-.1.33c0,.12.04.22.11.3s.18.15.31.22.28.12.45.16c.17.05.34.09.52.12.24.05.47.11.69.18.22.07.41.17.57.3s.29.28.39.47.14.42.14.69c0,.31-.06.58-.19.8-.12.22-.29.4-.5.53-.21.14-.44.24-.7.3-.26.06-.53.09-.8.09-.47,0-.87-.07-1.21-.22s-.65-.41-.92-.8l.73-.56Z"/>
      </g>
      <g>
        <path class="cls-1" d="m41.16,7.45c-.73-1.18-1.7-2.04-2.92-2.58-1.22-.54-2.48-.81-3.8-.81-.97,0-1.93.12-2.87.37s-1.78.61-2.53,1.09c-.75.49-1.35,1.13-1.8,1.93-.45.8-.68,1.74-.68,2.81,0,.83.13,1.57.39,2.21.26.64.69,1.22,1.28,1.75.59.52,1.39,1.01,2.4,1.46,1.01.45,2.24.9,3.7,1.36,1.42.45,2.81.94,4.14,1.46,1.34.52,2.52,1.18,3.54,1.98,1.02.8,1.84,1.8,2.45,3,.61,1.2.91,2.7.91,4.51s-.36,3.44-1.09,4.79c-.73,1.35-1.69,2.48-2.89,3.36-1.2.89-2.58,1.55-4.14,1.98-1.56.43-3.18.65-4.85.65-1.08,0-2.15-.1-3.23-.29-1.08-.19-2.11-.49-3.1-.89s-1.92-.92-2.79-1.56c-.87-.64-1.62-1.43-2.24-2.37l3.75-3.07c.8,1.35,1.91,2.38,3.34,3.07,1.42.7,2.93,1.04,4.53,1.04.94,0,1.88-.14,2.84-.42.96-.28,1.81-.69,2.58-1.22s1.39-1.21,1.88-2.01c.49-.8.73-1.72.73-2.76,0-1.15-.19-2.08-.57-2.79-.38-.71-.97-1.33-1.77-1.85-.8-.52-1.81-.99-3.02-1.41-1.22-.42-2.64-.9-4.27-1.46-1.32-.42-2.54-.89-3.65-1.43-1.11-.54-2.08-1.2-2.89-1.98-.82-.78-1.46-1.72-1.93-2.81s-.7-2.4-.7-3.93c0-1.77.35-3.32,1.04-4.64.69-1.32,1.63-2.42,2.81-3.31,1.18-.89,2.52-1.55,4.01-2.01,1.49-.45,3.06-.68,4.69-.68,2.08,0,3.99.32,5.71.96,1.72.64,3.26,1.76,4.61,3.36l-3.6,3.13Z"/>
        <path class="cls-1" d="m68.26.94h23.19v4.06h-18.81v11.57h17.56v4.06h-17.56v13.13h19.75v4.06h-24.13V.94Z"/>
        <path class="cls-1" d="m114.8.94h23.19v4.06h-18.81v11.57h17.56v4.06h-17.56v13.13h19.75v4.06h-24.13V.94Z"/>
        <path class="cls-1" d="m158.26,33.93l21.31-28.92h-21V.94h26.32v3.75l-21.31,29.08h21.57v4.06h-26.89v-3.91Z"/>
        <path class="cls-1" d="m206.88.94h5.52l21.37,30.64h.1V.94h4.38v36.9h-5.52l-21.37-30.64h-.1v30.64h-4.38V.94Z"/>
      </g>
      <circle class="cls-1" cx="3.25" cy="34.93" r="3.17"/>
      <rect class="cls-1" y="24.6" width="238.25" height="1.19"/>
    </g>
  </g>
</svg>